<?xml version="1.0" standalone="no"?>
<!DOCTYPE svg PUBLIC "-//W3C//DTD SVG 1.1//EN" "http://www.w3.org/Graphics/SVG/1.1/DTD/svg11.dtd" >
<svg>
<metadata>
Created by FontForge 20090914 at Thu Dec  3 09:27:41 2015
 By www-data
Digitized data copyright The Monotype Corporation 1991-1995. All rights reserved. Book Antiqua&#226;&#132;&#162; is a trademark of The Monotype Corporation which may be registered in certain jurisdictions.
</metadata>
<defs>
<font id="BookAntiqua-Italic" horiz-adv-x="1024" >
  <font-face 
    font-family="Book Antiqua"
    font-weight="400"
    font-style="italic"
    font-stretch="normal"
    units-per-em="2048"
    panose-1="2 4 5 2 5 3 5 10 3 4"
    ascent="1638"
    descent="-410"
    x-height="969"
    cap-height="1416"
    bbox="-354 -628 2171 2132"
    underline-thickness="119"
    underline-position="-209"
    slope="-9.5"
    unicode-range="U+0020-U+F108"
  />
<missing-glyph horiz-adv-x="1536" 
d="M256 0v1280h1024v-1280h-1024zM288 32h960v1216h-960v-1216z" />
    <glyph glyph-name=".notdef" horiz-adv-x="1536" 
d="M256 0v1280h1024v-1280h-1024zM288 32h960v1216h-960v-1216z" />
    <glyph glyph-name="space" unicode=" " horiz-adv-x="512" 
 />
    <glyph glyph-name="exclam" unicode="!" horiz-adv-x="682" 
d="M586 1436l25 -17c-80 -279.333 -163 -616.333 -249 -1011c-20 -10 -40 -21.333 -60 -34l-15 10c58 357.333 98.667 691 122 1001c66.667 16.667 125.667 33.667 177 51zM269 -27c-26.667 0 -48.668 9.16699 -66.001 27.5s-26 43.166 -26 74.499
c0 40.667 11.833 74.5 35.5 101.5s52.167 40.5 85.5 40.5c26.667 0 48.334 -8.83301 65.001 -26.5s25 -41.167 25 -70.5c0 -43.333 -11.5 -78.666 -34.5 -105.999s-51.167 -41 -84.5 -41z" />
    <glyph glyph-name="quotedbl" unicode="&#x22;" 
d="M315 822l-31.001 458l-2 59c0 34 6.33301 58.667 19 74s29.334 23 50.001 23c20 0 36 -6.5 48 -19.5s18 -30.5 18 -52.5c0 -12 -1.33301 -33 -4 -63l-37 -467c-2 -28.667 -11.333 -43 -28 -43c-20.667 0 -31.667 10.333 -33 31zM641.999 822l-30 458
c-1.33301 24 -2 44.333 -2 61c0 32.667 6.33301 56.667 19 72s29.334 23 50.001 23c20 0 35.833 -6.66699 47.5 -20s17.5 -31.333 17.5 -54c0 -12 -1 -32.333 -3 -61l-37 -467c-2.66699 -28.667 -12.334 -43 -29.001 -43c-20.667 0 -31.667 10.333 -33 31z" />
    <glyph glyph-name="numbersign" unicode="#" horiz-adv-x="1241" 
d="M1083 583v-138h-216l-64 -445h-141l65 445h-276l-67 -445h-139l68 445h-209v138h230l43 273h-216v139h235l63 414h137l-62 -414h275l60 414h140l-61 -414h191v-139h-211l-39 -273h194zM789 856h-276l-40 -273h274z" />
    <glyph glyph-name="dollar" unicode="$" 
d="M103 369l58.002 -0.00292969l-2 -84l2 -98c34.667 -34 68 -58.667 100 -74s76.333 -27.333 133 -36l88 559c-106 22.667 -180.333 52.334 -223 89.001c-55.333 48 -83 115.667 -83 203c0 70 16.333 136.167 49 198.5s79.667 115.333 141 159s139.333 76.167 234 97.5
l16 132l39 -1l40 1c-8.66699 -40.667 -17 -84.667 -25 -132c68.667 -1.33301 121.5 -6.66602 158.5 -15.999s78.5 -26.666 124.5 -51.999v-19c-16.667 -60 -33.334 -139.333 -50.001 -238h-51l2 110l-2 42c-24 25.333 -49.833 44.5 -77.5 57.5s-67.167 22.5 -118.5 28.5
l-83 -524c100 -17.333 171 -37.333 213 -60s74.833 -54.5 98.5 -95.5s35.5 -86.167 35.5 -135.5c0 -74 -19 -146.5 -57 -217.5s-88.667 -128.167 -152 -171.5s-150 -76.333 -260 -99l-27 -212h-86c16 68.667 29.667 137 41 205c-67.333 2 -125.333 10 -174 24
s-97.334 36.333 -146.001 67v11c24 75.333 38.667 169 44 281zM584.002 1296c-63.333 -6.66699 -112.832 -21.834 -148.499 -45.501s-64.834 -58.667 -87.501 -105s-34 -97.166 -34 -152.499c0 -62 18.333 -110.667 55 -146c26.667 -25.333 72.667 -46 138 -62z
M465.003 76.9971c68.667 4 122.833 18.667 162.5 44s73.167 64.833 100.5 118.5s41 111.167 41 172.5c0 64 -21.667 114.667 -65 152c-30.667 26 -81 46.333 -151 61z" />
    <glyph glyph-name="percent" unicode="%" horiz-adv-x="1821" 
d="M594 1393c68.667 0 127.332 -24.833 175.999 -74.5s73 -110.167 73 -181.5c0 -66 -15.833 -129.167 -47.5 -189.5s-74.167 -106.666 -127.5 -138.999s-110 -48.5 -170 -48.5c-70 0 -128 24.5 -174 73.5s-69 113.5 -69 193.5c0 64.667 15.333 125.667 46 183
s72.834 102.166 126.501 134.499s109.167 48.5 166.5 48.5zM388.998 958c0 -50.667 10.333 -88.833 31 -114.5s47 -38.5 79 -38.5c62 0 112.333 43.167 151 129.5s58 177.833 58 274.5c0 44.667 -10.333 79 -31 103s-47.667 36 -81 36c-64 0 -114.5 -41.5 -151.5 -124.5
s-55.5 -171.5 -55.5 -265.5zM355.998 -87.999c50 71.333 84 121.333 102 150l785 1254c28.667 46 55.667 93.667 81 143c29.333 -3.33301 53.333 -5 72 -5l38 2c-27.333 -36.667 -64.666 -92.334 -111.999 -167.001l-772 -1232
c-38.667 -61.333 -67.334 -109.666 -86.001 -144.999l-55 3c-11.333 0 -29 -1 -53 -3zM1288 616.001c68.667 0 127.332 -24.833 175.999 -74.5s73 -110.167 73 -181.5c0 -66 -15.833 -129.167 -47.5 -189.5s-74.167 -106.666 -127.5 -138.999s-110 -48.5 -170 -48.5
c-70 0 -128 24.5 -174 73.5s-69 113.5 -69 193.5c0 64.667 15.333 125.667 46 183s72.834 102.166 126.501 134.499s109.167 48.5 166.5 48.5zM1083 181.001c0 -50.667 10.333 -88.833 31 -114.5s47 -38.5 79 -38.5c62 0 112.333 43.167 151 129.5s58 177.833 58 274.5
c0 44.667 -10.333 79 -31 103s-47.667 36 -81 36c-64 0 -114.5 -41.5 -151.5 -124.5s-55.5 -171.5 -55.5 -265.5z" />
    <glyph glyph-name="ampersand" unicode="&#x26;" horiz-adv-x="1593" 
d="M831 432l-46.9961 7.00098l14 208c34 31.333 68.5 53.666 103.5 66.999s105.5 27.333 211.5 42c139.333 20 230.833 37 274.5 51s75.334 33.167 95.001 57.5s29.5 50.833 29.5 79.5c0 22.667 -5.33301 42.167 -16 58.5s-30.334 32.833 -59.001 49.5l43 38
c41.333 -25.333 69.166 -50 83.499 -74s21.5 -54.667 21.5 -92c0 -47.333 -12.833 -90.666 -38.5 -129.999s-62.834 -70 -111.501 -92c-32.667 -15.333 -121 -34.333 -265 -57c53.333 -17.333 91.333 -40 114 -68s34 -62 34 -102c0 -116 -65 -225 -195 -327
c-148.667 -116.667 -321.667 -175 -519 -175c-151.333 0 -271.333 38.5 -360 115.5s-133 172.5 -133 286.5c0 65.333 14.333 125.666 43 180.999s68.167 101 118.5 137s140.166 75.333 269.499 118c-58 24.667 -99.333 54.5 -124 89.5s-37 77.167 -37 126.5
c0 89.333 48.667 176.333 146 261c114.667 98.667 229 148 343 148c38 0 71.167 -4.16699 99.5 -12.5s60.5 -23.833 96.5 -46.5c-20 -82.667 -36.667 -162.667 -50 -240l-49 1c0 51.333 -0.666992 91.666 -2 120.999c-29.333 25.333 -57.5 43 -84.5 53s-58.167 15 -93.5 15
c-75.333 0 -137.166 -22.833 -185.499 -68.5s-72.5 -102.5 -72.5 -170.5c0 -66.667 24 -119.667 72 -159c48 -40 119 -59.333 213 -58c-16 -34 -29.333 -68.333 -40 -103c-38.667 5.33301 -68.334 8 -89.001 8c-71.333 0 -139 -16.333 -203 -49
s-112.5 -76.334 -145.5 -131.001s-49.5 -114.667 -49.5 -180c0 -98 37.5 -179.833 112.5 -245.5s175.5 -98.5 301.5 -98.5c138.667 0 251.5 35.833 338.5 107.5s130.5 153.834 130.5 246.501c0 55.333 -15.833 98.5 -47.5 129.5s-75.5 46.5 -131.5 46.5
c-30.667 0 -56.834 -5.5 -78.501 -16.5s-38.167 -25.833 -49.5 -44.5c-8 -13.333 -18.667 -49.666 -32 -108.999z" />
    <glyph glyph-name="quotesingle" unicode="'" horiz-adv-x="682" 
d="M308 822l-31 458.001l-2 59c0 34 6.33301 58.667 19 74s29.667 23 51 23c19.333 0 35 -6.66699 47 -20s18 -31 18 -53c0 -12.667 -1.33301 -33.334 -4 -62.001l-37 -467c-2 -28.667 -11.667 -43 -29 -43c-20 0 -30.667 10.333 -32 31z" />
    <glyph glyph-name="parenleft" unicode="(" horiz-adv-x="682" 
d="M437 -374c-82 122 -143.665 236.999 -184.998 344.999c-57.333 152.667 -86 304.667 -86 456c0 212.667 55.333 411.667 166 597c87.333 146 223.333 300 408 462l47 -51c-82 -78 -148 -154 -198 -228c-84.667 -125.333 -149.334 -259.166 -194.001 -401.499
s-67 -297.5 -67 -465.5c0 -131.333 12.667 -249.333 38 -354s67.666 -213 126.999 -325z" />
    <glyph glyph-name="parenright" unicode=")" horiz-adv-x="682" 
d="M283 1486c82 -122 144.001 -238.667 186.001 -350c56.667 -151.333 85 -301.333 85 -450c0 -213.333 -55 -412.333 -165 -597c-86.667 -145.333 -223 -299.666 -409 -462.999l-47 51c81.333 77.333 147 152.666 197 225.999c84.667 125.333 149.5 259.5 194.5 402.5
s67.5 298.5 67.5 466.5c0 131.333 -12.833 249.833 -38.5 355.5s-67.834 213.5 -126.501 323.5z" />
    <glyph glyph-name="asterisk" unicode="*" horiz-adv-x="797" 
d="M265 845l-23.999 1.99902c-20 52 -37.333 91 -52 117l4 13c110.667 42.667 199 80.334 265 113.001l-265 130l-8 21c24 34.667 46 71.334 66 110.001h19c44.667 -48 116.334 -120.333 215.001 -217l46 290l19 12c45.333 -16 87.666 -28.667 126.999 -38l3 -18
c-45.333 -74.667 -94.333 -163 -147 -265l287 49l14 -10c3.33301 -38.667 8.66602 -78.334 15.999 -119.001l-15 -12c-81.333 13.333 -181.333 27.333 -300 42l136 -247l-4 -13c-38.667 -15.333 -79 -35.333 -121 -60l-15 12c-10.667 96 -26.667 191 -48 285z" />
    <glyph glyph-name="plus" unicode="+" horiz-adv-x="1241" 
d="M117 635v139h434v434h139v-434h434v-139h-434v-434h-139v434h-434z" />
    <glyph glyph-name="comma" unicode="," horiz-adv-x="512" 
d="M326 233l22.998 -27.001c-98.667 -202 -203.667 -364.333 -315 -487c-23.333 -10.667 -46.666 -20 -69.999 -28l-16 20c54 72.667 94.833 141.834 122.5 207.501s51.834 152.167 72.501 259.5c49.333 12.667 110.333 31 183 55z" />
    <glyph glyph-name="hyphen" unicode="-" horiz-adv-x="682" 
d="M44 427l-3.00293 15c15.333 38.667 29.333 78 42 118c140.667 -4.66699 247.667 -7 321 -7c70.667 0 147.334 2 230.001 6l3 -10c-19.333 -44.667 -34.666 -85.667 -45.999 -123c-123.333 5.33301 -229.333 8 -318 8c-71.333 0 -147.666 -2.33301 -228.999 -7z" />
    <glyph glyph-name="hyphen" unicode="&#xad;" horiz-adv-x="682" 
d="M44 427l-3.00293 15c15.333 38.667 29.333 78 42 118c140.667 -4.66699 247.667 -7 321 -7c70.667 0 147.334 2 230.001 6l3 -10c-19.333 -44.667 -34.666 -85.667 -45.999 -123c-123.333 5.33301 -229.333 8 -318 8c-71.333 0 -147.666 -2.33301 -228.999 -7z" />
    <glyph glyph-name="period" unicode="." horiz-adv-x="512" 
d="M210 -27c-26.667 0 -48.501 9.16602 -65.501 27.499s-25.5 42.833 -25.5 73.5c0 41.333 11.833 75.5 35.5 102.5s51.834 40.5 84.501 40.5c26 0 47.333 -8.83301 64 -26.5s25 -41.167 25 -70.5c0 -43.333 -11.333 -78.666 -34 -105.999s-50.667 -41 -84 -41z" />
    <glyph glyph-name="slash" unicode="/" horiz-adv-x="606" 
d="M-252 -327l98.999 169l780 1457c28 52.667 55 108.334 81 167.001c48 -4 81.333 -6 100 -6l52 2c-28 -44 -65 -109 -111 -195l-772 -1430c-35.333 -66.667 -62.666 -121.334 -81.999 -164.001l-73 4c-17.333 0 -42 -1.33301 -74 -4z" />
    <glyph glyph-name="zero" unicode="0" 
d="M89 482c0 184.667 31.335 360.666 94.002 527.999c53.333 144 119.666 247.5 198.999 310.5s165 94.5 257 94.5c107.333 0 193 -39.5 257 -118.5s96 -202.833 96 -371.5c0 -188 -31.667 -367.333 -95 -538c-52.667 -143.333 -119.834 -248.166 -201.501 -314.499
s-166.834 -99.5 -255.501 -99.5c-105.333 0 -190.166 41 -254.499 123s-96.5 210.667 -96.5 386zM242.002 380.999c0 -124 19 -212.667 57 -266s87.667 -80 149 -80c50.667 0 95.334 19.667 134.001 59c66 66.667 123.833 186 173.5 358s74.5 352.333 74.5 541
c0 136.667 -17.833 231 -53.5 283s-84.834 78 -147.501 78c-64 0 -125.5 -36.5 -184.5 -109.5s-107.5 -197.667 -145.5 -374s-57 -339.5 -57 -489.5z" />
    <glyph glyph-name="one" unicode="1" 
d="M131 -7l6.99902 59.002l92 7c56.667 4 95.667 12 117 24c14.667 9.33301 28 24.833 40 46.5s25 74.5 39 158.5l90 538c27.333 163.333 50.666 315 69.999 455c-73.333 -28.667 -202.333 -83.334 -387 -164.001h-13c8 47.333 14.333 89 19 125
c92.667 20 190.334 47.167 293.001 81.5s186.334 67.5 251.001 99.5l32 -23c-54.667 -270 -93 -472.333 -115 -607l-84 -547c-2.66699 -26 -4 -51.667 -4 -77c0 -48 12.333 -77.333 37 -88s99.667 -20.334 225 -29.001l-10 -59c-126 4.66699 -235 7 -327 7
c-96.667 0 -220.667 -2.33301 -372 -7z" />
    <glyph glyph-name="two" unicode="2" 
d="M28 -7l0.000976562 41c296 301.333 491.333 530.333 586 687c70.667 116 106 223.333 106 322c0 78 -20.333 138 -61 180s-96 63 -166 63c-58 0 -110.333 -16.5 -157 -49.5s-93 -92.833 -139 -179.5l-47 22l125 241c43.333 32 88 55.833 134 71.5s93 23.5 141 23.5
c104.667 0 187.834 -30.333 249.501 -91s92.5 -142 92.5 -244c0 -47.333 -6.33301 -92.833 -19 -136.5s-35.834 -93.167 -69.501 -148.5s-96.5 -133.333 -188.5 -234l-391 -415v-13h306c124 0 239 4.33301 345 13l11 -13c-6 -20 -17 -66.667 -33 -140
c-140.667 4.66699 -286.334 7 -437.001 7c-134 0 -263.333 -2.33301 -388 -7z" />
    <glyph glyph-name="three" unicode="3" 
d="M90 358l50.0039 -8.00391c-6 -42 -9 -74 -9 -96c0 -60 22.667 -109.167 68 -147.5s106 -57.5 182 -57.5c96 0 177.5 38.167 244.5 114.5s100.5 173.833 100.5 292.5c0 90 -24.333 158.667 -73 206s-118 71 -208 71c-46 0 -99 -8.33301 -159 -25l-9 7l37 102
c50.667 -6.66699 83.334 -10 98.001 -10c52.667 0 104.5 14 155.5 42s90.5 64.5 118.5 109.5s42 92.167 42 141.5c0 59.333 -18.333 106.833 -55 142.5s-87.334 53.5 -152.001 53.5c-50.667 0 -95.167 -11.167 -133.5 -33.5s-82.833 -68.166 -133.5 -137.499l-41 27
c44.667 70 84 137 118 201c43.333 20.667 85.166 36.167 125.499 46.5s79.166 15.5 116.499 15.5c99.333 0 176 -24.833 230 -74.5s81 -114.167 81 -193.5c0 -41.333 -8.66699 -82 -26 -122s-40.5 -73.5 -69.5 -100.5s-93.167 -70.167 -192.5 -129.5
c91.333 -24 154.666 -48.167 189.999 -72.5s63.833 -58.666 85.5 -102.999s32.5 -94.166 32.5 -149.499c0 -83.333 -24.5 -163.833 -73.5 -241.5s-117.333 -139.667 -205 -186s-183.167 -69.5 -286.5 -69.5c-56.667 0 -108.5 7 -155.5 21s-97.5 38.667 -151.5 74
c23.333 98.667 42.666 195.334 57.999 290.001z" />
    <glyph glyph-name="four" unicode="4" 
d="M219 -7l7.99805 58.002l100 6c80 4 127.833 14 143.5 30s34.167 75 55.5 177l24 123h-305c-87.333 0 -161 -1.66699 -221 -5v62c78.667 122.667 175 262 289 418c143.333 196 276.666 370.333 399.999 523c44.667 10 90.334 22 137.001 36l24 -12
c-32 -140.667 -53.667 -243.667 -65 -309l-101 -594h93c72 0 129.333 2.33301 172 7l10 -7c-14 -38 -26.667 -79.333 -38 -124c-76 3.33301 -136.333 5 -181 5h-63l-28 -127c-9.33301 -42.667 -14 -84.334 -14 -125.001c0 -28.667 8.33301 -47.334 25 -56.001
s91.334 -18 224.001 -28l-10 -58c-128 4.66699 -243 7 -345 7c-109.333 0 -220.666 -2.33301 -333.999 -7zM694.998 1252c-64 -79.333 -139.666 -179.333 -226.999 -300c-130.667 -180.667 -231.667 -324.667 -303 -432l9 -12c53.333 -1.33301 130.666 -2 231.999 -2h163z
" />
    <glyph glyph-name="five" unicode="5" 
d="M59 352l51.0029 -7.99902c-4 -32 -6 -56 -6 -72c0 -67.333 21.333 -119.666 64 -156.999c50 -44 114.667 -66 194 -66c62 0 118.667 17.167 170 51.5s93.666 88.666 126.999 162.999s50 154.833 50 241.5c0 85.333 -22.833 152.166 -68.5 200.499
s-105.834 72.5 -180.501 72.5c-46 0 -89.5 -9.66699 -130.5 -29s-82.5 -51.666 -124.5 -96.999l-44 21c49.333 219.333 91.666 452.666 126.999 699.999l15 16c123.333 -11.333 240.666 -17 351.999 -17c84.667 0 187 3 307 9l14 -20c-36 -56.667 -60.333 -96 -73 -118
c-104.667 -5.33301 -193.667 -8 -267 -8c-79.333 0 -174 2.66699 -284 8l-101 -474c51.333 36.667 97 61.667 137 75s85.333 20 136 20c114 0 202.333 -29.833 265 -89.5s94 -141.834 94 -246.501c0 -100.667 -23.667 -192.167 -71 -274.5s-116.333 -149.666 -207 -201.999
s-187 -78.5 -289 -78.5c-58.667 0 -112.167 7.33301 -160.5 22s-99.166 40 -152.499 76c26 107.333 44.667 201 56 281z" />
    <glyph glyph-name="six" unicode="6" 
d="M933 1280l-16.999 0.00390625c-24 14.667 -44.5 24.5 -61.5 29.5s-39.167 7.5 -66.5 7.5c-121.333 0 -224.166 -56.833 -308.499 -170.5s-150.166 -284.5 -197.499 -512.5c54 72 102 121.667 144 149c65.333 42 135.333 63 210 63c90 0 160.667 -27.333 212 -82
s77 -133.334 77 -236.001c0 -97.333 -21.333 -185.833 -64 -265.5s-108.834 -147.834 -198.501 -204.501s-169.5 -85 -239.5 -85c-90.667 0 -166.334 35.5 -227.001 106.5s-91 180.833 -91 329.5c0 141.333 31.833 292.666 95.5 453.999s157.334 293.666 281.001 396.999
s246.5 155 368.5 155c16.667 0 34.667 -1.33301 54 -4s39.666 -7 60.999 -13c-14.667 -48 -25.334 -87.333 -32.001 -118zM265.001 354.004c0 -93.333 20.668 -163.665 62.001 -210.998s94.666 -71 159.999 -71c49.333 0 94.833 14.833 136.5 44.5s76.167 77.667 103.5 144
s41 140.166 41 221.499c0 83.333 -19.167 146.666 -57.5 189.999s-89.5 65 -153.5 65c-80.667 0 -149.5 -34.333 -206.5 -103s-85.5 -162 -85.5 -280z" />
    <glyph glyph-name="seven" unicode="7" 
d="M182 -7l-14 20l429 657c150.667 236 265.667 421.667 345 557h-288c-157.333 0 -296.333 -3.33301 -417 -10l-10 10c12 48 21.333 99 28 153l8 9c151.333 -8.66699 345.333 -13 582 -13c88.667 0 169 1.33301 241 4v-73c-132 -191.333 -286 -444 -462 -758
c-112.667 -200.667 -203.667 -386 -273 -556c-36 4.66699 -67.667 7 -95 7c-22 0 -46.667 -2.33301 -74 -7z" />
    <glyph glyph-name="eight" unicode="8" 
d="M655 768c86 -45.333 143.332 -86.334 171.999 -123.001c39.333 -50 59 -113.333 59 -190c0 -81.333 -22.5 -158.833 -67.5 -232.5s-108.167 -133.667 -189.5 -180s-163.333 -69.5 -246 -69.5c-79.333 0 -149.666 25.5 -210.999 76.5s-92 124.167 -92 219.5
c0 84.667 26.667 162.834 80 234.501s148.666 142.167 285.999 211.5c-74 37.333 -126.833 78.5 -158.5 123.5s-47.5 96.5 -47.5 154.5c0 106.667 46 203.667 138 291s196 131 312 131c84.667 0 150.834 -22.833 198.501 -68.5s71.5 -107.167 71.5 -184.5
c0 -67.333 -20 -130 -60 -188s-121.667 -126.667 -245 -206zM597.999 798.999c80 56 136.167 110.834 168.5 164.501s48.5 109.834 48.5 168.501s-18 106.167 -54 142.5s-82.667 54.5 -140 54.5c-67.333 0 -124.5 -25 -171.5 -75s-70.5 -112.333 -70.5 -187
c0 -52.667 14.5 -98.834 43.5 -138.501s87.5 -82.834 175.5 -129.501zM503.999 683c-70.667 -35.333 -124.499 -71.3301 -161.499 -107.997s-65.833 -79.334 -86.5 -128.001s-31 -97.667 -31 -147c0 -71.333 21.167 -129.333 63.5 -174s96.5 -67 162.5 -67
c80 0 145.333 29 196 87c58 65.333 87 146.666 87 243.999c0 69.333 -19 126.666 -57 171.999c-24.667 30.667 -82.334 71 -173.001 121z" />
    <glyph glyph-name="nine" unicode="9" 
d="M80 223l44.001 15c34.667 -64 69.667 -107.667 105 -131s78 -35 128 -35c112.667 0 205.334 57.833 278.001 173.5s127.667 284.167 165 505.5c-72 -83.333 -130.833 -137.166 -176.5 -161.499s-98.167 -36.5 -157.5 -36.5c-92 0 -166.167 30.333 -222.5 91
s-84.5 144 -84.5 250c0 146.667 46 265.667 138 357c110 109.333 225.667 164 347 164c102.667 0 183.167 -35.833 241.5 -107.5s87.5 -184.834 87.5 -339.501c0 -186.667 -35.167 -360 -105.5 -520s-156.333 -279.167 -258 -357.5s-202.834 -117.5 -303.501 -117.5
c-24.667 0 -50.334 3.33301 -77.001 10s-54.667 16.667 -84 30c-13.333 52.667 -35 122.667 -65 210zM814.001 1031c0 96 -21.501 169.667 -64.501 221s-97.5 77 -163.5 77c-72 0 -134.5 -34.167 -187.5 -102.5s-79.5 -160.833 -79.5 -277.5c0 -98 20 -170.5 60 -217.5
s93.667 -70.5 161 -70.5c48.667 0 94.834 14.833 138.501 44.5s77.167 69.667 100.5 120s35 118.833 35 205.5z" />
    <glyph glyph-name="colon" unicode=":" horiz-adv-x="512" 
d="M334 725c-26.667 0 -48.668 9.16699 -66.001 27.5s-26 42.833 -26 73.5c0 41.333 11.833 75.5 35.5 102.5s52.167 40.5 85.5 40.5c26.667 0 48.334 -8.83301 65.001 -26.5s25 -42.167 25 -73.5c0 -42 -11.5 -76.5 -34.5 -103.5s-51.167 -40.5 -84.5 -40.5zM210.999 -27
c-26.667 0 -48.668 9.16797 -66.001 27.501s-26 42.833 -26 73.5c0 41.333 11.833 75.5 35.5 102.5s52.167 40.5 85.5 40.5c26.667 0 48.334 -8.83301 65.001 -26.5s25 -41.834 25 -72.501c0 -42 -11.5 -76.667 -34.5 -104s-51.167 -41 -84.5 -41z" />
    <glyph glyph-name="semicolon" unicode=";" horiz-adv-x="512" 
d="M301 725c-26.667 0 -48.668 9.16699 -66.001 27.5s-26 42.833 -26 73.5c0 41.333 12 75.5 36 102.5s52.333 40.5 85 40.5c26.667 0 48.334 -8.83301 65.001 -26.5s25 -42.167 25 -73.5c0 -42 -11.5 -76.5 -34.5 -103.5s-51.167 -40.5 -84.5 -40.5zM325.999 233
l22.998 -27c-98 -202 -203 -364.333 -315 -487c-23.333 -10.667 -46.666 -20 -69.999 -28l-16 20c54 73.333 94.833 142.5 122.5 207.5s51.834 151.5 72.501 259.5c48.667 12.667 109.667 31 183 55z" />
    <glyph glyph-name="semicolon" unicode="&#x37e;" horiz-adv-x="512" 
d="M301 725c-26.667 0 -48.668 9.16699 -66.001 27.5s-26 42.833 -26 73.5c0 41.333 12 75.5 36 102.5s52.333 40.5 85 40.5c26.667 0 48.334 -8.83301 65.001 -26.5s25 -42.167 25 -73.5c0 -42 -11.5 -76.5 -34.5 -103.5s-51.167 -40.5 -84.5 -40.5zM325.999 233
l22.998 -27c-98 -202 -203 -364.333 -315 -487c-23.333 -10.667 -46.666 -20 -69.999 -28l-16 20c54 73.333 94.833 142.5 122.5 207.5s51.834 151.5 72.501 259.5c48.667 12.667 109.667 31 183 55z" />
    <glyph glyph-name="less" unicode="&#x3c;" horiz-adv-x="1241" 
d="M1124 336v-152l-1007 458v125l1007 458v-152l-805 -368z" />
    <glyph glyph-name="equal" unicode="=" horiz-adv-x="1241" 
d="M117 806v139h1007v-139h-1007zM117 464v139h1007v-139h-1007z" />
    <glyph glyph-name="greater" unicode="&#x3e;" horiz-adv-x="1241" 
d="M117 336l805 369l-805 368v152l1007 -458v-125l-1007 -458v152z" />
    <glyph glyph-name="question" unicode="?" 
d="M329 1149l-46 13.0049c38.667 81.333 67 148.333 85 201c41.333 28 78.833 47.167 112.5 57.5s72.167 15.5 115.5 15.5c105.333 0 186.666 -25.5 243.999 -76.5s86 -117.167 86 -198.5c0 -64 -21.667 -129 -65 -195c-29.333 -44.667 -101.666 -119.334 -216.999 -224.001
c-87.333 -78.667 -140.5 -132.334 -159.5 -161.001s-28.5 -55.667 -28.5 -81c0 -18.667 5 -35.334 15 -50.001s25 -27.667 45 -39v-12l-46 -15c-32 20 -54.333 40.5 -67 61.5s-19 45.167 -19 72.5c0 33.333 9.5 68.666 28.5 105.999s64.167 96.333 135.5 177
c94.667 107.333 152.667 180.833 174 220.5s32 79.167 32 118.5c0 53.333 -16.667 96.166 -50 128.499s-79.333 48.5 -138 48.5c-32.667 0 -65 -5.66699 -97 -17c-22.667 -8 -40 -17.833 -52 -29.5s-41.333 -52.167 -88 -121.5zM383 -26.9951
c-26.667 0 -48.667 9.16895 -66 27.502s-26 43.166 -26 74.499c0 40.667 12 74.5 36 101.5s52.667 40.5 86 40.5c26 0 47.333 -8.83301 64 -26.5s25 -41.834 25 -72.501c0 -42 -11.5 -76.667 -34.5 -104s-51.167 -41 -84.5 -41z" />
    <glyph glyph-name="at" unicode="@" horiz-adv-x="1530" 
d="M1352 376h102c-42.667 -77.333 -83.334 -136 -122.001 -176c-68.667 -71.333 -146.667 -127 -234 -167s-181.666 -60 -282.999 -60c-138 0 -265 32.167 -381 96.5s-205.833 151.5 -269.5 261.5s-95.5 231.333 -95.5 364c0 134 32.5 258.5 97.5 373.5
s153.167 205 264.5 270s232.666 97.5 363.999 97.5c166.667 0 319 -52.833 457 -158.5s207 -248.167 207 -427.5c0 -103.333 -21.5 -196.833 -64.5 -280.5s-104.167 -152.167 -183.5 -205.5s-149.666 -80 -210.999 -80c-40 0 -74.667 13.667 -104 41
s-47.666 68.333 -54.999 123c-41.333 -56.667 -80.333 -95.834 -117 -117.501s-75.667 -32.5 -117 -32.5c-74 0 -137.833 28 -191.5 84s-80.5 126.333 -80.5 211c0 80 20.333 155.833 61 227.5s96 129.167 166 172.5s139.333 65 208 65c46.667 0 85 -11.833 115 -35.5
s51.667 -59.167 65 -106.5l33 124h141l-148 -554c-8 -30.667 -12 -55.334 -12 -74.001c0 -18 5.33301 -32.833 16 -44.5s24.667 -17.5 42 -17.5c44.667 0 95.167 21.333 151.5 64s103.333 104.334 141 185.001s56.5 163.667 56.5 249c0 134.667 -55 252.167 -165 352.5
s-245.333 150.5 -406 150.5c-120 0 -228.833 -28 -326.5 -84s-174.834 -134.333 -231.501 -235s-85 -212 -85 -334c0 -120 28.167 -228.333 84.5 -325s136.166 -173.5 239.499 -230.5s217.333 -85.5 342 -85.5c72.667 0 139.834 11.667 201.501 35s120 57.833 175 103.5
s105.833 105.834 152.5 180.501zM905 848c0 48 -11 84.833 -33 110.5s-49.667 38.5 -83 38.5c-43.333 0 -88.333 -17.5 -135 -52.5s-88.167 -92.333 -124.5 -172s-54.5 -154.834 -54.5 -225.501c0 -55.333 15 -100.5 45 -135.5s64.667 -52.5 104 -52.5
c38 0 76.833 16.5 116.5 49.5s77 95.333 112 187s52.5 175.834 52.5 252.501z" />
    <glyph glyph-name="A" unicode="A" horiz-adv-x="1479" 
d="M972 1432l219 -1179c16.667 -90 28.667 -143 36 -159c4 -9.33301 12 -16.833 24 -22.5s54.333 -11.5 127 -17.5v-61c-73.333 4.66699 -157.666 7 -252.999 7c-92.667 0 -176 -2.33301 -250 -7v61l68 2c45.333 0.666992 74.666 5.5 87.999 14.5s20 23.833 20 44.5
c0 20 -5 58.333 -15 115l-59 337h-510l-82 -144c-81.333 -142.667 -129.333 -231 -144 -265c-11.333 -25.333 -17 -43.666 -17 -54.999c0 -13.333 7.5 -23.333 22.5 -30s67.167 -13 156.5 -19v-61c-105.333 4.66699 -187 7 -245 7c-64 0 -133.333 -2.33301 -208 -7v61
c54.667 2.66699 88 7.66699 100 15s44 53 96 137l729 1226h97zM858 1232l-344 -586c107.333 -2 190 -3 248 -3c53.333 0 120.333 1 201 3z" />
    <glyph glyph-name="B" unicode="B" horiz-adv-x="1251" 
d="M63 -4l7.00098 53c53.333 16 84.666 28.833 93.999 38.5s16.666 27.5 21.999 53.5c25.333 118 62.333 330.5 111 637.5s73 477.833 73 512.5c0 28 -10 46 -30 54c-12.667 5.33301 -62 11 -148 17l8 55c94 -5.33301 161.667 -8 203 -8c30 0 100 2 210 6l122 2
c138 0 236.667 -23.333 296 -70c58.667 -47.333 88 -114 88 -200c0 -82 -29.333 -158 -88 -228s-152 -127.667 -280 -173c121.333 -16.667 205 -42 251 -76c60 -44 90 -114.667 90 -212c0 -116 -51 -218.667 -153 -308c-120 -105.333 -250 -158 -390 -158
c-23.333 0 -67.666 1.33301 -132.999 4c-62.667 2.66699 -114 4 -154 4c-46 0 -112.333 -1.33301 -199 -4zM452.001 772c44 -2.66699 76.667 -4.00098 98 -4.00098c123.333 0 220.166 33.167 290.499 99.5s105.5 152.833 105.5 259.5c0 68 -21.833 120.667 -65.5 158
s-110.5 56 -200.5 56c-33.333 0 -75.666 -2.33301 -126.999 -7c-31.333 -119.333 -65 -306.666 -101 -561.999zM347.001 91.999c82.667 -16 149.667 -24 201 -24c130 0 223.833 34.5 281.5 103.5s86.5 157.167 86.5 264.5c0 85.333 -25.833 150 -77.5 194
s-135.5 66 -251.5 66c-40 0 -89.333 -2.33301 -148 -7c-29.333 -170.667 -60 -369.667 -92 -597z" />
    <glyph glyph-name="C" unicode="C" horiz-adv-x="1366" 
d="M1300 224c-9.33301 -24 -17.334 -48.333 -24.001 -73c-80 -62 -162.167 -107.167 -246.5 -135.5s-177.833 -42.5 -280.5 -42.5c-195.333 0 -346.833 53.667 -454.5 161s-161.5 258.666 -161.5 453.999c0 246 77.667 446 233 600c166.667 165.333 368 248 604 248
c72.667 0 143.5 -6.83301 212.5 -20.5s135.833 -34.167 200.5 -61.5c-26 -95.333 -44 -193 -54 -293h-58c-2 34 -3 60 -3 78l3 87c-66 42.667 -126.167 71.834 -180.5 87.501s-118.833 23.5 -193.5 23.5c-124.667 0 -226.667 -24.667 -306 -74
s-145.666 -130.833 -198.999 -244.5s-80 -243.167 -80 -388.5c0 -175.333 45 -310.5 135 -405.5s213 -142.5 369 -142.5c74 0 145 10.667 213 32s150.333 62 247 122z" />
    <glyph glyph-name="D" unicode="D" horiz-adv-x="1593" 
d="M65 -5l-0.00195312 50c33.333 5.33301 56.5 12.833 69.5 22.5s23.833 25.167 32.5 46.5s26 107 52 257l65 391l13 88c38.667 250 58 394.667 58 434c0 30 -12 50.333 -36 61c-12.667 4.66699 -60.667 10 -144 16v57c100 -6 191.667 -9 275 -9c46.667 0 109 1.33301 187 4
c108.667 4 184.334 6 227.001 6c152.667 0 270.834 -20.167 354.501 -60.5s147.834 -99.833 192.501 -178.5s67 -180 67 -304c0 -244 -88.667 -456 -266 -636c-164 -166.667 -371.333 -250 -622 -250c-34.667 0 -85.334 1.33301 -152.001 4c-92 4 -165.667 6 -221 6
c-45.333 -0 -96 -1.66699 -152 -5zM341.998 107c113.333 -20.667 212.333 -31.002 297 -31.002c138.667 0 251.5 27.167 338.5 81.5s161.667 145.833 224 274.5s93.5 268.334 93.5 419.001c0 108 -19 197 -57 267s-93.333 123.333 -166 160s-165 55 -277 55
c-84 0 -169.333 -3 -256 -9c-17.333 -84 -45.333 -242 -84 -474l-14 -88c-50 -299.333 -83 -517.666 -99 -654.999z" />
    <glyph glyph-name="E" unicode="E" horiz-adv-x="1251" 
d="M78 -9l7.00195 48.9971l35 12c24.667 9.33301 48 18.666 70 27.999c40.667 171.333 93.334 454.333 158.001 849c33.333 204 50 322.667 50 356c0 24.667 -7.83301 41.167 -23.5 49.5s-69.167 15.833 -160.5 22.5l9 58c117.333 -4 219.666 -6 306.999 -6l449 6
c72.667 0 136.667 -2.66699 192 -8c-16.667 -85.333 -28.334 -185.666 -35.001 -300.999h-56c-4 120.667 -12 187.334 -24 200.001c-16.667 16.667 -114.334 25 -293.001 25c-56 0 -116.333 -1.33301 -181 -4c-35.333 -178 -68.333 -362 -99 -552c88 -3.33301 167 -5 237 -5
c81.333 0 174 5.33301 278 16l10 -11c-13.333 -30.667 -26.333 -64 -39 -100c-94.667 8 -214 12 -358 12l-143 -2c-46 -262 -77 -457.333 -93 -586c110.667 -11.333 226 -17 346 -17c79.333 0 150.666 3.66699 213.999 11c21.333 2.66699 36.5 7.33398 45.5 14.001
s16.833 18.334 23.5 35.001c5.33301 12 23 74.667 53 188h60l-19 -113c-12 -66 -21.667 -138.333 -29 -217c-52 -6.66699 -105 -10 -159 -10c-35.333 0 -87.666 1 -156.999 3c-149.333 4.66699 -265.333 7 -348 7c-103.333 0 -212.333 -3 -327 -9z" />
    <glyph glyph-name="F" unicode="F" horiz-adv-x="1139" 
d="M45 -7l7.00098 57.0039l65 5c31.333 2.66699 51.5 6.16699 60.5 10.5s16.5 10.5 22.5 18.5s12.333 26.667 19 56s29 158 67 386l76 455c28 173.333 42 273 42 299c0 26.667 -8.16699 44.667 -24.5 54s-68.5 17.666 -156.5 24.999l9 57c127.333 -4.66699 224 -7 290 -7
l467 7l165 -2c-14 -66.667 -25.333 -169.334 -34 -308.001h-54c-3.33301 73.333 -9.33301 138.666 -18 195.999c-70 20.667 -160 31 -270 31c-40 0 -105.333 -2 -196 -6c-40.667 -208 -76.334 -416 -107.001 -624c88 -3.33301 172.333 -5 253 -5c100.667 0 190.667 7 270 21
l11 -16c-18 -38.667 -31.333 -72 -40 -100c-62.667 7.33301 -133.667 11 -213 11c-48 0 -146.667 -1.33301 -296 -4c-47.333 -278.667 -71 -439.667 -71 -483c0 -26.667 7.5 -43.834 22.5 -51.501s74.167 -16.167 177.5 -25.5v-57c-106.667 4.66699 -198.667 7 -276 7
c-80.667 0 -170 -2.33301 -268 -7z" />
    <glyph glyph-name="G" unicode="G" horiz-adv-x="1479" 
d="M918 503l8.00293 58.0029c119.333 -4 218.333 -6 297 -6c78 0 152.667 2 224 6v-58c-53.333 -5.33301 -86.333 -13.5 -99 -24.5s-24.334 -40.5 -35.001 -88.5c-21.333 -94.667 -32 -171.334 -32 -230.001c0 -19.333 2.33301 -43 7 -71v-17
c-58.667 -4.66699 -108.667 -12.667 -150 -24c-86 -25.333 -161.667 -45.333 -227 -60c-53.333 -10 -111.333 -15 -174 -15c-208.667 0 -367.334 52 -476.001 156s-163 250.333 -163 439c0 227.333 71 422.333 213 585c164 188.667 381 283 651 283
c79.333 0 156.333 -6.16699 231 -18.5s147 -30.833 217 -55.5c-18.667 -50 -32 -94 -40 -132s-16 -95 -24 -171h-63l3 71l-3 99c-60 34.667 -121.333 59.667 -184 75s-133 23 -211 23c-130 0 -235.833 -25.167 -317.5 -75.5s-150.167 -134.166 -205.5 -251.499
s-83 -249.333 -83 -396c0 -173.333 44.667 -305.333 134 -396s217.666 -136 384.999 -136c111.333 0 218 17.667 320 53c9.33301 41.333 25 124.666 47 249.999c3.33301 19.333 5 34.666 5 45.999c0 26.667 -8.5 44.167 -25.5 52.5s-93.5 18.166 -229.5 29.499z" />
    <glyph glyph-name="H" unicode="H" horiz-adv-x="1593" 
d="M6 -7l8.00195 55.999c74.667 2.66699 117.834 7 129.501 13s21.667 16 30 30s24.666 86.833 48.999 218.5s56.5 323.334 96.5 575.001s60 386.5 60 404.5c0 29.333 -7.33301 47 -22 53c-9.33301 3.33301 -60.333 9 -153 17l10 56c98.667 -4.66699 181.667 -7 249 -7
c73.333 0 163.666 2.33301 270.999 7v-56c-90.667 -2.66699 -142.334 -8.66699 -155.001 -18s-24.834 -39 -36.501 -89s-39.167 -205.667 -82.5 -467c116.667 -5.33301 225.334 -8 326.001 -8c114.667 0 259 2.66699 433 8c26 145.333 48 282 66 410
c7.33301 56.667 11 92.334 11 107.001c0 22 -6.5 36.167 -19.5 42.5s-62.167 11.166 -147.5 14.499v56c107.333 -4.66699 202.666 -7 285.999 -7c73.333 0 147 2.33301 221 7v-56l-63 -4c-36 -1.33301 -58.833 -4.83301 -68.5 -10.5s-18.167 -14.834 -25.5 -27.501
s-16.333 -48 -27 -106l-73 -412l-66 -378c-28.667 -168.667 -43 -271 -43 -307c0 -23.333 8 -39 24 -47s71.333 -14.333 166 -19l-8 -56c-115.333 4.66699 -206.333 7 -273 7c-67.333 0 -160.333 -2.33301 -279 -7l10 56c92 2 144.667 8.16699 158 18.5s26.333 43.5 39 99.5
c26.667 122.667 59.334 299 98.001 529c-112 2.66699 -225.333 4 -340 4c-132.667 0 -272 -1.33301 -418 -4l-85 -515c-4 -27.333 -6 -47.666 -6 -60.999c0 -26 6.83301 -42.833 20.5 -50.5s65.5 -14.5 155.5 -20.5l-7 -56c-102 4.66699 -183.333 7 -244 7
c-54 0 -145.667 -2.33301 -275 -7z" />
    <glyph glyph-name="I" unicode="I" horiz-adv-x="682" 
d="M6 -7l8.00098 56c80.667 2.66699 127.167 8.33398 139.5 17.001s23.166 28.334 32.499 59.001c14.667 48 50.834 246 108.501 594s86.5 540.667 86.5 578c0 26 -7.66699 42 -23 48c-10 4 -61.333 9.66699 -154 17l10 54c99.333 -4.66699 182.666 -7 249.999 -7
c74 0 164.667 2.33301 272 7v-54c-83.333 -2.66699 -131.166 -6.83398 -143.499 -12.501s-22.333 -15.167 -30 -28.5s-21.834 -75.333 -42.501 -186l-72 -439l-78 -479c-8 -54 -12 -88.333 -12 -103c0 -22.667 6 -37.334 18 -44.001c16 -8 68.667 -15 158 -21l-7 -56
c-102 4.66699 -183.667 7 -245 7c-54 0 -146 -2.33301 -276 -7z" />
    <glyph glyph-name="J" unicode="J" horiz-adv-x="682" 
d="M227 1360l0.00292969 56c102.667 -4.66699 195 -7 277 -7c88 0 173.667 2.33301 257 7v-56c-75.333 -6.66699 -118.833 -13.167 -130.5 -19.5s-21.834 -16.833 -30.501 -31.5s-20 -68.667 -34 -162l-73 -489l-74 -488c-24 -156 -47 -266 -69 -330
c-22 -63.333 -52 -117.666 -90 -162.999c-32.667 -39.333 -70.667 -70 -114 -92c-30.667 -15.333 -60.667 -23 -90 -23c-18.667 0 -43.334 6.33301 -74.001 19l-7 57c26.667 -8.66699 48 -13 64 -13c21.333 0 40.833 5.33301 58.5 16s33.167 27.667 46.5 51
c21.333 37.333 44.333 121.666 69 252.999c14 76 39.667 234 77 474c25.333 164 48.333 323 69 477c32 236.667 48 365.667 48 387c0 28.667 -6.83301 47 -20.5 55s-66.834 15.333 -159.501 22z" />
    <glyph glyph-name="K" unicode="K" horiz-adv-x="1366" 
d="M51 -7l0.000976562 59.999l65 4c32.667 1.33301 54.334 5.33301 65.001 12s19.667 17.167 27 31.5s24.333 97.833 51 250.5l90 536c39.333 246.667 59 378.334 59 395.001c0 29.333 -6.83301 47.833 -20.5 55.5s-67.834 15.167 -162.501 22.5l7 56
c103.333 -4.66699 198.333 -7 285 -7c84.667 0 168.667 2.33301 252 7v-56c-91.333 -7.33301 -142.5 -13.833 -153.5 -19.5s-20.667 -15.834 -29 -30.501s-21.166 -75 -38.499 -181l-69 -411c97.333 72 223.833 186.333 379.5 343s242.5 251 260.5 283
c6.66699 12 9.66699 36 9 72c71.333 -4.66699 120.333 -7 147 -7c34 0 73.667 2.33301 119 7v-56c-47.333 -2.66699 -77.833 -6.5 -91.5 -11.5s-33.834 -18.833 -60.501 -41.5l-198 -184l-396 -373l516 -623c27.333 -33.333 47.833 -53.166 61.5 -59.499
s47.167 -11.166 100.5 -14.499v-60c-30.667 4.66699 -61.667 7 -93 7c-60 0 -121.333 -2.33301 -184 -7c-160 224.667 -350 457.667 -570 699l-86 -536c-2.66699 -16.667 -4 -29.334 -4 -38.001c0 -22 7 -36.667 21 -44c10 -5.33301 62 -12.333 156 -21v-60
c-70.667 4.66699 -133.334 7 -188.001 7c-101.333 0 -210.333 -2.33301 -327 -7z" />
    <glyph glyph-name="L" unicode="L" horiz-adv-x="1139" 
d="M61 -7l7.00098 54.001l56 21c24 8 39.833 17 47.5 27s19.834 57 36.501 141l70 401c63.333 386 95 607.667 95 665c0 23.333 -9.66699 38.333 -29 45c-8.66699 2.66699 -58 7 -148 13v56c112 -4.66699 207.333 -7 286 -7c80 0 165.667 2.33301 257 7l-7 -56l-76 -5
c-44.667 -2 -73.334 -8.66699 -86.001 -20c-16 -14.667 -30 -52 -42 -112l-86 -523c-46 -276 -74.667 -480 -86 -612c93.333 -5.33301 181.333 -8 264 -8c178 0 278.833 8.16699 302.5 24.5s51.167 94.166 82.5 233.499h61l-17 -112c-11.333 -73.333 -20.333 -151 -27 -233
l-191 -1c-59.333 0 -145.666 1.33301 -258.999 4c-86.667 2.66699 -165.334 4 -236.001 4c-92.667 0 -184.334 -2.33301 -275.001 -7z" />
    <glyph glyph-name="M" unicode="M" horiz-adv-x="1933" 
d="M-24 -7l0.00195312 63.002c54 0 88.5 3.5 103.5 10.5s28 18.667 39 35s32.5 77.833 64.5 184.5l123 420l127 450c13.333 49.333 20 84.333 20 105c0 31.333 -11.5 54 -34.5 68s-74.833 22 -155.5 24v63c62.667 -4.66699 122.667 -7 180 -7
c54.667 0 107.334 2.33301 158.001 7l328 -1188l500 848l196 340c71.333 -4.66699 125 -7 161 -7c41.333 0 98.666 2.33301 171.999 7v-63c-74 -0.666992 -120 -5.66699 -138 -15c-12 -6.66699 -21.333 -17.334 -28 -32.001s-12.334 -44.667 -17.001 -90
c-11.333 -106 -27.333 -290.333 -48 -553s-31 -431.667 -31 -507c0 -41.333 8 -67.5 24 -78.5s67.667 -18.167 155 -21.5v-63c-110 4.66699 -203 7 -279 7c-77.333 0 -163.333 -2.33301 -258 -7v63c84.667 2 134 6.16699 148 12.5s24.5 14.5 31.5 24.5s12.5 32.667 16.5 68
c5.33301 46.667 18.666 213.667 39.999 501l35 517c-60.667 -88.667 -140.667 -216.334 -240 -383.001l-386 -652c-34.667 -60.667 -66.667 -122.667 -96 -186h-46l-325 1166l-210 -761c-34.667 -126.667 -52 -207 -52 -241c0 -28 10 -46.333 30 -55
c13.333 -5.33301 62 -9 146 -11v-63c-104 4.66699 -182 7 -234 7c-56.667 0 -130 -2.33301 -220 -7z" />
    <glyph glyph-name="N" unicode="N" horiz-adv-x="1593" 
d="M22 -6l0.00195312 57c81.333 2.66699 128.333 10.167 141 22.5s35.667 102.833 69 271.5c42.667 216 96.667 519.333 162 910c-27.333 40.667 -52.5 66.667 -75.5 78s-74.5 19.666 -154.5 24.999v58c117.333 -4.66699 189.333 -7 216 -7c38.667 0 79.667 2.33301 123 7
c32 -60 128.667 -228.667 290 -506l415 -701c19.333 108.667 67.666 399.334 144.999 872.001c20 122 30 194 30 216c0 21.333 -7.16699 35.833 -21.5 43.5s-63.166 13.5 -146.499 17.5v58c100 -4.66699 175.333 -7 226 -7c60.667 0 133.667 2.33301 219 7v-58
c-64.667 -2.66699 -103.334 -7.16699 -116.001 -13.5s-23.5 -16.166 -32.5 -29.499s-21.167 -57 -36.5 -131l-112 -611c-41.333 -232 -74.666 -432.667 -99.999 -602h-102l-217 385l-474 798c-16.667 -84 -64.667 -352.667 -144 -806
c-19.333 -110.667 -29 -182.667 -29 -216c0 -32 11.667 -53.333 35 -64c15.333 -6.66699 63.333 -12.334 144 -17.001v-57c-96.667 4 -168.334 6 -215.001 6c-30.667 0 -110.334 -2 -239.001 -6z" />
    <glyph glyph-name="O" unicode="O" horiz-adv-x="1593" 
d="M706 -27c-142 0 -251.499 20.333 -328.499 61s-137.5 100.667 -181.5 180s-66 181.333 -66 306c0 244.667 71 458.5 213 641.5s347.667 274.5 617 274.5c183.333 0 322.666 -47.333 417.999 -142s143 -229.667 143 -405c0 -169.333 -38.167 -326.333 -114.5 -471
s-175.5 -255 -297.5 -331s-256.333 -114 -403 -114zM309.001 542c0 -114.667 16.5 -204.832 49.5 -270.499s83.333 -117.5 151 -155.5s147.834 -57 240.501 -57c201.333 0 351.666 86.333 450.999 259c91.333 158 137 347.667 137 569
c0 111.333 -16.667 200.166 -50 266.499s-82.333 117.333 -147 153s-144.667 53.5 -240 53.5c-118 0 -218.5 -28 -301.5 -84s-152.167 -150.333 -207.5 -283s-83 -283 -83 -451z" />
    <glyph glyph-name="P" unicode="P" horiz-adv-x="1251" 
d="M46 -7v60l64 4c42 2 68.667 7.5 80 16.5s21 30.167 29 63.5c20 79.333 57.333 283.166 112 611.499s82 508.166 82 539.499c0 26.667 -8.66699 44.667 -26 54s-70 16.333 -158 21v55c138 -6 229.333 -9 274 -9c42.667 0 104.334 1.66699 185.001 5
c75.333 3.33301 130.666 5 165.999 5c94 0 165.833 -11.667 215.5 -35s88.667 -59.166 117 -107.499s42.5 -106.166 42.5 -173.499c0 -86 -23 -170.5 -69 -253.5s-105.333 -146.667 -178 -191s-151 -66.5 -235 -66.5c-62 0 -122.667 15.667 -182 47v63
c58 -22.667 108.333 -34 151 -34c100 0 180.5 38.5 241.5 115.5s91.5 173.5 91.5 289.5c0 86.667 -24.833 153 -74.5 199s-122.167 69 -217.5 69c-38.667 0 -92.667 -5.66699 -162 -17c-57.333 -296 -110.333 -591 -159 -885c-27.333 -164 -41 -268 -41 -312
c0 -25.333 7.83301 -42 23.5 -50s76.5 -16 182.5 -24v-60c-146.667 4.66699 -254.667 7 -324 7c-73.333 0 -150.333 -2.33301 -231 -7z" />
    <glyph glyph-name="Q" unicode="Q" horiz-adv-x="1593" 
d="M1393 -115l49.001 -0.00292969c-5.33301 -92.667 -29.333 -163.667 -72 -213s-94 -74 -154 -74c-40 0 -81.667 8.33301 -125 25c-66 24.667 -174 78.667 -324 162c-87.333 48.667 -146.5 78.5 -177.5 89.5s-61.167 16.5 -90.5 16.5c-50.667 0 -90 -17.333 -118 -52
s-42.333 -93.334 -43 -176.001l-51 24l-1 50c0 52.667 10 95.667 30 129s49.833 60.333 89.5 81s88.167 31 145.5 31c-86.667 16.667 -155.667 41.667 -207 75c-71.333 46.667 -124.833 107.834 -160.5 183.501s-53.5 169.834 -53.5 282.501
c0 178.667 37.333 340.334 112 485.001s172 252.834 292 324.501s262.333 107.5 427 107.5c182.667 0 321.667 -47.333 417 -142s143 -229.667 143 -405c0 -169.333 -38.167 -326.333 -114.5 -471s-176 -255 -299 -331s-260.167 -114 -411.5 -114c-26 0 -65 1.66699 -117 5
c69.333 -13.333 146 -39.333 230 -78c172.667 -80.667 275 -127 307 -139c57.333 -22 105.666 -33 144.999 -33c36.667 0 65.167 10.5 85.5 31.5s35.833 62.833 46.5 125.5zM309.001 541.997c0 -169.333 40.168 -292.167 120.501 -368.5s187.166 -114.5 320.499 -114.5
c201.333 0 352 86.667 452 260c90.667 158 136 346.667 136 566c0 112.667 -16.667 202.167 -50 268.5s-82.333 117.333 -147 153s-144.667 53.5 -240 53.5c-118 0 -218.5 -28 -301.5 -84s-152.167 -150.333 -207.5 -283s-83 -283 -83 -451z" />
    <glyph glyph-name="R" unicode="R" horiz-adv-x="1366" 
d="M27 -7l-0.000976562 59l63 3c47.333 2 76.5 7.33301 87.5 16s20.833 29.667 29.5 63c15.333 62 53.333 267.667 114 617c50.667 295.333 76 471.333 76 528c0 28 -8.83301 47 -26.5 57s-71.834 17.667 -162.501 23v58c142.667 -5.33301 245 -8 307 -8
c49.333 0 112.333 2 189 6c52.667 2.66699 95.667 4 129 4c122.667 0 213 -25.333 271 -76s87 -118.667 87 -204c0 -56.667 -16.667 -114.667 -50 -174s-78.666 -108.666 -135.999 -147.999s-136.666 -70.666 -237.999 -93.999c112 -178 218.333 -339 319 -483
c69.333 -98.667 113.666 -154.334 132.999 -167.001c15.333 -10 45.333 -17 90 -21v-59c-60 4.66699 -110.333 7 -151 7c-38 0 -78.333 -2.33301 -121 -7c-60 110.667 -137.833 240.167 -233.5 388.5s-180.5 271.166 -254.5 368.499v22c42.667 -5.33301 73.334 -8 92.001 -8
c62.667 0 125 16.167 187 48.5s109.167 75 141.5 128s48.5 109.5 48.5 169.5c0 73.333 -22.167 130.5 -66.5 171.5s-111.833 61.5 -202.5 61.5c-48.667 0 -104.667 -6.33301 -168 -19c-43.333 -222 -95.666 -519.667 -156.999 -893c-28.667 -173.333 -43 -278.333 -43 -315
c0 -24.667 9.66699 -40.667 29 -48c10.667 -4 61 -9.33301 151 -16l-8 -59c-92 4.66699 -169.667 7 -233 7c-66.667 0 -164.334 -2.33301 -293.001 -7z" />
    <glyph glyph-name="S" unicode="S" horiz-adv-x="1139" 
d="M157 365l60.998 0.000976562c-1.33301 -46 -2 -91.333 -2 -136l2 -63c45.333 -33.333 90.5 -57.333 135.5 -72s93.167 -22 144.5 -22c105.333 0 190.833 31.333 256.5 94s98.5 141 98.5 235c0 69.333 -18.333 120.333 -55 153
c-37.333 32.667 -102.666 58.667 -195.999 78c-107.333 22.667 -182.5 47 -225.5 73s-76.167 60.833 -99.5 104.5s-35 95.834 -35 156.501c0 133.333 53 245 159 335s237.667 135 395 135c53.333 0 100.166 -4.83301 140.499 -14.5s81.5 -26.5 123.5 -50.5
c-25.333 -86.667 -42.333 -177 -51 -271h-60l1 75l-1 77c-35.333 37.333 -70 63 -104 77s-76 21 -126 21c-99.333 0 -178.333 -28.667 -237 -86s-88 -132.333 -88 -225c0 -50 8.33301 -89.667 25 -119s42.834 -54 78.501 -74s100.834 -40.667 195.501 -62
c99.333 -22 167.5 -44 204.5 -66s66 -53.333 87 -94s31.5 -88.334 31.5 -143.001c0 -129.333 -58.333 -246.333 -175 -351s-253 -157 -409 -157c-58.667 0 -115.167 7.16699 -169.5 21.5s-106.833 35.5 -157.5 63.5c22 91.333 39.333 193.666 52 306.999z" />
    <glyph glyph-name="T" unicode="T" horiz-adv-x="1251" 
d="M272 -7l0.000976562 59l77 5c49.333 3.33301 79.833 9.16602 91.5 17.499s20.5 21.833 26.5 40.5c14.667 41.333 46.667 214.666 96 519.999c38 240 72 471.667 102 695c-196 -2 -307.5 -4.66699 -334.5 -8s-46.5 -11.333 -58.5 -24c-18 -18 -34.667 -61 -50 -129
l-20 -82h-55l26 224c2 27.333 3.33301 62.333 4 105c217.333 -4.66699 401.333 -7 552 -7c144 0 347.333 2.33301 610 7c-20 -86 -38 -195.667 -54 -329h-56l7 161c0 32.667 -12.833 53.834 -38.5 63.501s-145.167 15.834 -358.5 18.501
c-128.667 -742.667 -193 -1146 -193 -1210c0 -26 8.33301 -43 25 -51s75 -13.667 175 -17l-8 -59c-94.667 4.66699 -190.334 7 -287.001 7c-100.667 0 -193.667 -2.33301 -279 -7z" />
    <glyph glyph-name="U" unicode="U" horiz-adv-x="1593" 
d="M196 1359l-0.00390625 57.0039c80.667 -4.66699 142.667 -7 186 -7c50.667 0 112.667 2.33301 186 7c-43.333 -192.667 -92.666 -461.334 -147.999 -806.001c-24.667 -155.333 -37 -254 -37 -296c0 -66.667 24.667 -120.334 74 -161.001s119.666 -61 210.999 -61
c85.333 0 171 23 257 69s165 114.333 237 205c40.667 228 83.667 496.667 129 806c9.33301 62.667 14 104 14 124c0 22.667 -6.5 37.5 -19.5 44.5s-65.833 13.167 -158.5 18.5v57c74 -4.66699 169 -7 285 -7c56 0 134.333 2.33301 235 7v-57
c-75.333 -4.66699 -118.166 -9.33398 -128.499 -14.001s-19.166 -12 -26.499 -22s-15.666 -36 -24.999 -78l-60 -351l-78 -468c-29.333 -179.333 -44 -285 -44 -317c0 -19.333 5.33301 -32.333 16 -39s42 -11.667 94 -15l75 -6l-8 -56c-68 4.66699 -130.667 7 -188 7
c-58.667 0 -116.667 -2.33301 -174 -7v8c18.667 89.333 34.667 173.666 48 252.999c-110 -103.333 -209.333 -176 -298 -218s-174 -63 -256 -63c-114 0 -207.667 32 -281 96c-60.667 52 -91 124.667 -91 218c0 31.333 3 70.5 9 117.5s26.667 173.5 62 379.5
c51.333 291.333 77 457.333 77 498c0 26 -6.66699 43.167 -20 51.5s-64.666 16.833 -153.999 25.5z" />
    <glyph glyph-name="V" unicode="V" horiz-adv-x="1478" 
d="M216 1361l0.00195312 54.999c101.333 -4.66699 192 -7 272 -7c81.333 0 162 2.33301 242 7v-55c-82 -4.66699 -131.167 -11.667 -147.5 -21s-24.5 -26 -24.5 -50c0 -9.33301 5.33301 -58.333 16 -147c27.333 -232 69.666 -546.333 126.999 -943
c293.333 480.667 488 814.334 584 1001c24 46.667 36 80.667 36 102c0 16 -9.16699 28.833 -27.5 38.5s-63.5 16.167 -135.5 19.5v55c110.667 -4.66699 183.334 -7 218.001 -7c45.333 0 105 2.33301 179 7v-55c-24.667 -4 -43.667 -10 -57 -18s-26.333 -21.333 -39 -40
l-154 -265l-237 -392l-395 -667h-99c-24.667 206.667 -86.334 632.667 -185.001 1278c-6.66699 44 -15.834 70.167 -27.501 78.5s-60.167 16.833 -145.5 25.5z" />
    <glyph glyph-name="W" unicode="W" horiz-adv-x="1933" 
d="M45 1359l0.000976562 57c130 -4.66699 216 -7 258 -7c56 0 135.333 2.33301 238 7v-57l-57 -2c-44.667 -0.666992 -74.334 -8.33398 -89.001 -23.001s-22 -44.334 -22 -89.001c0 -387.333 3.66699 -714.666 11 -981.999c142 204 290.667 430.333 446 679
c114.667 182.667 210.334 346.334 287.001 491.001h38c50 -228 159.333 -623.333 328 -1186c178 402.667 301.667 701 371 895c28 79.333 42 131 42 155c0 20.667 -8.66699 35.667 -26 45s-60 15 -128 17v57c92.667 -4.66699 163.667 -7 213 -7c56 0 128 2.33301 216 7
l-17 -57c-51.333 -1.33301 -84 -9.33301 -98 -24c-24 -26 -106.333 -208.667 -247 -548l-325 -803h-98c-96 373.333 -204.667 757.666 -326 1153c-309.333 -467.333 -553.333 -851.666 -732 -1153h-105c1.33301 59.333 2 112.333 2 159c0 205.333 -2 384 -6 536l-17 544
c-2.66699 50 -7.5 80.833 -14.5 92.5s-17.833 21.5 -32.5 29.5s-51.334 12.667 -110.001 14z" />
    <glyph glyph-name="X" unicode="X" horiz-adv-x="1479" 
d="M48 -7l-0.000976562 56.998c70 4.66699 113 11.834 129 21.501s78.667 78.5 188 206.5l356 425c-123.333 231.333 -219 405.666 -287 522.999c-36.667 62.667 -62.167 98.5 -76.5 107.5s-67.166 17.167 -158.499 24.5v58c108.667 -4.66699 204 -7 286 -7
c82.667 0 168.667 2.33301 258 7v-58c-87.333 -4.66699 -136.666 -9.33398 -147.999 -14.001s-17 -13.667 -17 -27c0 -9.33301 5 -24.666 15 -45.999c26.667 -59.333 103.667 -207 231 -443c210 254 327 399 351 435c15.333 23.333 23 41 23 53c0 20.667 -17 32 -51 34
l-53 4l-58 4v58c89.333 -4.66699 167.333 -7 234 -7c89.333 0 168.333 2.33301 237 7v-58l-52 -5c-33.333 -2 -57.666 -8.33301 -72.999 -19c-22.667 -15.333 -96.334 -94.666 -221.001 -237.999l-296 -345l311 -560c41.333 -71.333 69.833 -111.833 85.5 -121.5
s63.167 -16.167 142.5 -19.5v-57c-104 4.66699 -184.667 7 -242 7l-303 -7v57c88.667 2 140 6 154 12s21 17 21 33c0 8.66699 -6.66699 27.334 -20 56.001c-26 56 -109.667 213.667 -251 473c-190.667 -229.333 -312.334 -383 -365.001 -461
c-20.667 -32 -31 -53.667 -31 -65c0 -12.667 7 -22 21 -28s67.667 -12.667 161 -20v-57c-89.333 4.66699 -165 7 -227 7c-70.667 0 -162 -2.33301 -274 -7z" />
    <glyph glyph-name="Y" unicode="Y" horiz-adv-x="1366" 
d="M381 -7l0.00488281 57.999c94.667 0 149.167 5 163.5 15s27.166 42.667 38.499 98c36.667 172 55 285.333 55 340c0 80.667 -33.333 212 -100 394s-123 296.333 -169 343c-33.333 34 -71.333 51 -114 51c-22.667 0 -54 -6.33301 -94 -19v50
c67.333 44.667 119.666 82.334 156.999 113.001c55.333 -2 98 -13.667 128 -35c53.333 -38.667 105.5 -118 156.5 -238s104.833 -295 161.5 -525c58.667 129.333 119.5 243.333 182.5 342s125.667 181.5 188 248.5s116.166 114.167 161.499 141.5
c34.667 21.333 81 38.666 139 51.999l-11 -149c-76.667 -14.667 -143 -47 -199 -97c-104.667 -93.333 -198.834 -212.666 -282.501 -357.999s-135.834 -277.333 -156.501 -396c-31.333 -183.333 -47 -287.333 -47 -312c0 -24 6 -38.667 18 -44
c17.333 -8 73.666 -13 168.999 -15l-10 -58c-107.333 4.66699 -202.666 7 -285.999 7c-80.667 0 -163.667 -2.33301 -249 -7z" />
    <glyph glyph-name="Z" unicode="Z" horiz-adv-x="1366" 
d="M59 -7v51.999l325 402l379 477l316 405c-149.333 2.66699 -248.666 4 -297.999 4c-194.667 0 -339.334 -8.66699 -434.001 -26c-20.667 -54.667 -40 -126.667 -58 -216h-53l9 89c8 76.667 13 155.334 15 236.001c384 -5.33301 616.333 -8 697 -8
c128 0 247.667 2.66699 359 8v-45l-287 -356l-634 -797l-101 -134c186 -5.33301 338.333 -8 457 -8c155.333 0 281.333 10 378 30c29.333 77.333 52 154 68 230h64c-19.333 -112 -36 -226.333 -50 -343c-64 -3.33301 -112 -5 -144 -5c-28 0 -126 2.66699 -294 8l-249 6
c-193.333 0 -348.333 -3 -465 -9z" />
    <glyph glyph-name="bracketleft" unicode="[" horiz-adv-x="682" 
d="M538 -275l-10.998 -61.999l-60 2c-67.333 3.33301 -131.333 5 -192 5c-52.667 0 -103.334 -2.33301 -152.001 -7l-13 12c20.667 81.333 46.667 216.666 78 405.999c58 349.333 109 683 153 1001c20.667 149.333 34 273 40 371l16 13c82 -5.33301 143.667 -8 185 -8
c38.667 0 104 2 196 6l-10 -64c-98 -5.33301 -156.833 -10.833 -176.5 -16.5s-35.334 -17 -47.001 -34s-20.834 -50.5 -27.501 -100.5l-47 -310l-113 -733c-35.333 -219.333 -53 -355 -53 -407c0 -26.667 8.33301 -44 25 -52s86.334 -15.333 209.001 -22z" />
    <glyph glyph-name="backslash" unicode="\" horiz-adv-x="1241" 
d="M876 -338l-67.999 3.99902c-19.333 0 -47 -1.33301 -83 -4c-2.66699 24.667 -12.334 81 -29.001 169l-291 1436c-16.667 81.333 -32 146 -46 194l53 -1c15.333 -0.666992 48.666 1 99.999 5c6.66699 -56.667 15.334 -112 26.001 -166l295 -1462
c20 -85.333 34.333 -143.666 43 -174.999z" />
    <glyph glyph-name="bracketright" unicode="]" horiz-adv-x="682" 
d="M188 1404l11.001 61.999c111.333 -5.33301 195.333 -8 252 -8c51.333 0 102 2.66699 152 8l13 -13c-20.667 -83.333 -46 -215.666 -76 -396.999c-58 -347.333 -109.333 -680.333 -154 -999c-20.667 -152 -34.334 -279.333 -41.001 -382l-16 -13
c-78.667 5.33301 -141 8 -187 8c-43.333 0 -108 -1.66699 -194 -5l10 64c99.333 5.33301 158.5 10.833 177.5 16.5s34.333 17 46 34s20.834 50.5 27.501 100.5c6.66699 52.667 22 154 46 304l156 1020c7.33301 58 11 99.333 11 124c0 27.333 -8.33301 45 -25 53
s-86.334 15.667 -209.001 23z" />
    <glyph glyph-name="asciicircum" unicode="^" horiz-adv-x="1241" 
d="M224 588h-120l459 821h115l456 -821h-120l-394 685z" />
    <glyph glyph-name="underscore" unicode="_" 
d="M-12 -154h1048v-102h-1048v102z" />
    <glyph glyph-name="grave" unicode="`" horiz-adv-x="682" 
d="M618 1131l-303.999 192c-36 23.333 -58.5 40.5 -67.5 51.5s-13.5 23.167 -13.5 36.5c0 16 5.66699 30 17 42s25 18 41 18c13.333 0 26.666 -3.83301 39.999 -11.5s40 -30.167 80 -67.5l277 -261h-70z" />
    <glyph glyph-name="a" unicode="a" horiz-adv-x="909" 
d="M826 968l23.002 -15.001c-65.333 -226.667 -116 -427.667 -152 -603c-20.667 -101.333 -31 -167.666 -31 -198.999c0 -12.667 2.66699 -22.334 8 -29.001s12.666 -10 21.999 -10c22 0 71.667 32.333 149 97l12 -46c-72 -63.333 -141.333 -114 -208 -152
c-32.667 -18 -61 -27 -85 -27c-18 0 -31.333 5.16699 -40 15.5s-13 27.166 -13 50.499c0 54.667 22.667 168.334 68 341.001l-8 1c-94.667 -137.333 -195.334 -248.333 -302.001 -333c-72 -57.333 -124.667 -86 -158 -86c-20 0 -35.667 10 -47 30
c-16.667 30.667 -25 75 -25 133c0 98.667 19.833 216.334 59.5 353.001s80.167 234 121.5 292c31.333 44 92.333 91 183 141c56.667 31.333 115.667 47 177 47c26.667 0 55.167 -3 85.5 -9s62.5 -15 96.5 -27zM673.002 836.999
c-29.333 11.333 -56.999 19.665 -82.999 24.998s-50.667 8 -74 8c-52 0 -99 -9 -141 -27c-12 -6 -27.333 -28 -46 -66c-36.667 -76 -69.834 -172.667 -99.501 -290s-44.5 -220.666 -44.5 -309.999c0 -24 3.5 -41 10.5 -51s15.5 -15 25.5 -15c27.333 0 77.5 35 150.5 105
s130.5 142.333 172.5 217c56 100.667 99 235.334 129 404.001z" />
    <glyph glyph-name="b" unicode="b" horiz-adv-x="948" 
d="M116 1361l3.00098 40.9971c132 11.333 244 39.333 336 84l25 -22c-9.33301 -38.667 -50 -227 -122 -565l-50 -242c58 96.667 131.667 172.834 221 228.501s171 83.5 245 83.5c39.333 0 66.333 -11.667 81 -35c24 -37.333 36 -94 36 -170
c0 -141.333 -29.667 -273.666 -89 -396.999s-138 -219.833 -236 -289.5s-188 -104.5 -270 -104.5c-60.667 0 -110.834 17 -150.501 51s-59.5 75 -59.5 123c0 38.667 17.333 143.334 52 314.001c42.667 211.333 86 451.333 130 720c11.333 67.333 17 109.333 17 126
c0 23.333 -9.33301 38 -28 44c-8.66699 2.66699 -55.667 6 -141 10zM233.001 212.997c0 -47.333 13.833 -84.8311 41.5 -112.498s64.834 -41.5 111.501 -41.5c57.333 0 106 17.667 146 53c56.667 48.667 106.5 130.667 149.5 246s64.5 233 64.5 353
c0 59.333 -6.33301 98.666 -19 117.999c-10 14 -31.667 21 -65 21c-69.333 0 -139.833 -33.333 -211.5 -100s-125.834 -158.834 -162.501 -276.501s-55 -204.5 -55 -260.5z" />
    <glyph glyph-name="c" unicode="c" horiz-adv-x="834" 
d="M776 663h-49.002c2.66699 52 4 90 4 114c0 25.333 -11.667 45.333 -35 60c-35.333 22 -81 33 -137 33c-68 0 -122.167 -15.5 -162.5 -46.5s-78.166 -98.167 -113.499 -201.5s-53 -211.666 -53 -324.999c0 -69.333 16.167 -122.5 48.5 -159.5s74.166 -55.5 125.499 -55.5
c44 0 91.333 10.167 142 30.5s115.667 60.166 195 119.499l16 -43c-100 -85.333 -182 -142.666 -246 -171.999s-123.667 -44 -179 -44c-80 0 -141.5 25.833 -184.5 77.5s-64.5 125.167 -64.5 220.5c0 96.667 16.333 194.667 49 294s75.834 174.666 129.501 225.999
s133.834 100 240.501 146c49.333 21.333 99.333 32 150 32c32 0 59.667 -3.5 83 -10.5s52 -21.167 86 -42.5c-21.333 -78 -36.333 -162.333 -45 -253z" />
    <glyph glyph-name="d" unicode="d" 
d="M662 1356l6 40c140 18.667 249.333 48.667 328 90l25 -22c-56 -235.333 -127 -564.333 -213 -987c-38.667 -188.667 -58 -296.334 -58 -323.001c0 -16 2.33301 -27.333 7 -34s11.334 -10 20.001 -10c30 0 86.333 32.333 169 97l25 -36
c-162.667 -132 -271.334 -198 -326.001 -198c-14.667 0 -26.834 6 -36.501 18s-14.5 29.667 -14.5 53c0 22.667 3.33301 52 10 88s27.667 128 63 276c-82.667 -135.333 -175.5 -241.666 -278.5 -318.999s-177.167 -116 -222.5 -116c-26.667 0 -48.334 14 -65.001 42
c-21.333 35.333 -32 88.666 -32 159.999c0 144.667 30.667 292 92 442c44.667 108.667 111.334 194.5 200.001 257.5s171.334 94.5 248.001 94.5c42.667 0 96 -8.66699 160 -26l39 234c12 69.333 18 114.333 18 135c0 17.333 -5.66699 28.333 -17 33
c-16 6.66699 -65 10.334 -147 11.001zM747 830c-72.667 35.333 -139 53 -199 53c-54 0 -97.667 -9.33301 -131 -28c-20 -11.333 -39 -34.333 -57 -69c-40 -76.667 -74.5 -171.334 -103.5 -284.001s-43.5 -204.667 -43.5 -276c0 -49.333 4.16699 -81.166 12.5 -95.499
s20.5 -21.5 36.5 -21.5c40.667 0 92.667 25 156 75c86.667 68.667 159.167 158.5 217.5 269.5s95.5 236.5 111.5 376.5z" />
    <glyph glyph-name="e" unicode="e" horiz-adv-x="797" 
d="M683 223l13.998 -42.999c-95.333 -80 -174.166 -134.5 -236.499 -163.5s-121.166 -43.5 -176.499 -43.5c-78 0 -138.167 22.833 -180.5 68.5s-63.5 111.5 -63.5 197.5c0 90 18 190.5 54 301.5s77.333 190.833 124 239.5s120.667 97.667 222 147
c56.667 28 107.667 42 153 42c55.333 0 98.833 -14.833 130.5 -44.5s47.5 -67.5 47.5 -113.5c0 -180.667 -186.667 -308.334 -560 -383.001c-13.333 -79.333 -20 -138.333 -20 -177c0 -54 15.333 -97.333 46 -130s69.334 -49 116.001 -49
c35.333 0 77.166 9.83301 125.499 29.5s116.5 60.167 204.5 121.5zM219.998 477.001c136.667 25.333 236.667 65.167 300 119.5s95 114.5 95 180.5c0 35.333 -8.16699 61.833 -24.5 79.5s-39.5 26.5 -69.5 26.5c-42.667 0 -83.667 -12.333 -123 -37
s-71.333 -61.667 -96 -111c-32.667 -64.667 -60 -150.667 -82 -258z" />
    <glyph glyph-name="f" unicode="f" horiz-adv-x="569" 
d="M99 772l10 47.002c75.333 27.333 135 53.666 179 78.999l14 68c25.333 124.667 41 195.667 47 213c10.667 30.667 33 62.334 67 95.001c83.333 79.333 158.666 137.666 225.999 174.999c42.667 24 82.667 36 120 36c35.333 0 80 -10.333 134 -31
c-21.333 -48.667 -41.666 -103.667 -60.999 -165l-22 -9c-20.667 28.667 -42 48.5 -64 59.5s-48.667 16.5 -80 16.5c-58 0 -99.833 -19.333 -125.5 -58s-61.834 -178 -108.501 -418h52c54.667 0 111 6 169 18l11 -11c-16.667 -45.333 -29 -81 -37 -107c-54 4 -103 6 -147 6
l-68 -1l-49 -232c-82 -391.333 -145.5 -645 -190.5 -761s-114.167 -211.333 -207.5 -286c-66.667 -52.667 -128.334 -79 -185.001 -79c-21.333 0 -47 5 -77 15c16.667 45.333 33.334 101.666 50.001 168.999l23 5c32 -40 68.667 -60 110 -60c36.667 0 68.667 13.333 96 40
c40.667 40 78.334 139.667 113.001 299c44 201.333 100.333 496.333 169 885c-49.333 0 -105.333 -2.66699 -168 -8z" />
    <glyph glyph-name="g" unicode="g" 
d="M998 765l-133 -2.00293c4 -31.333 6 -54 6 -68c0 -51.333 -14.667 -107 -44 -167s-67 -109 -113 -147s-111.333 -71.333 -196 -100c-29.333 -30.667 -44 -60.667 -44 -90c0 -18.667 6.16699 -37 18.5 -55s43.5 -47 93.5 -87
c99.333 -79.333 160.333 -133.666 183 -162.999c36 -45.333 54 -93.666 54 -144.999c0 -81.333 -38.667 -149.333 -116 -204c-104 -73.333 -231.333 -110 -382 -110c-121.333 0 -212 23.167 -272 69.5s-90 103.833 -90 172.5c0 72 31.5 141.833 94.5 209.5
s161.5 121.834 295.5 162.501c-22 22.667 -33 43.667 -33 63c0 20 5.83301 37.333 17.5 52s51.5 52.667 119.5 114c-24 -2 -42.667 -3 -56 -3c-80 0 -143.167 22.5 -189.5 67.5s-69.5 108.167 -69.5 189.5c0 121.333 44.5 225.833 133.5 313.5s196.5 131.5 322.5 131.5
c56 0 102.667 -9 140 -27s68.666 -46.333 93.999 -85c54.667 0.666992 114.334 4.66699 179.001 12zM719 681.997c0 57.333 -7.16699 100.501 -21.5 129.501s-35.166 51.833 -62.499 68.5s-61 25 -101 25c-72 0 -129 -26.667 -171 -80c-50 -64 -75 -152 -75 -264
c0 -75.333 17.333 -132 52 -170s81 -57 139 -57c44.667 0 83.167 11.667 115.5 35s61.166 65.166 86.499 125.499s38 122.833 38 187.5zM408 -8.00195c-108 -30 -187.334 -71.499 -238.001 -124.499s-76 -110.5 -76 -172.5c0 -62.667 24.667 -113.834 74 -153.501
s120 -59.5 212 -59.5c94 0 168.5 20.333 223.5 61s82.5 87.667 82.5 141c0 26.667 -7 51.667 -21 75c-21.333 34.667 -56.666 73 -105.999 115z" />
    <glyph glyph-name="h" unicode="h" 
d="M25 -26l-16.999 17.002c52 180.667 120.333 490.667 205 930c45.333 232.667 68 361.667 68 387c0 27.333 -9.66699 44 -29 50c-10 3.33301 -57.333 5 -142 5l5 43c113.333 14 225.333 40.667 336 80l21 -22c-110 -490.667 -175.333 -799.334 -196 -926.001
c130 161.333 244.5 273.5 343.5 336.5s178.5 94.5 238.5 94.5c19.333 0 34.666 -6 45.999 -18s17 -29.333 17 -52c0 -24 -2.66699 -50 -8 -78c-12.667 -65.333 -43 -194.333 -91 -387c-41.333 -164.667 -62 -263.667 -62 -297c0 -23.333 10.333 -35 31 -35
c10 0 21.333 2.83301 34 8.5s39.667 22.5 81 50.5l61 39l18 -37c-125.333 -91.333 -208 -147.333 -248 -168c-28.667 -14.667 -54 -22 -76 -22c-18.667 0 -34 7.16699 -46 21.5s-18 33.833 -18 58.5c0 28 15.333 102.667 46 224c73.333 291.333 110 460.333 110 507
c0 19.333 -3.83301 33.666 -11.5 42.999s-18.5 14 -32.5 14c-39.333 0 -99.333 -30.667 -180 -92c-105.333 -80 -184.666 -172.667 -237.999 -278s-95.333 -260 -126 -464c-52.667 -6.66699 -99.334 -17.667 -140.001 -33z" />
    <glyph glyph-name="i" unicode="i" horiz-adv-x="569" 
d="M331 1319c0 34 12 63.999 36 89.999s50.667 39 80 39c23.333 0 41.666 -7.33301 54.999 -22s20 -35.667 20 -63c0 -37.333 -11.167 -68.666 -33.5 -93.999s-47.833 -38 -76.5 -38c-23.333 0 -42.666 7.83301 -57.999 23.5s-23 37.167 -23 64.5zM79 743.999l-20 40.002
c165.333 123.333 274 185 326 185c16 0 28.333 -4.5 37 -13.5s13 -22.167 13 -39.5c0 -42 -15.333 -120.667 -46 -236c-78.667 -294 -118 -472.333 -118 -535c0 -22.667 10.333 -34 31 -34c24 0 77.667 30 161 90l20 -39c-95.333 -76.667 -174 -132.334 -236 -167.001
c-25.333 -14.667 -49 -22 -71 -22c-18 0 -33.5 8 -46.5 24s-19.5 39 -19.5 69c0 43.333 17.667 130.666 53 261.999c69.333 257.333 104 412.333 104 465c0 25.333 -9.66699 38 -29 38c-21.333 0 -74.333 -29 -159 -87z" />
    <glyph glyph-name="j" unicode="j" horiz-adv-x="569" 
d="M334 1319c0 34 11.999 63.999 35.999 89.999s50.667 39 80 39c22.667 0 40.667 -7.33301 54 -22s20 -35.667 20 -63c0 -37.333 -11.167 -68.666 -33.5 -93.999s-47.5 -38 -75.5 -38c-23.333 0 -42.666 7.83301 -57.999 23.5s-23 37.167 -23 64.5zM87.999 744.999
l-18.002 36.999c134 90.667 218.5 144.5 253.5 161.5s62.5 25.5 82.5 25.5c15.333 0 27.833 -4.5 37.5 -13.5s14.5 -21.167 14.5 -36.5c0 -37.333 -44 -248.666 -132 -633.999c-59.333 -258 -103 -432 -131 -522c-41.333 -134.667 -92.333 -229.667 -153 -285
c-37.333 -34 -78.666 -51 -123.999 -51c-31.333 0 -64.666 9.33301 -99.999 28c12.667 54.667 21 99.667 25 135l15 2c20.667 -49.333 54.334 -74 101.001 -74c14.667 0 27.834 3 39.501 9s23.167 16.167 34.5 30.5s20.666 35.833 27.999 64.5l87 425l89 454
c34 184 51 284 51 300c0 20 -9 30 -27 30c-26.667 0 -84.334 -28.667 -173.001 -86z" />
    <glyph glyph-name="k" unicode="k" horiz-adv-x="909" 
d="M112 1362l11.0029 42c124 14.667 234.667 42 332 82l22 -21l-141 -647l-75 -366c175.333 213.333 318 363.333 428 450c57.333 44.667 109.666 67 156.999 67c13.333 0 32 -2 56 -6c-12.667 -43.333 -24 -91 -34 -143c-28 9.33301 -49 14 -63 14
c-34 0 -76.5 -15 -127.5 -45s-119.167 -89.667 -204.5 -179c98 -278.667 158 -436.667 180 -474c14.667 -25.333 32 -38 52 -38c10.667 0 21.5 2.33301 32.5 7s43.167 22.667 96.5 54l20 -42c-137.333 -96 -218.666 -144 -243.999 -144c-22.667 0 -42.334 14.667 -59.001 44
c-38 64.667 -99.333 226.667 -184 486c-57.333 -62.667 -93 -105.667 -107 -129s-26.833 -57.833 -38.5 -103.5s-26.834 -130.834 -45.501 -255.501c-54 -11.333 -99 -23.666 -135 -36.999l-20 16c61.333 220 140.666 603.333 237.999 1150
c18.667 104.667 28 161.667 28 171c0 20 -6.33301 33 -19 39s-64.667 8.66699 -156 8z" />
    <glyph glyph-name="l" unicode="l" horiz-adv-x="569" 
d="M149 1360l5.99707 40.999c138.667 20 247.334 48.333 326.001 85l29 -16l-120 -579l-20 -97l-106 -513c-12.667 -68.667 -19 -115 -19 -139c0 -13.333 2.83301 -23.333 8.5 -30s13.167 -10 22.5 -10c28.667 0 90 38.667 184 116l21 -41
c-83.333 -70.667 -163.666 -127.667 -240.999 -171c-40 -22 -71.667 -33 -95 -33c-18.667 0 -34 6.83301 -46 20.5s-18 32.834 -18 57.501c0 8.66699 1.66699 24 5 46l36 176l97 454l21 97c22.667 108 43.334 226 62.001 354c8.66699 62.667 13 107 13 133
c0 22.667 -5.66699 36.5 -17 41.5s-61 7.5 -149 7.5z" />
    <glyph glyph-name="m" unicode="m" horiz-adv-x="1593" 
d="M69 747l-17.0049 40.999c108.667 78.667 188.334 130.667 239.001 156c33.333 16.667 61 25 83 25c17.333 0 29.833 -4.16699 37.5 -12.5s11.5 -21.833 11.5 -40.5c0 -13.333 -5.83301 -50.166 -17.5 -110.499s-29.167 -144.166 -52.5 -251.499
c90 134 186 236.667 288 308s180.333 107 235 107c17.333 0 31 -5 41 -15s15 -23.667 15 -41c0 -30 -23.333 -152 -70 -366c69.333 100 137.666 179.333 204.999 238s140.333 106.334 219 143.001c59.333 27.333 106 41 140 41c15.333 0 27.5 -4.83301 36.5 -14.5
s13.5 -22.834 13.5 -39.501c0 -38.667 -39 -206.334 -117 -503.001c-40.667 -154 -61 -244.333 -61 -271c0 -12 2.83301 -21.5 8.5 -28.5s13.167 -10.5 22.5 -10.5c12.667 0 25.334 3.33301 38.001 10c25.333 12.667 68.333 39.667 129 81l20 -40
c-120 -84 -201.333 -136.667 -244 -158c-29.333 -14.667 -54.333 -22 -75 -22c-18.667 0 -34 6.83301 -46 20.5s-18 32.5 -18 56.5c0 32 22.667 125.333 68 280c69.333 235.333 104 392.333 104 471c0 13.333 -2.66699 23.166 -8 29.499s-13 9.5 -23 9.5
c-39.333 0 -95.666 -28.333 -168.999 -85c-96.667 -74.667 -171.667 -165.667 -225 -273c-45.333 -93.333 -86.333 -252 -123 -476c-41.333 -6.66699 -88.333 -17 -141 -31l-15 14c70.667 262 115.834 448.5 135.501 559.5s29.5 192.833 29.5 245.5
c0 16.667 -2.83301 28.5 -8.5 35.5s-14.167 10.5 -25.5 10.5c-32.667 0 -78 -24 -136 -72c-98.667 -80.667 -172.167 -172 -220.5 -274s-92.166 -264.667 -131.499 -488c-44 -5.33301 -90 -14.666 -138 -27.999l-13 15c56.667 196.667 100 374.667 130 534
c23.333 123.333 35 207.333 35 252c0 18.667 -3 32.167 -9 40.5s-13.667 12.5 -23 12.5c-23.333 0 -75.666 -28.333 -156.999 -85z" />
    <glyph glyph-name="n" unicode="n" horiz-adv-x="1139" 
d="M67 740l-16.001 41.9961c108 78 192.667 133 254 165c28 14.667 53 22 75 22c15.333 0 27.166 -4.66699 35.499 -14s12.5 -23.333 12.5 -42c0 -14 -2.33301 -33.667 -7 -59l-79 -346c58 92.667 125.833 175.834 203.5 249.501s151.834 127.334 222.501 161.001
s126 50.5 166 50.5c18 0 32.333 -5.66699 43 -17s16 -27.333 16 -48c0 -18.667 -2.33301 -39 -7 -61c-6.66699 -35.333 -38 -170.666 -94 -405.999c-42 -174 -63 -275.667 -63 -305c0 -20 10.333 -30 31 -30c20 0 58.333 19.667 115 59l63 42l18 -40
c-164.667 -126.667 -274 -190 -328 -190c-18.667 0 -33.667 6.5 -45 19.5s-17 31.167 -17 54.5c0 39.333 22 143.333 66 312c62 236 93 381.667 93 437c0 14 -3.5 24.833 -10.5 32.5s-16.5 11.5 -28.5 11.5c-39.333 0 -94 -27.667 -164 -83
c-100.667 -79.333 -179 -174.166 -235 -284.499s-100 -266.833 -132 -469.5c-36.667 -4.66699 -84 -14.667 -142 -30l-16 17c48.667 162.667 91 337.667 127 525c27.333 144 41 235.667 41 275c0 14 -2.83301 24.5 -8.5 31.5s-13.5 10.5 -23.5 10.5
c-25.333 0 -80.666 -30.667 -165.999 -92z" />
    <glyph glyph-name="o" unicode="o" horiz-adv-x="909" 
d="M48 295c0 213.333 55.001 379 165.001 497s231 177 363 177c87.333 0 155.333 -26.167 204 -78.5s73 -127.5 73 -225.5c0 -123.333 -26.833 -241.333 -80.5 -354s-122 -197.167 -205 -253.5s-166.167 -84.5 -249.5 -84.5c-84.667 0 -150.834 26.333 -198.501 79
s-71.5 133.667 -71.5 243zM205.001 310c0 -93.333 16.5 -160.167 49.5 -200.5s79.5 -60.5 139.5 -60.5c88.667 0 157.667 49.667 207 149c62.667 126.667 94 271.667 94 435c0 96 -16.833 164.333 -50.5 205s-82.167 61 -145.5 61c-51.333 0 -96.5 -17.167 -135.5 -51.5
s-75.167 -102.5 -108.5 -204.5s-50 -213 -50 -333z" />
    <glyph glyph-name="p" unicode="p" 
d="M22 744l-23.9971 40c126 84 212.667 137.333 260 160c35.333 16.667 63.333 25 84 25c14.667 0 26.5 -5 35.5 -15s13.5 -24.333 13.5 -43c0 -24.667 -20 -130.667 -60 -318c55.333 89.333 110.5 159.5 165.5 210.5s116 91.333 183 121s120.167 44.5 159.5 44.5
c31.333 0 55.666 -14 72.999 -42c28 -46 42 -103.333 42 -172c0 -108.667 -22.833 -220.167 -68.5 -334.5s-93.834 -195.166 -144.501 -242.499s-113.334 -93.333 -188.001 -138s-140.334 -67 -197.001 -67c-34 0 -76.667 8.33301 -128 25
c-45.333 -218 -76.666 -398.667 -93.999 -542c-59.333 -7.33301 -109 -17 -149 -29l-14 11c67.333 283.333 138.333 637.666 213 1063c28 158.667 42 257.667 42 297c0 14 -3.16699 24.5 -9.5 31.5s-14.5 10.5 -24.5 10.5c-21.333 0 -78 -32 -170 -96zM245.003 115
c60.667 -37.333 121.669 -56.001 183.002 -56.001c58.667 0 111.167 20.5 157.5 61.5s93.666 126.5 141.999 256.5s72.5 250.667 72.5 362c0 40.667 -6 69.334 -18 86.001s-30.667 25 -56 25c-59.333 0 -126.333 -31 -201 -93s-135.667 -147.667 -183 -257
c-26.667 -60 -54.334 -164.333 -83.001 -313z" />
    <glyph glyph-name="q" unicode="q" horiz-adv-x="948" 
d="M872 969l31.0029 -15.999c-140.667 -627.333 -235.667 -1123 -285 -1487c-59.333 -9.33301 -117 -22.333 -173 -39l-20 27c16.667 14 27.667 26 33 36c7.33301 15.333 28.666 110 63.999 284c48 233.333 87.667 443 119 629
c-109.333 -153.333 -208.833 -263.333 -298.5 -330s-153.834 -100 -192.501 -100c-24.667 0 -44.667 13 -60 39c-20.667 35.333 -31 86.333 -31 153c0 74 12.5 163.333 37.5 268s52.667 186.667 83 246s63.5 104.666 99.5 135.999c61.333 54 126.666 96.667 195.999 128
c37.333 17.333 77 26 119 26c30.667 0 63.667 -3.83301 99 -11.5s73 -19.5 113 -35.5c22 14 44 29.667 66 47zM732.003 818.001c-32 17.333 -64 30.333 -96 39s-64 13 -96 13c-54.667 0 -101.334 -10 -140.001 -30c-18.667 -10 -36 -30.333 -52 -61
c-40.667 -77.333 -74.167 -168.333 -100.5 -273s-39.5 -197 -39.5 -277c0 -50 4.33301 -83.333 13 -100c6.66699 -12.667 17.334 -19 32.001 -19c38.667 0 101.5 38 188.5 114s153.5 162 199.5 258c32.667 68 63 180 91 336z" />
    <glyph glyph-name="r" unicode="r" horiz-adv-x="797" 
d="M97 732l-22.999 35.001c116 86.667 203.333 145.334 262 176.001c33.333 17.333 61 26 83 26c12 0 21.333 -3.83301 28 -11.5s10 -19.5 10 -35.5c0 -23.333 -3.33301 -53 -10 -89l-67 -302c106 180 195.333 305.667 268 377c41.333 40.667 79.333 61 114 61
c14.667 0 33 -3.66699 55 -11c-14.667 -60.667 -26.334 -133 -35.001 -217l-30 -7c-18 25.333 -39.333 38 -64 38c-27.333 0 -56 -10.667 -86 -32c-52 -36.667 -100.833 -93.834 -146.5 -171.501s-80.5 -162.834 -104.5 -255.501c-6 -22 -28 -123.333 -66 -304
c-41.333 -8 -88 -20 -140 -36l-17 15c50 169.333 90.167 336 120.5 500s45.5 265.333 45.5 304c0 26.667 -8.66699 40 -26 40c-20.667 0 -77.667 -33.333 -171 -100z" />
    <glyph glyph-name="s" unicode="s" horiz-adv-x="797" 
d="M89 295h52.0029l-1 -94l1 -74c32.667 -26 67.167 -45.5 103.5 -58.5s74.166 -19.5 113.499 -19.5c64 0 117 20.667 159 62s63 93 63 155c0 44.667 -10.333 77.334 -31 98.001c-21.333 20.667 -65.333 36.334 -132 47.001c-118.667 18.667 -195.334 41 -230.001 67
c-46 35.333 -69 87.666 -69 156.999c0 53.333 15.667 102.166 47 146.499s88.666 90.166 171.999 137.499c58.667 33.333 120 50 184 50c32 0 64.667 -4.16699 98 -12.5s67.333 -21.166 102 -38.499c-15.333 -60 -27.333 -136.667 -36 -230h-47c0.666992 30 1 54.667 1 74
c0 32.667 -7 55 -21 67c-43.333 36 -98.666 54 -165.999 54c-68 0 -120.5 -17 -157.5 -51s-55.5 -78.667 -55.5 -134c0 -46 15 -79.333 45 -100c22.667 -15.333 77.667 -31.333 165 -48c98.667 -18 162.667 -37.667 192 -59c40.667 -30.667 61 -78 61 -142
c0 -88 -45.5 -172.667 -136.5 -254s-192.833 -122 -305.5 -122c-36.667 0 -72.834 4.66699 -108.501 14s-71.167 23 -106.5 41c19.333 76.667 34 165.667 44 267z" />
    <glyph glyph-name="t" unicode="t" horiz-adv-x="682" 
d="M565 233l24 -37.999c-177.333 -148 -296.333 -222 -357 -222c-20 0 -36.667 7.83301 -50 23.5s-20 37.167 -20 64.5c0 33.333 14.667 117.666 44 252.999c40.667 184 73 341.667 97 473l-74 1l-99 -1l5 33c65.333 20 125.666 44 180.999 72c16 78 34.333 195.333 55 352
c54 17.333 107.333 40.333 160 69l23 -18c-16.667 -66.667 -48.667 -206 -96 -418l106 -3c42 0 79.333 4.33301 112 13l9 -10c-9.33301 -32 -17 -65 -23 -99c-66 5.33301 -139.667 8.33301 -221 9c-76 -358.667 -114 -566.667 -114 -624c0 -18 3.33301 -31.333 10 -40
s15.334 -13 26.001 -13c28.667 0 96 41 202 123z" />
    <glyph glyph-name="u" unicode="u" horiz-adv-x="1139" 
d="M88 747l-21.0029 38c172 122.667 285 184 339 184c14 0 25.167 -4.16699 33.5 -12.5s12.5 -19.833 12.5 -34.5c0 -22 -22.333 -121 -67 -297c-62.667 -248.667 -94 -403.667 -94 -465c0 -17.333 3 -29.5 9 -36.5s14.333 -10.5 25 -10.5c27.333 0 71.333 25.667 132 77
c116.667 98 203.834 201.667 261.501 311s100.167 254 127.5 434c60.667 12.667 107.334 24 140.001 34l13 -14c-58 -196 -105.333 -383.333 -142 -562c-22.667 -114 -34 -191.333 -34 -232c0 -18.667 2.83301 -31.834 8.5 -39.501s13.167 -11.5 22.5 -11.5
c20.667 0 57.334 22 110.001 66l53 43l24 -36c-165.333 -140 -273.666 -210 -324.999 -210c-14.667 0 -26.834 6.5 -36.501 19.5s-14.5 32.5 -14.5 58.5c0 28.667 5.33301 69.334 16 122.001l67 285c-101.333 -156.667 -213.666 -284.667 -336.999 -384
c-82 -66 -145.333 -99 -190 -99c-24.667 0 -44.334 8.5 -59.001 25.5s-22 42.5 -22 76.5c0 43.333 13.667 122.333 41 237c66.667 274.667 100 433.667 100 477c0 13.333 -2.83301 23.5 -8.5 30.5s-13.167 10.5 -22.5 10.5c-20.667 0 -74.667 -28.333 -162 -85z" />
    <glyph glyph-name="v" unicode="v" 
d="M69 711l-45 0.00390625l62 170l24 72c20 5.33301 39 9.33301 57 12s35 4 51 4c25.333 0 61 -4 107 -12c56.667 -10 97 -15 121 -15c29.333 0 66.666 7 111.999 21l16 -25c-104.667 -132.667 -177 -248.334 -217 -347.001s-60 -196.334 -60 -293.001
c0 -70.667 14.833 -124.334 44.5 -161.001s66.834 -55 111.501 -55c103.333 0 193.333 67.833 270 203.5s115 275.5 115 419.5c0 44 -7.66699 75.667 -23 95s-36.333 29 -63 29c-16.667 0 -36.334 -5 -59.001 -15l-22 35c44.667 39.333 82.334 77.333 113.001 114
c21.333 4 38.333 6 51 6c39.333 0 71.666 -16.5 96.999 -49.5s38 -80.5 38 -142.5c0 -113.333 -35.667 -239 -107 -377s-160.333 -249 -267 -333c-78.667 -62.667 -152.667 -94 -222 -94c-67.333 0 -121.833 23.667 -163.5 71s-62.5 116.666 -62.5 207.999
c0 94 25.333 191.333 76 292c30.667 60 107.334 163 230.001 309c-42 -6 -76.667 -9 -104 -9c-16 0 -36 1 -60 3c-28.667 2 -49.334 3 -62.001 3c-11.333 0 -24.166 -1.16699 -38.499 -3.5s-30.5 -5.83301 -48.5 -10.5c-20 -30 -44 -71.667 -72 -125z" />
    <glyph glyph-name="w" unicode="w" horiz-adv-x="1479" 
d="M72 700l-45.0059 0.00195312l27 92l44 154c42.667 8 75.334 12 98.001 12c18 0 47.333 -3 88 -9c51.333 -7.33301 95 -11 131 -11c31.333 0 54.333 1.33301 69 4s34.667 9.66699 60 21l22 -29c-184 -210 -276 -425 -276 -645c0 -74.667 10.667 -128 32 -160
s47 -48 77 -48c21.333 0 44 7.66699 68 23c38 24 79.333 69.5 124 136.5s83.334 153.167 116.001 258.5c18 58 49.667 200.333 95 427c40.667 9.33301 90.334 23.666 149.001 42.999l16 -13c-44 -126 -82.333 -268 -115 -426c-22 -109.333 -33 -196.333 -33 -261
c0 -62.667 12.667 -109.5 38 -140.5s57 -46.5 95 -46.5c46 0 88.667 17.333 128 52c60 53.333 110.833 133.5 152.5 240.5s62.5 212.833 62.5 317.5c0 48 -9.33301 83.667 -28 107s-44 35 -76 35c-17.333 0 -37 -5.33301 -59 -16l-25 26c42.667 36 80 75.667 112 119
c26 4 47.333 6 64 6c42 0 75.667 -16.333 101 -49s38 -80.334 38 -143.001c0 -119.333 -33.667 -247.5 -101 -384.5s-145.666 -241.167 -234.999 -312.5s-165 -107 -227 -107c-49.333 0 -90.666 19.167 -123.999 57.5s-50 91.5 -50 159.5
c0 39.333 6.33301 95.666 19 168.999c-65.333 -136.667 -137.333 -241 -216 -313c-53.333 -48.667 -107.666 -73 -162.999 -73c-52 0 -95.833 24 -131.5 72s-53.5 117.333 -53.5 208c0 52.667 9.33301 109.834 28 171.501s44.334 119.167 77.001 172.5
c24.667 39.333 91.667 124.333 201 255c-60 -9.33301 -114 -14 -162 -14l-54 3l-54 2c-23.333 0 -39.833 -5.5 -49.5 -16.5s-27.834 -53.167 -54.501 -126.5z" />
    <glyph glyph-name="x" unicode="x" 
d="M48 178l39.002 6.00195l21 -61c16 -14 32.333 -21 49 -21c33.333 0 68.333 16.667 105 50s102.334 126 197.001 278c-19.333 144.667 -41.5 249.167 -66.5 313.5s-56.5 96.5 -94.5 96.5c-21.333 0 -44.333 -8.33301 -69 -25s-50.667 -41.667 -78 -75l-40 20l125 177
c21.333 10.667 41.666 18.667 60.999 24s37.666 8 54.999 8c60 0 105.167 -21.167 135.5 -63.5s55.166 -144.833 74.499 -307.5c80 127.333 138.333 212.666 175 255.999s73 74.666 109 93.999c25.333 14 51.666 21 78.999 21c20 0 39.333 -6 58 -18l-27 -174l-31 -8
c-9.33301 32 -30.333 48 -63 48c-35.333 0 -71.5 -15.667 -108.5 -47s-95.833 -109 -176.5 -233c32.667 -196 59.334 -317.5 80.001 -364.5s48 -70.5 82 -70.5c14.667 0 30.834 4.66699 48.501 14s54.167 36.333 109.5 81l24 -35
c-85.333 -81.333 -150.333 -135.333 -195 -162c-30 -18 -59 -27 -87 -27c-24.667 0 -47.834 11.667 -69.501 35s-41.5 70.333 -59.5 141c-2.66699 10.667 -15.334 82 -38.001 214c-80.667 -130.667 -140.167 -220.667 -178.5 -270s-73.833 -83 -106.5 -101
c-21.333 -12.667 -47.666 -19 -78.999 -19c-28 0 -57.667 9.66699 -89 29c14 54 23.667 112.667 29 176z" />
    <glyph glyph-name="y" unicode="y" 
d="M48 735l-28.0029 36c102.667 85.333 179.334 142.666 230.001 171.999c28 16 53.667 24 77 24c20 0 36 -8 48 -24s18 -42 18 -78c0 -43.333 -6 -142.666 -18 -297.999c-14 -174 -21 -291 -21 -351c0 -35.333 3.83301 -59 11.5 -71s18.834 -18 33.501 -18
c60 0 143 83.667 249 251c84 132.667 149.667 317.667 197 555c60.667 12 111.334 24 152.001 36l22 -19c-32.667 -76.667 -76 -203 -130 -379l-136 -454c-33.333 -114.667 -73 -217.667 -119 -309s-97.833 -166.666 -155.5 -225.999s-110.834 -100 -159.501 -122
s-95 -33 -139 -33c-54 0 -97.5 14.833 -130.5 44.5s-49.5 69.5 -49.5 119.5l1 31c34.667 15.333 69.667 38.333 105 69l18 -10l-1 -45c0 -39.333 12.667 -71.5 38 -96.5s56 -37.5 92 -37.5c26.667 0 50.834 4.66699 72.501 14s46.167 28.333 73.5 57s57 75.667 89 141
s64.333 151.666 97 258.999l106 383c-102.667 -148 -193 -254.667 -271 -320c-54 -44.667 -94.667 -67 -122 -67c-25.333 0 -46.833 12.333 -64.5 37s-26.5 64.667 -26.5 120c0 34.667 4.66699 104.667 14 210c12.667 142 19 257 19 345c0 65.333 -3.66699 106.333 -11 123
s-17.333 25 -30 25c-20.667 0 -71 -31.333 -151 -94z" />
    <glyph glyph-name="z" unicode="z" horiz-adv-x="909" 
d="M182 697l-49 0.00195312c40.667 116.667 67 201 79 253c23.333 6.66699 45 11.5 65 14.5s38.333 4.5 55 4.5c36 0 85.667 -8.66699 149 -26c100 -26.667 174.333 -40 223 -40c27.333 0 51.166 4.66699 71.499 14s41.833 26.666 64.5 51.999l20 -14
c-4.66699 -20.667 -8.66699 -41 -12 -61l-669 -781c88.667 25.333 155.334 38 200.001 38c32.667 0 74.667 -7 126 -21c46 -12.667 80.667 -19 104 -19c15.333 0 30.5 2.33301 45.5 7s30.167 11.667 45.5 21c14 28 35 76.333 63 145l50 -4
c-24 -68.667 -48.333 -163.334 -73 -284.001c-22 -7.33301 -43.5 -13 -64.5 -17s-41.5 -6 -61.5 -6c-50 0 -109 10 -177 30c-84.667 24 -151.334 36 -200.001 36c-35.333 0 -67 -4.33301 -95 -13s-59 -25 -93 -49l-28 47l706 826
c-61.333 -20 -103.666 -32.167 -126.999 -36.5s-50 -6.5 -80 -6.5c-30.667 0 -63 3.33301 -97 10c-48.667 9.33301 -86 14 -112 14c-9.33301 0 -18.833 -0.666992 -28.5 -2s-19.167 -3.66602 -28.5 -6.99902c-21.333 -30.667 -45.333 -72.334 -72 -125.001z" />
    <glyph glyph-name="braceleft" unicode="{" horiz-adv-x="682" 
d="M283 561c57.333 -18 96.834 -40.5 118.501 -67.5s32.5 -62.5 32.5 -106.5c0 -18.667 -3 -46 -9 -82l-66 -396c-4.66699 -28.667 -7 -50 -7 -64c0 -29.333 6.5 -57.5 19.5 -84.5s29.167 -47.167 48.5 -60.5s53.666 -26 102.999 -38
c-106.667 5.33301 -175.667 11.5 -207 18.5s-59 24.833 -83 53.5s-36 73.667 -36 135c0 27.333 2.33301 55 7 83l64 384c5.33301 34.667 8 58.667 8 72c0 35.333 -11.167 66 -33.5 92s-59.833 46.333 -112.5 61c53.333 16 90 31 110 45c31.333 23.333 54.333 47.5 69 72.5
s26 60.5 34 106.5l69 411c12 68.667 34.167 123.5 66.5 164.5s77.166 69.833 134.499 86.5c22.667 6.66699 93.334 13 212.001 19l-33 -8c-46 -11.333 -82.167 -26.666 -108.5 -45.999s-48.5 -45.333 -66.5 -78s-31 -71.334 -39 -116.001l-69 -412
c-9.33301 -52 -22 -92.167 -38 -120.5s-37.167 -52 -63.5 -71s-67.833 -36.833 -124.5 -53.5z" />
    <glyph glyph-name="bar" unicode="|" horiz-adv-x="1241" 
d="M569 -360v1826h131v-1826h-131z" />
    <glyph glyph-name="braceright" unicode="}" horiz-adv-x="682" 
d="M520 567c-56.667 18 -95.833 40.5029 -117.5 67.5029s-32.5 62.5 -32.5 106.5c0 18.667 3 46 9 82l65 396c4 21.333 6 40.333 6 57c0 35.333 -6.16699 66 -18.5 92s-28.333 46 -48 60s-53.834 26.667 -102.501 38c106 -4.66699 170.333 -9.66699 193 -15
c40 -8.66699 72.5 -27.834 97.5 -57.501s37.5 -71.167 37.5 -124.5c0 -25.333 -3 -56 -9 -92l-64 -385c-5.33301 -34.667 -8 -59.334 -8 -74.001c0 -33.333 11.167 -63 33.5 -89s59.833 -46.667 112.5 -62c-53.333 -15.333 -90 -30.333 -110 -45
c-31.333 -22.667 -54.333 -46.667 -69 -72s-26 -61 -34 -107l-69 -410c-12 -69.333 -34.167 -124.333 -66.5 -165s-77.166 -69.334 -134.499 -86.001c-23.333 -7.33301 -94 -14 -212 -20l32 9c46.667 11.333 83 26.666 109 45.999s48.167 45.333 66.5 78
s31.5 71.334 39.5 116.001l69 411c8.66699 52.667 21.167 93 37.5 121s39.166 53 68.499 75c22.667 16 62.334 32.333 119.001 49z" />
    <glyph glyph-name="asciitilde" unicode="~" horiz-adv-x="1241" 
d="M1109 857l44.998 0.000976562c-3.33301 -100 -24 -173.333 -62 -220c-46.667 -58 -107.667 -87 -183 -87c-30.667 0 -63.667 5.16699 -99 15.5s-126.666 45.5 -273.999 105.5c-102.667 42.667 -175.667 64 -219 64c-98.667 0 -160.667 -61 -186 -183h-44
c0.666992 72.667 10.5 129.667 29.5 171s47.5 74.333 85.5 99s77.667 37 119 37c30 0 63 -5.33301 99 -16c69.333 -20.667 163 -56.334 281 -107.001c62.667 -26.667 113.667 -45.667 153 -57c21.333 -5.33301 44.333 -8 69 -8c50.667 0 92.834 16 126.501 48
s53.5 78 59.5 138z" />
    <glyph glyph-name="nbspace" unicode="&#xa0;" horiz-adv-x="512" 
 />
    <glyph glyph-name="exclamdown" unicode="&#xa1;" horiz-adv-x="682" 
d="M523 969c26.667 0 48.5 -9.16895 65.5 -27.502s25.5 -43.166 25.5 -74.499c0 -40.667 -12 -74.5 -36 -101.5s-52.333 -40.5 -85 -40.5c-26 0 -47.167 8.83301 -63.5 26.5s-24.5 41.834 -24.5 72.501c0 42.667 11.333 77.5 34 104.5s50.667 40.5 84 40.5zM206 -494.002
l-26 17c76.667 269.333 159.667 606.333 249 1011c20 10 40 21.333 60 34l15 -10c-58 -364 -98.333 -697.667 -121 -1001c-68.667 -17.333 -127.667 -34.333 -177 -51z" />
    <glyph glyph-name="cent" unicode="&#xa2;" 
d="M653 1075l-114.999 -729.999c42.667 9.33301 82.167 23.333 118.5 42s85.166 52 146.499 100l19 -52c-74.667 -63.333 -133.5 -108 -176.5 -134s-84.5 -45 -124.5 -57c-10 -70 -20 -145.667 -30 -227h-83c14.667 69.333 28 139.666 40 210.999l-35 -1
c-46 0 -86.667 10.833 -122 32.5s-63 54.334 -83 98.001s-30 96.167 -30 157.5c0 102 16.667 199.167 50 291.5s76 163.333 128 213s132.333 96.834 241 141.501c9.33301 57.333 16.333 109.666 21 156.999l38 -1l39 1l-25 -138l38 2c35.333 0 64.833 -3.5 88.5 -10.5
s52.167 -20.833 85.5 -41.5c-19.333 -71.333 -34 -154.333 -44 -249h-57c1.33301 47.333 2 82 2 104s-2 36 -6 42c-7.33301 10 -21.5 19.667 -42.5 29s-48.167 15.666 -81.5 18.999zM582.001 1071c-50 -10 -89.333 -30.332 -118 -60.999s-57.5 -93 -86.5 -187
s-43.5 -188.667 -43.5 -284c0 -114.667 43.667 -180.334 131 -197.001z" />
    <glyph glyph-name="sterling" unicode="&#xa3;" 
d="M997 294l50 0.00292969c-25.333 -102 -44 -196.333 -56 -283c-42 -22.667 -82.667 -34 -122 -34c-49.333 0 -128.666 10.667 -237.999 32c-159.333 31.333 -288.666 51.333 -387.999 60c-34.667 -32.667 -75.334 -64.667 -122.001 -96h-38
c2 31.333 5.66699 67.333 11 108c44 20.667 82.333 36.667 115 48c37.333 68.667 61.333 128.667 72 180c16.667 80.667 26 194 28 340l-55 1l-120 -4l12 83l163 -2c5.33301 142 13 235 23 279c15.333 68 49.666 129 102.999 183s122.166 105.167 206.499 153.5
s162.833 72.5 235.5 72.5c34.667 0 65.167 -3.83301 91.5 -11.5s56.166 -22.5 89.499 -44.5c-12.667 -48.667 -21.667 -86.334 -27 -113.001c-3.33301 -20.667 -9 -67.667 -17 -141h-52l1 92l-1 42c-28.667 29.333 -56.167 49.666 -82.5 60.999s-56.166 17 -89.499 17
c-68 0 -127.167 -22.333 -177.5 -67s-84.166 -105.334 -101.499 -182.001c-10.667 -46 -24.667 -159.667 -42 -341l82 -2c32 0 112.333 2 241 6l9 -4l-18 -82c-74.667 4 -140 6 -196 6l-125 -2c-12.667 -116 -32.167 -211 -58.5 -285s-67.833 -152.333 -124.5 -235
c34.667 2.66699 65 4 91 4c22 0 54.333 -1 97 -3c172 -10 286.667 -15 344 -15c19.333 0 39 1.16699 59 3.5s40.333 5.83301 61 10.5c20 41.333 42 96.333 66 165z" />
    <glyph glyph-name="currency" unicode="&#xa4;" horiz-adv-x="1241" 
d="M92 299l116.996 116c-40 56 -68 108.333 -84 157s-24 101 -24 157c0 60 8.16699 114.667 24.5 164s44.833 100 85.5 152l-120 119l90 93l121 -121c50.667 40 102.834 69.167 156.501 87.5s108.834 27.5 165.501 27.5c54.667 0 106.834 -8.16699 156.501 -24.5
s101.834 -44.833 156.501 -85.5l118 116l88 -93l-116 -114c42.667 -53.333 72.667 -105.166 90 -155.499s26 -105.5 26 -165.5c0 -58.667 -8.16699 -112.334 -24.5 -161.001s-45.166 -99.667 -86.499 -153l117 -116l-89 -91l-117 116
c-52.667 -41.333 -104.834 -70.833 -156.501 -88.5s-107.167 -26.5 -166.5 -26.5c-57.333 0 -111.333 8.66699 -162 26s-103.667 47 -159 89l-118 -116zM622.996 1114c-104 0 -193.167 -37.5 -267.5 -112.5s-111.5 -165.833 -111.5 -272.5c0 -106 37 -196.333 111 -271
s162.667 -112 266 -112c104 0 193.167 37.5 267.5 112.5s111.5 165.833 111.5 272.5c0 106 -36.833 196.333 -110.5 271s-162.5 112 -266.5 112z" />
    <glyph glyph-name="yen" unicode="&#xa5;" horiz-adv-x="1366" 
d="M814 643l315.996 -0.000976562l-29 -78h-317c-10.667 -29.333 -21 -68.333 -31 -117l-16 -84h333l-29 -78h-318c-16 -88 -24 -148 -24 -180c0 -22 9.66699 -36 29 -42c10.667 -3.33301 63.334 -7.66602 158.001 -12.999l-10 -58c-107.333 4.66699 -194.666 7 -261.999 7
c-43.333 0 -162.666 -2.33301 -357.999 -7v58c152.667 0.666992 236.5 7 251.5 19s33.833 84 56.5 216h-371l29 78h355c14 94 21 145.333 21 154c0 10 -1.33301 25.667 -4 47h-342l29 78h298c-82 280.667 -156 468 -222 562c-40 58 -87 87 -141 87
c-23.333 0 -55 -6.33301 -95 -19v50c62 40.667 114 78.334 156 113.001c56.667 -2 100.334 -14 131.001 -36c53.333 -38.667 105.5 -118.334 156.5 -239.001s104.167 -293.334 159.5 -518.001c60 130.667 121 244.5 183 341.5s124.167 178.5 186.5 244.5
s116.833 113.333 163.5 142c34.667 20.667 80.667 37.667 138 51l-11 -149c-63.333 -12 -120 -36.333 -170 -73c-72.667 -54 -146.667 -133.333 -222 -238c-56.667 -79.333 -116 -185.666 -178 -318.999z" />
    <glyph glyph-name="brokenbar" unicode="&#xa6;" horiz-adv-x="1241" 
d="M569 1466h131v-737l-131 -96v833zM569 378l131 95v-833h-131v738z" />
    <glyph glyph-name="section" unicode="&#xa7;" 
d="M107 -87l52.0029 -5.99609l-5 -53c-4 -47.333 -6.66699 -87 -8 -119c36.667 -42.667 75.5 -73.334 116.5 -92.001s87.833 -28 140.5 -28c84 0 152.667 26 206 78s80 115.667 80 191c0 46 -14 87 -42 123c-28.667 36 -91.667 80.333 -189 133
c-140.667 75.333 -229.667 132 -267 170c-53.333 53.333 -80 117 -80 191c0 58 16.333 112 49 162s90 101.333 172 154c-32.667 30 -55 58.333 -67 85s-18 58 -18 94c0 64 21.667 129.5 65 196.5s98.5 120.833 165.5 161.5s138.833 61 215.5 61
c51.333 0 98.166 -6.5 140.499 -19.5s83.166 -33.833 122.499 -62.5c-22.667 -66.667 -44 -154.667 -64 -264l-53 3c3.33301 44.667 6.33301 98 9 160c-34 31.333 -68 53.333 -102 66s-73.333 19 -118 19c-79.333 0 -143.833 -23.167 -193.5 -69.5
s-74.5 -102.166 -74.5 -167.499c0 -52 19 -98 57 -138c26 -26 96.333 -71.667 211 -137c121.333 -68 196.666 -117.333 225.999 -148c46 -46.667 69 -103.667 69 -171c0 -57.333 -16.667 -112.333 -50 -165s-89.333 -104.334 -168 -155.001
c39.333 -28.667 66.833 -58.334 82.5 -89.001s23.5 -68.334 23.5 -113.001c0 -68.667 -20.667 -135 -62 -199c-52 -80 -114 -141.333 -186 -184s-149.667 -64 -233 -64c-51.333 0 -99.5 7.83301 -144.5 23.5s-93.167 43.167 -144.5 82.5v10
c30.667 107.333 52.667 200.666 66 279.999zM661.003 196.004c57.333 45.333 95.332 83.6689 113.999 115.002s28 65 28 101c0 28.667 -4.66699 54.167 -14 76.5s-24.666 43.833 -45.999 64.5c-29.333 29.333 -72.333 60 -129 92c-134 75.333 -215 122 -243 140
c-54.667 -42.667 -91.667 -79.834 -111 -111.501s-29 -65.834 -29 -102.501c0 -46.667 15 -89.667 45 -129s91.667 -84.333 185 -135z" />
    <glyph glyph-name="dieresis" unicode="&#xa8;" horiz-adv-x="682" 
d="M699 1143c-22.667 0 -41.6689 8.66895 -57.002 26.002s-23 40.666 -23 69.999c0 33.333 9.83301 61.166 29.5 83.499s42.834 33.5 69.501 33.5c22.667 0 41.334 -8.5 56.001 -25.5s22 -39.833 22 -68.5c0 -33.333 -10.167 -61.5 -30.5 -84.5s-42.5 -34.5 -66.5 -34.5z
M352.998 1143c-22.667 0 -41.667 8.66895 -57 26.002s-23 40.666 -23 69.999c0 33.333 10 61.166 30 83.499s43.333 33.5 70 33.5c22 0 40.333 -8.5 55 -25.5s22 -39.833 22 -68.5c0 -33.333 -10.167 -61.5 -30.5 -84.5s-42.5 -34.5 -66.5 -34.5z" />
    <glyph glyph-name="copyright" unicode="&#xa9;" horiz-adv-x="1530" 
d="M765 1436c130.667 0 252.5 -32.667 365.5 -98s202.167 -154.666 267.5 -267.999s98 -235.333 98 -366c0 -130 -32.667 -251.667 -98 -365s-154.5 -202.666 -267.5 -267.999s-234.833 -98 -365.5 -98s-252.5 32.667 -365.5 98s-202.167 154.666 -267.5 267.999
s-98 235 -98 365c0 130.667 32.667 252.667 98 366s154.5 202.666 267.5 267.999s234.833 98 365.5 98zM765 1335c-112.667 0 -217.834 -28.167 -315.501 -84.5s-174.667 -133.166 -231 -230.499s-84.5 -202.666 -84.5 -315.999c0 -112.667 28.167 -217.667 84.5 -315
s133.333 -174.333 231 -231s202.834 -85 315.501 -85s217.834 28.333 315.501 85s174.667 133.667 231 231s84.5 202.333 84.5 315c0 113.333 -28.167 218.666 -84.5 315.999s-133.333 174.166 -231 230.499s-202.834 84.5 -315.501 84.5zM1093 1093l0.00292969 -240h-72
c-3.33301 66.667 -11.333 112.167 -24 136.5s-35.834 45 -69.501 62s-74.5 25.5 -122.5 25.5c-90 0 -163.833 -31 -221.5 -93s-86.5 -145.667 -86.5 -251c0 -110.667 29.5 -199.667 88.5 -267s131.167 -101 216.5 -101c53.333 0 100.666 13 141.999 39s78 69.333 110 130
l61 -23c-25.333 -69.333 -69.5 -124.333 -132.5 -165s-136.167 -61 -219.5 -61c-76 0 -144.833 18 -206.5 54s-110.334 87.667 -146.001 155s-53.5 142 -53.5 224c0 120.667 38.333 223 115 307s185.667 126 327 126c94.667 0 192.667 -19.333 294 -58z" />
    <glyph glyph-name="ordfeminine" unicode="&#xaa;" horiz-adv-x="682" 
d="M617 1415l14.999 -9.99902c-40 -142.667 -72.333 -274.334 -97 -395.001c-14 -68 -21 -112 -21 -132c0 -17.333 6.66699 -26 20 -26c14 0 46 20.667 96 62l8 -30c-91.333 -79.333 -155.333 -119 -192 -119c-11.333 0 -20 3.5 -26 10.5s-9 19.167 -9 36.5
c0 31.333 15 105.666 45 222.999c-64 -91.333 -131 -164.333 -201 -219c-48.667 -38 -83.667 -57 -105 -57c-13.333 0 -23.666 6.66699 -30.999 20c-11.333 20 -17 49 -17 87c0 66 13 143.833 39 233.5s52.333 153.834 79 192.501c20.667 28.667 61 59.667 121 93
c36.667 20 75 30 115 30c17.333 0 36 -2 56 -6s41.333 -10 64 -18zM516.999 1329c-18.667 7.33301 -36.499 12.668 -53.499 16.001s-33.167 5 -48.5 5c-39.333 0 -70.666 -6.33301 -93.999 -19c-7.33301 -4 -16.333 -17.333 -27 -40
c-24.667 -50 -46.5 -113.833 -65.5 -191.5s-28.5 -143.167 -28.5 -196.5c0 -16 2.16699 -27.5 6.5 -34.5s10.166 -10.5 17.499 -10.5c13.333 0 35.666 13.667 66.999 41c65.333 54.667 114.833 114.167 148.5 178.5s59.5 148.166 77.5 251.499z" />
    <glyph glyph-name="guillemotleft" unicode="&#xab;" 
d="M125 478l0.000976562 31c133.333 108 264.666 225.667 393.999 353l39 -36l-92 -114l-182 -226l197 -355l-40 -25zM494.001 478v34c126.667 108 252 224.667 376 350l38 -32l-265 -339l190 -358l-42 -27c-97.333 130.667 -196.333 254.667 -297 372z" />
    <glyph glyph-name="logicalnot" unicode="&#xac;" horiz-adv-x="1241" 
d="M986 464v342h-869v139h1007v-481h-138z" />
    <glyph glyph-name="registered" unicode="&#xae;" horiz-adv-x="1530" 
d="M765 1436c130.667 0 252.5 -32.667 365.5 -98s202.167 -154.666 267.5 -267.999s98 -235.333 98 -366c0 -130 -32.667 -251.667 -98 -365s-154.5 -202.666 -267.5 -267.999s-234.833 -98 -365.5 -98s-252.5 32.667 -365.5 98s-202.167 154.666 -267.5 267.999
s-98 235 -98 365c0 130.667 32.667 252.667 98 366s154.5 202.666 267.5 267.999s234.833 98 365.5 98zM765 1335c-112.667 0 -217.834 -28.167 -315.501 -84.5s-174.667 -133.166 -231 -230.499s-84.5 -202.666 -84.5 -315.999c0 -112.667 28.167 -217.667 84.5 -315
s133.333 -174.333 231 -231s202.834 -85 315.501 -85s217.834 28.333 315.501 85s174.667 133.667 231 231s84.5 202.333 84.5 315c0 113.333 -28.167 218.666 -84.5 315.999s-133.333 174.166 -231 230.499s-202.834 84.5 -315.501 84.5zM416 1104l-0.00195312 58.002h352
c103.333 0 178.5 -19.333 225.5 -58s70.5 -90.667 70.5 -156c0 -52.667 -16.333 -98.334 -49 -137.001s-80.667 -65.334 -144 -80.001c38.667 -25.333 78.334 -81.833 119.001 -169.5s67.667 -139.334 81 -155.001s43 -23.167 89 -22.5v-56h-110
c-35.333 0 -64.166 10.333 -86.499 31s-50.166 73 -83.499 157c-36 90 -63.667 143.5 -83 160.5s-55.333 25.5 -108 25.5h-49v-245c0 -31.333 2.66699 -50.5 8 -57.5s18 -11.167 38 -12.5l57 -5v-54h-323v54l30 3c35.333 2.66699 55.666 6.5 60.999 11.5s8 22.167 8 51.5
v591c0 31.333 -3.16699 49.333 -9.5 54s-37.5 8.33398 -93.5 11.001zM639.998 765.002l45.001 -1.99902c96.667 0 164.5 15 203.5 45s58.5 73.667 58.5 131c0 54 -16.667 94.833 -50 122.5s-90 41.5 -170 41.5c-40.667 0 -65.334 -3.33301 -74.001 -10
s-13 -21.334 -13 -44.001v-284z" />
    <glyph glyph-name="overscore" unicode="&#xaf;" 
d="M157 1665h1048v-102h-1048v102z" />
    <glyph glyph-name="degree" unicode="&#xb0;" horiz-adv-x="819" 
d="M732 1113c0 -90 -31.167 -165.834 -93.5 -227.501s-137.833 -92.5 -226.5 -92.5c-89.333 0 -165 31 -227 93s-93 138.667 -93 230c0 88 31.667 163 95 225s139 93 227 93s163 -31.167 225 -93.5s93 -138.166 93 -227.499zM624 1111c0 56 -20.333 103.999 -61 143.999
s-90.667 60 -150 60c-60 0 -110.333 -19.667 -151 -59s-61 -86.666 -61 -141.999c0 -54 21 -101.333 63 -142s92.333 -61 151 -61s108.167 19.667 148.5 59s60.5 86.333 60.5 141z" />
    <glyph glyph-name="plusminus" unicode="&#xb1;" horiz-adv-x="1124" 
d="M59 664v139h434v434h139v-434h434v-139h-434v-434h-139v434h-434zM59 0v139h1007v-139h-1007z" />
    <glyph glyph-name="twosuperior" unicode="&#xb2;" horiz-adv-x="635" 
d="M10 545l0.00292969 33.999c185.333 180 307 316 365 408c42.667 67.333 64 130 64 188c0 43.333 -11.667 76.833 -35 100.5s-56 35.5 -98 35.5c-35.333 0 -67 -10 -95 -30s-56.667 -57 -86 -111l-42 19l82 150c28 19.333 56.667 33.833 86 43.5s59.333 14.5 90 14.5
c67.333 0 120.666 -18.833 159.999 -56.5s59 -87.167 59 -148.5c0 -56 -17.833 -111.667 -53.5 -167s-155.834 -183.666 -360.501 -384.999h183c97.333 0 169.333 3.33301 216 10l12 -14c-4.66699 -12.667 -12.334 -43 -23.001 -91c-92 2.66699 -186.333 4 -283 4
c-82.667 0 -163 -1.33301 -241 -4z" />
    <glyph glyph-name="threesuperior" unicode="&#xb3;" horiz-adv-x="635" 
d="M50 774l45.002 -6.00195c-4 -29.333 -6 -50.333 -6 -63c0 -32.667 13.667 -59.667 41 -81s64.333 -32 111 -32c59.333 0 109.166 21.833 149.499 65.5s60.5 99.167 60.5 166.5c0 50.667 -14.5 89.5 -43.5 116.5s-71.833 40.5 -128.5 40.5
c-30 0 -64.333 -5.33301 -103 -16l-13 10l27 70c28 -3.33301 48.333 -5 61 -5c54.667 0 100.334 16.5 137.001 49.5s55 70.833 55 113.5c0 32.667 -10.5 58.834 -31.5 78.501s-50.833 29.5 -89.5 29.5c-30.667 0 -57.5 -6.66699 -80.5 -20s-50.5 -40.666 -82.5 -81.999
l-37 24c29.333 43.333 55.333 85.333 78 126c28.667 12.667 56 22.167 82 28.5s50.667 9.5 74 9.5c64 0 113.333 -15.5 148 -46.5s52 -70.5 52 -118.5c0 -43.333 -15 -83 -45 -119c-18.667 -22 -59.334 -50.667 -122.001 -86c67.333 -18 114 -42.5 140 -73.5
s39 -70.5 39 -118.5c0 -80.667 -33.833 -151.167 -101.5 -211.5s-152.834 -90.5 -255.501 -90.5c-34.667 0 -68.5 5 -101.5 15s-65.5 24.667 -97.5 44c15.333 62 28 122.667 38 182z" />
    <glyph glyph-name="acute" unicode="&#xb4;" horiz-adv-x="682" 
d="M399 1131l-70.999 -0.000976562l275 261c39.333 37.333 65.5 59.833 78.5 67.5s26.167 11.5 39.5 11.5c16 0 29.667 -6 41 -18s17 -26.333 17 -43c0 -13.333 -3.66699 -24.666 -11 -33.999c-10.667 -13.333 -33.334 -31 -68.001 -53z" />
    <glyph glyph-name="mu1" unicode="&#xb5;" horiz-adv-x="1180" 
d="M358 942l152.999 -0.00195312l-165 -571c-22.667 -76.667 -35.334 -122.167 -38.001 -136.5s-4 -29.5 -4 -45.5c0 -39.333 9 -69 27 -89s42 -30 72 -30c41.333 0 84.333 16.833 129 50.5s88.667 89.834 132 168.501c28 50.667 55.333 121.334 82 212.001l128 441h151
l-194 -671c-15.333 -48 -23 -87 -23 -117c0 -27.333 5.33301 -47.666 16 -60.999s24.334 -20 41.001 -20c20.667 0 41.334 9.33301 62.001 28s45.334 56.667 74.001 114h37c-27.333 -83.333 -63.333 -144 -108 -182s-93 -57 -145 -57c-36.667 0 -67.667 13.333 -93 40
s-38 63.667 -38 111c0 16.667 1.66699 41.667 5 75c-51.333 -75.333 -106.166 -131.833 -164.499 -169.5s-110.833 -56.5 -157.5 -56.5c-38 0 -69.5 7.66699 -94.5 23s-47.5 43.666 -67.5 84.999c-20.667 -64 -34.834 -113.667 -42.501 -149s-14.5 -82 -20.5 -140
c-6 -64 -18.333 -108 -37 -132s-42.334 -36 -71.001 -36c-22.667 0 -40.667 7.5 -54 22.5s-20 34.5 -20 58.5c0 37.333 25 99.333 75 186c64 109.333 111.333 216.333 142 321z" />
    <glyph glyph-name="paragraph" unicode="&#xb6;" 
d="M1112 1409l-0.000976562 -38.999h-42c-36.667 0 -62.667 -5.16699 -78 -15.5s-26.166 -26 -32.499 -47s-9.5 -69.833 -9.5 -146.5v-1616h-75v1807h-193v-1807h-76v1081c-132 5.33301 -230 22.5 -294 51.5s-114 73.333 -150 133s-54 129.5 -54 209.5
c0 79.333 18.833 148.166 56.5 206.499s89.5 103.333 155.5 135s151 47.5 255 47.5h537z" />
    <glyph glyph-name="middot" unicode="&#xb7;" horiz-adv-x="682" 
d="M617 623c-22.667 0 -41.834 8.83301 -57.501 26.5s-23.5 41.167 -23.5 70.5c0 32.667 10.167 60.167 30.5 82.5s43.833 33.5 70.5 33.5c22.667 0 41.334 -8.5 56.001 -25.5s22 -39.833 22 -68.5c0 -32.667 -10.167 -60.667 -30.5 -84s-42.833 -35 -67.5 -35z" />
    <glyph glyph-name="cedilla" unicode="&#xb8;" horiz-adv-x="682" 
d="M304 0l-64.001 -104c22 4 40.333 6 55 6c46 0 81.833 -12.333 107.5 -37s38.5 -56 38.5 -94c0 -45.333 -20 -84.333 -60 -117s-96 -49 -168 -49c-56 0 -119 13.667 -189 41l29 61c59.333 -24.667 108 -37 146 -37c35.333 0 63 8.83301 83 26.5s30 39.167 30 64.5
c0 22 -8.66699 40.667 -26 56s-39.666 23 -66.999 23c-14 0 -31 -3.66699 -51 -11l-17 13l92 158h61z" />
    <glyph glyph-name="onesuperior" unicode="&#xb9;" horiz-adv-x="635" 
d="M73 544l6.99805 49l62 4c40 2.66699 65.833 9 77.5 19s20.834 29.333 27.501 58l51 287c28.667 159.333 47.334 272.333 56.001 339l-229 -93h-19l15 87c134.667 27.333 249.334 63.666 344.001 108.999l27 -18c-39.333 -186 -76 -383.667 -110 -593
c-12 -74.667 -18 -120.667 -18 -138c0 -22.667 6.16699 -37.167 18.5 -43.5s61.166 -12.166 146.499 -17.499l-8 -49c-82 3.33301 -152.333 5 -211 5c-68 0 -147 -1.66699 -237 -5z" />
    <glyph glyph-name="ordmasculine" unicode="&#xba;" horiz-adv-x="682" 
d="M96 973c0 132.667 34.8301 239.5 104.497 320.5s149.834 121.5 240.501 121.5c57.333 0 102 -17.167 134 -51.5s48 -83.833 48 -148.5c0 -80 -17.833 -157.5 -53.5 -232.5s-80.667 -131 -135 -168s-108.166 -55.5 -161.499 -55.5c-55.333 0 -98.666 17.5 -129.999 52.5
s-47 88.833 -47 161.5zM198.997 983c0 -62 10.665 -106.166 31.998 -132.499s52 -39.5 92 -39.5c56.667 0 103.167 37.5 139.5 112.5s54.5 164.167 54.5 267.5c0 63.333 -11.167 108.666 -33.5 135.999s-54.166 41 -95.499 41c-51.333 0 -92.666 -26 -123.999 -78
c-43.333 -72 -65 -174.333 -65 -307z" />
    <glyph glyph-name="guillemotright" unicode="&#xbb;" 
d="M911 509v-31c-130 -105.333 -261.333 -223.333 -394 -354l-40 36l93 114l182 227l-197 354l40 26zM542 508v-34c-122 -104 -247.333 -220.667 -376 -350l-38 32l264 339l-189 359l41 27c98.667 -132 198 -256.333 298 -373z" />
    <glyph glyph-name="onequarter" unicode="&#xbc;" horiz-adv-x="1612" 
d="M73 544l6.99805 49l62 4c40 2.66699 65.833 9 77.5 19s20.834 29.333 27.501 58l51 287c28.667 159.333 47.334 272.333 56.001 339l-229 -93h-19l15 87c134.667 27.333 249.334 63.666 344.001 108.999l27 -18c-39.333 -186 -76 -383.667 -110 -593
c-12 -74.667 -18 -120.667 -18 -138c0 -22.667 6.16699 -37.167 18.5 -43.5s61.166 -12.166 146.499 -17.499l-8 -49c-82 3.33301 -152.333 5 -211 5c-68 0 -147 -1.66699 -237 -5zM280.998 -88c50 71.333 84 121.333 102 150l785 1254c28.667 46 55.667 93.667 81 143
c29.333 -3.33301 53.333 -5 72 -5l38 2c-27.333 -36.667 -64.666 -92.334 -111.999 -167.001l-772 -1232c-38.667 -61.333 -67.334 -109.666 -86.001 -144.999l-55 3c-11.333 0 -29 -1 -53 -3zM1104 -4l7 48.002c90.667 4.66699 140.834 10.5 150.501 17.5
s21.167 41.5 34.5 103.5l13 64h-180c-56 0 -104 -1 -144 -3v46c116 172 259.667 358.333 431 559c25.333 5.33301 55.333 12.666 90 21.999l20 -10c-18.667 -78 -32 -140.667 -40 -188l-60 -342h47c45.333 0 81.666 1.66699 108.999 5l13 -9c-10 -27.333 -19 -55 -27 -83
c-48 2 -98.667 3 -152 3l-14 -69c-6 -32.667 -9 -58.667 -9 -78c0 -12.667 3.66699 -20.334 11 -23.001c12.667 -4.66699 60.667 -9.66699 144 -15l-9 -48c-82 2.66699 -154.667 4 -218 4c-68 0 -140.333 -1.33301 -217 -4zM1396 721.002l-93 -115l-216 -289
c37.333 -2.66699 84.333 -4 141 -4h96z" />
    <glyph glyph-name="onehalf" unicode="&#xbd;" horiz-adv-x="1612" 
d="M73 544l6.99805 49l62 4c40 2.66699 65.833 9 77.5 19s20.834 29.333 27.501 58l51 287c28.667 159.333 47.334 272.333 56.001 339l-229 -93h-19l15 87c134.667 27.333 249.334 63.666 344.001 108.999l27 -18c-39.333 -186 -76 -383.667 -110 -593
c-12 -74.667 -18 -120.667 -18 -138c0 -22.667 6.16699 -37.167 18.5 -43.5s61.166 -12.166 146.499 -17.499l-8 -49c-82 3.33301 -152.333 5 -211 5c-68 0 -147 -1.66699 -237 -5zM280.998 -88c50 71.333 84 121.333 102 150l785 1254c28.667 46 55.667 93.667 81 143
c29.333 -3.33301 53.333 -5 72 -5l38 2c-27.333 -36.667 -64.666 -92.334 -111.999 -167.001l-772 -1232c-38.667 -61.333 -67.334 -109.666 -86.001 -144.999l-55 3c-11.333 0 -29 -1 -53 -3zM986.998 -4l0.00292969 33.999c185.333 180 307 316 365 408
c42.667 67.333 64 130 64 188c0 43.333 -11.667 76.833 -35 100.5s-56 35.5 -98 35.5c-35.333 0 -67 -10 -95 -30s-56.667 -57 -86 -111l-42 19l82 150c28 19.333 56.667 33.833 86 43.5s59.333 14.5 90 14.5c67.333 0 120.666 -18.833 159.999 -56.5s59 -87.167 59 -148.5
c0 -56 -17.833 -111.667 -53.5 -167s-155.834 -183.666 -360.501 -384.999h183c97.333 0 169.333 3.33301 216 10l12 -14c-4.66699 -12.667 -12.334 -43 -23.001 -91c-92 2.66699 -186.333 4 -283 4c-82.667 0 -163 -1.33301 -241 -4z" />
    <glyph glyph-name="threequarters" unicode="&#xbe;" horiz-adv-x="1612" 
d="M50 774l45.002 -6.00195c-4 -29.333 -6 -50.333 -6 -63c0 -32.667 13.667 -59.667 41 -81s64.333 -32 111 -32c59.333 0 109.166 21.833 149.499 65.5s60.5 99.167 60.5 166.5c0 50.667 -14.5 89.5 -43.5 116.5s-71.833 40.5 -128.5 40.5
c-30 0 -64.333 -5.33301 -103 -16l-13 10l27 70c28 -3.33301 48.333 -5 61 -5c54.667 0 100.334 16.5 137.001 49.5s55 70.833 55 113.5c0 32.667 -10.5 58.834 -31.5 78.501s-50.833 29.5 -89.5 29.5c-30.667 0 -57.5 -6.66699 -80.5 -20s-50.5 -40.666 -82.5 -81.999
l-37 24c29.333 43.333 55.333 85.333 78 126c28.667 12.667 56 22.167 82 28.5s50.667 9.5 74 9.5c64 0 113.333 -15.5 148 -46.5s52 -70.5 52 -118.5c0 -43.333 -15 -83 -45 -119c-18.667 -22 -59.334 -50.667 -122.001 -86c67.333 -18 114 -42.5 140 -73.5
s39 -70.5 39 -118.5c0 -80.667 -33.833 -151.167 -101.5 -211.5s-152.834 -90.5 -255.501 -90.5c-34.667 0 -68.5 5 -101.5 15s-65.5 24.667 -97.5 44c15.333 62 28 122.667 38 182zM282.002 -88.002c50 71.333 84 121.333 102 150l785 1254c28.667 46 55.667 93.667 81 143
c29.333 -3.33301 53.333 -5 72 -5l38 2c-27.333 -36.667 -64.666 -92.334 -111.999 -167.001l-772 -1232c-38.667 -61.333 -67.334 -109.666 -86.001 -144.999l-55 3c-11.333 0 -29 -1 -53 -3zM1104 -4.00195l7 48.002c90.667 4.66699 140.834 10.5 150.501 17.5
s21.167 41.5 34.5 103.5l13 64h-180c-56 0 -104 -1 -144 -3v46c116 172 259.667 358.333 431 559c25.333 5.33301 55.333 12.666 90 21.999l20 -10c-18.667 -78 -32 -140.667 -40 -188l-60 -342h47c45.333 0 81.666 1.66699 108.999 5l13 -9c-10 -27.333 -19 -55 -27 -83
c-48 2 -98.667 3 -152 3l-14 -69c-6 -32.667 -9 -58.667 -9 -78c0 -12.667 3.66699 -20.334 11 -23.001c12.667 -4.66699 60.667 -9.66699 144 -15l-9 -48c-82 2.66699 -154.667 4 -218 4c-68 0 -140.333 -1.33301 -217 -4zM1396 721l-93 -115l-216 -289
c37.333 -2.66699 84.333 -4 141 -4h96z" />
    <glyph glyph-name="questiondown" unicode="&#xbf;" 
d="M630 969c26.667 0 48.667 -9.16797 66 -27.501s26 -43.166 26 -74.499c0 -41.333 -12 -75.333 -36 -102s-52.667 -40 -86 -40c-26 0 -47.333 8.83301 -64 26.5s-25 42.167 -25 73.5c0 42 11.5 76.5 34.5 103.5s51.167 40.5 84.5 40.5zM685 -207.001l44.998 -12.001
c-39.333 -84 -67.333 -151.333 -84 -202c-42 -28 -79.667 -47.167 -113 -57.5s-72 -15.5 -116 -15.5c-105.333 0 -186.666 25.667 -243.999 77s-86 117.333 -86 198c0 64 21.667 129 65 195c28.667 43.333 101 118 217 224c88 80 141.333 134 160 162s28 54.667 28 80
c0 18.667 -5 35.5 -15 50.5s-25 27.833 -45 38.5v12l46 15c32 -19.333 54.333 -39.5 67 -60.5s19 -45.5 19 -73.5c0 -33.333 -9.5 -68.833 -28.5 -106.5s-63.833 -96.167 -134.5 -175.5c-95.333 -107.333 -153.666 -181 -174.999 -221s-32 -79.667 -32 -119
c0 -53.333 16.833 -96.166 50.5 -128.499s79.5 -48.5 137.5 -48.5c32.667 0 65 5.66699 97 17c23.333 8 41 18 53 30s41.333 52.333 88 121z" />
    <glyph glyph-name="Agrave" unicode="&#xc0;" horiz-adv-x="1479" 
d="M972 1432l219 -1179c16.667 -90 28.667 -143 36 -159c4 -9.33301 12 -16.833 24 -22.5s54.333 -11.5 127 -17.5v-61c-73.333 4.66699 -157.666 7 -252.999 7c-92.667 0 -176 -2.33301 -250 -7v61l68 2c45.333 0.666992 74.666 5.5 87.999 14.5s20 23.833 20 44.5
c0 20 -5 58.333 -15 115l-59 337h-510l-82 -144c-81.333 -142.667 -129.333 -231 -144 -265c-11.333 -25.333 -17 -43.666 -17 -54.999c0 -13.333 7.5 -23.333 22.5 -30s67.167 -13 156.5 -19v-61c-105.333 4.66699 -187 7 -245 7c-64 0 -133.333 -2.33301 -208 -7v61
c54.667 2.66699 88 7.66699 100 15s44 53 96 137l729 1226h97zM858 1232l-344 -586c107.333 -2 190 -3 248 -3c53.333 0 120.333 1 201 3zM1046 1510l-303.999 192c-36 23.333 -58.5 40.5 -67.5 51.5s-13.5 23.167 -13.5 36.5c0 16 5.66699 30 17 42s25 18 41 18
c13.333 0 26.666 -3.83301 39.999 -11.5s40 -30.167 80 -67.5l277 -261h-70z" />
    <glyph glyph-name="Aacute" unicode="&#xc1;" horiz-adv-x="1479" 
d="M972 1432l219 -1179c16.667 -90 28.667 -143 36 -159c4 -9.33301 12 -16.833 24 -22.5s54.333 -11.5 127 -17.5v-61c-73.333 4.66699 -157.666 7 -252.999 7c-92.667 0 -176 -2.33301 -250 -7v61l68 2c45.333 0.666992 74.666 5.5 87.999 14.5s20 23.833 20 44.5
c0 20 -5 58.333 -15 115l-59 337h-510l-82 -144c-81.333 -142.667 -129.333 -231 -144 -265c-11.333 -25.333 -17 -43.666 -17 -54.999c0 -13.333 7.5 -23.333 22.5 -30s67.167 -13 156.5 -19v-61c-105.333 4.66699 -187 7 -245 7c-64 0 -133.333 -2.33301 -208 -7v61
c54.667 2.66699 88 7.66699 100 15s44 53 96 137l729 1226h97zM858 1232l-344 -586c107.333 -2 190 -3 248 -3c53.333 0 120.333 1 201 3zM798 1510l-70.999 -0.000976562l275 261c39.333 37.333 65.5 59.833 78.5 67.5s26.167 11.5 39.5 11.5c16 0 29.667 -6 41 -18
s17 -26.333 17 -43c0 -13.333 -3.66699 -24.666 -11 -33.999c-10.667 -13.333 -33.334 -31 -68.001 -53z" />
    <glyph glyph-name="Acircumflex" unicode="&#xc2;" horiz-adv-x="1479" 
d="M972 1432l219 -1179c16.667 -90 28.667 -143 36 -159c4 -9.33301 12 -16.833 24 -22.5s54.333 -11.5 127 -17.5v-61c-73.333 4.66699 -157.666 7 -252.999 7c-92.667 0 -176 -2.33301 -250 -7v61l68 2c45.333 0.666992 74.666 5.5 87.999 14.5s20 23.833 20 44.5
c0 20 -5 58.333 -15 115l-59 337h-510l-82 -144c-81.333 -142.667 -129.333 -231 -144 -265c-11.333 -25.333 -17 -43.666 -17 -54.999c0 -13.333 7.5 -23.333 22.5 -30s67.167 -13 156.5 -19v-61c-105.333 4.66699 -187 7 -245 7c-64 0 -133.333 -2.33301 -208 -7v61
c54.667 2.66699 88 7.66699 100 15s44 53 96 137l729 1226h97zM858 1232l-344 -586c107.333 -2 190 -3 248 -3c53.333 0 120.333 1 201 3zM598 1510l352 342h83l200 -342h-68l-188 221l-302 -221h-77z" />
    <glyph glyph-name="Atilde" unicode="&#xc3;" horiz-adv-x="1479" 
d="M972 1432l219 -1179c16.667 -90 28.667 -143 36 -159c4 -9.33301 12 -16.833 24 -22.5s54.333 -11.5 127 -17.5v-61c-73.333 4.66699 -157.666 7 -252.999 7c-92.667 0 -176 -2.33301 -250 -7v61l68 2c45.333 0.666992 74.666 5.5 87.999 14.5s20 23.833 20 44.5
c0 20 -5 58.333 -15 115l-59 337h-510l-82 -144c-81.333 -142.667 -129.333 -231 -144 -265c-11.333 -25.333 -17 -43.666 -17 -54.999c0 -13.333 7.5 -23.333 22.5 -30s67.167 -13 156.5 -19v-61c-105.333 4.66699 -187 7 -245 7c-64 0 -133.333 -2.33301 -208 -7v61
c54.667 2.66699 88 7.66699 100 15s44 53 96 137l729 1226h97zM858 1232l-344 -586c107.333 -2 190 -3 248 -3c53.333 0 120.333 1 201 3zM681 1576l-58.999 -0.000976562c18.667 74.667 45 127.834 79 159.501s74.667 47.5 122 47.5c44.667 0 103.667 -16.333 177 -49
c72 -31.333 122 -47 150 -47c21.333 0 39.666 6.83301 54.999 20.5s29 40.167 41 79.5h57c-16 -68 -42 -119.833 -78 -155.5s-75.333 -53.5 -118 -53.5c-20.667 0 -41.334 2.83301 -62.001 8.5s-56.667 19.5 -108 41.5c-72 30.667 -121.333 46 -148 46
c-25.333 0 -45.666 -6.16699 -60.999 -18.5s-31 -38.833 -47 -79.5z" />
    <glyph glyph-name="Adieresis" unicode="&#xc4;" horiz-adv-x="1479" 
d="M972 1432l219 -1179c16.667 -90 28.667 -143 36 -159c4 -9.33301 12 -16.833 24 -22.5s54.333 -11.5 127 -17.5v-61c-73.333 4.66699 -157.666 7 -252.999 7c-92.667 0 -176 -2.33301 -250 -7v61l68 2c45.333 0.666992 74.666 5.5 87.999 14.5s20 23.833 20 44.5
c0 20 -5 58.333 -15 115l-59 337h-510l-82 -144c-81.333 -142.667 -129.333 -231 -144 -265c-11.333 -25.333 -17 -43.666 -17 -54.999c0 -13.333 7.5 -23.333 22.5 -30s67.167 -13 156.5 -19v-61c-105.333 4.66699 -187 7 -245 7c-64 0 -133.333 -2.33301 -208 -7v61
c54.667 2.66699 88 7.66699 100 15s44 53 96 137l729 1226h97zM858 1232l-344 -586c107.333 -2 190 -3 248 -3c53.333 0 120.333 1 201 3zM1097 1523c-22.667 0 -41.6689 8.66895 -57.002 26.002s-23 40.666 -23 69.999c0 33.333 9.83301 61.166 29.5 83.499
s42.834 33.5 69.501 33.5c22.667 0 41.334 -8.5 56.001 -25.5s22 -39.833 22 -68.5c0 -33.333 -10.167 -61.5 -30.5 -84.5s-42.5 -34.5 -66.5 -34.5zM750.998 1523c-22.667 0 -41.667 8.66895 -57 26.002s-23 40.666 -23 69.999c0 33.333 10 61.166 30 83.499
s43.333 33.5 70 33.5c22 0 40.333 -8.5 55 -25.5s22 -39.833 22 -68.5c0 -33.333 -10.167 -61.5 -30.5 -84.5s-42.5 -34.5 -66.5 -34.5z" />
    <glyph glyph-name="Aring" unicode="&#xc5;" horiz-adv-x="1479" 
d="M972 1432l219 -1179c16.667 -90 28.667 -143 36 -159c4 -9.33301 12 -16.833 24 -22.5s54.333 -11.5 127 -17.5v-61c-73.333 4.66699 -157.666 7 -252.999 7c-92.667 0 -176 -2.33301 -250 -7v61l68 2c45.333 0.666992 74.666 5.5 87.999 14.5s20 23.833 20 44.5
c0 20 -5 58.333 -15 115l-59 337h-510l-82 -144c-81.333 -142.667 -129.333 -231 -144 -265c-11.333 -25.333 -17 -43.666 -17 -54.999c0 -13.333 7.5 -23.333 22.5 -30s67.167 -13 156.5 -19v-61c-105.333 4.66699 -187 7 -245 7c-64 0 -133.333 -2.33301 -208 -7v61
c54.667 2.66699 88 7.66699 100 15s44 53 96 137l729 1226h97zM858 1232l-344 -586c107.333 -2 190 -3 248 -3c53.333 0 120.333 1 201 3zM931 1889c57.333 0 106.5 -20.333 147.5 -61s61.5 -89.667 61.5 -147s-20.167 -106.166 -60.5 -146.499
s-89.166 -60.5 -146.499 -60.5s-106.5 20.333 -147.5 61s-61.5 89.667 -61.5 147s20.167 106.166 60.5 146.499s89.166 60.5 146.499 60.5zM931 1814c-36 0 -66.833 -12.833 -92.5 -38.5s-38.5 -56.834 -38.5 -93.501s13 -68 39 -94s57.333 -39 94 -39
c36 0 66.833 12.833 92.5 38.5s38.5 56.834 38.5 93.501s-13 68 -39 94s-57.333 39 -94 39z" />
    <glyph glyph-name="AE" unicode="&#xc6;" horiz-adv-x="1927" 
d="M-12 -7l0.000976562 57.998c48 3.33301 78.833 8.83301 92.5 16.5s30.167 24.834 49.5 51.501l241 357l333 493l188 279c18.667 30.667 28 51.334 28 62.001c0 15.333 -7.16699 26.166 -21.5 32.499s-79.5 13.833 -195.5 22.5v55l225 -6c144 -3.33301 258 -5 342 -5
c78 0 174 1.66699 288 5l126 3c46 0 103.667 -2.33301 173 -7c-16 -77.333 -28.667 -178.666 -38 -303.999h-54c-4 110 -9.33301 172 -16 186c-4.66699 10 -15 17.333 -31 22c-40 12 -114.667 18 -224 18l-201 -4c-26.667 -115.333 -62 -300.333 -106 -555
c96 -3.33301 183.333 -5 262 -5c73.333 0 151 5.66699 233 17l9 -12c-9.33301 -20.667 -22.333 -53 -39 -97c-75.333 9.33301 -159.333 14 -252 14c-61.333 0 -137 -1 -227 -3l-68 -410l-28 -182c126.667 -10 238.334 -15 335.001 -15c104 0 177.667 5.66699 221 17
c24 6.66699 40.5 18.5 49.5 35.5s25.833 82.167 50.5 195.5h67c-18.667 -88.667 -30.334 -148.834 -35.001 -180.501s-10 -83.167 -16 -154.5c-72 -3.33301 -127.667 -5 -167 -5c-30.667 0 -87.334 1.66699 -170.001 5c-67.333 2.66699 -188.333 5.33398 -363 8.00098l-64 1
l-196 -9v45c37.333 12 74 26.667 110 44c37.333 166 69.333 329.333 96 490l-217 3l-236 -3c-129.333 -206.667 -210.333 -341.667 -243 -405c-13.333 -26 -20 -45 -20 -57c0 -18 10 -32 30 -42s68.667 -15.667 146 -17v-58c-98 4.66699 -177.667 7 -239 7
c-65.333 0 -141.333 -2.33301 -228 -7zM1069 1339c-48.667 -64.667 -135.334 -187.333 -260.001 -368c-98 -142.667 -168.667 -249 -212 -319c96.667 -3.33301 165.334 -5 206.001 -5c38 0 106.667 1.66699 206 5c55.333 322.667 91 551.667 107 687h-47z" />
    <glyph glyph-name="Ccedilla" unicode="&#xc7;" horiz-adv-x="1366" 
d="M1300 224c-9.33301 -24 -17.334 -48.333 -24.001 -73c-80 -62 -162.167 -107.167 -246.5 -135.5s-177.833 -42.5 -280.5 -42.5c-195.333 0 -346.833 53.667 -454.5 161s-161.5 258.666 -161.5 453.999c0 246 77.667 446 233 600c166.667 165.333 368 248 604 248
c72.667 0 143.5 -6.83301 212.5 -20.5s135.833 -34.167 200.5 -61.5c-26 -95.333 -44 -193 -54 -293h-58c-2 34 -3 60 -3 78l3 87c-66 42.667 -126.167 71.834 -180.5 87.501s-118.833 23.5 -193.5 23.5c-124.667 0 -226.667 -24.667 -306 -74
s-145.666 -130.833 -198.999 -244.5s-80 -243.167 -80 -388.5c0 -175.333 45 -310.5 135 -405.5s213 -142.5 369 -142.5c74 0 145 10.667 213 32s150.333 62 247 122zM800.999 0l-64.001 -104c22 4 40.333 6 55 6c46 0 81.833 -12.333 107.5 -37s38.5 -56 38.5 -94
c0 -45.333 -20 -84.333 -60 -117s-96 -49 -168 -49c-56 0 -119 13.667 -189 41l29 61c59.333 -24.667 108 -37 146 -37c35.333 0 63 8.83301 83 26.5s30 39.167 30 64.5c0 22 -8.66699 40.667 -26 56s-39.666 23 -66.999 23c-14 0 -31 -3.66699 -51 -11l-17 13l92 158h61z
" />
    <glyph glyph-name="Egrave" unicode="&#xc8;" horiz-adv-x="1251" 
d="M78 -9l7.00195 48.9971l35 12c24.667 9.33301 48 18.666 70 27.999c40.667 171.333 93.334 454.333 158.001 849c33.333 204 50 322.667 50 356c0 24.667 -7.83301 41.167 -23.5 49.5s-69.167 15.833 -160.5 22.5l9 58c117.333 -4 219.666 -6 306.999 -6l449 6
c72.667 0 136.667 -2.66699 192 -8c-16.667 -85.333 -28.334 -185.666 -35.001 -300.999h-56c-4 120.667 -12 187.334 -24 200.001c-16.667 16.667 -114.334 25 -293.001 25c-56 0 -116.333 -1.33301 -181 -4c-35.333 -178 -68.333 -362 -99 -552c88 -3.33301 167 -5 237 -5
c81.333 0 174 5.33301 278 16l10 -11c-13.333 -30.667 -26.333 -64 -39 -100c-94.667 8 -214 12 -358 12l-143 -2c-46 -262 -77 -457.333 -93 -586c110.667 -11.333 226 -17 346 -17c79.333 0 150.666 3.66699 213.999 11c21.333 2.66699 36.5 7.33398 45.5 14.001
s16.833 18.334 23.5 35.001c5.33301 12 23 74.667 53 188h60l-19 -113c-12 -66 -21.667 -138.333 -29 -217c-52 -6.66699 -105 -10 -159 -10c-35.333 0 -87.666 1 -156.999 3c-149.333 4.66699 -265.333 7 -348 7c-103.333 0 -212.333 -3 -327 -9zM903.002 1510
l-303.999 192c-36 23.333 -58.5 40.5 -67.5 51.5s-13.5 23.167 -13.5 36.5c0 16 5.66699 30 17 42s25 18 41 18c13.333 0 26.666 -3.83301 39.999 -11.5s40 -30.167 80 -67.5l277 -261h-70z" />
    <glyph glyph-name="Eacute" unicode="&#xc9;" horiz-adv-x="1251" 
d="M78 -9l7.00195 48.9971l35 12c24.667 9.33301 48 18.666 70 27.999c40.667 171.333 93.334 454.333 158.001 849c33.333 204 50 322.667 50 356c0 24.667 -7.83301 41.167 -23.5 49.5s-69.167 15.833 -160.5 22.5l9 58c117.333 -4 219.666 -6 306.999 -6l449 6
c72.667 0 136.667 -2.66699 192 -8c-16.667 -85.333 -28.334 -185.666 -35.001 -300.999h-56c-4 120.667 -12 187.334 -24 200.001c-16.667 16.667 -114.334 25 -293.001 25c-56 0 -116.333 -1.33301 -181 -4c-35.333 -178 -68.333 -362 -99 -552c88 -3.33301 167 -5 237 -5
c81.333 0 174 5.33301 278 16l10 -11c-13.333 -30.667 -26.333 -64 -39 -100c-94.667 8 -214 12 -358 12l-143 -2c-46 -262 -77 -457.333 -93 -586c110.667 -11.333 226 -17 346 -17c79.333 0 150.666 3.66699 213.999 11c21.333 2.66699 36.5 7.33398 45.5 14.001
s16.833 18.334 23.5 35.001c5.33301 12 23 74.667 53 188h60l-19 -113c-12 -66 -21.667 -138.333 -29 -217c-52 -6.66699 -105 -10 -159 -10c-35.333 0 -87.666 1 -156.999 3c-149.333 4.66699 -265.333 7 -348 7c-103.333 0 -212.333 -3 -327 -9zM684.002 1510
l-70.999 -0.000976562l275 261c39.333 37.333 65.5 59.833 78.5 67.5s26.167 11.5 39.5 11.5c16 0 29.667 -6 41 -18s17 -26.333 17 -43c0 -13.333 -3.66699 -24.666 -11 -33.999c-10.667 -13.333 -33.334 -31 -68.001 -53z" />
    <glyph glyph-name="Ecircumflex" unicode="&#xca;" horiz-adv-x="1251" 
d="M78 -9l7.00195 48.9971l35 12c24.667 9.33301 48 18.666 70 27.999c40.667 171.333 93.334 454.333 158.001 849c33.333 204 50 322.667 50 356c0 24.667 -7.83301 41.167 -23.5 49.5s-69.167 15.833 -160.5 22.5l9 58c117.333 -4 219.666 -6 306.999 -6l449 6
c72.667 0 136.667 -2.66699 192 -8c-16.667 -85.333 -28.334 -185.666 -35.001 -300.999h-56c-4 120.667 -12 187.334 -24 200.001c-16.667 16.667 -114.334 25 -293.001 25c-56 0 -116.333 -1.33301 -181 -4c-35.333 -178 -68.333 -362 -99 -552c88 -3.33301 167 -5 237 -5
c81.333 0 174 5.33301 278 16l10 -11c-13.333 -30.667 -26.333 -64 -39 -100c-94.667 8 -214 12 -358 12l-143 -2c-46 -262 -77 -457.333 -93 -586c110.667 -11.333 226 -17 346 -17c79.333 0 150.666 3.66699 213.999 11c21.333 2.66699 36.5 7.33398 45.5 14.001
s16.833 18.334 23.5 35.001c5.33301 12 23 74.667 53 188h60l-19 -113c-12 -66 -21.667 -138.333 -29 -217c-52 -6.66699 -105 -10 -159 -10c-35.333 0 -87.666 1 -156.999 3c-149.333 4.66699 -265.333 7 -348 7c-103.333 0 -212.333 -3 -327 -9zM455.002 1510l352 342h83
l200 -342h-68l-188 221l-302 -221h-77z" />
    <glyph glyph-name="Edieresis" unicode="&#xcb;" horiz-adv-x="1251" 
d="M78 -9l7.00195 48.9971l35 12c24.667 9.33301 48 18.666 70 27.999c40.667 171.333 93.334 454.333 158.001 849c33.333 204 50 322.667 50 356c0 24.667 -7.83301 41.167 -23.5 49.5s-69.167 15.833 -160.5 22.5l9 58c117.333 -4 219.666 -6 306.999 -6l449 6
c72.667 0 136.667 -2.66699 192 -8c-16.667 -85.333 -28.334 -185.666 -35.001 -300.999h-56c-4 120.667 -12 187.334 -24 200.001c-16.667 16.667 -114.334 25 -293.001 25c-56 0 -116.333 -1.33301 -181 -4c-35.333 -178 -68.333 -362 -99 -552c88 -3.33301 167 -5 237 -5
c81.333 0 174 5.33301 278 16l10 -11c-13.333 -30.667 -26.333 -64 -39 -100c-94.667 8 -214 12 -358 12l-143 -2c-46 -262 -77 -457.333 -93 -586c110.667 -11.333 226 -17 346 -17c79.333 0 150.666 3.66699 213.999 11c21.333 2.66699 36.5 7.33398 45.5 14.001
s16.833 18.334 23.5 35.001c5.33301 12 23 74.667 53 188h60l-19 -113c-12 -66 -21.667 -138.333 -29 -217c-52 -6.66699 -105 -10 -159 -10c-35.333 0 -87.666 1 -156.999 3c-149.333 4.66699 -265.333 7 -348 7c-103.333 0 -212.333 -3 -327 -9zM984.002 1523
c-22.667 0 -41.6689 8.66895 -57.002 26.002s-23 40.666 -23 69.999c0 33.333 9.83301 61.166 29.5 83.499s42.834 33.5 69.501 33.5c22.667 0 41.334 -8.5 56.001 -25.5s22 -39.833 22 -68.5c0 -33.333 -10.167 -61.5 -30.5 -84.5s-42.5 -34.5 -66.5 -34.5zM638 1523
c-22.667 0 -41.667 8.66895 -57 26.002s-23 40.666 -23 69.999c0 33.333 10 61.166 30 83.499s43.333 33.5 70 33.5c22 0 40.333 -8.5 55 -25.5s22 -39.833 22 -68.5c0 -33.333 -10.167 -61.5 -30.5 -84.5s-42.5 -34.5 -66.5 -34.5z" />
    <glyph glyph-name="Igrave" unicode="&#xcc;" horiz-adv-x="682" 
d="M6 -7l8.00098 56c80.667 2.66699 127.167 8.33398 139.5 17.001s23.166 28.334 32.499 59.001c14.667 48 50.834 246 108.501 594s86.5 540.667 86.5 578c0 26 -7.66699 42 -23 48c-10 4 -61.333 9.66699 -154 17l10 54c99.333 -4.66699 182.666 -7 249.999 -7
c74 0 164.667 2.33301 272 7v-54c-83.333 -2.66699 -131.166 -6.83398 -143.499 -12.501s-22.333 -15.167 -30 -28.5s-21.834 -75.333 -42.501 -186l-72 -439l-78 -479c-8 -54 -12 -88.333 -12 -103c0 -22.667 6 -37.334 18 -44.001c16 -8 68.667 -15 158 -21l-7 -56
c-102 4.66699 -183.667 7 -245 7c-54 0 -146 -2.33301 -276 -7zM618.001 1510l-303.999 192c-36 23.333 -58.5 40.5 -67.5 51.5s-13.5 23.167 -13.5 36.5c0 16 5.66699 30 17 42s25 18 41 18c13.333 0 26.666 -3.83301 39.999 -11.5s40 -30.167 80 -67.5l277 -261h-70z" />
    <glyph glyph-name="Iacute" unicode="&#xcd;" horiz-adv-x="682" 
d="M6 -7l8.00098 56c80.667 2.66699 127.167 8.33398 139.5 17.001s23.166 28.334 32.499 59.001c14.667 48 50.834 246 108.501 594s86.5 540.667 86.5 578c0 26 -7.66699 42 -23 48c-10 4 -61.333 9.66699 -154 17l10 54c99.333 -4.66699 182.666 -7 249.999 -7
c74 0 164.667 2.33301 272 7v-54c-83.333 -2.66699 -131.166 -6.83398 -143.499 -12.501s-22.333 -15.167 -30 -28.5s-21.834 -75.333 -42.501 -186l-72 -439l-78 -479c-8 -54 -12 -88.333 -12 -103c0 -22.667 6 -37.334 18 -44.001c16 -8 68.667 -15 158 -21l-7 -56
c-102 4.66699 -183.667 7 -245 7c-54 0 -146 -2.33301 -276 -7zM399.001 1510l-70.999 -0.000976562l275 261c39.333 37.333 65.5 59.833 78.5 67.5s26.167 11.5 39.5 11.5c16 0 29.667 -6 41 -18s17 -26.333 17 -43c0 -13.333 -3.66699 -24.666 -11 -33.999
c-10.667 -13.333 -33.334 -31 -68.001 -53z" />
    <glyph glyph-name="Icircumflex" unicode="&#xce;" horiz-adv-x="682" 
d="M6 -7l8.00098 56c80.667 2.66699 127.167 8.33398 139.5 17.001s23.166 28.334 32.499 59.001c14.667 48 50.834 246 108.501 594s86.5 540.667 86.5 578c0 26 -7.66699 42 -23 48c-10 4 -61.333 9.66699 -154 17l10 54c99.333 -4.66699 182.666 -7 249.999 -7
c74 0 164.667 2.33301 272 7v-54c-83.333 -2.66699 -131.166 -6.83398 -143.499 -12.501s-22.333 -15.167 -30 -28.5s-21.834 -75.333 -42.501 -186l-72 -439l-78 -479c-8 -54 -12 -88.333 -12 -103c0 -22.667 6 -37.334 18 -44.001c16 -8 68.667 -15 158 -21l-7 -56
c-102 4.66699 -183.667 7 -245 7c-54 0 -146 -2.33301 -276 -7zM170.001 1510l352 342h83l200 -342h-68l-188 221l-302 -221h-77z" />
    <glyph glyph-name="Idieresis" unicode="&#xcf;" horiz-adv-x="682" 
d="M6 -7l8.00098 56c80.667 2.66699 127.167 8.33398 139.5 17.001s23.166 28.334 32.499 59.001c14.667 48 50.834 246 108.501 594s86.5 540.667 86.5 578c0 26 -7.66699 42 -23 48c-10 4 -61.333 9.66699 -154 17l10 54c99.333 -4.66699 182.666 -7 249.999 -7
c74 0 164.667 2.33301 272 7v-54c-83.333 -2.66699 -131.166 -6.83398 -143.499 -12.501s-22.333 -15.167 -30 -28.5s-21.834 -75.333 -42.501 -186l-72 -439l-78 -479c-8 -54 -12 -88.333 -12 -103c0 -22.667 6 -37.334 18 -44.001c16 -8 68.667 -15 158 -21l-7 -56
c-102 4.66699 -183.667 7 -245 7c-54 0 -146 -2.33301 -276 -7zM699.001 1523c-22.667 0 -41.6689 8.66895 -57.002 26.002s-23 40.666 -23 69.999c0 33.333 9.83301 61.166 29.5 83.499s42.834 33.5 69.501 33.5c22.667 0 41.334 -8.5 56.001 -25.5s22 -39.833 22 -68.5
c0 -33.333 -10.167 -61.5 -30.5 -84.5s-42.5 -34.5 -66.5 -34.5zM352.999 1523c-22.667 0 -41.667 8.66895 -57 26.002s-23 40.666 -23 69.999c0 33.333 10 61.166 30 83.499s43.333 33.5 70 33.5c22 0 40.333 -8.5 55 -25.5s22 -39.833 22 -68.5
c0 -33.333 -10.167 -61.5 -30.5 -84.5s-42.5 -34.5 -66.5 -34.5z" />
    <glyph glyph-name="Eth" unicode="&#xd0;" horiz-adv-x="1593" 
d="M281 748l15.9971 102.001c38.667 250 58 394.667 58 434c0 30 -12 50.333 -36 61c-12.667 4.66699 -60.667 10 -144 16v57c100 -6 191.667 -9 275 -9c46.667 0 109 1.33301 187 4c108.667 4 184.334 6 227.001 6c152.667 0 270.834 -20.167 354.501 -60.5
s147.834 -99.833 192.501 -178.5s67 -180 67 -304c0 -244 -88.667 -456 -266 -636c-164 -166.667 -371.333 -250 -622 -250c-34.667 0 -85.334 1.33301 -152.001 4c-92 4 -165.667 6 -221 6c-45.333 0 -96 -1.66699 -152 -5v50c33.333 5.33301 56.333 12.666 69 21.999
s23.334 24 32.001 44s23.667 91 45 213l58 343l-48 4l-79 -2h-42l11 79h170zM425.997 669.001c-46.667 -296.667 -74.667 -484.001 -84 -562.001c113.333 -20.667 212.333 -31 297 -31c138.667 0 251.5 27.167 338.5 81.5s161.667 145.833 224 274.5
s93.5 268.334 93.5 419.001c0 108 -19 197 -57 267s-93.333 123.333 -166 160s-165 55 -277 55c-84 0 -169.333 -3 -256 -9c-17.333 -84 -45.333 -242 -84 -474l-16 -102l135 -2l222 4l52 -2l-15 -79l-107 1l-48 1z" />
    <glyph glyph-name="Ntilde" unicode="&#xd1;" horiz-adv-x="1593" 
d="M22 -6l0.00195312 57c81.333 2.66699 128.333 10.167 141 22.5s35.667 102.833 69 271.5c42.667 216 96.667 519.333 162 910c-27.333 40.667 -52.5 66.667 -75.5 78s-74.5 19.666 -154.5 24.999v58c117.333 -4.66699 189.333 -7 216 -7c38.667 0 79.667 2.33301 123 7
c32 -60 128.667 -228.667 290 -506l415 -701c19.333 108.667 67.666 399.334 144.999 872.001c20 122 30 194 30 216c0 21.333 -7.16699 35.833 -21.5 43.5s-63.166 13.5 -146.499 17.5v58c100 -4.66699 175.333 -7 226 -7c60.667 0 133.667 2.33301 219 7v-58
c-64.667 -2.66699 -103.334 -7.16699 -116.001 -13.5s-23.5 -16.166 -32.5 -29.499s-21.167 -57 -36.5 -131l-112 -611c-41.333 -232 -74.666 -432.667 -99.999 -602h-102l-217 385l-474 798c-16.667 -84 -64.667 -352.667 -144 -806
c-19.333 -110.667 -29 -182.667 -29 -216c0 -32 11.667 -53.333 35 -64c15.333 -6.66699 63.333 -12.334 144 -17.001v-57c-96.667 4 -168.334 6 -215.001 6c-30.667 0 -110.334 -2 -239.001 -6zM708.002 1576l-58.999 -0.000976562c18.667 74.667 45 127.834 79 159.501
s74.667 47.5 122 47.5c44.667 0 103.667 -16.333 177 -49c72 -31.333 122 -47 150 -47c21.333 0 39.666 6.83301 54.999 20.5s29 40.167 41 79.5h57c-16 -68 -42 -119.833 -78 -155.5s-75.333 -53.5 -118 -53.5c-20.667 0 -41.334 2.83301 -62.001 8.5
s-56.667 19.5 -108 41.5c-72 30.667 -121.333 46 -148 46c-25.333 0 -45.666 -6.16699 -60.999 -18.5s-31 -38.833 -47 -79.5z" />
    <glyph glyph-name="Ograve" unicode="&#xd2;" horiz-adv-x="1593" 
d="M706 -27c-142 0 -251.499 20.333 -328.499 61s-137.5 100.667 -181.5 180s-66 181.333 -66 306c0 244.667 71 458.5 213 641.5s347.667 274.5 617 274.5c183.333 0 322.666 -47.333 417.999 -142s143 -229.667 143 -405c0 -169.333 -38.167 -326.333 -114.5 -471
s-175.5 -255 -297.5 -331s-256.333 -114 -403 -114zM309.001 542c0 -114.667 16.5 -204.832 49.5 -270.499s83.333 -117.5 151 -155.5s147.834 -57 240.501 -57c201.333 0 351.666 86.333 450.999 259c91.333 158 137 347.667 137 569
c0 111.333 -16.667 200.166 -50 266.499s-82.333 117.333 -147 153s-144.667 53.5 -240 53.5c-118 0 -218.5 -28 -301.5 -84s-152.167 -150.333 -207.5 -283s-83 -283 -83 -451zM1074 1510l-303.999 192c-36 23.333 -58.5 40.5 -67.5 51.5s-13.5 23.167 -13.5 36.5
c0 16 5.66699 30 17 42s25 18 41 18c13.333 0 26.666 -3.83301 39.999 -11.5s40 -30.167 80 -67.5l277 -261h-70z" />
    <glyph glyph-name="Oacute" unicode="&#xd3;" horiz-adv-x="1593" 
d="M706 -27c-142 0 -251.499 20.333 -328.499 61s-137.5 100.667 -181.5 180s-66 181.333 -66 306c0 244.667 71 458.5 213 641.5s347.667 274.5 617 274.5c183.333 0 322.666 -47.333 417.999 -142s143 -229.667 143 -405c0 -169.333 -38.167 -326.333 -114.5 -471
s-175.5 -255 -297.5 -331s-256.333 -114 -403 -114zM309.001 542c0 -114.667 16.5 -204.832 49.5 -270.499s83.333 -117.5 151 -155.5s147.834 -57 240.501 -57c201.333 0 351.666 86.333 450.999 259c91.333 158 137 347.667 137 569
c0 111.333 -16.667 200.166 -50 266.499s-82.333 117.333 -147 153s-144.667 53.5 -240 53.5c-118 0 -218.5 -28 -301.5 -84s-152.167 -150.333 -207.5 -283s-83 -283 -83 -451zM855.001 1510l-70.999 -0.000976562l275 261c39.333 37.333 65.5 59.833 78.5 67.5
s26.167 11.5 39.5 11.5c16 0 29.667 -6 41 -18s17 -26.333 17 -43c0 -13.333 -3.66699 -24.666 -11 -33.999c-10.667 -13.333 -33.334 -31 -68.001 -53z" />
    <glyph glyph-name="Ocircumflex" unicode="&#xd4;" horiz-adv-x="1593" 
d="M706 -27c-142 0 -251.499 20.333 -328.499 61s-137.5 100.667 -181.5 180s-66 181.333 -66 306c0 244.667 71 458.5 213 641.5s347.667 274.5 617 274.5c183.333 0 322.666 -47.333 417.999 -142s143 -229.667 143 -405c0 -169.333 -38.167 -326.333 -114.5 -471
s-175.5 -255 -297.5 -331s-256.333 -114 -403 -114zM309.001 542c0 -114.667 16.5 -204.832 49.5 -270.499s83.333 -117.5 151 -155.5s147.834 -57 240.501 -57c201.333 0 351.666 86.333 450.999 259c91.333 158 137 347.667 137 569
c0 111.333 -16.667 200.166 -50 266.499s-82.333 117.333 -147 153s-144.667 53.5 -240 53.5c-118 0 -218.5 -28 -301.5 -84s-152.167 -150.333 -207.5 -283s-83 -283 -83 -451zM626.001 1510l352 342h83l200 -342h-68l-188 221l-302 -221h-77z" />
    <glyph glyph-name="Otilde" unicode="&#xd5;" horiz-adv-x="1593" 
d="M706 -27c-142 0 -251.499 20.333 -328.499 61s-137.5 100.667 -181.5 180s-66 181.333 -66 306c0 244.667 71 458.5 213 641.5s347.667 274.5 617 274.5c183.333 0 322.666 -47.333 417.999 -142s143 -229.667 143 -405c0 -169.333 -38.167 -326.333 -114.5 -471
s-175.5 -255 -297.5 -331s-256.333 -114 -403 -114zM309.001 542c0 -114.667 16.5 -204.832 49.5 -270.499s83.333 -117.5 151 -155.5s147.834 -57 240.501 -57c201.333 0 351.666 86.333 450.999 259c91.333 158 137 347.667 137 569
c0 111.333 -16.667 200.166 -50 266.499s-82.333 117.333 -147 153s-144.667 53.5 -240 53.5c-118 0 -218.5 -28 -301.5 -84s-152.167 -150.333 -207.5 -283s-83 -283 -83 -451zM708.001 1576l-58.999 -0.000976562c18.667 74.667 45 127.834 79 159.501
s74.667 47.5 122 47.5c44.667 0 103.667 -16.333 177 -49c72 -31.333 122 -47 150 -47c21.333 0 39.666 6.83301 54.999 20.5s29 40.167 41 79.5h57c-16 -68 -42 -119.833 -78 -155.5s-75.333 -53.5 -118 -53.5c-20.667 0 -41.334 2.83301 -62.001 8.5
s-56.667 19.5 -108 41.5c-72 30.667 -121.333 46 -148 46c-25.333 0 -45.666 -6.16699 -60.999 -18.5s-31 -38.833 -47 -79.5z" />
    <glyph glyph-name="Odieresis" unicode="&#xd6;" horiz-adv-x="1593" 
d="M706 -27c-142 0 -251.499 20.333 -328.499 61s-137.5 100.667 -181.5 180s-66 181.333 -66 306c0 244.667 71 458.5 213 641.5s347.667 274.5 617 274.5c183.333 0 322.666 -47.333 417.999 -142s143 -229.667 143 -405c0 -169.333 -38.167 -326.333 -114.5 -471
s-175.5 -255 -297.5 -331s-256.333 -114 -403 -114zM309.001 542c0 -114.667 16.5 -204.832 49.5 -270.499s83.333 -117.5 151 -155.5s147.834 -57 240.501 -57c201.333 0 351.666 86.333 450.999 259c91.333 158 137 347.667 137 569
c0 111.333 -16.667 200.166 -50 266.499s-82.333 117.333 -147 153s-144.667 53.5 -240 53.5c-118 0 -218.5 -28 -301.5 -84s-152.167 -150.333 -207.5 -283s-83 -283 -83 -451zM1155 1523c-22.667 0 -41.6689 8.66895 -57.002 26.002s-23 40.666 -23 69.999
c0 33.333 9.83301 61.166 29.5 83.499s42.834 33.5 69.501 33.5c22.667 0 41.334 -8.5 56.001 -25.5s22 -39.833 22 -68.5c0 -33.333 -10.167 -61.5 -30.5 -84.5s-42.5 -34.5 -66.5 -34.5zM808.999 1523c-22.667 0 -41.667 8.66895 -57 26.002s-23 40.666 -23 69.999
c0 33.333 10 61.166 30 83.499s43.333 33.5 70 33.5c22 0 40.333 -8.5 55 -25.5s22 -39.833 22 -68.5c0 -33.333 -10.167 -61.5 -30.5 -84.5s-42.5 -34.5 -66.5 -34.5z" />
    <glyph glyph-name="multiply" unicode="&#xd7;" horiz-adv-x="1241" 
d="M186 1041l98 99l337 -337l337 337l98 -99l-337 -336l337 -337l-98 -98l-337 336l-337 -336l-98 98l337 337z" />
    <glyph glyph-name="Oslash" unicode="&#xd8;" horiz-adv-x="1593" 
d="M217 179c-58 84.667 -87 199.668 -87 345.001c0 176 37.333 336.167 112 480.5s172 252.333 292 324s260.667 107.5 422 107.5c160.667 0 287.667 -35.333 381 -106l166 172l64 -61l-167 -171c80.667 -92 121 -219.333 121 -382c0 -171.333 -39 -329.833 -117 -475.5
s-177.833 -255.334 -299.5 -329.001s-265.167 -110.5 -430.5 -110.5c-93.333 0 -171.333 11.333 -234 34s-118.667 58 -168 106l-163 -167l-62 57zM343 308.001l895.001 921c-74.667 87.333 -187.334 131 -338.001 131c-117.333 0 -217.5 -28.167 -300.5 -84.5
s-149.5 -143.833 -199.5 -262.5c-60.667 -146 -91 -303.667 -91 -473c0 -92.667 11.333 -170 34 -232zM1287 1154l-903 -926.001c37.333 -52.667 87.5 -94 150.5 -124s134.833 -45 215.5 -45c200.667 0 350.667 86 450 258c92 158.667 138 347.334 138 566.001
c0 114 -17 204.333 -51 271z" />
    <glyph glyph-name="Ugrave" unicode="&#xd9;" horiz-adv-x="1593" 
d="M196 1359l-0.00390625 57.0039c80.667 -4.66699 142.667 -7 186 -7c50.667 0 112.667 2.33301 186 7c-43.333 -192.667 -92.666 -461.334 -147.999 -806.001c-24.667 -155.333 -37 -254 -37 -296c0 -66.667 24.667 -120.334 74 -161.001s119.666 -61 210.999 -61
c85.333 0 171 23 257 69s165 114.333 237 205c40.667 228 83.667 496.667 129 806c9.33301 62.667 14 104 14 124c0 22.667 -6.5 37.5 -19.5 44.5s-65.833 13.167 -158.5 18.5v57c74 -4.66699 169 -7 285 -7c56 0 134.333 2.33301 235 7v-57
c-75.333 -4.66699 -118.166 -9.33398 -128.499 -14.001s-19.166 -12 -26.499 -22s-15.666 -36 -24.999 -78l-60 -351l-78 -468c-29.333 -179.333 -44 -285 -44 -317c0 -19.333 5.33301 -32.333 16 -39s42 -11.667 94 -15l75 -6l-8 -56c-68 4.66699 -130.667 7 -188 7
c-58.667 0 -116.667 -2.33301 -174 -7v8c18.667 89.333 34.667 173.666 48 252.999c-110 -103.333 -209.333 -176 -298 -218s-174 -63 -256 -63c-114 0 -207.667 32 -281 96c-60.667 52 -91 124.667 -91 218c0 31.333 3 70.5 9 117.5s26.667 173.5 62 379.5
c51.333 291.333 77 457.333 77 498c0 26 -6.66699 43.167 -20 51.5s-64.666 16.833 -153.999 25.5zM1074 1510l-303.999 192c-36 23.333 -58.5 40.5 -67.5 51.5s-13.5 23.167 -13.5 36.5c0 16 5.66699 30 17 42s25 18 41 18c13.333 0 26.666 -3.83301 39.999 -11.5
s40 -30.167 80 -67.5l277 -261h-70z" />
    <glyph glyph-name="Uacute" unicode="&#xda;" horiz-adv-x="1593" 
d="M196 1359l-0.00390625 57.0039c80.667 -4.66699 142.667 -7 186 -7c50.667 0 112.667 2.33301 186 7c-43.333 -192.667 -92.666 -461.334 -147.999 -806.001c-24.667 -155.333 -37 -254 -37 -296c0 -66.667 24.667 -120.334 74 -161.001s119.666 -61 210.999 -61
c85.333 0 171 23 257 69s165 114.333 237 205c40.667 228 83.667 496.667 129 806c9.33301 62.667 14 104 14 124c0 22.667 -6.5 37.5 -19.5 44.5s-65.833 13.167 -158.5 18.5v57c74 -4.66699 169 -7 285 -7c56 0 134.333 2.33301 235 7v-57
c-75.333 -4.66699 -118.166 -9.33398 -128.499 -14.001s-19.166 -12 -26.499 -22s-15.666 -36 -24.999 -78l-60 -351l-78 -468c-29.333 -179.333 -44 -285 -44 -317c0 -19.333 5.33301 -32.333 16 -39s42 -11.667 94 -15l75 -6l-8 -56c-68 4.66699 -130.667 7 -188 7
c-58.667 0 -116.667 -2.33301 -174 -7v8c18.667 89.333 34.667 173.666 48 252.999c-110 -103.333 -209.333 -176 -298 -218s-174 -63 -256 -63c-114 0 -207.667 32 -281 96c-60.667 52 -91 124.667 -91 218c0 31.333 3 70.5 9 117.5s26.667 173.5 62 379.5
c51.333 291.333 77 457.333 77 498c0 26 -6.66699 43.167 -20 51.5s-64.666 16.833 -153.999 25.5zM854.996 1510l-70.999 -0.000976562l275 261c39.333 37.333 65.5 59.833 78.5 67.5s26.167 11.5 39.5 11.5c16 0 29.667 -6 41 -18s17 -26.333 17 -43
c0 -13.333 -3.66699 -24.666 -11 -33.999c-10.667 -13.333 -33.334 -31 -68.001 -53z" />
    <glyph glyph-name="Ucircumflex" unicode="&#xdb;" horiz-adv-x="1593" 
d="M196 1359l-0.00390625 57.0039c80.667 -4.66699 142.667 -7 186 -7c50.667 0 112.667 2.33301 186 7c-43.333 -192.667 -92.666 -461.334 -147.999 -806.001c-24.667 -155.333 -37 -254 -37 -296c0 -66.667 24.667 -120.334 74 -161.001s119.666 -61 210.999 -61
c85.333 0 171 23 257 69s165 114.333 237 205c40.667 228 83.667 496.667 129 806c9.33301 62.667 14 104 14 124c0 22.667 -6.5 37.5 -19.5 44.5s-65.833 13.167 -158.5 18.5v57c74 -4.66699 169 -7 285 -7c56 0 134.333 2.33301 235 7v-57
c-75.333 -4.66699 -118.166 -9.33398 -128.499 -14.001s-19.166 -12 -26.499 -22s-15.666 -36 -24.999 -78l-60 -351l-78 -468c-29.333 -179.333 -44 -285 -44 -317c0 -19.333 5.33301 -32.333 16 -39s42 -11.667 94 -15l75 -6l-8 -56c-68 4.66699 -130.667 7 -188 7
c-58.667 0 -116.667 -2.33301 -174 -7v8c18.667 89.333 34.667 173.666 48 252.999c-110 -103.333 -209.333 -176 -298 -218s-174 -63 -256 -63c-114 0 -207.667 32 -281 96c-60.667 52 -91 124.667 -91 218c0 31.333 3 70.5 9 117.5s26.667 173.5 62 379.5
c51.333 291.333 77 457.333 77 498c0 26 -6.66699 43.167 -20 51.5s-64.666 16.833 -153.999 25.5zM625.996 1510l352 342h83l200 -342h-68l-188 221l-302 -221h-77z" />
    <glyph glyph-name="Udieresis" unicode="&#xdc;" horiz-adv-x="1593" 
d="M196 1359l-0.00390625 57.0039c80.667 -4.66699 142.667 -7 186 -7c50.667 0 112.667 2.33301 186 7c-43.333 -192.667 -92.666 -461.334 -147.999 -806.001c-24.667 -155.333 -37 -254 -37 -296c0 -66.667 24.667 -120.334 74 -161.001s119.666 -61 210.999 -61
c85.333 0 171 23 257 69s165 114.333 237 205c40.667 228 83.667 496.667 129 806c9.33301 62.667 14 104 14 124c0 22.667 -6.5 37.5 -19.5 44.5s-65.833 13.167 -158.5 18.5v57c74 -4.66699 169 -7 285 -7c56 0 134.333 2.33301 235 7v-57
c-75.333 -4.66699 -118.166 -9.33398 -128.499 -14.001s-19.166 -12 -26.499 -22s-15.666 -36 -24.999 -78l-60 -351l-78 -468c-29.333 -179.333 -44 -285 -44 -317c0 -19.333 5.33301 -32.333 16 -39s42 -11.667 94 -15l75 -6l-8 -56c-68 4.66699 -130.667 7 -188 7
c-58.667 0 -116.667 -2.33301 -174 -7v8c18.667 89.333 34.667 173.666 48 252.999c-110 -103.333 -209.333 -176 -298 -218s-174 -63 -256 -63c-114 0 -207.667 32 -281 96c-60.667 52 -91 124.667 -91 218c0 31.333 3 70.5 9 117.5s26.667 173.5 62 379.5
c51.333 291.333 77 457.333 77 498c0 26 -6.66699 43.167 -20 51.5s-64.666 16.833 -153.999 25.5zM1155 1523c-22.667 0 -41.6689 8.66895 -57.002 26.002s-23 40.666 -23 69.999c0 33.333 9.83301 61.166 29.5 83.499s42.834 33.5 69.501 33.5
c22.667 0 41.334 -8.5 56.001 -25.5s22 -39.833 22 -68.5c0 -33.333 -10.167 -61.5 -30.5 -84.5s-42.5 -34.5 -66.5 -34.5zM808.994 1523.01c-22.667 0 -41.667 8.66895 -57 26.002s-23 40.666 -23 69.999c0 33.333 10 61.166 30 83.499s43.333 33.5 70 33.5
c22 0 40.333 -8.5 55 -25.5s22 -39.833 22 -68.5c0 -33.333 -10.167 -61.5 -30.5 -84.5s-42.5 -34.5 -66.5 -34.5z" />
    <glyph glyph-name="Yacute" unicode="&#xdd;" horiz-adv-x="1366" 
d="M381 -7l0.00488281 57.999c94.667 0 149.167 5 163.5 15s27.166 42.667 38.499 98c36.667 172 55 285.333 55 340c0 80.667 -33.333 212 -100 394s-123 296.333 -169 343c-33.333 34 -71.333 51 -114 51c-22.667 0 -54 -6.33301 -94 -19v50
c67.333 44.667 119.666 82.334 156.999 113.001c55.333 -2 98 -13.667 128 -35c53.333 -38.667 105.5 -118 156.5 -238s104.833 -295 161.5 -525c58.667 129.333 119.5 243.333 182.5 342s125.667 181.5 188 248.5s116.166 114.167 161.499 141.5
c34.667 21.333 81 38.666 139 51.999l-11 -149c-76.667 -14.667 -143 -47 -199 -97c-104.667 -93.333 -198.834 -212.666 -282.501 -357.999s-135.834 -277.333 -156.501 -396c-31.333 -183.333 -47 -287.333 -47 -312c0 -24 6 -38.667 18 -44
c17.333 -8 73.666 -13 168.999 -15l-10 -58c-107.333 4.66699 -202.666 7 -285.999 7c-80.667 0 -163.667 -2.33301 -249 -7zM761.005 1510l-70.999 -0.000976562l275 261c39.333 37.333 65.5 59.833 78.5 67.5s26.167 11.5 39.5 11.5c16 0 29.667 -6 41 -18
s17 -26.333 17 -43c0 -13.333 -3.66699 -24.666 -11 -33.999c-10.667 -13.333 -33.334 -31 -68.001 -53z" />
    <glyph glyph-name="Thorn" unicode="&#xde;" horiz-adv-x="1251" 
d="M431 400l-36.001 -226.997c-3.33301 -24.667 -5 -44 -5 -58c0 -24 7.16699 -39.667 21.5 -47s65.833 -13.666 154.5 -18.999l-7 -56c-101.333 4.66699 -182.333 7 -243 7c-56 0 -148.667 -2.33301 -278 -7l8 56c77.333 2.66699 122 7.33398 134 14.001
s22.5 19.834 31.5 39.501s27.167 106.167 54.5 259.5c22.667 129.333 54.334 320.666 95.001 573.999c34.667 220 52 339.667 52 359c0 25.333 -6.66699 41.666 -20 48.999c-8.66699 4.66699 -61 10.667 -157 18l10 54c99.333 -4.66699 182.666 -7 249.999 -7
c74.667 0 165.334 2.33301 272.001 7v-54c-82 -2.66699 -129.833 -6.83398 -143.5 -12.501s-24.167 -16.667 -31.5 -33s-21.333 -79.5 -42 -189.5c84.667 12 161.667 18 231 18c133.333 0 231.333 -27.833 294 -83.5s94 -134.834 94 -237.501
c0 -86.667 -23 -171.334 -69 -254.001s-105.5 -146.334 -178.5 -191.001s-151.5 -67 -235.5 -67c-41.333 0 -79.333 5.5 -114 16.5s-82 34.833 -142 71.5zM438.999 452.003c83.333 -42.667 157.001 -64 221.001 -64c58.667 0 113.167 16.333 163.5 49
s90.666 80.5 120.999 143.5s45.5 133.833 45.5 212.5c0 86 -24.5 152.333 -73.5 199s-120.167 70 -213.5 70c-42.667 0 -98 -5 -166 -15c-16.667 -90.667 -28 -158.667 -34 -204z" />
    <glyph glyph-name="germandbls" unicode="&#xdf;" 
d="M60 773l9.99609 47.0088c74.667 28 134.334 53.333 179.001 76l13 68c23.333 123.333 43 200.166 59 230.499s50.333 66.166 103 107.499c76.667 59.333 150 104.666 220 135.999s124 47 162 47c50.667 0 95.334 -20.333 134.001 -61s58 -90.334 58 -149.001
c0 -48.667 -10.333 -96 -31 -142s-72 -119.667 -154 -221c-34.667 -42.667 -57.334 -75.834 -68.001 -99.501s-16 -46.834 -16 -69.501c0 -20 4 -40.333 12 -61s28 -57 60 -109c47.333 -76.667 77.666 -131.834 90.999 -165.501s20 -62.834 20 -87.501
c0 -47.333 -18.5 -99 -55.5 -155s-91.167 -107.667 -162.5 -155c-47.333 -31.333 -97.333 -47 -150 -47c-22 0 -45.5 3.66699 -70.5 11s-51.833 18.333 -80.5 33c20.667 80 35.334 152.333 44.001 217h40l-2 -114c26.667 -24 50.334 -40.167 71.001 -48.5
s43.334 -12.5 68.001 -12.5c46.667 0 85.667 17 117 51s47 77 47 129c0 30 -5.16699 60 -15.5 90s-34.166 76.333 -71.499 139c-57.333 97.333 -86 165.666 -86 204.999c0 40.667 28 98.334 84 173.001c80 106 129.667 181 149 225s29 89.333 29 136
c0 58 -15.833 104.167 -47.5 138.5s-70.834 51.5 -117.501 51.5c-48 0 -94.167 -15.5 -138.5 -46.5s-75.833 -71.833 -94.5 -122.5c-14 -36 -42.333 -167.667 -85 -395c-61.333 -320.667 -115 -575 -161 -763s-95.333 -322.667 -148 -404s-115 -144 -187 -188
c-45.333 -27.333 -88 -41 -128 -41c-19.333 0 -46.333 4.33301 -81 13l18 57c12.667 38 22.334 75 29.001 111l23 6c34 -38.667 71 -58 111 -58c30.667 0 57.667 9.66699 81 29c32 26 59.333 72.167 82 138.5s52.667 196.166 90 389.499c30.667 158 69 380.667 115 668z" />
    <glyph glyph-name="agrave" unicode="&#xe0;" horiz-adv-x="909" 
d="M826 968l23.002 -15.001c-65.333 -226.667 -116 -427.667 -152 -603c-20.667 -101.333 -31 -167.666 -31 -198.999c0 -12.667 2.66699 -22.334 8 -29.001s12.666 -10 21.999 -10c22 0 71.667 32.333 149 97l12 -46c-72 -63.333 -141.333 -114 -208 -152
c-32.667 -18 -61 -27 -85 -27c-18 0 -31.333 5.16699 -40 15.5s-13 27.166 -13 50.499c0 54.667 22.667 168.334 68 341.001l-8 1c-94.667 -137.333 -195.334 -248.333 -302.001 -333c-72 -57.333 -124.667 -86 -158 -86c-20 0 -35.667 10 -47 30
c-16.667 30.667 -25 75 -25 133c0 98.667 19.833 216.334 59.5 353.001s80.167 234 121.5 292c31.333 44 92.333 91 183 141c56.667 31.333 115.667 47 177 47c26.667 0 55.167 -3 85.5 -9s62.5 -15 96.5 -27zM673.002 836.999
c-29.333 11.333 -56.999 19.665 -82.999 24.998s-50.667 8 -74 8c-52 0 -99 -9 -141 -27c-12 -6 -27.333 -28 -46 -66c-36.667 -76 -69.834 -172.667 -99.501 -290s-44.5 -220.666 -44.5 -309.999c0 -24 3.5 -41 10.5 -51s15.5 -15 25.5 -15c27.333 0 77.5 35 150.5 105
s130.5 142.333 172.5 217c56 100.667 99 235.334 129 404.001zM731.003 1131l-303.999 192c-36 23.333 -58.5 40.5 -67.5 51.5s-13.5 23.167 -13.5 36.5c0 16 5.66699 30 17 42s25 18 41 18c13.333 0 26.666 -3.83301 39.999 -11.5s40 -30.167 80 -67.5l277 -261h-70z" />
    <glyph glyph-name="aacute" unicode="&#xe1;" horiz-adv-x="909" 
d="M826 968l23.002 -15.001c-65.333 -226.667 -116 -427.667 -152 -603c-20.667 -101.333 -31 -167.666 -31 -198.999c0 -12.667 2.66699 -22.334 8 -29.001s12.666 -10 21.999 -10c22 0 71.667 32.333 149 97l12 -46c-72 -63.333 -141.333 -114 -208 -152
c-32.667 -18 -61 -27 -85 -27c-18 0 -31.333 5.16699 -40 15.5s-13 27.166 -13 50.499c0 54.667 22.667 168.334 68 341.001l-8 1c-94.667 -137.333 -195.334 -248.333 -302.001 -333c-72 -57.333 -124.667 -86 -158 -86c-20 0 -35.667 10 -47 30
c-16.667 30.667 -25 75 -25 133c0 98.667 19.833 216.334 59.5 353.001s80.167 234 121.5 292c31.333 44 92.333 91 183 141c56.667 31.333 115.667 47 177 47c26.667 0 55.167 -3 85.5 -9s62.5 -15 96.5 -27zM673.002 836.999
c-29.333 11.333 -56.999 19.665 -82.999 24.998s-50.667 8 -74 8c-52 0 -99 -9 -141 -27c-12 -6 -27.333 -28 -46 -66c-36.667 -76 -69.834 -172.667 -99.501 -290s-44.5 -220.666 -44.5 -309.999c0 -24 3.5 -41 10.5 -51s15.5 -15 25.5 -15c27.333 0 77.5 35 150.5 105
s130.5 142.333 172.5 217c56 100.667 99 235.334 129 404.001zM513.003 1131l-70.999 -0.000976562l275 261c39.333 37.333 65.5 59.833 78.5 67.5s26.167 11.5 39.5 11.5c16 0 29.667 -6 41 -18s17 -26.333 17 -43c0 -13.333 -3.66699 -24.666 -11 -33.999
c-10.667 -13.333 -33.334 -31 -68.001 -53z" />
    <glyph glyph-name="acircumflex" unicode="&#xe2;" horiz-adv-x="909" 
d="M826 968l23.002 -15.001c-65.333 -226.667 -116 -427.667 -152 -603c-20.667 -101.333 -31 -167.666 -31 -198.999c0 -12.667 2.66699 -22.334 8 -29.001s12.666 -10 21.999 -10c22 0 71.667 32.333 149 97l12 -46c-72 -63.333 -141.333 -114 -208 -152
c-32.667 -18 -61 -27 -85 -27c-18 0 -31.333 5.16699 -40 15.5s-13 27.166 -13 50.499c0 54.667 22.667 168.334 68 341.001l-8 1c-94.667 -137.333 -195.334 -248.333 -302.001 -333c-72 -57.333 -124.667 -86 -158 -86c-20 0 -35.667 10 -47 30
c-16.667 30.667 -25 75 -25 133c0 98.667 19.833 216.334 59.5 353.001s80.167 234 121.5 292c31.333 44 92.333 91 183 141c56.667 31.333 115.667 47 177 47c26.667 0 55.167 -3 85.5 -9s62.5 -15 96.5 -27zM673.002 836.999
c-29.333 11.333 -56.999 19.665 -82.999 24.998s-50.667 8 -74 8c-52 0 -99 -9 -141 -27c-12 -6 -27.333 -28 -46 -66c-36.667 -76 -69.834 -172.667 -99.501 -290s-44.5 -220.666 -44.5 -309.999c0 -24 3.5 -41 10.5 -51s15.5 -15 25.5 -15c27.333 0 77.5 35 150.5 105
s130.5 142.333 172.5 217c56 100.667 99 235.334 129 404.001zM284.003 1131l352 342h83l200 -342h-68l-188 221l-302 -221h-77z" />
    <glyph glyph-name="atilde" unicode="&#xe3;" horiz-adv-x="909" 
d="M826 968l23.002 -15.001c-65.333 -226.667 -116 -427.667 -152 -603c-20.667 -101.333 -31 -167.666 -31 -198.999c0 -12.667 2.66699 -22.334 8 -29.001s12.666 -10 21.999 -10c22 0 71.667 32.333 149 97l12 -46c-72 -63.333 -141.333 -114 -208 -152
c-32.667 -18 -61 -27 -85 -27c-18 0 -31.333 5.16699 -40 15.5s-13 27.166 -13 50.499c0 54.667 22.667 168.334 68 341.001l-8 1c-94.667 -137.333 -195.334 -248.333 -302.001 -333c-72 -57.333 -124.667 -86 -158 -86c-20 0 -35.667 10 -47 30
c-16.667 30.667 -25 75 -25 133c0 98.667 19.833 216.334 59.5 353.001s80.167 234 121.5 292c31.333 44 92.333 91 183 141c56.667 31.333 115.667 47 177 47c26.667 0 55.167 -3 85.5 -9s62.5 -15 96.5 -27zM673.002 836.999
c-29.333 11.333 -56.999 19.665 -82.999 24.998s-50.667 8 -74 8c-52 0 -99 -9 -141 -27c-12 -6 -27.333 -28 -46 -66c-36.667 -76 -69.834 -172.667 -99.501 -290s-44.5 -220.666 -44.5 -309.999c0 -24 3.5 -41 10.5 -51s15.5 -15 25.5 -15c27.333 0 77.5 35 150.5 105
s130.5 142.333 172.5 217c56 100.667 99 235.334 129 404.001zM366.003 1196l-58.999 -0.000976562c18.667 74.667 45 127.834 79 159.501s74.667 47.5 122 47.5c44.667 0 103.667 -16.333 177 -49c72 -31.333 122 -47 150 -47c21.333 0 39.666 6.83301 54.999 20.5
s29 40.167 41 79.5h57c-16 -68 -42 -119.833 -78 -155.5s-75.333 -53.5 -118 -53.5c-20.667 0 -41.334 2.83301 -62.001 8.5s-56.667 19.5 -108 41.5c-72 30.667 -121.333 46 -148 46c-25.333 0 -45.666 -6.16699 -60.999 -18.5s-31 -38.833 -47 -79.5z" />
    <glyph glyph-name="adieresis" unicode="&#xe4;" horiz-adv-x="909" 
d="M826 968l23.002 -15.001c-65.333 -226.667 -116 -427.667 -152 -603c-20.667 -101.333 -31 -167.666 -31 -198.999c0 -12.667 2.66699 -22.334 8 -29.001s12.666 -10 21.999 -10c22 0 71.667 32.333 149 97l12 -46c-72 -63.333 -141.333 -114 -208 -152
c-32.667 -18 -61 -27 -85 -27c-18 0 -31.333 5.16699 -40 15.5s-13 27.166 -13 50.499c0 54.667 22.667 168.334 68 341.001l-8 1c-94.667 -137.333 -195.334 -248.333 -302.001 -333c-72 -57.333 -124.667 -86 -158 -86c-20 0 -35.667 10 -47 30
c-16.667 30.667 -25 75 -25 133c0 98.667 19.833 216.334 59.5 353.001s80.167 234 121.5 292c31.333 44 92.333 91 183 141c56.667 31.333 115.667 47 177 47c26.667 0 55.167 -3 85.5 -9s62.5 -15 96.5 -27zM673.002 836.999
c-29.333 11.333 -56.999 19.665 -82.999 24.998s-50.667 8 -74 8c-52 0 -99 -9 -141 -27c-12 -6 -27.333 -28 -46 -66c-36.667 -76 -69.834 -172.667 -99.501 -290s-44.5 -220.666 -44.5 -309.999c0 -24 3.5 -41 10.5 -51s15.5 -15 25.5 -15c27.333 0 77.5 35 150.5 105
s130.5 142.333 172.5 217c56 100.667 99 235.334 129 404.001zM813.003 1143c-22.667 0 -41.6689 8.66895 -57.002 26.002s-23 40.666 -23 69.999c0 33.333 9.83301 61.166 29.5 83.499s42.834 33.5 69.501 33.5c22.667 0 41.334 -8.5 56.001 -25.5s22 -39.833 22 -68.5
c0 -33.333 -10.167 -61.5 -30.5 -84.5s-42.5 -34.5 -66.5 -34.5zM467.001 1143c-22.667 0 -41.667 8.66895 -57 26.002s-23 40.666 -23 69.999c0 33.333 10 61.166 30 83.499s43.333 33.5 70 33.5c22 0 40.333 -8.5 55 -25.5s22 -39.833 22 -68.5
c0 -33.333 -10.167 -61.5 -30.5 -84.5s-42.5 -34.5 -66.5 -34.5z" />
    <glyph glyph-name="aring" unicode="&#xe5;" horiz-adv-x="909" 
d="M826 968l23.002 -15.001c-65.333 -226.667 -116 -427.667 -152 -603c-20.667 -101.333 -31 -167.666 -31 -198.999c0 -12.667 2.66699 -22.334 8 -29.001s12.666 -10 21.999 -10c22 0 71.667 32.333 149 97l12 -46c-72 -63.333 -141.333 -114 -208 -152
c-32.667 -18 -61 -27 -85 -27c-18 0 -31.333 5.16699 -40 15.5s-13 27.166 -13 50.499c0 54.667 22.667 168.334 68 341.001l-8 1c-94.667 -137.333 -195.334 -248.333 -302.001 -333c-72 -57.333 -124.667 -86 -158 -86c-20 0 -35.667 10 -47 30
c-16.667 30.667 -25 75 -25 133c0 98.667 19.833 216.334 59.5 353.001s80.167 234 121.5 292c31.333 44 92.333 91 183 141c56.667 31.333 115.667 47 177 47c26.667 0 55.167 -3 85.5 -9s62.5 -15 96.5 -27zM673.002 836.999
c-29.333 11.333 -56.999 19.665 -82.999 24.998s-50.667 8 -74 8c-52 0 -99 -9 -141 -27c-12 -6 -27.333 -28 -46 -66c-36.667 -76 -69.834 -172.667 -99.501 -290s-44.5 -220.666 -44.5 -309.999c0 -24 3.5 -41 10.5 -51s15.5 -15 25.5 -15c27.333 0 77.5 35 150.5 105
s130.5 142.333 172.5 217c56 100.667 99 235.334 129 404.001zM646.003 1509c57.333 0 106.5 -20.333 147.5 -61s61.5 -89.667 61.5 -147s-20.167 -106.166 -60.5 -146.499s-89.166 -60.5 -146.499 -60.5s-106.5 20.333 -147.5 61s-61.5 89.667 -61.5 147
s20.167 106.166 60.5 146.499s89.166 60.5 146.499 60.5zM646.003 1434c-36 0 -66.833 -12.833 -92.5 -38.5s-38.5 -56.834 -38.5 -93.501s13 -68 39 -94s57.333 -39 94 -39c36 0 66.833 12.833 92.5 38.5s38.5 56.834 38.5 93.501s-13 68 -39 94s-57.333 39 -94 39z" />
    <glyph glyph-name="ae" unicode="&#xe6;" horiz-adv-x="1307" 
d="M205 715l-35.9951 8.99902l-13 137c82 52 135 82 159 90c36 12 77.667 18 125 18c74 0 135.167 -15.833 183.5 -47.5s83.833 -78.834 106.5 -141.501c77.333 70.667 147.333 119.834 210 147.501s122 41.5 178 41.5c47.333 0 86.5 -15.167 117.5 -45.5
s46.5 -68.166 46.5 -113.499c0 -52 -19.5 -103.333 -58.5 -154s-97.833 -93 -176.5 -127s-187.334 -55.667 -326.001 -65c-16 -81.333 -24 -150 -24 -206c0 -60 14.667 -105.667 44 -137s68.666 -47 117.999 -47c43.333 0 89.166 9.83301 137.499 29.5
s113.166 59.834 194.499 120.501l16 -46c-107.333 -83.333 -190.166 -138.333 -248.499 -165s-112.833 -40 -163.5 -40c-63.333 0 -114 14.667 -152 44s-66.667 77.666 -86 144.999c-80 -74.667 -145.333 -124.834 -196 -150.501s-100.334 -38.5 -149.001 -38.5
c-64.667 0 -114.5 17.333 -149.5 52s-52.5 85.334 -52.5 152.001c0 118.667 38.667 204.5 116 257.5s196 79.5 356 79.5c30.667 0 67.667 -2 111 -6c6.66699 63.333 10 110.333 10 141c0 69.333 -20.833 123.5 -62.5 162.5s-100.834 58.5 -177.501 58.5
c-14.667 0 -31.167 -1.16699 -49.5 -3.5s-38.5 -5.83301 -60.5 -10.5zM730.005 510.999c98 8 174.669 25 230.002 51s97.333 58.833 126 98.5s43 80.167 43 121.5c0 35.333 -8.83301 62.333 -26.5 81s-42.834 28 -75.501 28c-70 0 -133.333 -32.833 -190 -98.5
s-92.334 -159.5 -107.001 -281.5zM587.007 460.999l-62.001 0.999023c-143.333 0 -241.166 -23.667 -293.499 -71s-78.5 -108.666 -78.5 -183.999c0 -44.667 11 -78.5 33 -101.5s54.333 -34.5 97 -34.5c80.667 0 147 29.5 199 88.5s87 159.5 105 301.5z" />
    <glyph glyph-name="ccedilla" unicode="&#xe7;" horiz-adv-x="834" 
d="M776 663h-49.002c2.66699 52 4 90 4 114c0 25.333 -11.667 45.333 -35 60c-35.333 22 -81 33 -137 33c-68 0 -122.167 -15.5 -162.5 -46.5s-78.166 -98.167 -113.499 -201.5s-53 -211.666 -53 -324.999c0 -69.333 16.167 -122.5 48.5 -159.5s74.166 -55.5 125.499 -55.5
c44 0 91.333 10.167 142 30.5s115.667 60.166 195 119.499l16 -43c-100 -85.333 -182 -142.666 -246 -171.999s-123.667 -44 -179 -44c-80 0 -141.5 25.833 -184.5 77.5s-64.5 125.167 -64.5 220.5c0 96.667 16.333 194.667 49 294s75.834 174.666 129.501 225.999
s133.834 100 240.501 146c49.333 21.333 99.333 32 150 32c32 0 59.667 -3.5 83 -10.5s52 -21.167 86 -42.5c-21.333 -78 -36.333 -162.333 -45 -253zM380.998 0l-64.001 -104c22 4 40.333 6 55 6c46 0 81.833 -12.333 107.5 -37s38.5 -56 38.5 -94
c0 -45.333 -20 -84.333 -60 -117s-96 -49 -168 -49c-56 0 -119 13.667 -189 41l29 61c59.333 -24.667 108 -37 146 -37c35.333 0 63 8.83301 83 26.5s30 39.167 30 64.5c0 22 -8.66699 40.667 -26 56s-39.666 23 -66.999 23c-14 0 -31 -3.66699 -51 -11l-17 13l92 158h61z
" />
    <glyph glyph-name="egrave" unicode="&#xe8;" horiz-adv-x="797" 
d="M683 223l13.998 -42.999c-95.333 -80 -174.166 -134.5 -236.499 -163.5s-121.166 -43.5 -176.499 -43.5c-78 0 -138.167 22.833 -180.5 68.5s-63.5 111.5 -63.5 197.5c0 90 18 190.5 54 301.5s77.333 190.833 124 239.5s120.667 97.667 222 147
c56.667 28 107.667 42 153 42c55.333 0 98.833 -14.833 130.5 -44.5s47.5 -67.5 47.5 -113.5c0 -180.667 -186.667 -308.334 -560 -383.001c-13.333 -79.333 -20 -138.333 -20 -177c0 -54 15.333 -97.333 46 -130s69.334 -49 116.001 -49
c35.333 0 77.166 9.83301 125.499 29.5s116.5 60.167 204.5 121.5zM219.998 477.001c136.667 25.333 236.667 65.167 300 119.5s95 114.5 95 180.5c0 35.333 -8.16699 61.833 -24.5 79.5s-39.5 26.5 -69.5 26.5c-42.667 0 -83.667 -12.333 -123 -37
s-71.333 -61.667 -96 -111c-32.667 -64.667 -60 -150.667 -82 -258zM674.998 1131l-303.999 192c-36 23.333 -58.5 40.5 -67.5 51.5s-13.5 23.167 -13.5 36.5c0 16 5.66699 30 17 42s25 18 41 18c13.333 0 26.666 -3.83301 39.999 -11.5s40 -30.167 80 -67.5l277 -261h-70z
" />
    <glyph glyph-name="eacute" unicode="&#xe9;" horiz-adv-x="797" 
d="M683 223l13.998 -42.999c-95.333 -80 -174.166 -134.5 -236.499 -163.5s-121.166 -43.5 -176.499 -43.5c-78 0 -138.167 22.833 -180.5 68.5s-63.5 111.5 -63.5 197.5c0 90 18 190.5 54 301.5s77.333 190.833 124 239.5s120.667 97.667 222 147
c56.667 28 107.667 42 153 42c55.333 0 98.833 -14.833 130.5 -44.5s47.5 -67.5 47.5 -113.5c0 -180.667 -186.667 -308.334 -560 -383.001c-13.333 -79.333 -20 -138.333 -20 -177c0 -54 15.333 -97.333 46 -130s69.334 -49 116.001 -49
c35.333 0 77.166 9.83301 125.499 29.5s116.5 60.167 204.5 121.5zM219.998 477.001c136.667 25.333 236.667 65.167 300 119.5s95 114.5 95 180.5c0 35.333 -8.16699 61.833 -24.5 79.5s-39.5 26.5 -69.5 26.5c-42.667 0 -83.667 -12.333 -123 -37
s-71.333 -61.667 -96 -111c-32.667 -64.667 -60 -150.667 -82 -258zM456.998 1131l-70.999 -0.000976562l275 261c39.333 37.333 65.5 59.833 78.5 67.5s26.167 11.5 39.5 11.5c16 0 29.667 -6 41 -18s17 -26.333 17 -43c0 -13.333 -3.66699 -24.666 -11 -33.999
c-10.667 -13.333 -33.334 -31 -68.001 -53z" />
    <glyph glyph-name="ecircumflex" unicode="&#xea;" horiz-adv-x="797" 
d="M683 223l13.998 -42.999c-95.333 -80 -174.166 -134.5 -236.499 -163.5s-121.166 -43.5 -176.499 -43.5c-78 0 -138.167 22.833 -180.5 68.5s-63.5 111.5 -63.5 197.5c0 90 18 190.5 54 301.5s77.333 190.833 124 239.5s120.667 97.667 222 147
c56.667 28 107.667 42 153 42c55.333 0 98.833 -14.833 130.5 -44.5s47.5 -67.5 47.5 -113.5c0 -180.667 -186.667 -308.334 -560 -383.001c-13.333 -79.333 -20 -138.333 -20 -177c0 -54 15.333 -97.333 46 -130s69.334 -49 116.001 -49
c35.333 0 77.166 9.83301 125.499 29.5s116.5 60.167 204.5 121.5zM219.998 477.001c136.667 25.333 236.667 65.167 300 119.5s95 114.5 95 180.5c0 35.333 -8.16699 61.833 -24.5 79.5s-39.5 26.5 -69.5 26.5c-42.667 0 -83.667 -12.333 -123 -37
s-71.333 -61.667 -96 -111c-32.667 -64.667 -60 -150.667 -82 -258zM227.998 1131l352 342h83l200 -342h-68l-188 221l-302 -221h-77z" />
    <glyph glyph-name="edieresis" unicode="&#xeb;" horiz-adv-x="797" 
d="M683 223l13.998 -42.999c-95.333 -80 -174.166 -134.5 -236.499 -163.5s-121.166 -43.5 -176.499 -43.5c-78 0 -138.167 22.833 -180.5 68.5s-63.5 111.5 -63.5 197.5c0 90 18 190.5 54 301.5s77.333 190.833 124 239.5s120.667 97.667 222 147
c56.667 28 107.667 42 153 42c55.333 0 98.833 -14.833 130.5 -44.5s47.5 -67.5 47.5 -113.5c0 -180.667 -186.667 -308.334 -560 -383.001c-13.333 -79.333 -20 -138.333 -20 -177c0 -54 15.333 -97.333 46 -130s69.334 -49 116.001 -49
c35.333 0 77.166 9.83301 125.499 29.5s116.5 60.167 204.5 121.5zM219.998 477.001c136.667 25.333 236.667 65.167 300 119.5s95 114.5 95 180.5c0 35.333 -8.16699 61.833 -24.5 79.5s-39.5 26.5 -69.5 26.5c-42.667 0 -83.667 -12.333 -123 -37
s-71.333 -61.667 -96 -111c-32.667 -64.667 -60 -150.667 -82 -258zM756.998 1143c-22.667 0 -41.6689 8.66895 -57.002 26.002s-23 40.666 -23 69.999c0 33.333 9.83301 61.166 29.5 83.499s42.834 33.5 69.501 33.5c22.667 0 41.334 -8.5 56.001 -25.5
s22 -39.833 22 -68.5c0 -33.333 -10.167 -61.5 -30.5 -84.5s-42.5 -34.5 -66.5 -34.5zM410.996 1143c-22.667 0 -41.667 8.66895 -57 26.002s-23 40.666 -23 69.999c0 33.333 10 61.166 30 83.499s43.333 33.5 70 33.5c22 0 40.333 -8.5 55 -25.5s22 -39.833 22 -68.5
c0 -33.333 -10.167 -61.5 -30.5 -84.5s-42.5 -34.5 -66.5 -34.5z" />
    <glyph glyph-name="igrave" unicode="&#xec;" horiz-adv-x="569" 
d="M79 744l-20 40.002c165.333 123.333 274 185 326 185c16 0 28.333 -4.5 37 -13.5s13 -22.167 13 -39.5c0 -42 -15.333 -120.667 -46 -236c-78.667 -294 -118 -472.333 -118 -535c0 -22.667 10.333 -34 31 -34c24 0 77.667 30 161 90l20 -39
c-95.333 -76.667 -174 -132.334 -236 -167.001c-25.333 -14.667 -49 -22 -71 -22c-18 0 -33.5 8 -46.5 24s-19.5 39 -19.5 69c0 43.333 17.667 130.666 53 261.999c69.333 257.333 104 412.333 104 465c0 25.333 -9.66699 38 -29 38c-21.333 0 -74.333 -29 -159 -87z
M561 1131l-303.999 192c-36 23.333 -58.5 40.5 -67.5 51.5s-13.5 23.167 -13.5 36.5c0 16 5.66699 30 17 42s25 18 41 18c13.333 0 26.666 -3.83301 39.999 -11.5s40 -30.167 80 -67.5l277 -261h-70z" />
    <glyph glyph-name="iacute" unicode="&#xed;" horiz-adv-x="569" 
d="M79 744l-20 40.002c165.333 123.333 274 185 326 185c16 0 28.333 -4.5 37 -13.5s13 -22.167 13 -39.5c0 -42 -15.333 -120.667 -46 -236c-78.667 -294 -118 -472.333 -118 -535c0 -22.667 10.333 -34 31 -34c24 0 77.667 30 161 90l20 -39
c-95.333 -76.667 -174 -132.334 -236 -167.001c-25.333 -14.667 -49 -22 -71 -22c-18 0 -33.5 8 -46.5 24s-19.5 39 -19.5 69c0 43.333 17.667 130.666 53 261.999c69.333 257.333 104 412.333 104 465c0 25.333 -9.66699 38 -29 38c-21.333 0 -74.333 -29 -159 -87z
M323 1131l-70.999 -0.000976562l275 261c39.333 37.333 65.5 59.833 78.5 67.5s26.167 11.5 39.5 11.5c16 0 29.667 -6 41 -18s17 -26.333 17 -43c0 -13.333 -3.66699 -24.666 -11 -33.999c-10.667 -13.333 -33.334 -31 -68.001 -53z" />
    <glyph glyph-name="icircumflex" unicode="&#xee;" horiz-adv-x="569" 
d="M79 744l-20 40.002c165.333 123.333 274 185 326 185c16 0 28.333 -4.5 37 -13.5s13 -22.167 13 -39.5c0 -42 -15.333 -120.667 -46 -236c-78.667 -294 -118 -472.333 -118 -535c0 -22.667 10.333 -34 31 -34c24 0 77.667 30 161 90l20 -39
c-95.333 -76.667 -174 -132.334 -236 -167.001c-25.333 -14.667 -49 -22 -71 -22c-18 0 -33.5 8 -46.5 24s-19.5 39 -19.5 69c0 43.333 17.667 130.666 53 261.999c69.333 257.333 104 412.333 104 465c0 25.333 -9.66699 38 -29 38c-21.333 0 -74.333 -29 -159 -87z
M94 1131l352 342h83l200 -342h-68l-188 221l-302 -221h-77z" />
    <glyph glyph-name="idieresis" unicode="&#xef;" horiz-adv-x="569" 
d="M79 744l-20 40.002c165.333 123.333 274 185 326 185c16 0 28.333 -4.5 37 -13.5s13 -22.167 13 -39.5c0 -42 -15.333 -120.667 -46 -236c-78.667 -294 -118 -472.333 -118 -535c0 -22.667 10.333 -34 31 -34c24 0 77.667 30 161 90l20 -39
c-95.333 -76.667 -174 -132.334 -236 -167.001c-25.333 -14.667 -49 -22 -71 -22c-18 0 -33.5 8 -46.5 24s-19.5 39 -19.5 69c0 43.333 17.667 130.666 53 261.999c69.333 257.333 104 412.333 104 465c0 25.333 -9.66699 38 -29 38c-21.333 0 -74.333 -29 -159 -87z
M623 1143c-22.667 0 -41.6689 8.66895 -57.002 26.002s-23 40.666 -23 69.999c0 33.333 9.83301 61.166 29.5 83.499s42.834 33.5 69.501 33.5c22.667 0 41.334 -8.5 56.001 -25.5s22 -39.833 22 -68.5c0 -33.333 -10.167 -61.5 -30.5 -84.5s-42.5 -34.5 -66.5 -34.5z
M276.998 1143c-22.667 0 -41.667 8.66895 -57 26.002s-23 40.666 -23 69.999c0 33.333 10 61.166 30 83.499s43.333 33.5 70 33.5c22 0 40.333 -8.5 55 -25.5s22 -39.833 22 -68.5c0 -33.333 -10.167 -61.5 -30.5 -84.5s-42.5 -34.5 -66.5 -34.5z" />
    <glyph glyph-name="eth" unicode="&#xf0;" horiz-adv-x="909" 
d="M535 1250l-207.001 -106.998l-33 64l191 101c-55.333 61.333 -123.333 114.333 -204 159l32 38c95.333 -43.333 180 -94 254 -152l223 115l38 -64l-202 -105c83.333 -99.333 142 -195.333 176 -288s51 -195.667 51 -309c0 -140.667 -26.5 -268.334 -79.5 -383.001
s-122.5 -201 -208.5 -259s-174 -87 -264 -87c-77.333 0 -138.833 28 -184.5 84s-68.5 144.333 -68.5 265c0 123.333 23.833 235.666 71.5 336.999s108.834 178.333 183.501 231s150.334 79 227.001 79c27.333 0 51.166 -3.66699 71.499 -11s44.166 -21.333 71.499 -42
c-9.33301 67.333 -24.666 126.5 -45.999 177.5s-52.333 103.167 -93 156.5zM695.999 652.002c0 96 -17.501 165.5 -52.501 208.5s-82.5 64.5 -142.5 64.5c-91.333 0 -163.166 -61.667 -215.499 -185s-78.5 -267.333 -78.5 -432c0 -94.667 16.167 -162.5 48.5 -203.5
s76.166 -61.5 131.499 -61.5c53.333 0 98.333 16 135 48c48.667 42.667 87.334 109.667 116.001 201c38.667 122 58 242 58 360z" />
    <glyph glyph-name="ntilde" unicode="&#xf1;" horiz-adv-x="1139" 
d="M67 740l-16.001 41.9961c108 78 192.667 133 254 165c28 14.667 53 22 75 22c15.333 0 27.166 -4.66699 35.499 -14s12.5 -23.333 12.5 -42c0 -14 -2.33301 -33.667 -7 -59l-79 -346c58 92.667 125.833 175.834 203.5 249.501s151.834 127.334 222.501 161.001
s126 50.5 166 50.5c18 0 32.333 -5.66699 43 -17s16 -27.333 16 -48c0 -18.667 -2.33301 -39 -7 -61c-6.66699 -35.333 -38 -170.666 -94 -405.999c-42 -174 -63 -275.667 -63 -305c0 -20 10.333 -30 31 -30c20 0 58.333 19.667 115 59l63 42l18 -40
c-164.667 -126.667 -274 -190 -328 -190c-18.667 0 -33.667 6.5 -45 19.5s-17 31.167 -17 54.5c0 39.333 22 143.333 66 312c62 236 93 381.667 93 437c0 14 -3.5 24.833 -10.5 32.5s-16.5 11.5 -28.5 11.5c-39.333 0 -94 -27.667 -164 -83
c-100.667 -79.333 -179 -174.166 -235 -284.499s-100 -266.833 -132 -469.5c-36.667 -4.66699 -84 -14.667 -142 -30l-16 17c48.667 162.667 91 337.667 127 525c27.333 144 41 235.667 41 275c0 14 -2.83301 24.5 -8.5 31.5s-13.5 10.5 -23.5 10.5
c-25.333 0 -80.666 -30.667 -165.999 -92zM480.999 1196l-58.999 -0.000976562c18.667 74.667 45 127.834 79 159.501s74.667 47.5 122 47.5c44.667 0 103.667 -16.333 177 -49c72 -31.333 122 -47 150 -47c21.333 0 39.666 6.83301 54.999 20.5s29 40.167 41 79.5h57
c-16 -68 -42 -119.833 -78 -155.5s-75.333 -53.5 -118 -53.5c-20.667 0 -41.334 2.83301 -62.001 8.5s-56.667 19.5 -108 41.5c-72 30.667 -121.333 46 -148 46c-25.333 0 -45.666 -6.16699 -60.999 -18.5s-31 -38.833 -47 -79.5z" />
    <glyph glyph-name="ograve" unicode="&#xf2;" horiz-adv-x="909" 
d="M48 295c0 213.333 55.001 379 165.001 497s231 177 363 177c87.333 0 155.333 -26.167 204 -78.5s73 -127.5 73 -225.5c0 -123.333 -26.833 -241.333 -80.5 -354s-122 -197.167 -205 -253.5s-166.167 -84.5 -249.5 -84.5c-84.667 0 -150.834 26.333 -198.501 79
s-71.5 133.667 -71.5 243zM205.001 310c0 -93.333 16.5 -160.167 49.5 -200.5s79.5 -60.5 139.5 -60.5c88.667 0 157.667 49.667 207 149c62.667 126.667 94 271.667 94 435c0 96 -16.833 164.333 -50.5 205s-82.167 61 -145.5 61c-51.333 0 -96.5 -17.167 -135.5 -51.5
s-75.167 -102.5 -108.5 -204.5s-50 -213 -50 -333zM731.001 1131l-303.999 192c-36 23.333 -58.5 40.5 -67.5 51.5s-13.5 23.167 -13.5 36.5c0 16 5.66699 30 17 42s25 18 41 18c13.333 0 26.666 -3.83301 39.999 -11.5s40 -30.167 80 -67.5l277 -261h-70z" />
    <glyph glyph-name="oacute" unicode="&#xf3;" horiz-adv-x="909" 
d="M48 295c0 213.333 55.001 379 165.001 497s231 177 363 177c87.333 0 155.333 -26.167 204 -78.5s73 -127.5 73 -225.5c0 -123.333 -26.833 -241.333 -80.5 -354s-122 -197.167 -205 -253.5s-166.167 -84.5 -249.5 -84.5c-84.667 0 -150.834 26.333 -198.501 79
s-71.5 133.667 -71.5 243zM205.001 310c0 -93.333 16.5 -160.167 49.5 -200.5s79.5 -60.5 139.5 -60.5c88.667 0 157.667 49.667 207 149c62.667 126.667 94 271.667 94 435c0 96 -16.833 164.333 -50.5 205s-82.167 61 -145.5 61c-51.333 0 -96.5 -17.167 -135.5 -51.5
s-75.167 -102.5 -108.5 -204.5s-50 -213 -50 -333zM513.001 1131l-70.999 -0.000976562l275 261c39.333 37.333 65.5 59.833 78.5 67.5s26.167 11.5 39.5 11.5c16 0 29.667 -6 41 -18s17 -26.333 17 -43c0 -13.333 -3.66699 -24.666 -11 -33.999
c-10.667 -13.333 -33.334 -31 -68.001 -53z" />
    <glyph glyph-name="ocircumflex" unicode="&#xf4;" horiz-adv-x="909" 
d="M48 295c0 213.333 55.001 379 165.001 497s231 177 363 177c87.333 0 155.333 -26.167 204 -78.5s73 -127.5 73 -225.5c0 -123.333 -26.833 -241.333 -80.5 -354s-122 -197.167 -205 -253.5s-166.167 -84.5 -249.5 -84.5c-84.667 0 -150.834 26.333 -198.501 79
s-71.5 133.667 -71.5 243zM205.001 310c0 -93.333 16.5 -160.167 49.5 -200.5s79.5 -60.5 139.5 -60.5c88.667 0 157.667 49.667 207 149c62.667 126.667 94 271.667 94 435c0 96 -16.833 164.333 -50.5 205s-82.167 61 -145.5 61c-51.333 0 -96.5 -17.167 -135.5 -51.5
s-75.167 -102.5 -108.5 -204.5s-50 -213 -50 -333zM284.001 1131l352 342h83l200 -342h-68l-188 221l-302 -221h-77z" />
    <glyph glyph-name="otilde" unicode="&#xf5;" horiz-adv-x="909" 
d="M48 295c0 213.333 55.001 379 165.001 497s231 177 363 177c87.333 0 155.333 -26.167 204 -78.5s73 -127.5 73 -225.5c0 -123.333 -26.833 -241.333 -80.5 -354s-122 -197.167 -205 -253.5s-166.167 -84.5 -249.5 -84.5c-84.667 0 -150.834 26.333 -198.501 79
s-71.5 133.667 -71.5 243zM205.001 310c0 -93.333 16.5 -160.167 49.5 -200.5s79.5 -60.5 139.5 -60.5c88.667 0 157.667 49.667 207 149c62.667 126.667 94 271.667 94 435c0 96 -16.833 164.333 -50.5 205s-82.167 61 -145.5 61c-51.333 0 -96.5 -17.167 -135.5 -51.5
s-75.167 -102.5 -108.5 -204.5s-50 -213 -50 -333zM366.001 1196l-58.999 -0.000976562c18.667 74.667 45 127.834 79 159.501s74.667 47.5 122 47.5c44.667 0 103.667 -16.333 177 -49c72 -31.333 122 -47 150 -47c21.333 0 39.666 6.83301 54.999 20.5s29 40.167 41 79.5
h57c-16 -68 -42 -119.833 -78 -155.5s-75.333 -53.5 -118 -53.5c-20.667 0 -41.334 2.83301 -62.001 8.5s-56.667 19.5 -108 41.5c-72 30.667 -121.333 46 -148 46c-25.333 0 -45.666 -6.16699 -60.999 -18.5s-31 -38.833 -47 -79.5z" />
    <glyph glyph-name="odieresis" unicode="&#xf6;" horiz-adv-x="909" 
d="M48 295c0 213.333 55.001 379 165.001 497s231 177 363 177c87.333 0 155.333 -26.167 204 -78.5s73 -127.5 73 -225.5c0 -123.333 -26.833 -241.333 -80.5 -354s-122 -197.167 -205 -253.5s-166.167 -84.5 -249.5 -84.5c-84.667 0 -150.834 26.333 -198.501 79
s-71.5 133.667 -71.5 243zM205.001 310c0 -93.333 16.5 -160.167 49.5 -200.5s79.5 -60.5 139.5 -60.5c88.667 0 157.667 49.667 207 149c62.667 126.667 94 271.667 94 435c0 96 -16.833 164.333 -50.5 205s-82.167 61 -145.5 61c-51.333 0 -96.5 -17.167 -135.5 -51.5
s-75.167 -102.5 -108.5 -204.5s-50 -213 -50 -333zM813.001 1143c-22.667 0 -41.6689 8.66895 -57.002 26.002s-23 40.666 -23 69.999c0 33.333 9.83301 61.166 29.5 83.499s42.834 33.5 69.501 33.5c22.667 0 41.334 -8.5 56.001 -25.5s22 -39.833 22 -68.5
c0 -33.333 -10.167 -61.5 -30.5 -84.5s-42.5 -34.5 -66.5 -34.5zM466.999 1143c-22.667 0 -41.667 8.66895 -57 26.002s-23 40.666 -23 69.999c0 33.333 10 61.166 30 83.499s43.333 33.5 70 33.5c22 0 40.333 -8.5 55 -25.5s22 -39.833 22 -68.5
c0 -33.333 -10.167 -61.5 -30.5 -84.5s-42.5 -34.5 -66.5 -34.5z" />
    <glyph glyph-name="divide" unicode="&#xf7;" horiz-adv-x="1124" 
d="M563 1142c32 0 59.333 -11.332 82 -33.999s34 -50.334 34 -83.001c0 -32 -11.333 -59.5 -34 -82.5s-50 -34.5 -82 -34.5c-32.667 0 -60.334 11.5 -83.001 34.5s-34 50.5 -34 82.5s11.333 59.5 34 82.5s50.334 34.5 83.001 34.5zM59 635.001v139h1007v-139h-1007z
M563 501.001c32 0 59.332 -11.5 81.999 -34.5s34 -50.5 34 -82.5s-11.333 -59.5 -34 -82.5s-50 -34.5 -82 -34.5s-59.5 11.5 -82.5 34.5s-34.5 50.5 -34.5 82.5s11.333 59.5 34 82.5s50.334 34.5 83.001 34.5z" />
    <glyph glyph-name="oslash" unicode="&#xf8;" horiz-adv-x="909" 
d="M-42 -32l120.997 147.003c-20 54 -30 114.667 -30 182c0 134.667 23.833 252.167 71.5 352.5s113.667 178.666 198 234.999s170.166 84.5 257.499 84.5c62.667 0 121.334 -17.667 176.001 -53l107 131l57 -46l-114 -136c33.333 -58 50 -129.667 50 -215
s-16.167 -172.833 -48.5 -262.5s-73.666 -165.334 -123.999 -227.001s-109.166 -108.334 -176.499 -140.001s-129.666 -47.5 -186.999 -47.5c-73.333 0 -138.333 26.333 -195 79l-107 -128zM658.997 817.003c-39.333 54.667 -91.667 82 -157 82
c-90.667 0 -161 -55 -211 -165c-56.667 -126 -85 -269 -85 -429v-46zM222.996 166.003c30.667 -78 86.667 -117 168 -117c92.667 0 166.167 58.167 220.5 174.5s81.5 249.833 81.5 400.5c0 34.667 -2.66699 71.667 -8 111z" />
    <glyph glyph-name="ugrave" unicode="&#xf9;" horiz-adv-x="1139" 
d="M88 747l-21.0029 38c172 122.667 285 184 339 184c14 0 25.167 -4.16699 33.5 -12.5s12.5 -19.833 12.5 -34.5c0 -22 -22.333 -121 -67 -297c-62.667 -248.667 -94 -403.667 -94 -465c0 -17.333 3 -29.5 9 -36.5s14.333 -10.5 25 -10.5c27.333 0 71.333 25.667 132 77
c116.667 98 203.834 201.667 261.501 311s100.167 254 127.5 434c60.667 12.667 107.334 24 140.001 34l13 -14c-58 -196 -105.333 -383.333 -142 -562c-22.667 -114 -34 -191.333 -34 -232c0 -18.667 2.83301 -31.834 8.5 -39.501s13.167 -11.5 22.5 -11.5
c20.667 0 57.334 22 110.001 66l53 43l24 -36c-165.333 -140 -273.666 -210 -324.999 -210c-14.667 0 -26.834 6.5 -36.501 19.5s-14.5 32.5 -14.5 58.5c0 28.667 5.33301 69.334 16 122.001l67 285c-101.333 -156.667 -213.666 -284.667 -336.999 -384
c-82 -66 -145.333 -99 -190 -99c-24.667 0 -44.334 8.5 -59.001 25.5s-22 42.5 -22 76.5c0 43.333 13.667 122.333 41 237c66.667 274.667 100 433.667 100 477c0 13.333 -2.83301 23.5 -8.5 30.5s-13.167 10.5 -22.5 10.5c-20.667 0 -74.667 -28.333 -162 -85z
M845.997 1131l-303.999 192c-36 23.333 -58.5 40.5 -67.5 51.5s-13.5 23.167 -13.5 36.5c0 16 5.66699 30 17 42s25 18 41 18c13.333 0 26.666 -3.83301 39.999 -11.5s40 -30.167 80 -67.5l277 -261h-70z" />
    <glyph glyph-name="uacute" unicode="&#xfa;" horiz-adv-x="1139" 
d="M88 747l-21.0029 38c172 122.667 285 184 339 184c14 0 25.167 -4.16699 33.5 -12.5s12.5 -19.833 12.5 -34.5c0 -22 -22.333 -121 -67 -297c-62.667 -248.667 -94 -403.667 -94 -465c0 -17.333 3 -29.5 9 -36.5s14.333 -10.5 25 -10.5c27.333 0 71.333 25.667 132 77
c116.667 98 203.834 201.667 261.501 311s100.167 254 127.5 434c60.667 12.667 107.334 24 140.001 34l13 -14c-58 -196 -105.333 -383.333 -142 -562c-22.667 -114 -34 -191.333 -34 -232c0 -18.667 2.83301 -31.834 8.5 -39.501s13.167 -11.5 22.5 -11.5
c20.667 0 57.334 22 110.001 66l53 43l24 -36c-165.333 -140 -273.666 -210 -324.999 -210c-14.667 0 -26.834 6.5 -36.501 19.5s-14.5 32.5 -14.5 58.5c0 28.667 5.33301 69.334 16 122.001l67 285c-101.333 -156.667 -213.666 -284.667 -336.999 -384
c-82 -66 -145.333 -99 -190 -99c-24.667 0 -44.334 8.5 -59.001 25.5s-22 42.5 -22 76.5c0 43.333 13.667 122.333 41 237c66.667 274.667 100 433.667 100 477c0 13.333 -2.83301 23.5 -8.5 30.5s-13.167 10.5 -22.5 10.5c-20.667 0 -74.667 -28.333 -162 -85z
M626.997 1131l-70.999 -0.000976562l275 261c39.333 37.333 65.5 59.833 78.5 67.5s26.167 11.5 39.5 11.5c16 0 29.667 -6 41 -18s17 -26.333 17 -43c0 -13.333 -3.66699 -24.666 -11 -33.999c-10.667 -13.333 -33.334 -31 -68.001 -53z" />
    <glyph glyph-name="ucircumflex" unicode="&#xfb;" horiz-adv-x="1139" 
d="M88 747l-21.0029 38c172 122.667 285 184 339 184c14 0 25.167 -4.16699 33.5 -12.5s12.5 -19.833 12.5 -34.5c0 -22 -22.333 -121 -67 -297c-62.667 -248.667 -94 -403.667 -94 -465c0 -17.333 3 -29.5 9 -36.5s14.333 -10.5 25 -10.5c27.333 0 71.333 25.667 132 77
c116.667 98 203.834 201.667 261.501 311s100.167 254 127.5 434c60.667 12.667 107.334 24 140.001 34l13 -14c-58 -196 -105.333 -383.333 -142 -562c-22.667 -114 -34 -191.333 -34 -232c0 -18.667 2.83301 -31.834 8.5 -39.501s13.167 -11.5 22.5 -11.5
c20.667 0 57.334 22 110.001 66l53 43l24 -36c-165.333 -140 -273.666 -210 -324.999 -210c-14.667 0 -26.834 6.5 -36.501 19.5s-14.5 32.5 -14.5 58.5c0 28.667 5.33301 69.334 16 122.001l67 285c-101.333 -156.667 -213.666 -284.667 -336.999 -384
c-82 -66 -145.333 -99 -190 -99c-24.667 0 -44.334 8.5 -59.001 25.5s-22 42.5 -22 76.5c0 43.333 13.667 122.333 41 237c66.667 274.667 100 433.667 100 477c0 13.333 -2.83301 23.5 -8.5 30.5s-13.167 10.5 -22.5 10.5c-20.667 0 -74.667 -28.333 -162 -85z
M397.997 1131l352 342h83l200 -342h-68l-188 221l-302 -221h-77z" />
    <glyph glyph-name="udieresis" unicode="&#xfc;" horiz-adv-x="1139" 
d="M88 747l-21.0029 38c172 122.667 285 184 339 184c14 0 25.167 -4.16699 33.5 -12.5s12.5 -19.833 12.5 -34.5c0 -22 -22.333 -121 -67 -297c-62.667 -248.667 -94 -403.667 -94 -465c0 -17.333 3 -29.5 9 -36.5s14.333 -10.5 25 -10.5c27.333 0 71.333 25.667 132 77
c116.667 98 203.834 201.667 261.501 311s100.167 254 127.5 434c60.667 12.667 107.334 24 140.001 34l13 -14c-58 -196 -105.333 -383.333 -142 -562c-22.667 -114 -34 -191.333 -34 -232c0 -18.667 2.83301 -31.834 8.5 -39.501s13.167 -11.5 22.5 -11.5
c20.667 0 57.334 22 110.001 66l53 43l24 -36c-165.333 -140 -273.666 -210 -324.999 -210c-14.667 0 -26.834 6.5 -36.501 19.5s-14.5 32.5 -14.5 58.5c0 28.667 5.33301 69.334 16 122.001l67 285c-101.333 -156.667 -213.666 -284.667 -336.999 -384
c-82 -66 -145.333 -99 -190 -99c-24.667 0 -44.334 8.5 -59.001 25.5s-22 42.5 -22 76.5c0 43.333 13.667 122.333 41 237c66.667 274.667 100 433.667 100 477c0 13.333 -2.83301 23.5 -8.5 30.5s-13.167 10.5 -22.5 10.5c-20.667 0 -74.667 -28.333 -162 -85z
M926.997 1143c-22.667 0 -41.6689 8.66895 -57.002 26.002s-23 40.666 -23 69.999c0 33.333 9.83301 61.166 29.5 83.499s42.834 33.5 69.501 33.5c22.667 0 41.334 -8.5 56.001 -25.5s22 -39.833 22 -68.5c0 -33.333 -10.167 -61.5 -30.5 -84.5s-42.5 -34.5 -66.5 -34.5z
M580.995 1143c-22.667 0 -41.667 8.66895 -57 26.002s-23 40.666 -23 69.999c0 33.333 10 61.166 30 83.499s43.333 33.5 70 33.5c22 0 40.333 -8.5 55 -25.5s22 -39.833 22 -68.5c0 -33.333 -10.167 -61.5 -30.5 -84.5s-42.5 -34.5 -66.5 -34.5z" />
    <glyph glyph-name="yacute" unicode="&#xfd;" 
d="M48 735l-28.0029 36c102.667 85.333 179.334 142.666 230.001 171.999c28 16 53.667 24 77 24c20 0 36 -8 48 -24s18 -42 18 -78c0 -43.333 -6 -142.666 -18 -297.999c-14 -174 -21 -291 -21 -351c0 -35.333 3.83301 -59 11.5 -71s18.834 -18 33.501 -18
c60 0 143 83.667 249 251c84 132.667 149.667 317.667 197 555c60.667 12 111.334 24 152.001 36l22 -19c-32.667 -76.667 -76 -203 -130 -379l-136 -454c-33.333 -114.667 -73 -217.667 -119 -309s-97.833 -166.666 -155.5 -225.999s-110.834 -100 -159.501 -122
s-95 -33 -139 -33c-54 0 -97.5 14.833 -130.5 44.5s-49.5 69.5 -49.5 119.5l1 31c34.667 15.333 69.667 38.333 105 69l18 -10l-1 -45c0 -39.333 12.667 -71.5 38 -96.5s56 -37.5 92 -37.5c26.667 0 50.834 4.66699 72.501 14s46.167 28.333 73.5 57s57 75.667 89 141
s64.333 151.666 97 258.999l106 383c-102.667 -148 -193 -254.667 -271 -320c-54 -44.667 -94.667 -67 -122 -67c-25.333 0 -46.833 12.333 -64.5 37s-26.5 64.667 -26.5 120c0 34.667 4.66699 104.667 14 210c12.667 142 19 257 19 345c0 65.333 -3.66699 106.333 -11 123
s-17.333 25 -30 25c-20.667 0 -71 -31.333 -151 -94zM569.997 1131l-70.999 -0.000976562l275 261c39.333 37.333 65.5 59.833 78.5 67.5s26.167 11.5 39.5 11.5c16 0 29.667 -6 41 -18s17 -26.333 17 -43c0 -13.333 -3.66699 -24.666 -11 -33.999
c-10.667 -13.333 -33.334 -31 -68.001 -53z" />
    <glyph glyph-name="thorn" unicode="&#xfe;" 
d="M331 593c55.333 89.333 110.499 159.5 165.499 210.5s116 91.333 183 121s120.5 44.5 160.5 44.5c30.667 0 54.667 -14.333 72 -43c28 -45.333 42 -102.333 42 -171c0 -108.667 -22.667 -220.167 -68 -334.5s-93.5 -195.166 -144.5 -242.499
s-113.833 -93.333 -188.5 -138s-140.334 -67 -197.001 -67c-34 0 -76.667 8.33301 -128 25c-45.333 -218 -76.666 -398.667 -93.999 -542c-59.333 -7.33301 -109 -17 -149 -29l-14 11c27.333 117.333 56.333 251.666 87 402.999l114 587l63 371c56 310.667 84 480 84 508
c0 20.667 -6.66699 34.334 -20 41.001c-10 5.33301 -59.333 9.66602 -148 12.999l2 41c132 11.333 244 39.333 336 84l25 -22c-21.333 -91.333 -47.666 -212 -78.999 -362zM244.999 115c60.667 -37.333 121.667 -55.999 183 -55.999c58.667 0 111 20.167 157 60.5
s93.333 125.5 142 255.5s73 248.667 73 356c0 46 -6 77.333 -18 94s-30.333 25 -55 25c-62.667 0 -133.167 -33.833 -211.5 -101.5s-140.833 -161.167 -187.5 -280.5c-18 -46.667 -45.667 -164.334 -83 -353.001z" />
    <glyph glyph-name="ydieresis" unicode="&#xff;" 
d="M48 735l-28.0029 36c102.667 85.333 179.334 142.666 230.001 171.999c28 16 53.667 24 77 24c20 0 36 -8 48 -24s18 -42 18 -78c0 -43.333 -6 -142.666 -18 -297.999c-14 -174 -21 -291 -21 -351c0 -35.333 3.83301 -59 11.5 -71s18.834 -18 33.501 -18
c60 0 143 83.667 249 251c84 132.667 149.667 317.667 197 555c60.667 12 111.334 24 152.001 36l22 -19c-32.667 -76.667 -76 -203 -130 -379l-136 -454c-33.333 -114.667 -73 -217.667 -119 -309s-97.833 -166.666 -155.5 -225.999s-110.834 -100 -159.501 -122
s-95 -33 -139 -33c-54 0 -97.5 14.833 -130.5 44.5s-49.5 69.5 -49.5 119.5l1 31c34.667 15.333 69.667 38.333 105 69l18 -10l-1 -45c0 -39.333 12.667 -71.5 38 -96.5s56 -37.5 92 -37.5c26.667 0 50.834 4.66699 72.501 14s46.167 28.333 73.5 57s57 75.667 89 141
s64.333 151.666 97 258.999l106 383c-102.667 -148 -193 -254.667 -271 -320c-54 -44.667 -94.667 -67 -122 -67c-25.333 0 -46.833 12.333 -64.5 37s-26.5 64.667 -26.5 120c0 34.667 4.66699 104.667 14 210c12.667 142 19 257 19 345c0 65.333 -3.66699 106.333 -11 123
s-17.333 25 -30 25c-20.667 0 -71 -31.333 -151 -94zM869.997 1143c-22.667 0 -41.6689 8.66895 -57.002 26.002s-23 40.666 -23 69.999c0 33.333 9.83301 61.166 29.5 83.499s42.834 33.5 69.501 33.5c22.667 0 41.334 -8.5 56.001 -25.5s22 -39.833 22 -68.5
c0 -33.333 -10.167 -61.5 -30.5 -84.5s-42.5 -34.5 -66.5 -34.5zM523.995 1143c-22.667 0 -41.667 8.66895 -57 26.002s-23 40.666 -23 69.999c0 33.333 10 61.166 30 83.499s43.333 33.5 70 33.5c22 0 40.333 -8.5 55 -25.5s22 -39.833 22 -68.5
c0 -33.333 -10.167 -61.5 -30.5 -84.5s-42.5 -34.5 -66.5 -34.5z" />
    <glyph glyph-name="Amacron" unicode="&#x100;" horiz-adv-x="1479" 
d="M972 1432l219 -1179c16.667 -90 28.667 -143 36 -159c4 -9.33301 12 -16.833 24 -22.5s54.333 -11.5 127 -17.5v-61c-73.333 4.66699 -157.666 7 -252.999 7c-92.667 0 -176 -2.33301 -250 -7v61l68 2c45.333 0.666992 74.666 5.5 87.999 14.5s20 23.833 20 44.5
c0 20 -5 58.333 -15 115l-59 337h-510l-82 -144c-81.333 -142.667 -129.333 -231 -144 -265c-11.333 -25.333 -17 -43.666 -17 -54.999c0 -13.333 7.5 -23.333 22.5 -30s67.167 -13 156.5 -19v-61c-105.333 4.66699 -187 7 -245 7c-64 0 -133.333 -2.33301 -208 -7v61
c54.667 2.66699 88 7.66699 100 15s44 53 96 137l729 1226h97zM858 1232l-344 -586c107.333 -2 190 -3 248 -3c53.333 0 120.333 1 201 3zM1164 1635h-493l20 106h494z" />
    <glyph glyph-name="amacron" unicode="&#x101;" horiz-adv-x="909" 
d="M826 968l23.002 -15.001c-65.333 -226.667 -116 -427.667 -152 -603c-20.667 -101.333 -31 -167.666 -31 -198.999c0 -12.667 2.66699 -22.334 8 -29.001s12.666 -10 21.999 -10c22 0 71.667 32.333 149 97l12 -46c-72 -63.333 -141.333 -114 -208 -152
c-32.667 -18 -61 -27 -85 -27c-18 0 -31.333 5.16699 -40 15.5s-13 27.166 -13 50.499c0 54.667 22.667 168.334 68 341.001l-8 1c-94.667 -137.333 -195.334 -248.333 -302.001 -333c-72 -57.333 -124.667 -86 -158 -86c-20 0 -35.667 10 -47 30
c-16.667 30.667 -25 75 -25 133c0 98.667 19.833 216.334 59.5 353.001s80.167 234 121.5 292c31.333 44 92.333 91 183 141c56.667 31.333 115.667 47 177 47c26.667 0 55.167 -3 85.5 -9s62.5 -15 96.5 -27zM673.002 836.999
c-29.333 11.333 -56.999 19.665 -82.999 24.998s-50.667 8 -74 8c-52 0 -99 -9 -141 -27c-12 -6 -27.333 -28 -46 -66c-36.667 -76 -69.834 -172.667 -99.501 -290s-44.5 -220.666 -44.5 -309.999c0 -24 3.5 -41 10.5 -51s15.5 -15 25.5 -15c27.333 0 77.5 35 150.5 105
s130.5 142.333 172.5 217c56 100.667 99 235.334 129 404.001zM876.003 1255h-493l20 106h494z" />
    <glyph glyph-name="Abreve" unicode="&#x102;" horiz-adv-x="1479" 
d="M972 1432l219 -1179c16.667 -90 28.667 -143 36 -159c4 -9.33301 12 -16.833 24 -22.5s54.333 -11.5 127 -17.5v-61c-73.333 4.66699 -157.666 7 -252.999 7c-92.667 0 -176 -2.33301 -250 -7v61l68 2c45.333 0.666992 74.666 5.5 87.999 14.5s20 23.833 20 44.5
c0 20 -5 58.333 -15 115l-59 337h-510l-82 -144c-81.333 -142.667 -129.333 -231 -144 -265c-11.333 -25.333 -17 -43.666 -17 -54.999c0 -13.333 7.5 -23.333 22.5 -30s67.167 -13 156.5 -19v-61c-105.333 4.66699 -187 7 -245 7c-64 0 -133.333 -2.33301 -208 -7v61
c54.667 2.66699 88 7.66699 100 15s44 53 96 137l729 1226h97zM858 1232l-344 -586c107.333 -2 190 -3 248 -3c53.333 0 120.333 1 201 3zM644 1844l54.9971 -0.000976562c8.66699 -64 28.334 -112 59.001 -144c40.667 -42 96 -63 166 -63
c62.667 0 117.334 16.333 164.001 49s86.334 85.334 119.001 158.001h58c-65.333 -216.667 -182 -325 -350 -325c-55.333 0 -104 12 -146 36s-72.5 55.833 -91.5 95.5s-30.167 104.167 -33.5 193.5z" />
    <glyph glyph-name="abreve" unicode="&#x103;" horiz-adv-x="909" 
d="M826 968l23.002 -15.001c-65.333 -226.667 -116 -427.667 -152 -603c-20.667 -101.333 -31 -167.666 -31 -198.999c0 -12.667 2.66699 -22.334 8 -29.001s12.666 -10 21.999 -10c22 0 71.667 32.333 149 97l12 -46c-72 -63.333 -141.333 -114 -208 -152
c-32.667 -18 -61 -27 -85 -27c-18 0 -31.333 5.16699 -40 15.5s-13 27.166 -13 50.499c0 54.667 22.667 168.334 68 341.001l-8 1c-94.667 -137.333 -195.334 -248.333 -302.001 -333c-72 -57.333 -124.667 -86 -158 -86c-20 0 -35.667 10 -47 30
c-16.667 30.667 -25 75 -25 133c0 98.667 19.833 216.334 59.5 353.001s80.167 234 121.5 292c31.333 44 92.333 91 183 141c56.667 31.333 115.667 47 177 47c26.667 0 55.167 -3 85.5 -9s62.5 -15 96.5 -27zM673.002 836.999
c-29.333 11.333 -56.999 19.665 -82.999 24.998s-50.667 8 -74 8c-52 0 -99 -9 -141 -27c-12 -6 -27.333 -28 -46 -66c-36.667 -76 -69.834 -172.667 -99.501 -290s-44.5 -220.666 -44.5 -309.999c0 -24 3.5 -41 10.5 -51s15.5 -15 25.5 -15c27.333 0 77.5 35 150.5 105
s130.5 142.333 172.5 217c56 100.667 99 235.334 129 404.001zM338.003 1464l54.9971 -0.000976562c8.66699 -64 28.334 -112 59.001 -144c40.667 -42 96 -63 166 -63c62.667 0 117.334 16.333 164.001 49s86.334 85.334 119.001 158.001h58
c-65.333 -216.667 -182 -325 -350 -325c-55.333 0 -104 12 -146 36s-72.5 55.833 -91.5 95.5s-30.167 104.167 -33.5 193.5z" />
    <glyph glyph-name="Aogonek" unicode="&#x104;" horiz-adv-x="1479" 
d="M972 1432l219 -1179c16.667 -90 28.667 -143 36 -159c4 -9.33301 12 -16.833 24 -22.5s54.333 -11.5 127 -17.5v-61c-73.333 4.66699 -157.666 7 -252.999 7c-92.667 0 -176 -2.33301 -250 -7v61l68 2c45.333 0.666992 74.666 5.5 87.999 14.5s20 23.833 20 44.5
c0 20 -5 58.333 -15 115l-59 337h-510l-82 -144c-81.333 -142.667 -129.333 -231 -144 -265c-11.333 -25.333 -17 -43.666 -17 -54.999c0 -13.333 7.5 -23.333 22.5 -30s67.167 -13 156.5 -19v-61c-105.333 4.66699 -187 7 -245 7c-64 0 -133.333 -2.33301 -208 -7v61
c54.667 2.66699 88 7.66699 100 15s44 53 96 137l729 1226h97zM858 1232l-344 -586c107.333 -2 190 -3 248 -3c53.333 0 120.333 1 201 3zM1121 -0.000976562c-52.667 -52.667 -87.3311 -94.166 -103.998 -124.499s-25 -57.5 -25 -81.5c0 -31.333 10.5 -57.333 31.5 -78
s47.833 -31 80.5 -31c32 0 67.667 15.667 107 47l36 -23c-73.333 -82 -143.333 -123 -210 -123c-44.667 0 -82.834 15.667 -114.501 47s-47.5 69 -47.5 113c0 23.333 4 44.666 12 63.999c11.333 25.333 27.666 49 48.999 71l139 119h46z" />
    <glyph glyph-name="aogonek" unicode="&#x105;" horiz-adv-x="909" 
d="M826 968l23.002 -15.001c-65.333 -226.667 -116 -427.667 -152 -603c-20.667 -101.333 -31 -167.666 -31 -198.999c0 -12.667 2.66699 -22.334 8 -29.001s12.666 -10 21.999 -10c22 0 71.667 32.333 149 97l12 -46c-72 -63.333 -141.333 -114 -208 -152
c-32.667 -18 -61 -27 -85 -27c-18 0 -31.333 5.16699 -40 15.5s-13 27.166 -13 50.499c0 54.667 22.667 168.334 68 341.001l-8 1c-94.667 -137.333 -195.334 -248.333 -302.001 -333c-72 -57.333 -124.667 -86 -158 -86c-20 0 -35.667 10 -47 30
c-16.667 30.667 -25 75 -25 133c0 98.667 19.833 216.334 59.5 353.001s80.167 234 121.5 292c31.333 44 92.333 91 183 141c56.667 31.333 115.667 47 177 47c26.667 0 55.167 -3 85.5 -9s62.5 -15 96.5 -27zM673.002 836.999
c-29.333 11.333 -56.999 19.665 -82.999 24.998s-50.667 8 -74 8c-52 0 -99 -9 -141 -27c-12 -6 -27.333 -28 -46 -66c-36.667 -76 -69.834 -172.667 -99.501 -290s-44.5 -220.666 -44.5 -309.999c0 -24 3.5 -41 10.5 -51s15.5 -15 25.5 -15c27.333 0 77.5 35 150.5 105
s130.5 142.333 172.5 217c56 100.667 99 235.334 129 404.001zM608.003 -0.00195312c-52.667 -52.667 -87.3311 -94.166 -103.998 -124.499s-25 -57.5 -25 -81.5c0 -31.333 10.5 -57.333 31.5 -78s47.833 -31 80.5 -31c32 0 67.667 15.667 107 47l36 -23
c-73.333 -82 -143.333 -123 -210 -123c-44.667 0 -82.834 15.667 -114.501 47s-47.5 69 -47.5 113c0 23.333 4 44.666 12 63.999c11.333 25.333 27.666 49 48.999 71l139 119h46z" />
    <glyph glyph-name="Cacute" unicode="&#x106;" horiz-adv-x="1366" 
d="M1300 224c-9.33301 -24 -17.334 -48.333 -24.001 -73c-80 -62 -162.167 -107.167 -246.5 -135.5s-177.833 -42.5 -280.5 -42.5c-195.333 0 -346.833 53.667 -454.5 161s-161.5 258.666 -161.5 453.999c0 246 77.667 446 233 600c166.667 165.333 368 248 604 248
c72.667 0 143.5 -6.83301 212.5 -20.5s135.833 -34.167 200.5 -61.5c-26 -95.333 -44 -193 -54 -293h-58c-2 34 -3 60 -3 78l3 87c-66 42.667 -126.167 71.834 -180.5 87.501s-118.833 23.5 -193.5 23.5c-124.667 0 -226.667 -24.667 -306 -74
s-145.666 -130.833 -198.999 -244.5s-80 -243.167 -80 -388.5c0 -175.333 45 -310.5 135 -405.5s213 -142.5 369 -142.5c74 0 145 10.667 213 32s150.333 62 247 122zM861.999 1510l-70.999 -0.000976562l275 261c39.333 37.333 65.5 59.833 78.5 67.5
s26.167 11.5 39.5 11.5c16 0 29.667 -6 41 -18s17 -26.333 17 -43c0 -13.333 -3.66699 -24.666 -11 -33.999c-10.667 -13.333 -33.334 -31 -68.001 -53z" />
    <glyph glyph-name="cacute" unicode="&#x107;" horiz-adv-x="834" 
d="M776 663h-49.002c2.66699 52 4 90 4 114c0 25.333 -11.667 45.333 -35 60c-35.333 22 -81 33 -137 33c-68 0 -122.167 -15.5 -162.5 -46.5s-78.166 -98.167 -113.499 -201.5s-53 -211.666 -53 -324.999c0 -69.333 16.167 -122.5 48.5 -159.5s74.166 -55.5 125.499 -55.5
c44 0 91.333 10.167 142 30.5s115.667 60.166 195 119.499l16 -43c-100 -85.333 -182 -142.666 -246 -171.999s-123.667 -44 -179 -44c-80 0 -141.5 25.833 -184.5 77.5s-64.5 125.167 -64.5 220.5c0 96.667 16.333 194.667 49 294s75.834 174.666 129.501 225.999
s133.834 100 240.501 146c49.333 21.333 99.333 32 150 32c32 0 59.667 -3.5 83 -10.5s52 -21.167 86 -42.5c-21.333 -78 -36.333 -162.333 -45 -253zM511.998 1131l-70.999 -0.000976562l275 261c39.333 37.333 65.5 59.833 78.5 67.5s26.167 11.5 39.5 11.5
c16 0 29.667 -6 41 -18s17 -26.333 17 -43c0 -13.333 -3.66699 -24.666 -11 -33.999c-10.667 -13.333 -33.334 -31 -68.001 -53z" />
    <glyph glyph-name="Ccircumflex" unicode="&#x108;" horiz-adv-x="1366" 
d="M1300 224c-9.33301 -24 -17.334 -48.333 -24.001 -73c-80 -62 -162.167 -107.167 -246.5 -135.5s-177.833 -42.5 -280.5 -42.5c-195.333 0 -346.833 53.667 -454.5 161s-161.5 258.666 -161.5 453.999c0 246 77.667 446 233 600c166.667 165.333 368 248 604 248
c72.667 0 143.5 -6.83301 212.5 -20.5s135.833 -34.167 200.5 -61.5c-26 -95.333 -44 -193 -54 -293h-58c-2 34 -3 60 -3 78l3 87c-66 42.667 -126.167 71.834 -180.5 87.501s-118.833 23.5 -193.5 23.5c-124.667 0 -226.667 -24.667 -306 -74
s-145.666 -130.833 -198.999 -244.5s-80 -243.167 -80 -388.5c0 -175.333 45 -310.5 135 -405.5s213 -142.5 369 -142.5c74 0 145 10.667 213 32s150.333 62 247 122zM611.999 1511l352 342h83l200 -342h-68l-188 221l-302 -221h-77z" />
    <glyph glyph-name="ccircumflex" unicode="&#x109;" horiz-adv-x="834" 
d="M776 663h-49.002c2.66699 52 4 90 4 114c0 25.333 -11.667 45.333 -35 60c-35.333 22 -81 33 -137 33c-68 0 -122.167 -15.5 -162.5 -46.5s-78.166 -98.167 -113.499 -201.5s-53 -211.666 -53 -324.999c0 -69.333 16.167 -122.5 48.5 -159.5s74.166 -55.5 125.499 -55.5
c44 0 91.333 10.167 142 30.5s115.667 60.166 195 119.499l16 -43c-100 -85.333 -182 -142.666 -246 -171.999s-123.667 -44 -179 -44c-80 0 -141.5 25.833 -184.5 77.5s-64.5 125.167 -64.5 220.5c0 96.667 16.333 194.667 49 294s75.834 174.666 129.501 225.999
s133.834 100 240.501 146c49.333 21.333 99.333 32 150 32c32 0 59.667 -3.5 83 -10.5s52 -21.167 86 -42.5c-21.333 -78 -36.333 -162.333 -45 -253zM280.998 1131l352 342h83l200 -342h-68l-188 221l-302 -221h-77z" />
    <glyph glyph-name="Cdot" unicode="&#x10a;" horiz-adv-x="1366" 
d="M1300 224c-9.33301 -24 -17.334 -48.333 -24.001 -73c-80 -62 -162.167 -107.167 -246.5 -135.5s-177.833 -42.5 -280.5 -42.5c-195.333 0 -346.833 53.667 -454.5 161s-161.5 258.666 -161.5 453.999c0 246 77.667 446 233 600c166.667 165.333 368 248 604 248
c72.667 0 143.5 -6.83301 212.5 -20.5s135.833 -34.167 200.5 -61.5c-26 -95.333 -44 -193 -54 -293h-58c-2 34 -3 60 -3 78l3 87c-66 42.667 -126.167 71.834 -180.5 87.501s-118.833 23.5 -193.5 23.5c-124.667 0 -226.667 -24.667 -306 -74
s-145.666 -130.833 -198.999 -244.5s-80 -243.167 -80 -388.5c0 -175.333 45 -310.5 135 -405.5s213 -142.5 369 -142.5c74 0 145 10.667 213 32s150.333 62 247 122zM942.999 1523c-22.667 0 -41.834 8.83301 -57.501 26.5s-23.5 40.834 -23.5 69.501
c0 33.333 10.167 61.166 30.5 83.499s43.833 33.5 70.5 33.5c22.667 0 41.334 -8.5 56.001 -25.5s22 -40.167 22 -69.5c0 -32 -10.167 -59.667 -30.5 -83s-42.833 -35 -67.5 -35z" />
    <glyph glyph-name="cdot" unicode="&#x10b;" horiz-adv-x="834" 
d="M776 663h-49.002c2.66699 52 4 90 4 114c0 25.333 -11.667 45.333 -35 60c-35.333 22 -81 33 -137 33c-68 0 -122.167 -15.5 -162.5 -46.5s-78.166 -98.167 -113.499 -201.5s-53 -211.666 -53 -324.999c0 -69.333 16.167 -122.5 48.5 -159.5s74.166 -55.5 125.499 -55.5
c44 0 91.333 10.167 142 30.5s115.667 60.166 195 119.499l16 -43c-100 -85.333 -182 -142.666 -246 -171.999s-123.667 -44 -179 -44c-80 0 -141.5 25.833 -184.5 77.5s-64.5 125.167 -64.5 220.5c0 96.667 16.333 194.667 49 294s75.834 174.666 129.501 225.999
s133.834 100 240.501 146c49.333 21.333 99.333 32 150 32c32 0 59.667 -3.5 83 -10.5s52 -21.167 86 -42.5c-21.333 -78 -36.333 -162.333 -45 -253zM636.998 1143c-22.667 0 -41.834 8.83301 -57.501 26.5s-23.5 40.834 -23.5 69.501c0 33.333 10.167 61.166 30.5 83.499
s43.833 33.5 70.5 33.5c22.667 0 41.334 -8.5 56.001 -25.5s22 -40.167 22 -69.5c0 -32 -10.167 -59.667 -30.5 -83s-42.833 -35 -67.5 -35z" />
    <glyph glyph-name="Ccaron" unicode="&#x10c;" horiz-adv-x="1366" 
d="M1300 224c-9.33301 -24 -17.334 -48.333 -24.001 -73c-80 -62 -162.167 -107.167 -246.5 -135.5s-177.833 -42.5 -280.5 -42.5c-195.333 0 -346.833 53.667 -454.5 161s-161.5 258.666 -161.5 453.999c0 246 77.667 446 233 600c166.667 165.333 368 248 604 248
c72.667 0 143.5 -6.83301 212.5 -20.5s135.833 -34.167 200.5 -61.5c-26 -95.333 -44 -193 -54 -293h-58c-2 34 -3 60 -3 78l3 87c-66 42.667 -126.167 71.834 -180.5 87.501s-118.833 23.5 -193.5 23.5c-124.667 0 -226.667 -24.667 -306 -74
s-145.666 -130.833 -198.999 -244.5s-80 -243.167 -80 -388.5c0 -175.333 45 -310.5 135 -405.5s213 -142.5 369 -142.5c74 0 145 10.667 213 32s150.333 62 247 122zM1353 1852l-352 -342h-83l-200 342h69l187 -221l302 221h77z" />
    <glyph glyph-name="ccaron" unicode="&#x10d;" horiz-adv-x="834" 
d="M776 663h-49.002c2.66699 52 4 90 4 114c0 25.333 -11.667 45.333 -35 60c-35.333 22 -81 33 -137 33c-68 0 -122.167 -15.5 -162.5 -46.5s-78.166 -98.167 -113.499 -201.5s-53 -211.666 -53 -324.999c0 -69.333 16.167 -122.5 48.5 -159.5s74.166 -55.5 125.499 -55.5
c44 0 91.333 10.167 142 30.5s115.667 60.166 195 119.499l16 -43c-100 -85.333 -182 -142.666 -246 -171.999s-123.667 -44 -179 -44c-80 0 -141.5 25.833 -184.5 77.5s-64.5 125.167 -64.5 220.5c0 96.667 16.333 194.667 49 294s75.834 174.666 129.501 225.999
s133.834 100 240.501 146c49.333 21.333 99.333 32 150 32c32 0 59.667 -3.5 83 -10.5s52 -21.167 86 -42.5c-21.333 -78 -36.333 -162.333 -45 -253zM1003 1473l-352 -342h-83l-200 342h69l187 -221l302 221h77z" />
    <glyph glyph-name="Dcaron" unicode="&#x10e;" horiz-adv-x="1593" 
d="M65 -5l-0.00195312 50c33.333 5.33301 56.5 12.833 69.5 22.5s23.833 25.167 32.5 46.5s26 107 52 257l65 391l13 88c38.667 250 58 394.667 58 434c0 30 -12 50.333 -36 61c-12.667 4.66699 -60.667 10 -144 16v57c100 -6 191.667 -9 275 -9c46.667 0 109 1.33301 187 4
c108.667 4 184.334 6 227.001 6c152.667 0 270.834 -20.167 354.501 -60.5s147.834 -99.833 192.501 -178.5s67 -180 67 -304c0 -244 -88.667 -456 -266 -636c-164 -166.667 -371.333 -250 -622 -250c-34.667 0 -85.334 1.33301 -152.001 4c-92 4 -165.667 6 -221 6
c-45.333 -0 -96 -1.66699 -152 -5zM341.998 107c113.333 -20.667 212.333 -31.002 297 -31.002c138.667 0 251.5 27.167 338.5 81.5s161.667 145.833 224 274.5s93.5 268.334 93.5 419.001c0 108 -19 197 -57 267s-93.333 123.333 -166 160s-165 55 -277 55
c-84 0 -169.333 -3 -256 -9c-17.333 -84 -45.333 -242 -84 -474l-14 -88c-50 -299.333 -83 -517.666 -99 -654.999zM1261 1853l-352 -342h-83l-200 342h69l187 -221l302 221h77z" />
    <glyph glyph-name="dcaron" unicode="&#x10f;" horiz-adv-x="1206" 
d="M662 1356l6 40c140 18.667 249.333 48.667 328 90l25 -22c-56 -235.333 -127 -564.333 -213 -987c-38.667 -188.667 -58 -296.334 -58 -323.001c0 -16 2.33301 -27.333 7 -34s11.334 -10 20.001 -10c30 0 86.333 32.333 169 97l25 -36
c-162.667 -132 -271.334 -198 -326.001 -198c-14.667 0 -26.834 6 -36.501 18s-14.5 29.667 -14.5 53c0 22.667 3.33301 52 10 88s27.667 128 63 276c-82.667 -135.333 -175.5 -241.666 -278.5 -318.999s-177.167 -116 -222.5 -116c-26.667 0 -48.334 14 -65.001 42
c-21.333 35.333 -32 88.666 -32 159.999c0 144.667 30.667 292 92 442c44.667 108.667 111.334 194.5 200.001 257.5s171.334 94.5 248.001 94.5c42.667 0 96 -8.66699 160 -26l39 234c12 69.333 18 114.333 18 135c0 17.333 -5.66699 28.333 -17 33
c-16 6.66699 -65 10.334 -147 11.001zM747 830c-72.667 35.333 -139 53 -199 53c-54 0 -97.667 -9.33301 -131 -28c-20 -11.333 -39 -34.333 -57 -69c-40 -76.667 -74.5 -171.334 -103.5 -284.001s-43.5 -204.667 -43.5 -276c0 -49.333 4.16699 -81.166 12.5 -95.499
s20.5 -21.5 36.5 -21.5c40.667 0 92.667 25 156 75c86.667 68.667 159.167 158.5 217.5 269.5s95.5 236.5 111.5 376.5zM1369 1479l21.002 -24.001c-90.667 -187.333 -185.334 -333.666 -284.001 -438.999c-20.667 -9.33301 -41.667 -17.666 -63 -24.999l-14 18
c87.333 112 145.666 252.333 174.999 421c40 9.33301 95 25.666 165 48.999z" />
    <glyph glyph-name="Dslash" unicode="&#x110;" horiz-adv-x="1593" 
d="M281 748l15.9971 102.001c38.667 250 58 394.667 58 434c0 30 -12 50.333 -36 61c-12.667 4.66699 -60.667 10 -144 16v57c100 -6 191.667 -9 275 -9c46.667 0 109 1.33301 187 4c108.667 4 184.334 6 227.001 6c152.667 0 270.834 -20.167 354.501 -60.5
s147.834 -99.833 192.501 -178.5s67 -180 67 -304c0 -244 -88.667 -456 -266 -636c-164 -166.667 -371.333 -250 -622 -250c-34.667 0 -85.334 1.33301 -152.001 4c-92 4 -165.667 6 -221 6c-45.333 0 -96 -1.66699 -152 -5v50c33.333 5.33301 56.333 12.666 69 21.999
s23.334 24 32.001 44s23.667 91 45 213l58 343l-48 4l-79 -2h-42l11 79h170zM425.997 669.001c-46.667 -296.667 -74.667 -484.001 -84 -562.001c113.333 -20.667 212.333 -31 297 -31c138.667 0 251.5 27.167 338.5 81.5s161.667 145.833 224 274.5
s93.5 268.334 93.5 419.001c0 108 -19 197 -57 267s-93.333 123.333 -166 160s-165 55 -277 55c-84 0 -169.333 -3 -256 -9c-17.333 -84 -45.333 -242 -84 -474l-16 -102l135 -2l222 4l52 -2l-15 -79l-107 1l-48 1z" />
    <glyph glyph-name="dmacron" unicode="&#x111;" 
d="M960 1197l174.998 -0.00195312l-11 -70h-179c-130 -593.333 -195 -919 -195 -977c0 -14 2.33301 -24 7 -30s11.334 -9 20.001 -9c30 0 86.333 32 169 96l25 -36c-162.667 -132 -271.334 -198 -326.001 -198c-15.333 0 -27.666 5.83301 -36.999 17.5
s-14 29.834 -14 54.501s2.66699 50.334 8 77.001c8 45.333 29.667 140.666 65 285.999c-82.667 -135.333 -175.5 -241.666 -278.5 -318.999s-177.167 -116 -222.5 -116c-26.667 0 -48.334 14 -65.001 42c-21.333 35.333 -32 88.666 -32 159.999c0 144.667 30.667 292 92 442
c44.667 108.667 111.334 194.5 200.001 257.5s171.334 94.5 248.001 94.5c42.667 0 96 -8.66699 160 -26l31 184h-309l11 70h309c10 66.667 15 105 15 115c0 17.333 -5.66699 28.333 -17 33c-16 6.66699 -65 10.334 -147 11.001l6 40c140 18.667 249.333 48.667 328 90
l25 -22zM746.998 829.998c-72.667 35.333 -139 52.999 -199 52.999c-54 0 -97.667 -9.33301 -131 -28c-20 -11.333 -39 -34.333 -57 -69c-40 -76.667 -74.5 -171.5 -103.5 -284.5s-43.5 -205.167 -43.5 -276.5c0 -48.667 4.33301 -81 13 -97
c6.66699 -11.333 18.667 -17 36 -17c41.333 0 93.333 24.667 156 74c87.333 68.667 160 158.334 218 269.001s95 236 111 376z" />
    <glyph glyph-name="Emacron" unicode="&#x112;" horiz-adv-x="1251" 
d="M78 -9l7.00195 48.9971l35 12c24.667 9.33301 48 18.666 70 27.999c40.667 171.333 93.334 454.333 158.001 849c33.333 204 50 322.667 50 356c0 24.667 -7.83301 41.167 -23.5 49.5s-69.167 15.833 -160.5 22.5l9 58c117.333 -4 219.666 -6 306.999 -6l449 6
c72.667 0 136.667 -2.66699 192 -8c-16.667 -85.333 -28.334 -185.666 -35.001 -300.999h-56c-4 120.667 -12 187.334 -24 200.001c-16.667 16.667 -114.334 25 -293.001 25c-56 0 -116.333 -1.33301 -181 -4c-35.333 -178 -68.333 -362 -99 -552c88 -3.33301 167 -5 237 -5
c81.333 0 174 5.33301 278 16l10 -11c-13.333 -30.667 -26.333 -64 -39 -100c-94.667 8 -214 12 -358 12l-143 -2c-46 -262 -77 -457.333 -93 -586c110.667 -11.333 226 -17 346 -17c79.333 0 150.666 3.66699 213.999 11c21.333 2.66699 36.5 7.33398 45.5 14.001
s16.833 18.334 23.5 35.001c5.33301 12 23 74.667 53 188h60l-19 -113c-12 -66 -21.667 -138.333 -29 -217c-52 -6.66699 -105 -10 -159 -10c-35.333 0 -87.666 1 -156.999 3c-149.333 4.66699 -265.333 7 -348 7c-103.333 0 -212.333 -3 -327 -9zM1052 1635h-493l20 106
h494z" />
    <glyph glyph-name="emacron" unicode="&#x113;" horiz-adv-x="797" 
d="M683 223l13.998 -42.999c-95.333 -80 -174.166 -134.5 -236.499 -163.5s-121.166 -43.5 -176.499 -43.5c-78 0 -138.167 22.833 -180.5 68.5s-63.5 111.5 -63.5 197.5c0 90 18 190.5 54 301.5s77.333 190.833 124 239.5s120.667 97.667 222 147
c56.667 28 107.667 42 153 42c55.333 0 98.833 -14.833 130.5 -44.5s47.5 -67.5 47.5 -113.5c0 -180.667 -186.667 -308.334 -560 -383.001c-13.333 -79.333 -20 -138.333 -20 -177c0 -54 15.333 -97.333 46 -130s69.334 -49 116.001 -49
c35.333 0 77.166 9.83301 125.499 29.5s116.5 60.167 204.5 121.5zM219.998 477.001c136.667 25.333 236.667 65.167 300 119.5s95 114.5 95 180.5c0 35.333 -8.16699 61.833 -24.5 79.5s-39.5 26.5 -69.5 26.5c-42.667 0 -83.667 -12.333 -123 -37
s-71.333 -61.667 -96 -111c-32.667 -64.667 -60 -150.667 -82 -258zM807.998 1255h-493l20 106h494z" />
    <glyph glyph-name="Ebreve" unicode="&#x114;" horiz-adv-x="1251" 
d="M78 -9l7.00195 48.9971l35 12c24.667 9.33301 48 18.666 70 27.999c40.667 171.333 93.334 454.333 158.001 849c33.333 204 50 322.667 50 356c0 24.667 -7.83301 41.167 -23.5 49.5s-69.167 15.833 -160.5 22.5l9 58c117.333 -4 219.666 -6 306.999 -6l449 6
c72.667 0 136.667 -2.66699 192 -8c-16.667 -85.333 -28.334 -185.666 -35.001 -300.999h-56c-4 120.667 -12 187.334 -24 200.001c-16.667 16.667 -114.334 25 -293.001 25c-56 0 -116.333 -1.33301 -181 -4c-35.333 -178 -68.333 -362 -99 -552c88 -3.33301 167 -5 237 -5
c81.333 0 174 5.33301 278 16l10 -11c-13.333 -30.667 -26.333 -64 -39 -100c-94.667 8 -214 12 -358 12l-143 -2c-46 -262 -77 -457.333 -93 -586c110.667 -11.333 226 -17 346 -17c79.333 0 150.666 3.66699 213.999 11c21.333 2.66699 36.5 7.33398 45.5 14.001
s16.833 18.334 23.5 35.001c5.33301 12 23 74.667 53 188h60l-19 -113c-12 -66 -21.667 -138.333 -29 -217c-52 -6.66699 -105 -10 -159 -10c-35.333 0 -87.666 1 -156.999 3c-149.333 4.66699 -265.333 7 -348 7c-103.333 0 -212.333 -3 -327 -9zM514.002 1844
l54.9971 -0.000976562c8.66699 -64 28.334 -112 59.001 -144c40.667 -42 96 -63 166 -63c62.667 0 117.334 16.333 164.001 49s86.334 85.334 119.001 158.001h58c-65.333 -216.667 -182 -325 -350 -325c-55.333 0 -104 12 -146 36s-72.5 55.833 -91.5 95.5
s-30.167 104.167 -33.5 193.5z" />
    <glyph glyph-name="ebreve" unicode="&#x115;" horiz-adv-x="797" 
d="M683 223l13.998 -42.999c-95.333 -80 -174.166 -134.5 -236.499 -163.5s-121.166 -43.5 -176.499 -43.5c-78 0 -138.167 22.833 -180.5 68.5s-63.5 111.5 -63.5 197.5c0 90 18 190.5 54 301.5s77.333 190.833 124 239.5s120.667 97.667 222 147
c56.667 28 107.667 42 153 42c55.333 0 98.833 -14.833 130.5 -44.5s47.5 -67.5 47.5 -113.5c0 -180.667 -186.667 -308.334 -560 -383.001c-13.333 -79.333 -20 -138.333 -20 -177c0 -54 15.333 -97.333 46 -130s69.334 -49 116.001 -49
c35.333 0 77.166 9.83301 125.499 29.5s116.5 60.167 204.5 121.5zM219.998 477.001c136.667 25.333 236.667 65.167 300 119.5s95 114.5 95 180.5c0 35.333 -8.16699 61.833 -24.5 79.5s-39.5 26.5 -69.5 26.5c-42.667 0 -83.667 -12.333 -123 -37
s-71.333 -61.667 -96 -111c-32.667 -64.667 -60 -150.667 -82 -258zM294.998 1464l54.9971 -0.000976562c8.66699 -64 28.334 -112 59.001 -144c40.667 -42 96 -63 166 -63c62.667 0 117.334 16.333 164.001 49s86.334 85.334 119.001 158.001h58
c-65.333 -216.667 -182 -325 -350 -325c-55.333 0 -104 12 -146 36s-72.5 55.833 -91.5 95.5s-30.167 104.167 -33.5 193.5z" />
    <glyph glyph-name="Edot" unicode="&#x116;" horiz-adv-x="1251" 
d="M78 -9l7.00195 48.9971l35 12c24.667 9.33301 48 18.666 70 27.999c40.667 171.333 93.334 454.333 158.001 849c33.333 204 50 322.667 50 356c0 24.667 -7.83301 41.167 -23.5 49.5s-69.167 15.833 -160.5 22.5l9 58c117.333 -4 219.666 -6 306.999 -6l449 6
c72.667 0 136.667 -2.66699 192 -8c-16.667 -85.333 -28.334 -185.666 -35.001 -300.999h-56c-4 120.667 -12 187.334 -24 200.001c-16.667 16.667 -114.334 25 -293.001 25c-56 0 -116.333 -1.33301 -181 -4c-35.333 -178 -68.333 -362 -99 -552c88 -3.33301 167 -5 237 -5
c81.333 0 174 5.33301 278 16l10 -11c-13.333 -30.667 -26.333 -64 -39 -100c-94.667 8 -214 12 -358 12l-143 -2c-46 -262 -77 -457.333 -93 -586c110.667 -11.333 226 -17 346 -17c79.333 0 150.666 3.66699 213.999 11c21.333 2.66699 36.5 7.33398 45.5 14.001
s16.833 18.334 23.5 35.001c5.33301 12 23 74.667 53 188h60l-19 -113c-12 -66 -21.667 -138.333 -29 -217c-52 -6.66699 -105 -10 -159 -10c-35.333 0 -87.666 1 -156.999 3c-149.333 4.66699 -265.333 7 -348 7c-103.333 0 -212.333 -3 -327 -9zM810.002 1523
c-22.667 0 -41.834 8.83301 -57.501 26.5s-23.5 40.834 -23.5 69.501c0 33.333 10.167 61.166 30.5 83.499s43.833 33.5 70.5 33.5c22.667 0 41.334 -8.5 56.001 -25.5s22 -40.167 22 -69.5c0 -32 -10.167 -59.667 -30.5 -83s-42.833 -35 -67.5 -35z" />
    <glyph glyph-name="edot" unicode="&#x117;" horiz-adv-x="797" 
d="M683 223l13.998 -42.999c-95.333 -80 -174.166 -134.5 -236.499 -163.5s-121.166 -43.5 -176.499 -43.5c-78 0 -138.167 22.833 -180.5 68.5s-63.5 111.5 -63.5 197.5c0 90 18 190.5 54 301.5s77.333 190.833 124 239.5s120.667 97.667 222 147
c56.667 28 107.667 42 153 42c55.333 0 98.833 -14.833 130.5 -44.5s47.5 -67.5 47.5 -113.5c0 -180.667 -186.667 -308.334 -560 -383.001c-13.333 -79.333 -20 -138.333 -20 -177c0 -54 15.333 -97.333 46 -130s69.334 -49 116.001 -49
c35.333 0 77.166 9.83301 125.499 29.5s116.5 60.167 204.5 121.5zM219.998 477.001c136.667 25.333 236.667 65.167 300 119.5s95 114.5 95 180.5c0 35.333 -8.16699 61.833 -24.5 79.5s-39.5 26.5 -69.5 26.5c-42.667 0 -83.667 -12.333 -123 -37
s-71.333 -61.667 -96 -111c-32.667 -64.667 -60 -150.667 -82 -258zM589.998 1143c-22.667 0 -41.834 8.83301 -57.501 26.5s-23.5 40.834 -23.5 69.501c0 33.333 10.167 61.166 30.5 83.499s43.833 33.5 70.5 33.5c22.667 0 41.334 -8.5 56.001 -25.5s22 -40.167 22 -69.5
c0 -32 -10.167 -59.667 -30.5 -83s-42.833 -35 -67.5 -35z" />
    <glyph glyph-name="Eogonek" unicode="&#x118;" horiz-adv-x="1251" 
d="M78 -9l7.00195 48.9971l35 12c24.667 9.33301 48 18.666 70 27.999c40.667 171.333 93.334 454.333 158.001 849c33.333 204 50 322.667 50 356c0 24.667 -7.83301 41.167 -23.5 49.5s-69.167 15.833 -160.5 22.5l9 58c117.333 -4 219.666 -6 306.999 -6l449 6
c72.667 0 136.667 -2.66699 192 -8c-16.667 -85.333 -28.334 -185.666 -35.001 -300.999h-56c-4 120.667 -12 187.334 -24 200.001c-16.667 16.667 -114.334 25 -293.001 25c-56 0 -116.333 -1.33301 -181 -4c-35.333 -178 -68.333 -362 -99 -552c88 -3.33301 167 -5 237 -5
c81.333 0 174 5.33301 278 16l10 -11c-13.333 -30.667 -26.333 -64 -39 -100c-94.667 8 -214 12 -358 12l-143 -2c-46 -262 -77 -457.333 -93 -586c110.667 -11.333 226 -17 346 -17c79.333 0 150.666 3.66699 213.999 11c21.333 2.66699 36.5 7.33398 45.5 14.001
s16.833 18.334 23.5 35.001c5.33301 12 23 74.667 53 188h60l-19 -113c-12 -66 -21.667 -138.333 -29 -217c-52 -6.66699 -105 -10 -159 -10c-35.333 0 -87.666 1 -156.999 3c-149.333 4.66699 -265.333 7 -348 7c-103.333 0 -212.333 -3 -327 -9zM885.002 -0.00292969
c-52.667 -52.667 -87.3311 -94.166 -103.998 -124.499s-25 -57.5 -25 -81.5c0 -31.333 10.5 -57.333 31.5 -78s47.833 -31 80.5 -31c32 0 67.667 15.667 107 47l36 -23c-73.333 -82 -143.333 -123 -210 -123c-44.667 0 -82.834 15.667 -114.501 47s-47.5 69 -47.5 113
c0 23.333 4 44.666 12 63.999c11.333 25.333 27.666 49 48.999 71l139 119h46z" />
    <glyph glyph-name="eogonek" unicode="&#x119;" horiz-adv-x="797" 
d="M683 223l13.998 -42.999c-95.333 -80 -174.166 -134.5 -236.499 -163.5s-121.166 -43.5 -176.499 -43.5c-78 0 -138.167 22.833 -180.5 68.5s-63.5 111.5 -63.5 197.5c0 90 18 190.5 54 301.5s77.333 190.833 124 239.5s120.667 97.667 222 147
c56.667 28 107.667 42 153 42c55.333 0 98.833 -14.833 130.5 -44.5s47.5 -67.5 47.5 -113.5c0 -180.667 -186.667 -308.334 -560 -383.001c-13.333 -79.333 -20 -138.333 -20 -177c0 -54 15.333 -97.333 46 -130s69.334 -49 116.001 -49
c35.333 0 77.166 9.83301 125.499 29.5s116.5 60.167 204.5 121.5zM219.998 477.001c136.667 25.333 236.667 65.167 300 119.5s95 114.5 95 180.5c0 35.333 -8.16699 61.833 -24.5 79.5s-39.5 26.5 -69.5 26.5c-42.667 0 -83.667 -12.333 -123 -37
s-71.333 -61.667 -96 -111c-32.667 -64.667 -60 -150.667 -82 -258zM333.998 0.00195312c-52.667 -52.667 -87.3311 -94.166 -103.998 -124.499s-25 -57.5 -25 -81.5c0 -31.333 10.5 -57.333 31.5 -78s47.833 -31 80.5 -31c32 0 67.667 15.667 107 47l36 -23
c-73.333 -82 -143.333 -123 -210 -123c-44.667 0 -82.834 15.667 -114.501 47s-47.5 69 -47.5 113c0 23.333 4 44.666 12 63.999c11.333 25.333 27.666 49 48.999 71l139 119h46z" />
    <glyph glyph-name="Ecaron" unicode="&#x11a;" horiz-adv-x="1251" 
d="M78 -9l7.00195 48.9971l35 12c24.667 9.33301 48 18.666 70 27.999c40.667 171.333 93.334 454.333 158.001 849c33.333 204 50 322.667 50 356c0 24.667 -7.83301 41.167 -23.5 49.5s-69.167 15.833 -160.5 22.5l9 58c117.333 -4 219.666 -6 306.999 -6l449 6
c72.667 0 136.667 -2.66699 192 -8c-16.667 -85.333 -28.334 -185.666 -35.001 -300.999h-56c-4 120.667 -12 187.334 -24 200.001c-16.667 16.667 -114.334 25 -293.001 25c-56 0 -116.333 -1.33301 -181 -4c-35.333 -178 -68.333 -362 -99 -552c88 -3.33301 167 -5 237 -5
c81.333 0 174 5.33301 278 16l10 -11c-13.333 -30.667 -26.333 -64 -39 -100c-94.667 8 -214 12 -358 12l-143 -2c-46 -262 -77 -457.333 -93 -586c110.667 -11.333 226 -17 346 -17c79.333 0 150.666 3.66699 213.999 11c21.333 2.66699 36.5 7.33398 45.5 14.001
s16.833 18.334 23.5 35.001c5.33301 12 23 74.667 53 188h60l-19 -113c-12 -66 -21.667 -138.333 -29 -217c-52 -6.66699 -105 -10 -159 -10c-35.333 0 -87.666 1 -156.999 3c-149.333 4.66699 -265.333 7 -348 7c-103.333 0 -212.333 -3 -327 -9zM1174 1853l-352 -342h-83
l-200 342h69l187 -221l302 221h77z" />
    <glyph glyph-name="ecaron" unicode="&#x11b;" horiz-adv-x="797" 
d="M683 223l13.998 -42.999c-95.333 -80 -174.166 -134.5 -236.499 -163.5s-121.166 -43.5 -176.499 -43.5c-78 0 -138.167 22.833 -180.5 68.5s-63.5 111.5 -63.5 197.5c0 90 18 190.5 54 301.5s77.333 190.833 124 239.5s120.667 97.667 222 147
c56.667 28 107.667 42 153 42c55.333 0 98.833 -14.833 130.5 -44.5s47.5 -67.5 47.5 -113.5c0 -180.667 -186.667 -308.334 -560 -383.001c-13.333 -79.333 -20 -138.333 -20 -177c0 -54 15.333 -97.333 46 -130s69.334 -49 116.001 -49
c35.333 0 77.166 9.83301 125.499 29.5s116.5 60.167 204.5 121.5zM219.998 477.001c136.667 25.333 236.667 65.167 300 119.5s95 114.5 95 180.5c0 35.333 -8.16699 61.833 -24.5 79.5s-39.5 26.5 -69.5 26.5c-42.667 0 -83.667 -12.333 -123 -37
s-71.333 -61.667 -96 -111c-32.667 -64.667 -60 -150.667 -82 -258zM954.998 1473l-352 -342h-83l-200 342h69l187 -221l302 221h77z" />
    <glyph glyph-name="Gcircumflex" unicode="&#x11c;" horiz-adv-x="1479" 
d="M918 503l8.00293 58.0029c119.333 -4 218.333 -6 297 -6c78 0 152.667 2 224 6v-58c-53.333 -5.33301 -86.333 -13.5 -99 -24.5s-24.334 -40.5 -35.001 -88.5c-21.333 -94.667 -32 -171.334 -32 -230.001c0 -19.333 2.33301 -43 7 -71v-17
c-58.667 -4.66699 -108.667 -12.667 -150 -24c-86 -25.333 -161.667 -45.333 -227 -60c-53.333 -10 -111.333 -15 -174 -15c-208.667 0 -367.334 52 -476.001 156s-163 250.333 -163 439c0 227.333 71 422.333 213 585c164 188.667 381 283 651 283
c79.333 0 156.333 -6.16699 231 -18.5s147 -30.833 217 -55.5c-18.667 -50 -32 -94 -40 -132s-16 -95 -24 -171h-63l3 71l-3 99c-60 34.667 -121.333 59.667 -184 75s-133 23 -211 23c-130 0 -235.833 -25.167 -317.5 -75.5s-150.167 -134.166 -205.5 -251.499
s-83 -249.333 -83 -396c0 -173.333 44.667 -305.333 134 -396s217.666 -136 384.999 -136c111.333 0 218 17.667 320 53c9.33301 41.333 25 124.666 47 249.999c3.33301 19.333 5 34.666 5 45.999c0 26.667 -8.5 44.167 -25.5 52.5s-93.5 18.166 -229.5 29.499z
M605.003 1511l352 342h83l200 -342h-68l-188 221l-302 -221h-77z" />
    <glyph glyph-name="gcircumflex" unicode="&#x11d;" 
d="M999 765l-133 -2.00293c4 -31.333 6 -54 6 -68c0 -51.333 -14.667 -107 -44 -167s-67 -109 -113 -147s-111.333 -71.333 -196 -100c-29.333 -30.667 -44 -60.667 -44 -90c0 -18.667 6.16699 -37 18.5 -55s43.5 -47 93.5 -87
c99.333 -79.333 160.333 -133.666 183 -162.999c36 -45.333 54 -93.666 54 -144.999c0 -81.333 -38.667 -149.333 -116 -204c-104 -73.333 -231.333 -110 -382 -110c-121.333 0 -212 23.167 -272 69.5s-90 103.833 -90 172.5c0 72 31.5 141.833 94.5 209.5
s161.5 121.834 295.5 162.501c-22 22.667 -33 43.667 -33 63c0 20 5.83301 37.333 17.5 52s51.5 52.667 119.5 114c-24 -2 -42.667 -3 -56 -3c-80 0 -143.167 22.5 -189.5 67.5s-69.5 108.167 -69.5 189.5c0 121.333 44.5 225.833 133.5 313.5s196.5 131.5 322.5 131.5
c56 0 102.667 -9 140 -27s68.666 -46.333 93.999 -85c54.667 0.666992 114.334 4.66699 179.001 12zM720 681.997c0 57.333 -7.16699 100.501 -21.5 129.501s-35.166 51.833 -62.499 68.5s-61 25 -101 25c-72 0 -129 -26.667 -171 -80c-50 -64 -75 -152 -75 -264
c0 -75.333 17.333 -132 52 -170s81 -57 139 -57c44.667 0 83.167 11.667 115.5 35s61.166 65.166 86.499 125.499s38 122.833 38 187.5zM409 -8.00195c-108 -30 -187.334 -71.499 -238.001 -124.499s-76 -110.5 -76 -172.5c0 -62.667 24.667 -113.834 74 -153.501
s120 -59.5 212 -59.5c94 0 168.5 20.333 223.5 61s82.5 87.667 82.5 141c0 26.667 -7 51.667 -21 75c-21.333 34.667 -56.666 73 -105.999 115zM316.999 1131l352 342h83l200 -342h-68l-188 221l-302 -221h-77z" />
    </font>
</defs>
</svg>
