<?xml version="1.0" standalone="no"?>
<!DOCTYPE svg PUBLIC "-//W3C//DTD SVG 1.1//EN" "http://www.w3.org/Graphics/SVG/1.1/DTD/svg11.dtd" >
<svg>
<metadata>
Created by FontForge 20090914 at Fri Nov 27 15:52:07 2015
 By www-data
Copyright &#194;&#169; 1992
</metadata>
<defs>
<font id="Peignot_cyr" horiz-adv-x="426" >
  <font-face 
    font-family="Peignot"
    font-weight="400"
    font-stretch="normal"
    units-per-em="1000"
    panose-1="0 0 0 0 0 0 0 0 0 0"
    ascent="800"
    descent="-200"
    x-height="423"
    cap-height="646"
    bbox="-298 -254 825 790.999"
    underline-thickness="40"
    underline-position="-20"
    unicode-range="U+0020-U+2215"
  />
<missing-glyph horiz-adv-x="746" 
d="M46 0v746h654v-746h-654zM654 46v654h-562v-654h562z" />
    <glyph glyph-name=".notdef" horiz-adv-x="746" 
d="M46 0v746h654v-746h-654zM654 46v654h-562v-654h562z" />
    <glyph glyph-name="space" unicode=" " horiz-adv-x="252" 
 />
    <glyph glyph-name="exclam" unicode="!" horiz-adv-x="164" 
d="M26 681c9.33301 6.66699 20 9.99902 32 9.99902c16 0 30.333 -5.66699 43 -17s19 -24.666 19 -39.999l-47 -481h-24l-48 472l-1 5c0 23.333 8.66699 40.333 26 51zM121 53.999c0 -14.667 -5.99902 -27.667 -17.999 -39s-26.333 -17 -43 -17c-8 0 -13.833 0.5 -17.5 1.5
s-8.83398 3.5 -15.501 7.5c-16.667 11.333 -25 29 -25 53c0 12 3.16699 23 9.5 33s15.5 16.667 27.5 20l23 2c17.333 0 31.5 -5.5 42.5 -16.5s16.5 -25.833 16.5 -44.5z" />
    <glyph glyph-name="quotedbl" unicode="&#x22;" horiz-adv-x="346" 
d="M294 652l2.99902 -23l-1 -11l-43 -206c-3.33301 -11.333 -7.66602 -17 -12.999 -17c-4.66699 0 -8 5.33301 -10 16l-51 211l-1 9c0 11.333 3.66699 22.333 11 33c10.667 16.667 28 25 52 25c12.667 0 24 -3.16699 34 -9.5s16.333 -15.5 19 -27.5zM51.999 412l-49.999 211
l-2 9c0 11.333 3.66699 22.333 11 33c10.667 16.667 28 25 52 25c12 0 23.167 -3.16699 33.5 -9.5s17.166 -15.5 20.499 -27.5l2 -23l-1 -11l-43 -206c-3.33301 -12 -7.33301 -18 -12 -18c-5.33301 0 -9 5.66699 -11 17z" />
    <glyph glyph-name="numbersign" unicode="#" horiz-adv-x="589" 
d="M356 423h-118l-35 -153h117zM414 482h129l-23 -59h-117l-36 -153h129l-23 -59h-117l-47 -211h-47l47 211h-118l-59 -211h-47l59 211h-141l24 59h129l35 153h-141l24 59h141l47 211h47l-47 -211h105l59 211h47z" />
    <glyph glyph-name="dollar" unicode="$" horiz-adv-x="456" 
d="M237 693h36.002l-4 -44c60 -20 100.333 -60 121 -120l-47 -12c-8 20.667 -18.833 38.5 -32.5 53.5s-28.834 26.167 -45.501 33.5l-16 -240c67.333 -27.333 111.5 -54.833 132.5 -82.5s31.5 -62.834 31.5 -105.501c0 -57.333 -20.333 -103.666 -61 -138.999
c-38 -32.667 -84 -49 -138 -49v-47h-35l2 51c-11.333 0 -19.333 0.666992 -24 2l-2 -53h-35l1 59c-44 11.333 -78 31 -102 59l-17 23l36 24c10 -15.333 23 -28.666 39 -39.999s32.667 -19.666 50 -24.999l16 241c-56.667 23.333 -95 49.666 -115 78.999
c-17.333 26 -26 58.333 -26 97c0 59.333 17.333 106.666 52 141.999c31.333 32 71.666 50.667 120.999 56l4 37h35l-3 -36l23 -3zM120.002 493c0 -34.667 11.667 -62.002 35 -82.002l16 186c-21.333 -11.333 -36 -29.666 -44 -54.999
c-4.66699 -13.333 -7 -29.666 -7 -48.999zM207.002 610.998l-16 -217l24 -14l16 231h-24zM161.002 39.998l12 -1l13 1l16 218l-23 12zM220.002 42.998c20 7.33301 35.667 19.167 47 35.5s17 37.166 17 62.499v5c0 22 -4.16699 40.833 -12.5 56.5s-20.5 28.834 -36.5 39.501z
" />
    <glyph glyph-name="percent" unicode="%" horiz-adv-x="589" 
d="M109 587c19.333 9.33301 38.3359 13.999 57.0029 13.999c8.66699 0 19 -1 31 -3c28 -4.66699 46 -7 54 -7c24 0 48 6.33301 72 19c30 16 64.333 43.667 103 83h47l-364 -693h-82l364 623c-14 -16.667 -32.333 -29.5 -55 -38.5s-45.667 -13.5 -69 -13.5
c-12.667 0 -26.334 1.66699 -41.001 5c12 -15.333 18 -35 18 -59c0 -14 -2 -29.667 -6 -47c-11.333 -43.333 -31 -78.666 -59 -105.999s-59.333 -41 -94 -41c-4.66699 0 -10.334 0.666992 -17.001 2s-12.667 2.66602 -18 3.99902c-14.667 6 -25.5 15.5 -32.5 28.5
s-10.5 28.5 -10.5 46.5c0 34 10.167 69.333 30.5 106s44.166 62.334 71.499 77.001zM344.003 105.999c-14.667 5.33301 -25.4971 14.5 -32.4971 27.5s-10.5 28.833 -10.5 47.5c0 34 10.167 69.333 30.5 106s44.166 62.334 71.499 77.001c21.333 8 40.333 12 57 12
c24 0 43 -7 57 -21s21 -34.333 21 -61c0 -14 -2 -29.667 -6 -47c-12 -44 -31.833 -79.5 -59.5 -106.5s-58.834 -40.5 -93.501 -40.5c-4.66699 0 -10.334 0.666992 -17.001 2s-12.667 2.66602 -18 3.99902zM485.006 257.999v7.99805c0 20.667 -5.66699 37.834 -17 51.501
s-24.333 20.5 -39 20.5c-13.333 0 -26.666 -5.66699 -39.999 -17s-24.333 -28.333 -33 -51c-5.33301 -20 -8 -37.667 -8 -53c0 -23.333 5 -41.666 15 -54.999s22.667 -20 38 -20c16 0 32 7.33301 48 22c13.333 14 22.666 29.667 27.999 47c3.33301 11.333 6 27 8 47z
M191.006 481.997l-0.00292969 7c0 21.333 -5.33301 38.666 -16 51.999s-23.667 20 -39 20c-13.333 0 -26.666 -5.66699 -39.999 -17s-24.666 -28.333 -33.999 -51c-5.33301 -20 -8 -37.667 -8 -53c0 -23.333 5 -41.666 15 -54.999s22.333 -20 37 -20
c16.667 0 33.334 7.66699 50.001 23c14 15.333 23.333 29.833 28 43.5s7 30.5 7 50.5z" />
    <glyph glyph-name="ampersand" unicode="&#x26;" horiz-adv-x="628" 
d="M489 110l90.002 -109.998h-106l-49 56c-30 -17.333 -59.667 -30.5 -89 -39.5s-58 -13.5 -86 -13.5c-69.333 0 -128 22 -176 66s-72 94.333 -72 151c0 28 7.33301 55.5 22 82.5s36.667 50.833 66 71.5l64 49l-35 47c-12.667 20.667 -19 41.667 -19 63
c0 32.667 14.167 61.167 42.5 85.5s59.833 36.5 94.5 36.5c24 0 46.5 -6.33301 67.5 -19s37.5 -32.667 49.5 -60c6.66699 -16.667 10 -32.334 10 -47.001c0 -44.667 -30.667 -88 -92 -130l185 -241c6 19.333 9 41.333 9 66c0 21.333 -2 44.666 -6 69.999
c-4 12 -6 19.667 -6 23c0 14.667 5.33301 22 16 22c6 0 11.667 -2.66699 17 -8s8.66602 -14.666 9.99902 -27.999s2.66602 -27.5 3.99902 -42.5s2 -30.167 2 -45.5c0 -16.667 -1 -33.334 -3 -50.001s-5.33301 -35 -10 -55zM200.002 364.002l-62 -43.001
c-18 -16 -31.5 -33.167 -40.5 -51.5s-13.5 -37.166 -13.5 -56.499c0 -42.667 18.667 -80.667 56 -114s81.333 -50 132 -50c42 0 84.667 14 128 42zM189.002 517.001l35 -47.001c21.333 9.33301 38.833 22.833 52.5 40.5s20.5 35.5 20.5 53.5c0 20 -8.66699 35.667 -26 47
c-12 6 -23.667 9 -35 9c-16.667 0 -30.667 -6.66699 -42 -20s-17 -28.666 -17 -45.999c0 -6 1 -12 3 -18s5 -12.333 9 -19z" />
    <glyph glyph-name="quotesingle" unicode="'" horiz-adv-x="164" 
d="M96 470l-34.999 -35c-2.66699 -3.33301 -8.33398 -6.83301 -17.001 -10.5s-15.667 -5.5 -21 -5.5c-10.667 0 -16 5 -16 15c0 5.33301 2.33301 13.333 7 24l12 24c6 13.333 11.833 22.5 17.5 27.5s13.5 7.5 23.5 7.5h12c24 0 36 -5.66699 36 -17
c0 -8 -6.33301 -18 -19 -30z" />
    <glyph glyph-name="parenleft" unicode="(" horiz-adv-x="336" 
d="M130 247c0 -76.667 9 -143.667 27 -201c22.667 -72 60.667 -134.333 114 -187c9.33301 -6 14 -13 14 -21c0 -4 -1.33301 -7.66699 -4 -11c-5.33301 -6.66699 -12.666 -10 -21.999 -10c-8 0 -15.667 2.33301 -23 7c-90 66.667 -154 138 -192 214
c-29.333 58 -44 120 -44 186l1 23l-1 33c0 66.667 14.333 128.667 43 186c38 75.333 102.333 147 193 215c7.33301 4.66699 14.666 7 21.999 7c18 0 27 -7 27 -21c0 -8.66699 -4.66699 -15.667 -14 -21c-54.667 -54.667 -93 -118.667 -115 -192
c-17.333 -57.333 -26 -126.333 -26 -207z" />
    <glyph glyph-name="parenright" unicode=")" horiz-adv-x="336" 
d="M164 247c0 80 -8.66699 148.667 -26 206c-22.667 74.667 -61 139 -115 193c-10 6 -15 13 -15 21c0 4 1.33301 7.66699 4 11c5.33301 6.66699 12.666 10 21.999 10c8.66699 0 16.667 -2.33301 24 -7c89.333 -67.333 153.333 -139 192 -215c29.333 -58 44 -120 44 -186
l-1 -33v-23c0 -67.333 -14 -129 -42 -185c-38 -76 -102.333 -147.667 -193 -215c-7.33301 -4.66699 -15.333 -7 -24 -7c-5.33301 0 -10 1 -14 3c-8 4 -12 10 -12 18s5 15 15 21c52.667 52 90.334 114.333 113.001 187c18.667 59.333 28 126.333 28 201z" />
    <glyph glyph-name="asterisk" unicode="*" horiz-adv-x="366" 
d="M127 693h70l-23 -117l106 70l35 -59l-118 -35l118 -47l-35 -59l-106 83l23 -130h-70l23 130l-105 -83l-36 59l118 47l-118 35l36 59l105 -70z" />
    <glyph glyph-name="plus" unicode="+" horiz-adv-x="456" 
d="M165 552h82v-164h165v-83h-165v-164h-82v164h-164v83h164v164z" />
    <glyph glyph-name="comma" unicode="," horiz-adv-x="224" 
d="M66 35c2 20 8.83301 35.167 20.5 45.5s24.5 15.5 38.5 15.5c12.667 0 23.667 -4.33301 33 -13s14 -20 14 -34c0 -18 -8 -38.333 -24 -61l-117 -164c-7.33301 -10 -14 -15 -20 -15c-4 4 -6 6.66699 -6 8l2 7z" />
    <glyph glyph-name="hyphen" unicode="-" horiz-adv-x="315" 
d="M1 388h270v-83h-270v83z" />
    <glyph glyph-name="period" unicode="." horiz-adv-x="164" 
d="M120 59c0 -15.333 -6.33301 -28.667 -19 -40s-27 -17 -43 -17c-12 0 -22.667 3.33301 -32 10c-17.333 10.667 -26 28 -26 52c0 12.667 3.16699 24 9.5 34s15.833 16.333 28.5 19l22 3c18 0 32.5 -5.5 43.5 -16.5s16.5 -25.833 16.5 -44.5z" />
    <glyph glyph-name="slash" unicode="/" horiz-adv-x="558" 
d="M392 693h130l-400 -881h-129z" />
    <glyph glyph-name="zero" unicode="0" horiz-adv-x="589" 
d="M426 341c0 84 -12.999 149 -38.999 195s-64 69 -114 69s-87.833 -23 -113.5 -69s-38.5 -111 -38.5 -195c0 -90 12.833 -162.5 38.5 -217.5s63.5 -82.5 113.5 -82.5c49.333 0 87.666 28.667 114.999 86c25.333 54 38 125.333 38 214zM276.001 -8
c-80 0 -145.499 32.834 -196.499 98.501s-76.5 149.167 -76.5 250.5c0 79.333 25.333 149.666 76 210.999c54 65.333 118.667 98 194 98c76 0 140.667 -32.333 194 -97c50.667 -61.333 76 -132 76 -212c0 -88 -24.333 -166.667 -73 -236
c-52.667 -75.333 -117.334 -113 -194.001 -113z" />
    <glyph glyph-name="one" unicode="1" horiz-adv-x="244" 
d="M7 623l188 35v-658h-117v587l-71 -11v47z" />
    <glyph glyph-name="two" unicode="2" horiz-adv-x="466" 
d="M177 47h235v-47h-411l293 423c10 13.333 17.5 27 22.5 41s7.5 27 7.5 39c0 30 -13 54.667 -39 74s-56 29 -90 29s-63 -9.66699 -87 -29c-27.333 -22 -43.333 -53.667 -48 -95v-36h-47v24c0 52.667 14.333 95 43 127c32 36 78 54 138 54l31 -1
c58 -7.33301 104.5 -28.333 139.5 -63s52.5 -76.667 52.5 -126c0 -47.333 -17.333 -95.333 -52 -144z" />
    <glyph glyph-name="three" unicode="3" horiz-adv-x="436" 
d="M390 646l-163.999 -223c33.333 0 61.666 -6 84.999 -18c28.667 -14.667 43 -37 43 -67c0 -16 -3.33301 -32.833 -10 -50.5s-18.667 -39.167 -36 -64.5l-153 -223h-153l200 282c20 28 30 49 30 63c0 20.667 -21.667 31 -65 31h-118l165 223h-176v47h352z" />
    <glyph glyph-name="four" unicode="4" horiz-adv-x="558" 
d="M406 646v-376h105v-47h-105v-223h-118v223h-282l294 423h106zM289 557l-195 -287h194z" />
    <glyph glyph-name="five" unicode="5" horiz-adv-x="406" 
d="M27 646l318 0.00195312v-47h-200v-176h82c34 0 62.667 -6 86 -18c28.667 -14.667 43 -37 43 -67c0 -14.667 -3.66699 -31.334 -11 -50.001s-19.333 -40.334 -36 -65.001l-152 -223h-153l200 282c19.333 27.333 29 48.333 29 63c0 20.667 -21.667 31 -65 31h-141v270z" />
    <glyph glyph-name="six" unicode="6" horiz-adv-x="466" 
d="M177 364l148.001 282.001h-136l-153 -317c-10.667 -24 -19 -48 -25 -72s-9 -47.667 -9 -71c0 -47.333 12.5 -87.833 37.5 -121.5s62.833 -55.834 113.5 -66.501c22 -3.33301 40.667 -5 56 -5c56 0 102.333 17.667 139 53c27.333 26.667 48.666 62.334 63.999 107.001
c2 9.33301 4 20.666 6 33.999s3 24 3 32c0 49.333 -14.5 88.833 -43.5 118.5s-66.5 44.5 -112.5 44.5c-14 0 -28.333 -1.5 -43 -4.5s-29.667 -7.5 -45 -13.5zM205.001 28.001c66.667 0 99.998 67.999 99.998 203.999v15c-2 22.667 -11 42.334 -27 59.001s-34.667 25 -56 25
c-7.33301 0 -14.666 -1 -21.999 -3s-15 -5.66699 -23 -11c-19.333 -12 -34.5 -31.667 -45.5 -59s-16.5 -57.333 -16.5 -90c0 -39.333 7.83301 -72.5 23.5 -99.5s37.834 -40.5 66.501 -40.5z" />
    <glyph glyph-name="seven" unicode="7" horiz-adv-x="487" 
d="M283 599h-282v47h434l-270 -646h-129z" />
    <glyph glyph-name="eight" unicode="8" horiz-adv-x="487" 
d="M222 352c-36.667 0 -64.334 -20.332 -83.001 -60.999c-14.667 -32.667 -22 -71 -22 -115c0 -38.667 8 -70.334 24 -95.001c18.667 -28.667 45.667 -43 81 -43c40.667 0 69.334 14 86.001 42c13.333 22 20 54 20 96c0 46 -7 84.333 -21 115c-18.667 40.667 -47 61 -85 61z
M222 -8.99902c-71.333 0 -126.333 19.6709 -165 59.0039c-34 34 -51 77.333 -51 130c0 41.333 11.333 80.666 34 117.999s52 63.333 88 78c-24.667 9.33301 -44 25.166 -58 47.499s-21 46.833 -21 73.5c0 41.333 14.333 76.666 43 105.999c32 32.667 76.333 49 133 49
c54 0 97 -16 129 -48c28.667 -28.667 43 -63.334 43 -104.001c0 -26.667 -7 -51.5 -21 -74.5s-34 -39.5 -60 -49.5c36.667 -14.667 66.167 -40.5 88.5 -77.5s33.5 -76.5 33.5 -118.5c0 -52 -17 -95.333 -51 -130c-38.667 -39.333 -93.667 -59 -165 -59zM221 614.005
c-16.667 0 -31 -7.00098 -43 -21.001c-16.667 -20 -25 -51 -25 -93c0 -31.333 8.66699 -57 26 -77c14 -16 28.333 -24 43 -24c16 0 31.333 7 46 21c18.667 18 28 42.667 28 74c0 40.667 -9.66699 72.334 -29 95.001c-14.667 16.667 -30 25 -46 25z" />
    <glyph glyph-name="nine" unicode="9" horiz-adv-x="466" 
d="M246 280c-14 -6 -29 -10.832 -45 -14.499s-30.667 -5.5 -44 -5.5c-45.333 0 -82.5 14.833 -111.5 44.5s-43.5 69.167 -43.5 118.5c0 21.333 3 43.666 9 66.999c14 42.667 36.667 78 68 106c40.667 36.667 89.667 55 147 55h18.5c5.66699 0 18.5 -1.66699 38.5 -5
c47.333 -10 83.333 -31.667 108 -65c22 -30 33 -67.667 33 -113c0 -23.333 -3.16699 -48.333 -9.5 -75s-15.5 -53 -27.5 -79l-153 -317h-136zM246 326.001c-8 -4.66699 -15.667 -8.16602 -23 -10.499s-15 -3.5 -23 -3.5c-21.333 0 -40 8.16699 -56 24.5
s-25 36.166 -27 59.499v10c0 68.667 11 120.5 33 155.5s51 52.5 87 52.5c26 0 45.667 -11.5 59 -34.5s20 -51.5 20 -85.5c0 -35.333 -6.33301 -69 -19 -101s-29.667 -54.333 -51 -67z" />
    <glyph glyph-name="colon" unicode=":" horiz-adv-x="164" 
d="M120 294c0 -19.333 -5.50098 -34.502 -16.501 -45.502s-25.5 -16.5 -43.5 -16.5l-22 3c-12 2.66699 -21.333 8.83398 -28 18.501s-10 20.834 -10 33.501c0 24 8.66699 42 26 54c8.66699 6 19.334 9 32.001 9c16 0 30.333 -5.66699 43 -17s19 -24.333 19 -39z
M37.999 116.998l22 2.99902c18 0 32.5 -5.5 43.5 -16.5s16.5 -25.833 16.5 -44.5c0 -15.333 -6.33301 -28.666 -19 -39.999s-27 -17 -43 -17c-12 0 -22.667 3.33301 -32 10c-17.333 10.667 -26 28 -26 52c0 12.667 3.16699 24 9.5 34s15.833 16.333 28.5 19z" />
    <glyph glyph-name="semicolon" unicode=";" horiz-adv-x="224" 
d="M99 236c-12 3.33301 -21.168 9.83105 -27.501 19.498s-9.5 20.834 -9.5 33.501c0 10 2.33301 20.167 7 30.5s11 17.833 19 22.5c9.33301 6.66699 20 10 32 10c16 0 30.333 -5.66699 43 -17s19 -24.666 19 -39.999c0 -18.667 -5.66699 -33.667 -17 -45
s-25.666 -17 -42.999 -17zM6.99902 -176.002l59 211.001c2 19.333 8.83301 34.333 20.5 45s24.5 16 38.5 16c12.667 0 23.834 -4.16699 33.501 -12.5s14.5 -19.833 14.5 -34.5c0 -12 -2.66699 -23.667 -8 -35c-2.66699 -6 -8.33398 -14.667 -17.001 -26l-117 -164
c-7.33301 -9.33301 -14 -14 -20 -14c-4 3.33301 -6 5.66602 -6 6.99902z" />
    <glyph glyph-name="less" unicode="&#x3c;" horiz-adv-x="477" 
d="M432 517v-94l-235 -106l235 -106v-94l-423 200z" />
    <glyph glyph-name="equal" unicode="=" horiz-adv-x="315" 
d="M1 458h270v-82h-270v82zM271 329v-82h-270v82h270z" />
    <glyph glyph-name="greater" unicode="&#x3e;" horiz-adv-x="477" 
d="M2 517l423 -200l-423 -200v94l235 106l-235 106v94z" />
    <glyph glyph-name="question" unicode="?" horiz-adv-x="407" 
d="M253 505l0.000976562 14c0 41.333 -9.83301 72.833 -29.5 94.5s-43.5 32.5 -71.5 32.5c-26.667 0 -49.834 -9.5 -69.501 -28.5s-29.5 -44.833 -29.5 -77.5v-35h-47v47c0 42.667 19 78.167 57 106.5s81.333 42.5 130 42.5c34.667 0 66 -8.5 94 -25.5s48 -42.5 60 -76.5
c6 -30 9 -56 9 -78c0 -51.333 -24.667 -97.333 -74 -138c-53.333 -44 -83.333 -95.333 -90 -154l-10 -76h-47l-11 129l-1 12c0 28 11.667 54 35 78c58 60 89.667 104.333 95 133zM135.001 12c-16.667 11.333 -25 28.666 -25 51.999c0 12.667 3.16699 24 9.5 34
s15.5 16.333 27.5 19l23 3c17.333 0 31.5 -5.5 42.5 -16.5s16.5 -25.833 16.5 -44.5c0 -15.333 -6 -28.666 -18 -39.999s-26.333 -17 -43 -17c-11.333 0 -22.333 3.33301 -33 10z" />
    <glyph glyph-name="at" unicode="@" horiz-adv-x="568" 
d="M240 235c27.333 0 48.333 10.666 63 31.999c12.667 18.667 19 43.334 19 74.001c3.33301 13.333 5 24.333 5 33c0 12.667 -2.66699 23 -8 31s-12.333 12 -21 12c-10.667 0 -22 -5.16699 -34 -15.5s-24 -26.833 -36 -49.5c-2.66699 -10 -5.5 -21.833 -8.5 -35.5
s-4.5 -26.5 -4.5 -38.5c0 -28.667 8.33301 -43 25 -43zM16 199.999c-3.33301 26 -5.83301 47.4971 -7.5 64.4971s-2.5 34.5 -2.5 52.5c0 92 19.667 165 59 219c42.667 59.333 108.667 96 198 110l35 2c70 0 125.333 -25.667 166 -77c37.333 -47.333 56 -106.333 56 -177
c0 -22.667 -2 -45 -6 -67c-8.66699 -48 -30.167 -88.833 -64.5 -122.5s-66.833 -50.5 -97.5 -50.5c-15.333 0 -28 4.66699 -38 14s-15 23 -15 41c-16 -17.333 -31.167 -30.166 -45.5 -38.499s-27.166 -12.5 -38.499 -12.5c-18.667 0 -33.334 9.83301 -44.001 29.5
s-16 42.834 -16 69.501l2 25c8.66699 52 27.334 95.5 56.001 130.5s57.667 52.5 87 52.5c18 0 33.333 -6.33301 46 -19c6 -18.667 12 -28 18 -28s11.667 5.66699 17 17c1.33301 1.33301 4.66602 3.33301 9.99902 6c0.666992 0 1.66699 0.333008 3 1
c6.66699 0 10 -6.33301 10 -19l-35 -165c-6 -13.333 -9 -24.666 -9 -33.999c0 -13.333 5.33301 -20 16 -20s23.5 8.33301 38.5 25s27.167 38.334 36.5 65.001c4 14.667 7 30.5 9 47.5s3 31.5 3 43.5c0 54.667 -16 99 -48 133c-26 28 -61 47.333 -105 58l-46 3
c-65.333 0 -116.333 -27.667 -153 -83c-32 -48.667 -48 -107.667 -48 -177c0 -34 4.16699 -65.333 12.5 -94s19.833 -52.667 34.5 -72c57.333 -57.333 117.333 -86 180 -86c18 0 36.333 2.33301 55 7s38.334 11.334 59.001 20.001c9.33301 4.66699 18.333 7 27 7
c12.667 0 19 -5 19 -15c0 -12.667 -11.333 -25.834 -34 -39.501s-48.5 -24.834 -77.5 -33.501s-57.5 -13 -85.5 -13c-56.667 0 -105.334 15.333 -146.001 46c-46.667 34.667 -77 86 -91 154z" />
    <glyph glyph-name="A" unicode="A" horiz-adv-x="589" 
d="M144 200h188l-94 235zM273 646l270 -646h-129l-70 153h-223l-59 -153h-59z" />
    <glyph glyph-name="B" unicode="B" horiz-adv-x="528" 
d="M243 47c38 0 67.5 11.833 88.5 35.5s31.5 52.5 31.5 86.5c0 36.667 -11.667 67.667 -35 93c-26.667 28.667 -63 43 -109 43h-94v-258h118zM125 599v-247.001h59c50 0 89.333 13.333 118 40c26 24 39 52.667 39 86c0 32.667 -11.333 60.334 -34 83.001
c-25.333 25.333 -58.333 38 -99 38h-83zM8 -0.000976562l-0.00292969 645.999h247c64.667 0 115.334 -19.333 152.001 -58c32 -34 48 -74.667 48 -122c0 -34 -8 -62.667 -24 -86c-18 -26 -41.667 -39 -71 -39c32.667 -2.66699 60.834 -21.167 84.501 -55.5
s35.5 -72.166 35.5 -113.499c0 -48 -16 -87.333 -48 -118c-37.333 -36 -92.666 -54 -165.999 -54h-258z" />
    <glyph glyph-name="C" unicode="C" horiz-adv-x="658" 
d="M573 505l-35.001 -11.999c-19.333 32.667 -43.666 57.667 -72.999 75c-34.667 20.667 -77 31 -127 31c-60.667 0 -110.334 -24.333 -149.001 -73c-41.333 -52 -62 -121.667 -62 -209c0 -88 20.333 -157.667 61 -209c38.667 -48.667 88.667 -73 150 -73
c66.667 0 119 13 157 39c32.667 22 58.667 56 78 102l35 -23c-32 -58.667 -65.333 -99.334 -100 -122.001c-43.333 -28.667 -103.666 -43 -180.999 -43c-100 0 -179 32 -237 96c-54 60 -81 137.667 -81 233s27 173 81 233c57.333 64 136.333 96 237 96
c60 0 114.333 -16 163 -48c42 -27.333 69.667 -58.333 83 -93z" />
    <glyph glyph-name="D" unicode="D" horiz-adv-x="607" 
d="M247 646c94.667 0 172.333 -32.333 233 -97c56.667 -60.667 85 -134 85 -220c0 -90.667 -25.667 -166.667 -77 -228c-56.667 -67.333 -133 -101 -229 -101h-258v646h246zM246.999 47c73.333 0 127 32.334 161 97.001c26 49.333 39 111 39 185
c0 71.333 -13.333 130.666 -40 177.999c-34.667 61.333 -88 92 -160 92h-129v-552h129z" />
    <glyph glyph-name="E" unicode="E" 
d="M380 646v-47h-259v-247h235v-47h-235v-258h259v-47h-376v646h376z" />
    <glyph glyph-name="F" unicode="F" 
d="M380 646v-47h-259v-247h235v-47h-235v-305h-117v646h376z" />
    <glyph glyph-name="G" unicode="G" horiz-adv-x="658" 
d="M608 94c-32.667 -32.667 -69 -57.667 -109 -75c-48.667 -20.667 -106 -31 -172 -31c-100 0 -179 32 -237 96c-54 60 -81 137.667 -81 233s27 173 81 233c57.333 64 136.333 96 237 96c60 0 114.333 -16 163 -48c42 -27.333 69.667 -58.333 83 -93l-35 -12
c-19.333 32.667 -43.666 57.667 -72.999 75c-34.667 20.667 -77 31 -127 31c-60.667 0 -110.334 -24.333 -149.001 -73c-41.333 -52 -62 -121.667 -62 -209c0 -88 20.333 -157.667 61 -209c38.667 -48.667 88.667 -73 150 -73c43.333 0 78 4.66699 104 14
s42.333 20.333 49 33v223h117v-211z" />
    <glyph glyph-name="H" unicode="H" horiz-adv-x="548" 
d="M124 646v-294h258v294h118v-646h-118v305h-258v-305h-118v646h118z" />
    <glyph glyph-name="I" unicode="I" horiz-adv-x="164" 
d="M120 646v-646h-118v646h118z" />
    <glyph glyph-name="J" unicode="J" horiz-adv-x="285" 
d="M239 646v-493c0 -52 -10.333 -88.667 -31 -110c-28 -29.333 -81.667 -44 -161 -44l-43 1v47l34 -3c29.333 0 50.5 8.33301 63.5 25s19.5 44.667 19.5 84v493h118z" />
    <glyph glyph-name="K" unicode="K" horiz-adv-x="538" 
d="M125 646v-317l270 317h59l-235 -282l270 -364h-141l-223 305v-305h-117v646h117z" />
    <glyph glyph-name="L" unicode="L" 
d="M380 47v-47h-376v646h117v-599h259z" />
    <glyph glyph-name="M" unicode="M" horiz-adv-x="668" 
d="M313 188l188 458h118v-646h-118v540l-223 -552l-223 529v-517h-47v646h129z" />
    <glyph glyph-name="N" unicode="N" horiz-adv-x="548" 
d="M88 646l365 -446v446h47v-646h-47l-400 505v-505h-47v646h82z" />
    <glyph glyph-name="O" unicode="O" horiz-adv-x="689" 
d="M641 317v-12.999c0 -88.667 -27.667 -164 -83 -226c-60 -67.333 -138.333 -101 -235 -101c-96 0 -174 33.667 -234 101c-56 62.667 -84 138 -84 226l1 13l-1 13c0 88 27.667 163.333 83 226c60 68 138.333 102 235 102c96 0 174 -33.667 234 -101
c56 -62.667 84 -138.334 84 -227.001v-13zM523 317.001c0 104 -20.334 180.999 -61.001 230.999c-34 42 -80.333 63 -139 63c-75.333 0 -129.666 -34 -162.999 -102c-24 -49.333 -36 -113.333 -36 -192c0 -79.333 11.667 -143 35 -191c33.333 -68.667 88 -103 164 -103
s130.667 34.333 164 103c24 48.667 36 112.334 36 191.001z" />
    <glyph glyph-name="P" unicode="P" horiz-adv-x="507" 
d="M174 317l31 -3c42 0 75.667 14 101 42c22.667 25.333 34 56.333 34 93c0 39.333 -13 73.333 -39 102c-29.333 32 -68 48 -116 48h-58v-282h47zM127 270l-0.000976562 -270h-118v646h224c69.333 0 125 -20 167 -60c38 -36 57 -79.667 57 -131
c0 -50 -18.333 -92.333 -55 -127c-41.333 -38.667 -97.666 -58 -168.999 -58h-106z" />
    <glyph glyph-name="Q" unicode="Q" horiz-adv-x="689" 
d="M381 31l0.999023 86.001h-117v-86c-53.333 16 -91.666 55.333 -114.999 118c-17.333 46 -26 102 -26 168c0 103.333 20.333 180.333 61 231c34 42 80 63 138 63c58.667 0 104.667 -20.333 138 -61c41.333 -50.667 62 -128.334 62 -233.001
c0 -65.333 -8.66699 -121 -26 -167c-24 -63.333 -62.667 -103 -116 -119zM264.999 -11.999c-80.667 13.333 -144.167 49.501 -190.5 108.501s-69.5 127.5 -69.5 205.5l1 15l-1 13c0 88 27.667 163.333 83 226c60 68 138.333 102 235 102c96 0 174 -33.667 234 -101
c56 -62.667 84 -138.334 84 -227.001v-26c0 -78.667 -22.333 -146.667 -67 -204c-47.333 -60.667 -111.333 -98 -192 -112v-70h-117v70z" />
    <glyph glyph-name="R" unicode="R" horiz-adv-x="517" 
d="M174 317l31 -3c42 0 75.667 14 101 42c22.667 25.333 34 56.333 34 93c0 39.333 -13 73.333 -39 102c-29.333 32 -68 48 -116 48h-58v-282h47zM468 0h-140.999l-200 270v-270h-118v646h224c69.333 0 125 -20.333 167 -61c38 -36.667 57 -80.667 57 -132
c0 -46 -15.333 -85.333 -46 -118c-34.667 -37.333 -82.334 -59 -143.001 -65z" />
    <glyph glyph-name="S" unicode="S" horiz-adv-x="456" 
d="M390 529l-46.9961 -12.0029c-10.667 30 -27.334 53.167 -50.001 69.5s-47 24.5 -73 24.5c-27.333 0 -50.333 -9.66699 -69 -29c-20.667 -22 -31 -51.667 -31 -89c0 -44 25.333 -79 76 -105l141 -67c50.667 -33.333 76 -81.666 76 -144.999
c0 -59.333 -22.333 -106 -67 -140c-40.667 -30.667 -90.334 -46 -149.001 -46c-40.667 0 -79.167 8.16699 -115.5 24.5s-62.833 38.833 -79.5 67.5l36 24c15.333 -23.333 34.666 -41.166 57.999 -53.499s48.333 -18.5 75 -18.5c31.333 0 58 9.33301 80 28s33 45 33 79v9
c0 44.667 -24.333 79.334 -73 104.001l-135 63c-49.333 32.667 -74 79.667 -74 141c0 63.333 20.667 113.333 62 150c36.667 32.667 82 49 136 49c43.333 0 82.666 -11.167 117.999 -33.5s59.333 -53.833 72 -94.5z" />
    <glyph glyph-name="T" unicode="T" 
d="M380 646v-47h-129v-599h-118v599h-129v47h376z" />
    <glyph glyph-name="U" unicode="U" horiz-adv-x="507" 
d="M456 200c0 -66.667 -18.999 -118.669 -56.999 -156.002s-93.333 -56 -166 -56s-128.167 18.833 -166.5 56.5s-57.5 89.5 -57.5 155.5v446h118v-470c0 -37.333 13.5 -70.166 40.5 -98.499s60.5 -42.5 100.5 -42.5c39.333 0 72.666 14.333 99.999 43s41 61.334 41 98.001
v470h47v-446z" />
    <glyph glyph-name="V" unicode="V" horiz-adv-x="578" 
d="M132 646l165 -446l188 446h47l-282 -658l-246 657z" />
    <glyph glyph-name="W" unicode="W" horiz-adv-x="840" 
d="M392 305l-141 -317l-246 658h129l164 -435l71 153l-106 282h129l165 -435l188 435h47l-282 -658z" />
    <glyph glyph-name="X" unicode="X" horiz-adv-x="588" 
d="M287 423l152 223h59l-188 -270l235 -376h-141l-164 258l-177 -258h-58l211 317l-211 329h141z" />
    <glyph glyph-name="Y" unicode="Y" horiz-adv-x="607" 
d="M1 646h141l182 -279l182 279h59l-224 -341v-305h-117v305z" />
    <glyph glyph-name="Z" unicode="Z" horiz-adv-x="568" 
d="M169 47h341v-47h-505l352 599h-317v47h482z" />
    <glyph glyph-name="bracketleft" unicode="[" horiz-adv-x="366" 
d="M323 691v-32h-216v-822h216v-32h-321v886h321z" />
    <glyph glyph-name="backslash" unicode="\" horiz-adv-x="558" 
d="M-5 693h129l399 -881h-129z" />
    <glyph glyph-name="bracketright" unicode="]" horiz-adv-x="387" 
d="M9 691h328l-1 -886h-327v32h220v822h-220v32z" />
    <glyph glyph-name="asciicircum" unicode="^" horiz-adv-x="264" 
d="M119 641l7 -2l6 -3l7 -6l83 -87h-46l-8 7l-17 13l-16 13l-9 5l-7 3l-10 1l-9 -2l-8 -4l-12 -8l-13 -10l-12 -11l-9 -7h-45l84 88l7 6l9 4l10 1z" />
    <glyph glyph-name="underscore" unicode="_" horiz-adv-x="62" 
d="M-298 -217h616v-37h-616v37z" />
    <glyph glyph-name="grave" unicode="`" horiz-adv-x="164" 
d="M78 515l6 -4l3 -5l27 -65l3 -10l-1 -6l-5 -4h-31l-6 1l-6 5l-59 62l-3 8l2 9l5 6l6 4l9 2h44z" />
    <glyph glyph-name="a" unicode="a" horiz-adv-x="416" 
d="M88 164h130l-47 177c-3.33301 10 -9.33301 15 -18 15s-14.667 -5 -18 -15zM42 0l-39 -0.000976562l100 364c6 20.667 16.667 36.834 32 48.501s32 17.5 50 17.5c18.667 0 35.5 -5.33301 50.5 -16s24.833 -26.667 29.5 -48l101 -366h-101l-37 129h-151z" />
    <glyph glyph-name="b" unicode="b" horiz-adv-x="446" 
d="M96 411c25.333 6 49.332 9 71.999 9c68 0 125 -23.333 171 -70c42 -42.667 63 -89 63 -139c-5.33301 -62 -29.666 -112.667 -72.999 -152s-93.333 -59 -150 -59h-177v693h94v-282zM95.999 376v-340.999h83c40 0 72.333 20.333 97 61c21.333 35.333 32 73.666 32 114.999
c0 50 -12 91.333 -36 124c-26 35.333 -61.667 53 -107 53c-20.667 0 -43.667 -4 -69 -12z" />
    <glyph glyph-name="c" unicode="c" 
d="M356 117l24.0029 -11c-12 -35.333 -33.333 -63.833 -64 -85.5s-64.334 -32.5 -101.001 -32.5c-58 0 -107.667 23 -149 69s-62 101.333 -62 166c0 59.333 20.5 109.5 61.5 150.5s90.833 61.5 149.5 61.5c24.667 0 53.667 -10.833 87 -32.5s55.333 -46.167 66 -73.5
l-23 -12c-12.667 24 -30.834 43.667 -54.501 59s-48.834 23 -75.501 23c-33.333 0 -61.166 -18.333 -83.499 -55s-33.5 -77 -33.5 -121c0 -50 11.167 -95.833 33.5 -137.5s50.166 -62.5 83.499 -62.5s61.333 8.33301 84 25c18.667 13.333 37.667 36.333 57 69z" />
    <glyph glyph-name="d" unicode="d" horiz-adv-x="446" 
d="M96 211c0 -42 10.332 -79.999 30.999 -113.999c25.333 -41.333 58.333 -62 99 -62h82v341c-25.333 8 -48.666 12 -69.999 12c-44.667 0 -79.5 -16.833 -104.5 -50.5s-37.5 -75.834 -37.5 -126.501zM307.999 693.001h94.002v-693h-176c-56.667 0 -106.334 19 -149.001 57
c-44.667 40 -69.667 91.333 -75 154c0 50 20.667 96 62 138c46.667 47.333 103.667 71 171 71c23.333 0 47.666 -3 72.999 -9v282z" />
    <glyph glyph-name="e" unicode="e" horiz-adv-x="346" 
d="M9 341c0 24 8.33301 43.667 25 59s39.667 23 69 23h200v-35h-164c-24 0 -36 -12 -36 -36v-117h165v-35h-165v-130c0 -23.333 12 -35 36 -35h164v-35h-200c-28.667 0 -51.5 7.5 -68.5 22.5s-25.5 34.833 -25.5 59.5v259z" />
    <glyph glyph-name="f" unicode="f" horiz-adv-x="235" 
d="M101 599l-0.00195312 -176h82v-35h-82v-388h-94v587c0 38.667 10.333 67.334 31 86.001s48.334 28 83.001 28c18.667 0 39.334 -2.66699 62.001 -8v-35l-30 4c-16.667 0 -29.5 -4.83301 -38.5 -14.5s-13.5 -25.834 -13.5 -48.501z" />
    <glyph glyph-name="g" unicode="g" 
d="M286 106l0.00292969 105h94v-399h-94v211c-24.667 -23.333 -48.334 -35 -71.001 -35c-58 0 -107.667 23 -149 69s-62 101.333 -62 166c0 59.333 20.5 109.5 61.5 150.5s90.833 61.5 149.5 61.5c24.667 0 53.667 -10.833 87 -32.5s55.333 -46.167 66 -73.5l-23 -12
c-12.667 24 -30.834 43.667 -54.501 59s-48.834 23 -75.501 23c-33.333 0 -61.166 -18.333 -83.499 -55s-33.5 -77 -33.5 -121c0 -50 11.167 -95.833 33.5 -137.5s50.166 -62.5 83.499 -62.5c21.333 0 39 9.33301 53 28c12 16 18 34.333 18 55z" />
    <glyph glyph-name="h" unicode="h" horiz-adv-x="407" 
d="M6 693h94v-435h165v165h94v-423h-94v223h-165v-223h-94v693z" />
    <glyph glyph-name="i" unicode="i" horiz-adv-x="164" 
d="M38 517c-12 2.66699 -21.334 8.83203 -28.001 18.499s-10 20.834 -10 33.501c0 24 8.66699 42 26 54c8.66699 6 19.334 9 32.001 9c16 0 30.333 -5.66699 43 -17s19 -24.333 19 -39c0 -19.333 -5.5 -34.5 -16.5 -45.5s-25.5 -16.5 -43.5 -16.5zM13.999 -0.00195312v423
h94v-423h-94z" />
    <glyph glyph-name="j" unicode="j" horiz-adv-x="254" 
d="M193 423l0.000976562 -482c0 -49.333 -15.333 -85 -46 -107c-24 -17.333 -55.333 -26 -94 -26c-8 0 -15.333 0.333008 -22 1s-15.334 1.66699 -26.001 3v24c29.333 0 52.333 6 69 18s25 29.333 25 52v517h94zM123.001 517c-12 2.66699 -21.334 8.83203 -28.001 18.499
s-10 20.834 -10 33.501c0 23.333 8.66699 41.333 26 54c8.66699 6 19.334 9 32.001 9c16 0 30.333 -5.66699 43 -17s19 -24.333 19 -39c0 -20 -5.33301 -35.333 -16 -46s-25 -16 -43 -16z" />
    <glyph glyph-name="k" unicode="k" horiz-adv-x="407" 
d="M100 236l188 188h53l-162 -162l185 -262h-123l-141 204v-204h-94v693h94v-457z" />
    <glyph glyph-name="l" unicode="l" horiz-adv-x="225" 
d="M9 693h94v-623c0 -17.333 1.5 -27.5 4.5 -30.5s13.5 -4.5 31.5 -4.5h35v-35h-94c-36 -0 -56.833 1.83301 -62.5 5.5s-8.5 17.5 -8.5 41.5v646z" />
    <glyph glyph-name="m" unicode="m" horiz-adv-x="466" 
d="M200 23c-5.33301 -18.667 -11.667 -28.001 -19 -28.001c-8 0 -17.333 13.333 -28 40l-93 306c-2 2 -4 3.33301 -6 4s-3.66699 1.33398 -5 2.00098c-4 0 -6.83301 -2 -8.5 -6s-3.16699 -8 -4.5 -12v-329h-35v352c0 24 6.66699 42.333 20 55s29.333 19 48 19
c16 0 31 -4.5 45 -13.5s23.333 -21.167 28 -36.5l69 -216l72 216c7.33301 16 18 28.333 32 37s28.667 13 44 13c18.667 0 34.167 -6.16699 46.5 -18.5s18.5 -30.833 18.5 -55.5v-352h-94v329c-2.66699 14 -7.33398 21 -14.001 21c-5.33301 0 -8.66602 -3 -9.99902 -9z" />
    <glyph glyph-name="n" unicode="n" horiz-adv-x="387" 
d="M43 305l0.000976562 -305h-35v352c0 25.333 4.83301 44.333 14.5 57s22.167 19 37.5 19s31 -5.5 47 -16.5s30 -26.833 42 -47.5l152 -223v282h36v-400c0 -8.66699 -2.16699 -15.5 -6.5 -20.5s-9.83301 -7.5 -16.5 -7.5s-14.334 3.33301 -23.001 10s-17 16.667 -25 30
l-199 294c-1.33301 1.33301 -3.5 2.5 -6.5 3.5s-5.16699 1.83301 -6.5 2.5c-7.33301 0 -11 -10 -11 -30z" />
    <glyph glyph-name="o" unicode="o" horiz-adv-x="507" 
d="M233 23c42.667 0 75.999 22.333 99.999 67c19.333 36 29 76.333 29 121c0 44 -9.66699 84 -29 120c-24.667 45.333 -58 68 -100 68s-75.333 -22.333 -100 -67c-20 -36.667 -30 -77 -30 -121s9.66699 -84 29 -120c24.667 -45.333 58.334 -68 101.001 -68zM8.99902 211
c0 65.333 23 119.666 69 162.999c43.333 40.667 95 61 155 61c59.333 0 110.666 -20.333 153.999 -61c46 -43.333 69 -97.666 69 -162.999c0 -64.667 -23 -118.667 -69 -162c-43.333 -40.667 -94.666 -61 -153.999 -61c-60 0 -111.667 20.333 -155 61
c-46 43.333 -69 97.333 -69 162z" />
    <glyph glyph-name="p" unicode="p" horiz-adv-x="446" 
d="M179 388h-83v-341c10 -3.33301 21.833 -6.33301 35.5 -9s24.834 -4 33.501 -4c45.333 0 81 17.667 107 53c24 32.667 36 74 36 124c0 42 -10.333 80.333 -31 115c-24.667 41.333 -57.334 62 -98.001 62zM402 211c0 -50 -20.666 -96 -61.999 -138
c-46.667 -47.333 -104 -71 -172 -71c-24 0 -48 3.33301 -72 10v-200h-94v611h177c56.667 0 106.667 -19.5 150 -58.5s67.666 -90.167 72.999 -153.5z" />
    <glyph glyph-name="q" unicode="q" horiz-adv-x="507" 
d="M186 0c-49.333 12 -90.332 35.667 -122.999 71c-36 39.333 -54 86 -54 140c0 65.333 23 119.666 69 162.999c43.333 40.667 95 61 155 61c59.333 0 110.666 -20.333 153.999 -61c46 -43.333 69 -97.666 69 -162.999c0 -57.333 -16.5 -104.5 -49.5 -141.5
s-75.167 -60.167 -126.5 -69.5v-117h-94v117zM233.001 399c-42 0 -75.333 -22.334 -100 -67.001c-20 -36.667 -30 -77 -30 -121c0 -33.333 6.33301 -65.666 19 -96.999c15.333 -38 36.666 -64.333 63.999 -79l-1 82h95v-82c28.667 12.667 50.334 38 65.001 76
c11.333 30 17 63.333 17 100c0 44 -9.66699 84 -29 120c-24.667 45.333 -58 68 -100 68z" />
    <glyph glyph-name="r" unicode="r" horiz-adv-x="397" 
d="M184 423c46.667 0 82.667 -11.666 108 -34.999c22.667 -20.667 34 -47.334 34 -80.001c0 -30.667 -10.333 -57.667 -31 -81c-22.667 -26 -51.667 -39 -87 -39l140 -188h-117l-129 176v-176h-94v423h176zM149 388.001h-47v-177h47c28 0 49.5 8.66699 64.5 26
s22.5 38 22.5 62s-7 44.333 -21 61c-16 18.667 -38 28 -66 28z" />
    <glyph glyph-name="s" unicode="s" horiz-adv-x="336" 
d="M95 188c-28 16.667 -49.333 36.333 -64 59s-22 45 -22 67c0 30.667 11.167 56.5 33.5 77.5s51.5 31.5 87.5 31.5h106v-35h-83c-43.333 -10 -65 -26.333 -65 -49c0 -28 33.667 -58.667 101 -92c30.667 -18.667 54.5 -41.167 71.5 -67.5s25.5 -52.833 25.5 -79.5
c0 -28.667 -11.333 -52.5 -34 -71.5s-55.667 -28.5 -99 -28.5h-140v35h105c24 0 42.833 4 56.5 12s20.5 19.333 20.5 34s-7.66699 30.667 -23 48c-17.333 19.333 -43 39 -77 59z" />
    <glyph glyph-name="t" unicode="t" horiz-adv-x="305" 
d="M2 423h259v-35h-82v-388h-94v388h-83v35z" />
    <glyph glyph-name="u" unicode="u" horiz-adv-x="366" 
d="M315 129c0 -42.667 -15.999 -76.666 -47.999 -101.999c-28.667 -22.667 -63.334 -34 -104.001 -34c-41.333 0 -76.333 11 -105 33c-32.667 25.333 -49 59.666 -49 102.999v294h94v-270c0 -36 8.66699 -64.167 26 -84.5s38 -30.5 62 -30.5s44.833 10.167 62.5 30.5
s26.5 48.5 26.5 84.5v270h35v-294z" />
    <glyph glyph-name="v" unicode="v" horiz-adv-x="416" 
d="M4 423l94 0.000976562l94 -329c5.33301 -18.667 11.333 -28 18 -28c9.33301 0 19 17 29 51l91 305l38 1l-106 -353c-6 -24.667 -16.167 -43.834 -30.5 -57.501s-29.5 -20.5 -45.5 -20.5c-15.333 0 -30 5.66699 -44 17s-24.667 28 -32 50z" />
    <glyph glyph-name="w" unicode="w" horiz-adv-x="628" 
d="M327 47l-30 107l-17 -60c-8.66699 -34 -20.834 -60.167 -36.501 -78.5s-32.167 -27.5 -49.5 -27.5c-33.333 0 -59.666 27.333 -78.999 82l-106 353h94l94 -317c7.33301 -25.333 15 -38 23 -38s16 12.667 24 38l35 113l-58 204h94l94 -341c4.66699 -8.66699 9 -13 13 -13
c7.33301 0 13.666 9 18.999 27l103 327h41l-106 -341c-8 -29.333 -20.167 -51.833 -36.5 -67.5s-33.166 -23.5 -50.499 -23.5c-32 0 -53.667 18.667 -65 56z" />
    <glyph glyph-name="x" unicode="x" horiz-adv-x="446" 
d="M14 423h112l96 -147l116 147h52l-145 -182l157 -241l-113 -1l-106 163l-130 -163l-51 1l159 199z" />
    <glyph glyph-name="y" unicode="y" horiz-adv-x="446" 
d="M2 423h102l122 -306l129 306h47l-259 -611h-47l76 183z" />
    <glyph glyph-name="z" unicode="z" horiz-adv-x="366" 
d="M21 423l200 -0.00195312c19.333 0 32.833 -1.66699 40.5 -5s11.5 -10.666 11.5 -21.999c0 -13.333 -5.66699 -31.666 -17 -54.999l-129 -306h188v-35l-310 -1l169 389h-153v35z" />
    <glyph glyph-name="braceleft" unicode="{" horiz-adv-x="245" 
d="M182 693l47.0029 -0.000976562c-41.333 -22 -70.833 -43.333 -88.5 -64s-26.5 -41 -26.5 -61c0 -15.333 13.667 -50 41 -104c13.333 -26 20 -48 20 -66c0 -23.333 -8.33301 -45.666 -25 -66.999c-20 -25.333 -52.333 -51.666 -97 -78.999c44 -26 76 -52 96 -78
c17.333 -22.667 26 -45.334 26 -68.001c0 -18 -13.667 -53.333 -41 -106c-13.333 -25.333 -20 -46.333 -20 -63c0 -20 8 -39.333 24 -58c19.333 -22.667 49.666 -45 90.999 -67h-47c-46.667 33.333 -79.834 63.833 -99.501 91.5s-29.5 53.5 -29.5 77.5
c0 20 6.66699 41.667 20 65c29.333 52 44 83.333 44 94c0 16.667 -7.66699 33.667 -23 51c-18 20 -46.333 40.333 -85 61c39.333 21.333 67.166 40.833 83.499 58.5s24.5 35.167 24.5 52.5c0 11.333 -14.333 42.333 -43 93c-14 24.667 -21 47 -21 67c0 24 9 48.667 27 74
c22 30.667 56 62.667 102 96z" />
    <glyph glyph-name="bar" unicode="|" horiz-adv-x="164" 
d="M2 693h118v-881h-118v881z" />
    <glyph glyph-name="braceright" unicode="}" horiz-adv-x="245" 
d="M-26 693l46.998 0.00292969c46.667 -33.333 80.334 -64.666 101.001 -93.999c18 -25.333 27 -50.333 27 -75c0 -22 -10.667 -50.333 -32 -85s-32 -60 -32 -76c0 -17.333 8.16699 -34.833 24.5 -52.5s44.5 -37.167 84.5 -58.5c-39.333 -21.333 -67.333 -41 -84 -59
s-25 -35.667 -25 -53c0 -11.333 14.333 -42.333 43 -93c14 -24.667 21 -46.667 21 -66c0 -24 -9 -48.667 -27 -74c-21.333 -30 -55 -61.667 -101 -95h-47c41.333 22 71.333 44.333 90 67c16 19.333 24 38.666 24 57.999c0 15.333 -13.667 49.666 -41 102.999
c-13.333 26 -20 48 -20 66c0 22.667 8.66699 45 26 67c20.667 26.667 53 53 97 79c-45.333 27.333 -77.166 52.666 -95.499 75.999s-27.5 46.666 -27.5 69.999c0 18 13.667 53.333 41 106c13.333 25.333 20 46.333 20 63c0 20 -8 39.667 -24 59
c-19.333 22.667 -49.333 45 -90 67z" />
    <glyph glyph-name="asciitilde" unicode="~" horiz-adv-x="285" 
d="M239 587c-9.33301 -24.667 -20.166 -42.835 -32.499 -54.502s-24.833 -17.5 -37.5 -17.5c-12 0 -29.667 5.5 -53 16.5s-40 16.5 -50 16.5c-15.333 0 -28.333 -6.33301 -39 -19c-6.66699 -10.667 -13 -16 -19 -16c-4 4 -6 6.66699 -6 8l2 8
c11.333 24.667 22.666 41.834 33.999 51.501s24 14.5 38 14.5c10.667 0 31.667 -7 63 -21c16.667 -7.33301 29 -11 37 -11c15.333 0 28.333 8 39 24c6 8 12 12 18 12c4.66699 -3.33301 7 -5.66602 7 -6.99902z" />
    <glyph glyph-name="nonbreakingspace" unicode="&#xa0;" horiz-adv-x="500" 
 />
    <glyph glyph-name="brokenbar" unicode="&#xa6;" horiz-adv-x="164" 
d="M2 693h118v-881h-118v881z" />
    <glyph glyph-name="dieresis" unicode="&#xa8;" 
d="M380 646v-47h-259v-247h235v-47h-235v-258h259v-47h-376v646h376zM298 681l-23.999 -3.00195c-17.333 0 -31.5 5.5 -42.5 16.5s-16.5 26.167 -16.5 45.5c0 14.667 6.5 26.834 19.5 36.501s28.5 14.5 46.5 14.5h13c3.33301 0 8.33301 -1.33301 15 -4
c16.667 -10.667 25 -28.334 25 -53.001c0 -13.333 -2.83301 -24.666 -8.5 -33.999s-14.834 -15.666 -27.501 -18.999zM86.001 680.998c-12 3.33301 -21.168 9.83301 -27.501 19.5s-9.5 20.834 -9.5 33.501c0 24 8.33301 41.667 25 53c8 2.66699 17.333 4 28 4
c16.667 0 31.834 -4.83301 45.501 -14.5s20.5 -21.834 20.5 -36.501c0 -18.667 -5.33301 -33.667 -16 -45s-25 -17 -43 -17z" />
    <glyph glyph-name="ordfeminine" unicode="&#xaa;" horiz-adv-x="658" 
d="M538 493c-19.333 32.667 -43.668 57.668 -73.001 75.001c-34.667 20.667 -77 31 -127 31c-56 0 -103.5 -21.833 -142.5 -65.5s-61.833 -104.167 -68.5 -181.5h305v-47h-305c0 -84 20.667 -150.667 62 -200c39.333 -46.667 89 -70 149 -70c66.667 0 119 13 157 39
c32.667 22 58.667 56 78 102l35 -23c-32 -58.667 -65.333 -99.334 -100 -122.001c-43.333 -28.667 -103.666 -43 -180.999 -43c-100 0 -179 32 -237 96c-54 60 -81 137.667 -81 233s27 173 81 233c57.333 64 136.333 96 237 96c60 0 114.333 -16 163 -48
c42 -27.333 69.667 -58.333 83 -93z" />
    <glyph glyph-name="minus" unicode="&#xad;" horiz-adv-x="315" 
d="M1 388h270v-83h-270v83z" />
    <glyph glyph-name="cedilla" unicode="&#xb8;" horiz-adv-x="356" 
d="M9 341c0 24 8.33301 43.667 25 59s39.667 23 69 23h200v-35h-164c-24 0 -36 -12 -36 -36v-117h165v-35h-165v-130c0 -23.333 12 -35 36 -35h164v-35h-200c-28.667 0 -51.5 7.5 -68.5 22.5s-25.5 34.833 -25.5 59.5v259zM268 482l-24 -3.99902
c-17.333 0 -31.333 5.5 -42 16.5s-16 26.167 -16 45.5c0 15.333 6 28.666 18 39.999s26.333 17 43 17c11.333 0 22.333 -3.33301 33 -10c16.667 -11.333 25 -29 25 -53c0 -28.667 -12.333 -46 -37 -52zM56 482.001c-14.667 3.33301 -24.501 10.832 -29.501 22.499
s-7.5 21.5 -7.5 29.5c0 10 2.33301 20.167 7 30.5s11 17.833 19 22.5c9.33301 6.66699 20 10 32 10c16 0 30.333 -5.66699 43 -17s19 -24.666 19 -39.999c0 -18.667 -5.66699 -33.667 -17 -45s-25.666 -17 -42.999 -17z" />
    <glyph glyph-name="ordmasculine" unicode="&#xba;" 
d="M215 23c33.333 0 61.3359 8.33398 84.0029 25.001c18.667 13.333 37.667 36.333 57 69l24 -11c-12 -35.333 -33.333 -63.833 -64 -85.5s-64.334 -32.5 -101.001 -32.5c-58 0 -107.667 23 -149 69s-62 101.333 -62 166c0 59.333 20.5 109.5 61.5 150.5
s90.833 61.5 149.5 61.5c24.667 0 53.667 -10.833 87 -32.5s55.333 -46.167 66 -73.5l-23 -12c-12.667 24 -30.834 43.667 -54.501 59s-48.834 23 -75.501 23c-32 0 -59.5 -17 -82.5 -51s-34.5 -71.667 -34.5 -113h200v-35h-200c0 -44.667 11.5 -85.334 34.5 -122.001
s50.5 -55 82.5 -55z" />
    <glyph glyph-name="Agrave" unicode="&#xc0;" horiz-adv-x="589" 
d="M144 200h188l-94 235zM273 646l270 -646h-129l-70 153h-223l-59 -153h-59z" />
    <glyph glyph-name="Agrave" unicode="&#x410;" horiz-adv-x="589" 
d="M144 200h188l-94 235zM273 646l270 -646h-129l-70 153h-223l-59 -153h-59z" />
    <glyph glyph-name="Aacute" unicode="&#xc1;" horiz-adv-x="528" 
d="M243 47c38 0 67.5 11.833 88.5 35.5s31.5 52.5 31.5 86.5c0 36.667 -11.667 67.667 -35 93c-26.667 28.667 -63 43 -109 43h-94v-258h118zM8 0l0.000976562 645.999h376v-47h-259v-247h153c63.333 0 113.666 -18.333 150.999 -55c34 -33.333 51 -73.666 51 -120.999
c0 -48 -16.667 -88.333 -50 -121c-37.333 -36.667 -88 -55 -152 -55h-270z" />
    <glyph glyph-name="Aacute" unicode="&#x411;" horiz-adv-x="528" 
d="M243 47c38 0 67.5 11.833 88.5 35.5s31.5 52.5 31.5 86.5c0 36.667 -11.667 67.667 -35 93c-26.667 28.667 -63 43 -109 43h-94v-258h118zM8 0l0.000976562 645.999h376v-47h-259v-247h153c63.333 0 113.666 -18.333 150.999 -55c34 -33.333 51 -73.666 51 -120.999
c0 -48 -16.667 -88.333 -50 -121c-37.333 -36.667 -88 -55 -152 -55h-270z" />
    <glyph glyph-name="Acircumflex" unicode="&#xc2;" horiz-adv-x="528" 
d="M243 47c38 0 67.5 11.833 88.5 35.5s31.5 52.5 31.5 86.5c0 36.667 -11.667 67.667 -35 93c-26.667 28.667 -63 43 -109 43h-94v-258h118zM360 341c32.667 -2.66699 60.8311 -21.168 84.498 -55.501s35.5 -72.166 35.5 -113.499c0 -48 -16 -87.333 -48 -118
c-37.333 -36 -92.666 -54 -165.999 -54h-258v646h247c64.667 0 115.334 -19.333 152.001 -58c32 -34 48 -74.667 48 -122c0 -34 -8 -62.667 -24 -86c-18 -26 -41.667 -39 -71 -39zM124.997 351.999l59 -0.000976562c50 0 89.333 13.333 118 40c26 24 39 52.667 39 86
c0 32.667 -11.333 60.334 -34 83.001c-25.333 25.333 -58.333 38 -99 38h-83v-247z" />
    <glyph glyph-name="Acircumflex" unicode="&#x412;" horiz-adv-x="528" 
d="M243 47c38 0 67.5 11.833 88.5 35.5s31.5 52.5 31.5 86.5c0 36.667 -11.667 67.667 -35 93c-26.667 28.667 -63 43 -109 43h-94v-258h118zM360 341c32.667 -2.66699 60.8311 -21.168 84.498 -55.501s35.5 -72.166 35.5 -113.499c0 -48 -16 -87.333 -48 -118
c-37.333 -36 -92.666 -54 -165.999 -54h-258v646h247c64.667 0 115.334 -19.333 152.001 -58c32 -34 48 -74.667 48 -122c0 -34 -8 -62.667 -24 -86c-18 -26 -41.667 -39 -71 -39zM124.997 351.999l59 -0.000976562c50 0 89.333 13.333 118 40c26 24 39 52.667 39 86
c0 32.667 -11.333 60.334 -34 83.001c-25.333 25.333 -58.333 38 -99 38h-83v-247z" />
    <glyph glyph-name="Atilde" unicode="&#xc3;" 
d="M380 599h-259v-599h-117v646h376v-47z" />
    <glyph glyph-name="Atilde" unicode="&#x413;" 
d="M380 599h-259v-599h-117v646h376v-47z" />
    <glyph glyph-name="Adieresis" unicode="&#xc4;" horiz-adv-x="668" 
d="M308 648l245 -601h70v-129h-117v82h-388v-82h-117v129h59zM273 436l-155 -389h306z" />
    <glyph glyph-name="Adieresis" unicode="&#x414;" horiz-adv-x="668" 
d="M308 648l245 -601h70v-129h-117v82h-388v-82h-117v129h59zM273 436l-155 -389h306z" />
    <glyph glyph-name="Aring" unicode="&#xc5;" 
d="M380 646v-47h-259v-247h235v-47h-235v-258h259v-47h-376v646h376z" />
    <glyph glyph-name="Aring" unicode="&#x415;" 
d="M380 646v-47h-259v-247h235v-47h-235v-258h259v-47h-376v646h376z" />
    <glyph glyph-name="AE" unicode="&#xc6;" horiz-adv-x="689" 
d="M382 0h-117v305l-130 -305h-129l165 397l-149 249h55l188 -305v305h117v-305l188 305h55l-150 -249l166 -397h-129l-130 305v-305z" />
    <glyph glyph-name="AE" unicode="&#x416;" horiz-adv-x="689" 
d="M382 0h-117v305l-130 -305h-129l165 397l-149 249h55l188 -305v305h117v-305l188 305h55l-150 -249l166 -397h-129l-130 305v-305z" />
    <glyph glyph-name="Ccedilla" unicode="&#xc7;" horiz-adv-x="466" 
d="M303 141l-0.000976562 16.9971c0 43.333 -12.667 78.666 -38 105.999s-59.666 41 -102.999 41h-70v47h70c36 0 65.333 12 88 36s34 53.667 34 89c0 4.66699 -0.166992 10 -0.5 16s-1.5 14 -3.5 24c-8 29.333 -22.167 51.333 -42.5 66s-42.5 22 -66.5 22
c-26.667 0 -51 -8 -73 -24s-36 -37.333 -42 -64l-47 12c13.333 39.333 38.166 70.333 74.499 93s75.833 34 118.5 34c12 0 23 -0.666992 33 -2s21 -4 33 -8c41.333 -14 73 -37 95 -69s33 -66 33 -102c0 -31.333 -8 -59.166 -24 -83.499s-39 -41.166 -69 -50.499
c43.333 -11.333 75 -32 95 -62c16.667 -25.333 25 -56 25 -92c0 -15.333 -1.16699 -29.666 -3.5 -42.999s-5.83301 -27.333 -10.5 -42c-10 -31.333 -34.833 -57.666 -74.5 -78.999s-83.167 -32 -130.5 -32c-37.333 0 -73 7.33301 -107 22s-63.333 37.667 -88 69l36 24
c12.667 -18.667 32.334 -34.167 59.001 -46.5s54 -18.5 82 -18.5c32 0 58.667 7.66699 80 23c24.667 18 37 43.667 37 77z" />
    <glyph glyph-name="Ccedilla" unicode="&#x417;" horiz-adv-x="466" 
d="M303 141l-0.000976562 16.9971c0 43.333 -12.667 78.666 -38 105.999s-59.666 41 -102.999 41h-70v47h70c36 0 65.333 12 88 36s34 53.667 34 89c0 4.66699 -0.166992 10 -0.5 16s-1.5 14 -3.5 24c-8 29.333 -22.167 51.333 -42.5 66s-42.5 22 -66.5 22
c-26.667 0 -51 -8 -73 -24s-36 -37.333 -42 -64l-47 12c13.333 39.333 38.166 70.333 74.499 93s75.833 34 118.5 34c12 0 23 -0.666992 33 -2s21 -4 33 -8c41.333 -14 73 -37 95 -69s33 -66 33 -102c0 -31.333 -8 -59.166 -24 -83.499s-39 -41.166 -69 -50.499
c43.333 -11.333 75 -32 95 -62c16.667 -25.333 25 -56 25 -92c0 -15.333 -1.16699 -29.666 -3.5 -42.999s-5.83301 -27.333 -10.5 -42c-10 -31.333 -34.833 -57.666 -74.5 -78.999s-83.167 -32 -130.5 -32c-37.333 0 -73 7.33301 -107 22s-63.333 37.667 -88 69l36 24
c12.667 -18.667 32.334 -34.167 59.001 -46.5s54 -18.5 82 -18.5c32 0 58.667 7.66699 80 23c24.667 18 37 43.667 37 77z" />
    <glyph glyph-name="Egrave" unicode="&#xc8;" horiz-adv-x="548" 
d="M417 646h83v-646h-47v505l-400 -505h-47v646h47v-446z" />
    <glyph glyph-name="Egrave" unicode="&#x418;" horiz-adv-x="548" 
d="M417 646h83v-646h-47v505l-400 -505h-47v646h47v-446z" />
    <glyph glyph-name="Eacute" unicode="&#xc9;" horiz-adv-x="548" 
d="M417 646h83v-646h-47v505l-400 -505h-47v646h47v-446zM124 670v47h223v-47h-223z" />
    <glyph glyph-name="Eacute" unicode="&#x419;" horiz-adv-x="548" 
d="M417 646h83v-646h-47v505l-400 -505h-47v646h47v-446zM124 670v47h223v-47h-223z" />
    <glyph glyph-name="Ecircumflex" unicode="&#xca;" horiz-adv-x="538" 
d="M125 646v-317l270 317h59l-235 -282l270 -364h-141l-223 305v-305h-117v646h117z" />
    <glyph glyph-name="Ecircumflex" unicode="&#x41a;" horiz-adv-x="538" 
d="M125 646v-317l270 317h59l-235 -282l270 -364h-141l-223 305v-305h-117v646h117z" />
    <glyph glyph-name="Edieresis" unicode="&#xcb;" horiz-adv-x="589" 
d="M543 0h-129l-176 435l-176 -435h-59l270 646z" />
    <glyph glyph-name="Edieresis" unicode="&#x41b;" horiz-adv-x="589" 
d="M543 0h-129l-176 435l-176 -435h-59l270 646z" />
    <glyph glyph-name="Igrave" unicode="&#xcc;" horiz-adv-x="668" 
d="M313 188l188 458h118v-646h-118v540l-223 -552l-223 529v-517h-47v646h129z" />
    <glyph glyph-name="Igrave" unicode="&#x41c;" horiz-adv-x="668" 
d="M313 188l188 458h118v-646h-118v540l-223 -552l-223 529v-517h-47v646h129z" />
    <glyph glyph-name="Iacute" unicode="&#xcd;" horiz-adv-x="548" 
d="M124 646v-294h258v294h118v-646h-118v305h-258v-305h-118v646h118z" />
    <glyph glyph-name="Iacute" unicode="&#x41d;" horiz-adv-x="548" 
d="M124 646v-294h258v294h118v-646h-118v305h-258v-305h-118v646h118z" />
    <glyph glyph-name="Icircumflex" unicode="&#xce;" horiz-adv-x="689" 
d="M641 317v-12.999c0 -88.667 -27.667 -164 -83 -226c-60 -67.333 -138.333 -101 -235 -101c-96 0 -174 33.667 -234 101c-56 62.667 -84 138 -84 226l1 13l-1 13c0 88 27.667 163.333 83 226c60 68 138.333 102 235 102c96 0 174 -33.667 234 -101
c56 -62.667 84 -138.334 84 -227.001v-13zM323 23.001c76 0 130.666 34.332 163.999 102.999c24 48.667 36 112.334 36 191.001c0 104 -20.333 181 -61 231c-34 42 -80.333 63 -139 63c-75.333 0 -129.666 -34 -162.999 -102c-24 -49.333 -36 -113.333 -36 -192
c0 -79.333 11.667 -143 35 -191c33.333 -68.667 88 -103 164 -103z" />
    <glyph glyph-name="Icircumflex" unicode="&#x41e;" horiz-adv-x="689" 
d="M641 317v-12.999c0 -88.667 -27.667 -164 -83 -226c-60 -67.333 -138.333 -101 -235 -101c-96 0 -174 33.667 -234 101c-56 62.667 -84 138 -84 226l1 13l-1 13c0 88 27.667 163.333 83 226c60 68 138.333 102 235 102c96 0 174 -33.667 234 -101
c56 -62.667 84 -138.334 84 -227.001v-13zM323 23.001c76 0 130.666 34.332 163.999 102.999c24 48.667 36 112.334 36 191.001c0 104 -20.333 181 -61 231c-34 42 -80.333 63 -139 63c-75.333 0 -129.666 -34 -162.999 -102c-24 -49.333 -36 -113.333 -36 -192
c0 -79.333 11.667 -143 35 -191c33.333 -68.667 88 -103 164 -103z" />
    <glyph glyph-name="Idieresis" unicode="&#xcf;" horiz-adv-x="548" 
d="M6 646h494v-646h-118v599h-258v-599h-118v646z" />
    <glyph glyph-name="Idieresis" unicode="&#x41f;" horiz-adv-x="548" 
d="M6 646h494v-646h-118v599h-258v-599h-118v646z" />
    <glyph glyph-name="Eth" unicode="&#xd0;" horiz-adv-x="507" 
d="M174 317l32 -3c42 0 75.667 14 101 42c22.667 25.333 34 56.333 34 93c0 39.333 -13.333 73.333 -40 102c-29.333 32 -68.333 48 -117 48h-57v-282h47zM233 270h-106.001v-270h-118v646h224c69.333 0 125 -20 167 -60c38 -36 57 -79.667 57 -131
c0 -50 -18.333 -92.333 -55 -127c-41.333 -38.667 -97.666 -58 -168.999 -58z" />
    <glyph glyph-name="Eth" unicode="&#x420;" horiz-adv-x="507" 
d="M174 317l32 -3c42 0 75.667 14 101 42c22.667 25.333 34 56.333 34 93c0 39.333 -13.333 73.333 -40 102c-29.333 32 -68.333 48 -117 48h-57v-282h47zM233 270h-106.001v-270h-118v646h224c69.333 0 125 -20 167 -60c38 -36 57 -79.667 57 -131
c0 -50 -18.333 -92.333 -55 -127c-41.333 -38.667 -97.666 -58 -168.999 -58z" />
    <glyph glyph-name="Ntilde" unicode="&#xd1;" horiz-adv-x="658" 
d="M573 505l-35.001 -11.999c-19.333 32.667 -43.666 57.667 -72.999 75c-34.667 20.667 -77 31 -127 31c-60.667 0 -110.334 -24.333 -149.001 -73c-41.333 -52 -62 -121.667 -62 -209c0 -88 20.333 -157.667 61 -209c38.667 -48.667 88.667 -73 150 -73
c66.667 0 119 13 157 39c32.667 22 58.667 56 78 102l35 -23c-32 -58.667 -65.333 -99.334 -100 -122.001c-43.333 -28.667 -103.666 -43 -180.999 -43c-100 0 -179 32 -237 96c-54 60 -81 137.667 -81 233s27 173 81 233c57.333 64 136.333 96 237 96
c60 0 114.333 -16 163 -48c42 -27.333 69.667 -58.333 83 -93z" />
    <glyph glyph-name="Ntilde" unicode="&#x421;" horiz-adv-x="658" 
d="M573 505l-35.001 -11.999c-19.333 32.667 -43.666 57.667 -72.999 75c-34.667 20.667 -77 31 -127 31c-60.667 0 -110.334 -24.333 -149.001 -73c-41.333 -52 -62 -121.667 -62 -209c0 -88 20.333 -157.667 61 -209c38.667 -48.667 88.667 -73 150 -73
c66.667 0 119 13 157 39c32.667 22 58.667 56 78 102l35 -23c-32 -58.667 -65.333 -99.334 -100 -122.001c-43.333 -28.667 -103.666 -43 -180.999 -43c-100 0 -179 32 -237 96c-54 60 -81 137.667 -81 233s27 173 81 233c57.333 64 136.333 96 237 96
c60 0 114.333 -16 163 -48c42 -27.333 69.667 -58.333 83 -93z" />
    <glyph glyph-name="Ograve" unicode="&#xd2;" 
d="M380 646v-47h-129v-599h-118v599h-129v47h376z" />
    <glyph glyph-name="Ograve" unicode="&#x422;" 
d="M380 646v-47h-129v-599h-118v599h-129v47h376z" />
    <glyph glyph-name="Oacute" unicode="&#xd3;" horiz-adv-x="507" 
d="M211 156l-206.001 490h129l141 -349l136 350l52 -1l-200 -505c-22.667 -54 -54.667 -92 -96 -114c-33.333 -18 -75.666 -27 -126.999 -27v47c44 0 78.667 7.66699 104 23c28 17.333 50.333 46 67 86z" />
    <glyph glyph-name="Oacute" unicode="&#x423;" horiz-adv-x="507" 
d="M211 156l-206.001 490h129l141 -349l136 350l52 -1l-200 -505c-22.667 -54 -54.667 -92 -96 -114c-33.333 -18 -75.666 -27 -126.999 -27v47c44 0 78.667 7.66699 104 23c28 17.333 50.333 46 67 86z" />
    <glyph glyph-name="Ocircumflex" unicode="&#xd4;" horiz-adv-x="668" 
d="M255 646h116.998v-47h23c69.333 0 125 -20 167 -60c38 -36 57 -79.667 57 -131c0 -50 -18.333 -92.333 -55 -127c-41.333 -38.667 -97.666 -58 -168.999 -58h-23v-223h-117v223h-24c-71.333 0 -127.666 19.333 -168.999 58c-37.333 34.667 -56 77 -56 127
c0 51.333 19 95 57 131c42 40 98 60 168 60h24v47zM254.998 265v291.999c-41.333 -4.66699 -74.333 -23.334 -99 -56.001c-22 -29.333 -33 -62.666 -33 -99.999c0.666992 -37.333 11.667 -68.666 33 -93.999c24 -28 57 -42 99 -42zM372.998 556.999v-294.999
c41.333 0 74 14.333 98 43c21.333 25.333 32 56.666 32 93.999c0 38 -10.667 71.667 -32 101c-24 33.333 -56.667 52.333 -98 57z" />
    <glyph glyph-name="Ocircumflex" unicode="&#x424;" horiz-adv-x="668" 
d="M255 646h116.998v-47h23c69.333 0 125 -20 167 -60c38 -36 57 -79.667 57 -131c0 -50 -18.333 -92.333 -55 -127c-41.333 -38.667 -97.666 -58 -168.999 -58h-23v-223h-117v223h-24c-71.333 0 -127.666 19.333 -168.999 58c-37.333 34.667 -56 77 -56 127
c0 51.333 19 95 57 131c42 40 98 60 168 60h24v47zM254.998 265v291.999c-41.333 -4.66699 -74.333 -23.334 -99 -56.001c-22 -29.333 -33 -62.666 -33 -99.999c0.666992 -37.333 11.667 -68.666 33 -93.999c24 -28 57 -42 99 -42zM372.998 556.999v-294.999
c41.333 0 74 14.333 98 43c21.333 25.333 32 56.666 32 93.999c0 38 -10.667 71.667 -32 101c-24 33.333 -56.667 52.333 -98 57z" />
    <glyph glyph-name="Otilde" unicode="&#xd5;" horiz-adv-x="588" 
d="M287 423l152 223h59l-188 -270l235 -376h-141l-164 258l-177 -258h-58l211 317l-211 329h141z" />
    <glyph glyph-name="Otilde" unicode="&#x425;" horiz-adv-x="588" 
d="M287 423l152 223h59l-188 -270l235 -376h-141l-164 258l-177 -258h-58l211 317l-211 329h141z" />
    <glyph glyph-name="Odieresis" unicode="&#xd6;" horiz-adv-x="618" 
d="M3 0v646h118v-599h258v599h117v-599h71v-129h-118v82h-446z" />
    <glyph glyph-name="Odieresis" unicode="&#x426;" horiz-adv-x="618" 
d="M3 0v646h118v-599h258v599h117v-599h71v-129h-118v82h-446z" />
    <glyph glyph-name="multiply" unicode="&#xd7;" horiz-adv-x="507" 
d="M9 446v199.999h118v-200c0 -36.667 10.667 -67 32 -91c24 -27.333 57 -41 99 -41l33 3h47v329h118v-646h-118v270h-105c-70 0 -125.667 18 -167 54c-38 32.667 -57 73.334 -57 122.001z" />
    <glyph glyph-name="multiply" unicode="&#x427;" horiz-adv-x="507" 
d="M9 446v199.999h118v-200c0 -36.667 10.667 -67 32 -91c24 -27.333 57 -41 99 -41l33 3h47v329h118v-646h-118v270h-105c-70 0 -125.667 18 -167 54c-38 32.667 -57 73.334 -57 122.001z" />
    <glyph glyph-name="Oslash" unicode="&#xd8;" horiz-adv-x="668" 
d="M255 646h117v-599h129v599h118v-646h-611v646h117v-599h130v599z" />
    <glyph glyph-name="Oslash" unicode="&#x428;" horiz-adv-x="668" 
d="M255 646h117v-599h129v599h118v-646h-611v646h117v-599h130v599z" />
    <glyph glyph-name="Ugrave" unicode="&#xd9;" horiz-adv-x="730" 
d="M251 646h118v-599h129v599h118v-599h70v-129h-117v82h-564v646h117v-599h129v599z" />
    <glyph glyph-name="Ugrave" unicode="&#x429;" horiz-adv-x="730" 
d="M251 646h118v-599h129v599h118v-599h70v-129h-117v82h-564v646h117v-599h129v599z" />
    <glyph glyph-name="Uacute" unicode="&#xda;" horiz-adv-x="658" 
d="M323 329h-47v-282h47l11 -1c48.667 0 87.334 15.667 116.001 47c26 28.667 39 63 39 103c0 37.333 -11 68.333 -33 93c-24.667 28 -58.334 42 -101.001 42zM6 599v47.001h270v-270h106c70.667 0 126.667 -19.333 168 -58c37.333 -34.667 56 -77.334 56 -128.001
s-18.667 -94 -56 -130c-42 -40 -98 -60 -168 -60h-223v599h-153z" />
    <glyph glyph-name="Uacute" unicode="&#x42a;" horiz-adv-x="658" 
d="M323 329h-47v-282h47l11 -1c48.667 0 87.334 15.667 116.001 47c26 28.667 39 63 39 103c0 37.333 -11 68.333 -33 93c-24.667 28 -58.334 42 -101.001 42zM6 599v47.001h270v-270h106c70.667 0 126.667 -19.333 168 -58c37.333 -34.667 56 -77.334 56 -128.001
s-18.667 -94 -56 -130c-42 -40 -98 -60 -168 -60h-223v599h-153z" />
    <glyph glyph-name="Ucircumflex" unicode="&#xdb;" horiz-adv-x="689" 
d="M229 0l-222.999 0.000976562v646h118v-270h105c71.333 0 127.666 -19.333 168.999 -58c36.667 -34.667 55 -77.334 55 -128.001s-18.667 -94 -56 -130c-42 -40 -98 -60 -168 -60zM171.001 47.001l10 -1c48.667 0 87.667 16 117 48c26.667 28.667 40 63 40 103
c0 36 -11.333 66.667 -34 92c-25.333 28 -59 42 -101 42l-32 -2h-47v-282h47zM523.001 -11.999v646h118v-646h-118z" />
    <glyph glyph-name="Ucircumflex" unicode="&#x42b;" horiz-adv-x="689" 
d="M229 0l-222.999 0.000976562v646h118v-270h105c71.333 0 127.666 -19.333 168.999 -58c36.667 -34.667 55 -77.334 55 -128.001s-18.667 -94 -56 -130c-42 -40 -98 -60 -168 -60zM171.001 47.001l10 -1c48.667 0 87.667 16 117 48c26.667 28.667 40 63 40 103
c0 36 -11.333 66.667 -34 92c-25.333 28 -59 42 -101 42l-32 -2h-47v-282h47zM523.001 -11.999v646h118v-646h-118z" />
    <glyph glyph-name="Udieresis" unicode="&#xdc;" horiz-adv-x="507" 
d="M174 329h-47.001v-282h47l11 -1c48.667 0 87.334 15.667 116.001 47c26 28 39 62.333 39 103c0 36.667 -11.333 67.667 -34 93c-25.333 28 -59 42 -101 42zM126.999 376l106 0.000976562c70.667 0 126.667 -19.333 168 -58c37.333 -34.667 56 -77.334 56 -128.001
s-18.667 -94 -56 -130c-42 -40 -98 -60 -168 -60h-224v646h118v-270z" />
    <glyph glyph-name="Udieresis" unicode="&#x42c;" horiz-adv-x="507" 
d="M174 329h-47.001v-282h47l11 -1c48.667 0 87.334 15.667 116.001 47c26 28 39 62.333 39 103c0 36.667 -11.333 67.667 -34 93c-25.333 28 -59 42 -101 42zM126.999 376l106 0.000976562c70.667 0 126.667 -19.333 168 -58c37.333 -34.667 56 -77.334 56 -128.001
s-18.667 -94 -56 -130c-42 -40 -98 -60 -168 -60h-224v646h118v-270z" />
    <glyph glyph-name="Yacute" unicode="&#xdd;" horiz-adv-x="658" 
d="M78 493l-35 12c13.333 33.333 41.333 64 84 92c50 32.667 104.333 49 163 49c99.333 0 178 -32 236 -96c54 -60 81 -137.667 81 -233s-27 -173 -81 -233c-57.333 -64 -136 -96 -236 -96c-78 0 -138.333 14 -181 42c-34 22.667 -67.667 63.667 -101 123l35 23
c19.333 -45.333 45 -79 77 -101c39.333 -26.667 92 -40 158 -40c59.333 0 108.666 23.333 147.999 70c42 50 63 116.667 63 200h-305v47h305c-6.66699 76 -29.667 136.167 -69 180.5s-86.666 66.5 -141.999 66.5c-49.333 0 -91.333 -10.333 -126 -31
c-29.333 -17.333 -54 -42.333 -74 -75z" />
    <glyph glyph-name="Yacute" unicode="&#x42d;" horiz-adv-x="658" 
d="M78 493l-35 12c13.333 33.333 41.333 64 84 92c50 32.667 104.333 49 163 49c99.333 0 178 -32 236 -96c54 -60 81 -137.667 81 -233s-27 -173 -81 -233c-57.333 -64 -136 -96 -236 -96c-78 0 -138.333 14 -181 42c-34 22.667 -67.667 63.667 -101 123l35 23
c19.333 -45.333 45 -79 77 -101c39.333 -26.667 92 -40 158 -40c59.333 0 108.666 23.333 147.999 70c42 50 63 116.667 63 200h-305v47h305c-6.66699 76 -29.667 136.167 -69 180.5s-86.666 66.5 -141.999 66.5c-49.333 0 -91.333 -10.333 -126 -31
c-29.333 -17.333 -54 -42.333 -74 -75z" />
    <glyph glyph-name="Thorn" unicode="&#xde;" horiz-adv-x="871" 
d="M191 305h-70v-305h-118v646h118v-294h70c0 83.333 28.667 154.333 86 213c60.667 62 137.667 93 231 93c96.667 0 174.667 -33.667 234 -101c55.333 -62.667 83 -138.334 83 -227.001v-26c0 -88.667 -27.667 -164 -83 -226c-60 -67.333 -138 -101 -234 -101
c-96.667 0 -174.667 33.667 -234 101c-55.333 62.667 -83 138.334 -83 227.001zM508 611c-75.333 0 -129.667 -34.001 -163 -102.001c-24 -49.333 -36 -113.333 -36 -192c0 -79.333 11.667 -143 35 -191c33.333 -68.667 88 -103 164 -103s130.667 34.333 164 103
c24 48.667 36 112.334 36 191.001c0 104 -20.333 181 -61 231c-34 42 -80.333 63 -139 63z" />
    <glyph glyph-name="Thorn" unicode="&#x42e;" horiz-adv-x="871" 
d="M191 305h-70v-305h-118v646h118v-294h70c0 83.333 28.667 154.333 86 213c60.667 62 137.667 93 231 93c96.667 0 174.667 -33.667 234 -101c55.333 -62.667 83 -138.334 83 -227.001v-26c0 -88.667 -27.667 -164 -83 -226c-60 -67.333 -138 -101 -234 -101
c-96.667 0 -174.667 33.667 -234 101c-55.333 62.667 -83 138.334 -83 227.001zM508 611c-75.333 0 -129.667 -34.001 -163 -102.001c-24 -49.333 -36 -113.333 -36 -192c0 -79.333 11.667 -143 35 -191c33.333 -68.667 88 -103 164 -103s130.667 34.333 164 103
c24 48.667 36 112.334 36 191.001c0 104 -20.333 181 -61 231c-34 42 -80.333 63 -139 63z" />
    <glyph glyph-name="germandbls" unicode="&#xdf;" horiz-adv-x="517" 
d="M301 317h47v282h-58c-49.333 0 -88.333 -15.667 -117 -47c-26 -28.667 -39 -63 -39 -103c0 -36.667 11.333 -67.667 34 -93c25.333 -28 59 -42 101 -42zM8 0l200 270c-60 6 -107.333 27.333 -142 64c-32 34 -48 73.667 -48 119c0 51.333 19 95.333 57 132
c42 40.667 98 61 168 61h223v-646h-118v270l-200 -270h-140z" />
    <glyph glyph-name="germandbls" unicode="&#x42f;" horiz-adv-x="517" 
d="M301 317h47v282h-58c-49.333 0 -88.333 -15.667 -117 -47c-26 -28.667 -39 -63 -39 -103c0 -36.667 11.333 -67.667 34 -93c25.333 -28 59 -42 101 -42zM8 0l200 270c-60 6 -107.333 27.333 -142 64c-32 34 -48 73.667 -48 119c0 51.333 19 95.333 57 132
c42 40.667 98 61 168 61h223v-646h-118v270l-200 -270h-140z" />
    <glyph glyph-name="agrave" unicode="&#xe0;" horiz-adv-x="416" 
d="M88 164h130l-47 177c-3.33301 10 -9.33301 15 -18 15s-14.667 -5 -18 -15zM3 0l100 363.999c6 20.667 16.667 36.834 32 48.501s32 17.5 50 17.5c18.667 0 35.5 -5.33301 50.5 -16s24.833 -26.667 29.5 -48l101 -366h-101l-37 129h-151l-35 -129h-39z" />
    <glyph glyph-name="agrave" unicode="&#x430;" horiz-adv-x="416" 
d="M88 164h130l-47 177c-3.33301 10 -9.33301 15 -18 15s-14.667 -5 -18 -15zM3 0l100 363.999c6 20.667 16.667 36.834 32 48.501s32 17.5 50 17.5c18.667 0 35.5 -5.33301 50.5 -16s24.833 -26.667 29.5 -48l101 -366h-101l-37 129h-151l-35 -129h-39z" />
    <glyph glyph-name="aacute" unicode="&#xe1;" horiz-adv-x="507" 
d="M233 23c42.667 0 75.999 22.333 99.999 67c19.333 36 29 76.333 29 121c0 44 -9.66699 84 -29 120c-24.667 45.333 -58 68 -100 68s-75.333 -22.333 -100 -67c-20 -36.667 -30 -77 -30 -121s9.66699 -84 29 -120c24.667 -45.333 58.334 -68 101.001 -68zM8.99902 211
l0.000976562 140.999c0 64.667 23 117 69 157c42 36.667 93.667 55 155 55c38 0 63.167 2.66699 75.5 8s18.5 14.333 18.5 27h105c-5.33301 -24 -18.833 -39.833 -40.5 -47.5s-66.834 -11.5 -135.501 -11.5c-43.333 0 -79 -17 -107 -51c-24 -29.333 -39.333 -67 -46 -113
c16.667 22 36 37.333 58 46s46 13 72 13c59.333 0 110.666 -20.333 153.999 -61c46 -43.333 69 -97.666 69 -162.999c0 -64.667 -23 -118.667 -69 -162c-43.333 -40.667 -94.666 -61 -153.999 -61c-60 0 -111.667 20.333 -155 61c-46 43.333 -69 97.333 -69 162z" />
    <glyph glyph-name="aacute" unicode="&#x431;" horiz-adv-x="507" 
d="M233 23c42.667 0 75.999 22.333 99.999 67c19.333 36 29 76.333 29 121c0 44 -9.66699 84 -29 120c-24.667 45.333 -58 68 -100 68s-75.333 -22.333 -100 -67c-20 -36.667 -30 -77 -30 -121s9.66699 -84 29 -120c24.667 -45.333 58.334 -68 101.001 -68zM8.99902 211
l0.000976562 140.999c0 64.667 23 117 69 157c42 36.667 93.667 55 155 55c38 0 63.167 2.66699 75.5 8s18.5 14.333 18.5 27h105c-5.33301 -24 -18.833 -39.833 -40.5 -47.5s-66.834 -11.5 -135.501 -11.5c-43.333 0 -79 -17 -107 -51c-24 -29.333 -39.333 -67 -46 -113
c16.667 22 36 37.333 58 46s46 13 72 13c59.333 0 110.666 -20.333 153.999 -61c46 -43.333 69 -97.666 69 -162.999c0 -64.667 -23 -118.667 -69 -162c-43.333 -40.667 -94.666 -61 -153.999 -61c-60 0 -111.667 20.333 -155 61c-46 43.333 -69 97.333 -69 162z" />
    <glyph glyph-name="acircumflex" unicode="&#xe2;" horiz-adv-x="366" 
d="M244 227c25.333 -10 44.833 -25 58.5 -45s20.5 -41.667 20.5 -65c0 -32 -12.167 -59.5 -36.5 -82.5s-58.5 -34.5 -102.5 -34.5h-176v423h164c42 0 75.333 -10.667 100 -32s37 -46.333 37 -75c0 -18 -5.5 -34.833 -16.5 -50.5s-27.167 -28.5 -48.5 -38.5zM149 247
c21.333 0 38.166 6.5 50.499 19.5s18.5 28.833 18.5 47.5c0 19.333 -6.66699 36 -20 50c-15.333 16 -35.666 24 -60.999 24h-35v-141h47zM102 211v-176h47c28 0 49.5 8.66699 64.5 26s22.5 38 22.5 62s-7 44 -21 60c-16 18.667 -38 28 -66 28h-47z" />
    <glyph glyph-name="acircumflex" unicode="&#x432;" horiz-adv-x="366" 
d="M244 227c25.333 -10 44.833 -25 58.5 -45s20.5 -41.667 20.5 -65c0 -32 -12.167 -59.5 -36.5 -82.5s-58.5 -34.5 -102.5 -34.5h-176v423h164c42 0 75.333 -10.667 100 -32s37 -46.333 37 -75c0 -18 -5.5 -34.833 -16.5 -50.5s-27.167 -28.5 -48.5 -38.5zM149 247
c21.333 0 38.166 6.5 50.499 19.5s18.5 28.833 18.5 47.5c0 19.333 -6.66699 36 -20 50c-15.333 16 -35.666 24 -60.999 24h-35v-141h47zM102 211v-176h47c28 0 49.5 8.66699 64.5 26s22.5 38 22.5 62s-7 44 -21 60c-16 18.667 -38 28 -66 28h-47z" />
    <glyph glyph-name="atilde" unicode="&#xe3;" horiz-adv-x="295" 
d="M4 341c0 24 8.33301 43.667 25 59s39.667 23 69 23h153v-35h-118c-23.333 0 -35 -12 -35 -36v-352h-94v341z" />
    <glyph glyph-name="atilde" unicode="&#x433;" horiz-adv-x="295" 
d="M4 341c0 24 8.33301 43.667 25 59s39.667 23 69 23h153v-35h-118c-23.333 0 -35 -12 -35 -36v-352h-94v341z" />
    <glyph glyph-name="adieresis" unicode="&#xe4;" horiz-adv-x="538" 
d="M102 0v-59.001h-94v94h59l97 329c5.33301 20.667 15.833 36.834 31.5 48.501s32.167 17.5 49.5 17.5c18.667 0 35.5 -5.33301 50.5 -16s25.167 -26.667 30.5 -48l93 -331h70v-94h-94v59h-293zM196 340.999l-82 -306h199l-82 306c-2 10 -8 15 -18 15
c-9.33301 0 -15 -5 -17 -15z" />
    <glyph glyph-name="adieresis" unicode="&#x434;" horiz-adv-x="538" 
d="M102 0v-59.001h-94v94h59l97 329c5.33301 20.667 15.833 36.834 31.5 48.501s32.167 17.5 49.5 17.5c18.667 0 35.5 -5.33301 50.5 -16s25.167 -26.667 30.5 -48l93 -331h70v-94h-94v59h-293zM196 340.999l-82 -306h199l-82 306c-2 10 -8 15 -18 15
c-9.33301 0 -15 -5 -17 -15z" />
    <glyph glyph-name="aring" unicode="&#xe5;" horiz-adv-x="346" 
d="M9 341c0 24 8.33301 43.667 25 59s39.667 23 69 23h200v-35h-164c-24 0 -36 -12 -36 -36v-117h165v-35h-165v-130c0 -23.333 12 -35 36 -35h164v-35h-200c-28.667 0 -51.5 7.5 -68.5 22.5s-25.5 34.833 -25.5 59.5v259z" />
    <glyph glyph-name="aring" unicode="&#x435;" horiz-adv-x="346" 
d="M9 341c0 24 8.33301 43.667 25 59s39.667 23 69 23h200v-35h-164c-24 0 -36 -12 -36 -36v-117h165v-35h-165v-130c0 -23.333 12 -35 36 -35h164v-35h-200c-28.667 0 -51.5 7.5 -68.5 22.5s-25.5 34.833 -25.5 59.5v259z" />
    <glyph glyph-name="ae" unicode="&#xe6;" horiz-adv-x="607" 
d="M330 423v-187l152 187h47l-121 -161l157 -262h-118l-117 204v-204h-94l-1 204l-117 -204h-117l156 262l-121 161h47l153 -188v188h94z" />
    <glyph glyph-name="ae" unicode="&#x436;" horiz-adv-x="607" 
d="M330 423v-187l152 187h47l-121 -161l157 -262h-118l-117 204v-204h-94l-1 204l-117 -204h-117l156 262l-121 161h47l153 -188v188h94z" />
    <glyph glyph-name="ccedilla" unicode="&#xe7;" horiz-adv-x="336" 
d="M212 230c26 -10 45.999 -25.167 59.999 -45.5s21 -42.5 21 -66.5c0 -32 -11.667 -59 -35 -81c-26 -24.667 -61 -37 -105 -37h-152v35h117c28 0 49.667 8.66699 65 26s23 38 23 62s-7 44 -21 60c-16.667 18.667 -39 28 -67 28h-82v36h82
c22.667 0 39.834 6.33301 51.501 19s17.5 28.667 17.5 48c0 20 -6.33301 36.667 -19 50c-15.333 16 -36 24 -62 24h-105v35h141c40.667 0 74 -11 100 -33c24 -20 36 -43.667 36 -71c0 -17.333 -5.5 -34 -16.5 -50s-27.5 -29 -49.5 -39z" />
    <glyph glyph-name="ccedilla" unicode="&#x437;" horiz-adv-x="336" 
d="M212 230c26 -10 45.999 -25.167 59.999 -45.5s21 -42.5 21 -66.5c0 -32 -11.667 -59 -35 -81c-26 -24.667 -61 -37 -105 -37h-152v35h117c28 0 49.667 8.66699 65 26s23 38 23 62s-7 44 -21 60c-16.667 18.667 -39 28 -67 28h-82v36h82
c22.667 0 39.834 6.33301 51.501 19s17.5 28.667 17.5 48c0 20 -6.33301 36.667 -19 50c-15.333 16 -36 24 -62 24h-105v35h141c40.667 0 74 -11 100 -33c24 -20 36 -43.667 36 -71c0 -17.333 -5.5 -34 -16.5 -50s-27.5 -29 -49.5 -39z" />
    <glyph glyph-name="egrave" unicode="&#xe8;" horiz-adv-x="387" 
d="M301 305c0 20 -3.66504 30 -10.998 30l-6 -2c-2 -0.666992 -4 -2 -6 -4l-200 -294c-8 -14 -16.333 -24.167 -25 -30.5s-16.334 -9.5 -23.001 -9.5c-14.667 0 -22 9.33301 -22 28v400h35v-282l153 223c11.333 19.333 25 34.833 41 46.5s31.333 17.5 46 17.5
c15.333 0 28.166 -6.33301 38.499 -19s15.5 -31.667 15.5 -57v-352h-36v305z" />
    <glyph glyph-name="egrave" unicode="&#x438;" horiz-adv-x="387" 
d="M301 305c0 20 -3.66504 30 -10.998 30l-6 -2c-2 -0.666992 -4 -2 -6 -4l-200 -294c-8 -14 -16.333 -24.167 -25 -30.5s-16.334 -9.5 -23.001 -9.5c-14.667 0 -22 9.33301 -22 28v400h35v-282l153 223c11.333 19.333 25 34.833 41 46.5s31.333 17.5 46 17.5
c15.333 0 28.166 -6.33301 38.499 -19s15.5 -31.667 15.5 -57v-352h-36v305z" />
    <glyph glyph-name="eacute" unicode="&#xe9;" horiz-adv-x="387" 
d="M301 305c0 20 -3.66504 30 -10.998 30l-6 -2c-2 -0.666992 -4 -2 -6 -4l-200 -294c-8 -14 -16.333 -24.167 -25 -30.5s-16.334 -9.5 -23.001 -9.5c-14.667 0 -22 9.33301 -22 28v400h35v-282l153 223c11.333 19.333 25 34.833 41 46.5s31.333 17.5 46 17.5
c15.333 0 28.166 -6.33301 38.499 -19s15.5 -31.667 15.5 -57v-352h-36v305zM90.002 458v35h129v-35h-129z" />
    <glyph glyph-name="eacute" unicode="&#x439;" horiz-adv-x="387" 
d="M301 305c0 20 -3.66504 30 -10.998 30l-6 -2c-2 -0.666992 -4 -2 -6 -4l-200 -294c-8 -14 -16.333 -24.167 -25 -30.5s-16.334 -9.5 -23.001 -9.5c-14.667 0 -22 9.33301 -22 28v400h35v-282l153 223c11.333 19.333 25 34.833 41 46.5s31.333 17.5 46 17.5
c15.333 0 28.166 -6.33301 38.499 -19s15.5 -31.667 15.5 -57v-352h-36v305zM90.002 458v35h129v-35h-129z" />
    <glyph glyph-name="ecircumflex" unicode="&#xea;" horiz-adv-x="407" 
d="M100 236l188 188h53l-162 -162l185 -262h-123l-141 204v-204h-94v423h94v-187z" />
    <glyph glyph-name="ecircumflex" unicode="&#x43a;" horiz-adv-x="407" 
d="M100 236l188 188h53l-162 -162l185 -262h-123l-141 204v-204h-94v423h94v-187z" />
    <glyph glyph-name="edieresis" unicode="&#xeb;" horiz-adv-x="416" 
d="M42 0l-39 -0.000976562l100 364c6 20.667 16.667 36.834 32 48.501s32 17.5 50 17.5c18.667 0 35.5 -5.33301 50.5 -16s24.833 -26.667 29.5 -48l101 -366h-101l-94 341c-3.33301 10 -9.33301 15 -18 15s-14.667 -5 -18 -15z" />
    <glyph glyph-name="edieresis" unicode="&#x43b;" horiz-adv-x="416" 
d="M42 0l-39 -0.000976562l100 364c6 20.667 16.667 36.834 32 48.501s32 17.5 50 17.5c18.667 0 35.5 -5.33301 50.5 -16s24.833 -26.667 29.5 -48l101 -366h-101l-94 341c-3.33301 10 -9.33301 15 -18 15s-14.667 -5 -18 -15z" />
    <glyph glyph-name="igrave" unicode="&#xec;" horiz-adv-x="466" 
d="M200 23c-5.33301 -18.667 -11.667 -28.001 -19 -28.001c-8 0 -17.333 13.333 -28 40l-93 306c-2 2 -4 3.33301 -6 4s-3.66699 1.33398 -5 2.00098c-4 0 -6.83301 -2 -8.5 -6s-3.16699 -8 -4.5 -12v-329h-35v352c0 24 6.66699 42.333 20 55s29.333 19 48 19
c16 0 31 -4.5 45 -13.5s23.333 -21.167 28 -36.5l69 -216l72 216c7.33301 16 18 28.333 32 37s28.667 13 44 13c18.667 0 34.167 -6.16699 46.5 -18.5s18.5 -30.833 18.5 -55.5v-352h-94v329c-2.66699 14 -7.33398 21 -14.001 21c-5.33301 0 -8.66602 -3 -9.99902 -9z" />
    <glyph glyph-name="igrave" unicode="&#x43c;" horiz-adv-x="466" 
d="M200 23c-5.33301 -18.667 -11.667 -28.001 -19 -28.001c-8 0 -17.333 13.333 -28 40l-93 306c-2 2 -4 3.33301 -6 4s-3.66699 1.33398 -5 2.00098c-4 0 -6.83301 -2 -8.5 -6s-3.16699 -8 -4.5 -12v-329h-35v352c0 24 6.66699 42.333 20 55s29.333 19 48 19
c16 0 31 -4.5 45 -13.5s23.333 -21.167 28 -36.5l69 -216l72 216c7.33301 16 18 28.333 32 37s28.667 13 44 13c18.667 0 34.167 -6.16699 46.5 -18.5s18.5 -30.833 18.5 -55.5v-352h-94v329c-2.66699 14 -7.33398 21 -14.001 21c-5.33301 0 -8.66602 -3 -9.99902 -9z" />
    <glyph glyph-name="iacute" unicode="&#xed;" horiz-adv-x="407" 
d="M6 423h94v-165h165v165h94v-423h-94v223h-165v-223h-94v423z" />
    <glyph glyph-name="iacute" unicode="&#x43d;" horiz-adv-x="407" 
d="M6 423h94v-165h165v165h94v-423h-94v223h-165v-223h-94v423z" />
    <glyph glyph-name="icircumflex" unicode="&#xee;" horiz-adv-x="507" 
d="M233 23c42.667 0 75.999 22.333 99.999 67c19.333 36 29 76.333 29 121c0 44 -9.66699 84 -29 120c-24.667 45.333 -58 68 -100 68s-75.333 -22.333 -100 -67c-20 -36.667 -30 -77 -30 -121s9.66699 -84 29 -120c24.667 -45.333 58.334 -68 101.001 -68zM232.999 435
c59.333 0 110.666 -20.333 153.999 -61c46 -43.333 69 -97.666 69 -162.999c0 -64.667 -23 -118.667 -69 -162c-43.333 -40.667 -94.666 -61 -153.999 -61c-60 0 -111.667 20.333 -155 61c-46 43.333 -69 97.333 -69 162c0 65.333 23 119.666 69 162.999
c43.333 40.667 95 61 155 61z" />
    <glyph glyph-name="icircumflex" unicode="&#x43e;" horiz-adv-x="507" 
d="M233 23c42.667 0 75.999 22.333 99.999 67c19.333 36 29 76.333 29 121c0 44 -9.66699 84 -29 120c-24.667 45.333 -58 68 -100 68s-75.333 -22.333 -100 -67c-20 -36.667 -30 -77 -30 -121s9.66699 -84 29 -120c24.667 -45.333 58.334 -68 101.001 -68zM232.999 435
c59.333 0 110.666 -20.333 153.999 -61c46 -43.333 69 -97.666 69 -162.999c0 -64.667 -23 -118.667 -69 -162c-43.333 -40.667 -94.666 -61 -153.999 -61c-60 0 -111.667 20.333 -155 61c-46 43.333 -69 97.333 -69 162c0 65.333 23 119.666 69 162.999
c43.333 40.667 95 61 155 61z" />
    <glyph glyph-name="idieresis" unicode="&#xef;" horiz-adv-x="407" 
d="M6 423h270c24.667 0 44.667 -6.66699 60 -20s23 -34 23 -62v-341h-94v352c0 14.667 -4 25 -12 31c-2.66699 2 -6.66699 3.66699 -12 5h-141v-388h-94v423z" />
    <glyph glyph-name="idieresis" unicode="&#x43f;" horiz-adv-x="407" 
d="M6 423h270c24.667 0 44.667 -6.66699 60 -20s23 -34 23 -62v-341h-94v352c0 14.667 -4 25 -12 31c-2.66699 2 -6.66699 3.66699 -12 5h-141v-388h-94v423z" />
    <glyph glyph-name="eth" unicode="&#xf0;" horiz-adv-x="446" 
d="M179 388h-83v-341c10 -3.33301 21.833 -6.33301 35.5 -9s24.834 -4 33.501 -4c45.333 0 81 17.667 107 53c24 32.667 36 74 36 124c0 42 -10.333 80.333 -31 115c-24.667 41.333 -57.334 62 -98.001 62zM402 211c0 -50 -20.666 -96 -61.999 -138
c-46.667 -47.333 -104 -71 -172 -71c-24 0 -48 3.33301 -72 10v-200h-94v611h177c56.667 0 106.667 -19.5 150 -58.5s67.666 -90.167 72.999 -153.5z" />
    <glyph glyph-name="eth" unicode="&#x440;" horiz-adv-x="446" 
d="M179 388h-83v-341c10 -3.33301 21.833 -6.33301 35.5 -9s24.834 -4 33.501 -4c45.333 0 81 17.667 107 53c24 32.667 36 74 36 124c0 42 -10.333 80.333 -31 115c-24.667 41.333 -57.334 62 -98.001 62zM402 211c0 -50 -20.666 -96 -61.999 -138
c-46.667 -47.333 -104 -71 -172 -71c-24 0 -48 3.33301 -72 10v-200h-94v611h177c56.667 0 106.667 -19.5 150 -58.5s67.666 -90.167 72.999 -153.5z" />
    <glyph glyph-name="ntilde" unicode="&#xf1;" 
d="M356 117l24.0029 -11c-12 -35.333 -33.333 -63.833 -64 -85.5s-64.334 -32.5 -101.001 -32.5c-58 0 -107.667 23 -149 69s-62 101.333 -62 166c0 59.333 20.5 109.5 61.5 150.5s90.833 61.5 149.5 61.5c24.667 0 53.667 -10.833 87 -32.5s55.333 -46.167 66 -73.5
l-23 -12c-12.667 24 -30.834 43.667 -54.501 59s-48.834 23 -75.501 23c-33.333 0 -61.166 -18.333 -83.499 -55s-33.5 -77 -33.5 -121c0 -50 11.167 -95.833 33.5 -137.5s50.166 -62.5 83.499 -62.5s61.333 8.33301 84 25c18.667 13.333 37.667 36.333 57 69z" />
    <glyph glyph-name="ntilde" unicode="&#x441;" 
d="M356 117l24.0029 -11c-12 -35.333 -33.333 -63.833 -64 -85.5s-64.334 -32.5 -101.001 -32.5c-58 0 -107.667 23 -149 69s-62 101.333 -62 166c0 59.333 20.5 109.5 61.5 150.5s90.833 61.5 149.5 61.5c24.667 0 53.667 -10.833 87 -32.5s55.333 -46.167 66 -73.5
l-23 -12c-12.667 24 -30.834 43.667 -54.501 59s-48.834 23 -75.501 23c-33.333 0 -61.166 -18.333 -83.499 -55s-33.5 -77 -33.5 -121c0 -50 11.167 -95.833 33.5 -137.5s50.166 -62.5 83.499 -62.5s61.333 8.33301 84 25c18.667 13.333 37.667 36.333 57 69z" />
    <glyph glyph-name="ograve" unicode="&#xf2;" horiz-adv-x="305" 
d="M2 423h259v-35h-82v-388h-94v388h-83v35z" />
    <glyph glyph-name="ograve" unicode="&#x442;" horiz-adv-x="305" 
d="M2 423h259v-35h-82v-388h-94v388h-83v35z" />
    <glyph glyph-name="oacute" unicode="&#xf3;" horiz-adv-x="446" 
d="M2 423h102l122 -306l129 306h47l-259 -611h-47l76 183z" />
    <glyph glyph-name="oacute" unicode="&#x443;" horiz-adv-x="446" 
d="M2 423h102l122 -306l129 306h47l-259 -611h-47l76 183z" />
    <glyph glyph-name="ocircumflex" unicode="&#xf4;" horiz-adv-x="648" 
d="M350 423l24 0.000976562c56.667 0 106.667 -19.5 150 -58.5s67.666 -90.167 72.999 -153.5c0 -52 -17 -99.667 -51 -143c-36.667 -46.667 -80.334 -70 -131.001 -70c-22 0 -43.667 4.66699 -65 14v-200h-94v200c-11.333 -4.66699 -22.166 -8.16699 -32.499 -10.5
s-21.5 -3.5 -33.5 -3.5c-50.667 0 -93.5 22.667 -128.5 68s-52.5 93.666 -52.5 144.999c5.33301 62 29.833 112.833 73.5 152.5s93.834 59.5 150.501 59.5h23v176h94v-176zM256 388.001l-23 -0.000976562c-40.667 0 -73.334 -20.667 -98.001 -62
c-21.333 -35.333 -32 -73.666 -32 -114.999c0 -46 8 -86 24 -120c18.667 -40 44.334 -60 77.001 -60c14.667 0 32 5.33301 52 16v341zM374 388h-23.999v-341c20 -10.667 37 -16 51 -16c32 0 57.667 19.667 77 59c16.667 34.667 25 75 25 121c0 42 -10.333 80.333 -31 115
c-24.667 41.333 -57.334 62 -98.001 62z" />
    <glyph glyph-name="ocircumflex" unicode="&#x444;" horiz-adv-x="648" 
d="M350 423l24 0.000976562c56.667 0 106.667 -19.5 150 -58.5s67.666 -90.167 72.999 -153.5c0 -52 -17 -99.667 -51 -143c-36.667 -46.667 -80.334 -70 -131.001 -70c-22 0 -43.667 4.66699 -65 14v-200h-94v200c-11.333 -4.66699 -22.166 -8.16699 -32.499 -10.5
s-21.5 -3.5 -33.5 -3.5c-50.667 0 -93.5 22.667 -128.5 68s-52.5 93.666 -52.5 144.999c5.33301 62 29.833 112.833 73.5 152.5s93.834 59.5 150.501 59.5h23v176h94v-176zM256 388.001l-23 -0.000976562c-40.667 0 -73.334 -20.667 -98.001 -62
c-21.333 -35.333 -32 -73.666 -32 -114.999c0 -46 8 -86 24 -120c18.667 -40 44.334 -60 77.001 -60c14.667 0 32 5.33301 52 16v341zM374 388h-23.999v-341c20 -10.667 37 -16 51 -16c32 0 57.667 19.667 77 59c16.667 34.667 25 75 25 121c0 42 -10.333 80.333 -31 115
c-24.667 41.333 -57.334 62 -98.001 62z" />
    <glyph glyph-name="otilde" unicode="&#xf5;" horiz-adv-x="446" 
d="M14 423h112l96 -147l116 147h52l-145 -182l157 -241l-113 -1l-106 163l-130 -163l-51 1l159 199z" />
    <glyph glyph-name="otilde" unicode="&#x445;" horiz-adv-x="446" 
d="M14 423h112l96 -147l116 147h52l-145 -182l157 -241l-113 -1l-106 163l-130 -163l-51 1l159 199z" />
    <glyph glyph-name="odieresis" unicode="&#xf6;" horiz-adv-x="477" 
d="M335 0l-247 0.000976562c-24.667 0 -44 6 -58 18c-16 14 -24 35.333 -24 64v341h94v-353c0 -17.333 5.33301 -28.333 16 -33c1.33301 -0.666992 4 -1.33398 8 -2.00098h141v388h94v-388h70v-94h-94v59z" />
    <glyph glyph-name="odieresis" unicode="&#x446;" horiz-adv-x="477" 
d="M335 0l-247 0.000976562c-24.667 0 -44 6 -58 18c-16 14 -24 35.333 -24 64v341h94v-353c0 -17.333 5.33301 -28.333 16 -33c1.33301 -0.666992 4 -1.33398 8 -2.00098h141v388h94v-388h70v-94h-94v59z" />
    <glyph glyph-name="divide" unicode="&#xf7;" horiz-adv-x="376" 
d="M233 0v176h-71c-48.667 0 -87 13 -115 39c-25.333 23.333 -38 52.333 -38 87v121h94v-125c0 -24 6.83301 -44.5 20.5 -61.5s34.5 -25.5 62.5 -25.5h47v212h94v-423h-94z" />
    <glyph glyph-name="divide" unicode="&#x447;" horiz-adv-x="376" 
d="M233 0v176h-71c-48.667 0 -87 13 -115 39c-25.333 23.333 -38 52.333 -38 87v121h94v-125c0 -24 6.83301 -44.5 20.5 -61.5s34.5 -25.5 62.5 -25.5h47v212h94v-423h-94z" />
    <glyph glyph-name="oslash" unicode="&#xf8;" horiz-adv-x="568" 
d="M216 35l0.000976562 388h94v-388h94c3.33301 0 5.66602 0.333008 6.99902 1c11.333 4.66699 17 16 17 34v353h94v-341c0 -28 -7.5 -48.667 -22.5 -62s-35.167 -20 -60.5 -20h-352c-26 -0 -46.167 6.33301 -60.5 19s-21.5 33.667 -21.5 63v341h94v-353
c0 -11.333 2.33301 -20 7 -26c2.66699 -3.33301 8 -6.33301 16 -9h94z" />
    <glyph glyph-name="oslash" unicode="&#x448;" horiz-adv-x="568" 
d="M216 35l0.000976562 388h94v-388h94c3.33301 0 5.66602 0.333008 6.99902 1c11.333 4.66699 17 16 17 34v353h94v-341c0 -28 -7.5 -48.667 -22.5 -62s-35.167 -20 -60.5 -20h-352c-26 -0 -46.167 6.33301 -60.5 19s-21.5 33.667 -21.5 63v341h94v-353
c0 -11.333 2.33301 -20 7 -26c2.66699 -3.33301 8 -6.33301 16 -9h94z" />
    <glyph glyph-name="ugrave" unicode="&#xf9;" horiz-adv-x="638" 
d="M424 35v388h94v-388h70v-94h-94v59h-411c-26 -0 -46.167 6.33301 -60.5 19s-21.5 33.667 -21.5 63v341h94v-353c0 -11.333 2.33301 -20 7 -26c2.66699 -3.33301 8 -6.33301 16 -9h94v388h94v-388h118z" />
    <glyph glyph-name="ugrave" unicode="&#x449;" horiz-adv-x="638" 
d="M424 35v388h94v-388h70v-94h-94v59h-411c-26 -0 -46.167 6.33301 -60.5 19s-21.5 33.667 -21.5 63v341h94v-353c0 -11.333 2.33301 -20 7 -26c2.66699 -3.33301 8 -6.33301 16 -9h94v388h94v-388h118z" />
    <glyph glyph-name="uacute" unicode="&#xfa;" horiz-adv-x="477" 
d="M291 0h-176v388h-106v35h200v-176h71c47.333 0 85 -13.333 113 -40c25.333 -24 38 -53 38 -87c0 -32 -11.667 -59.333 -35 -82c-26 -25.333 -61 -38 -105 -38zM209 35h47c28 0 49.667 8.66699 65 26s23 38 23 62s-7 44 -21 60c-16.667 18.667 -39 28 -67 28h-47v-176z
" />
    <glyph glyph-name="uacute" unicode="&#x44a;" horiz-adv-x="477" 
d="M291 0h-176v388h-106v35h200v-176h71c47.333 0 85 -13.333 113 -40c25.333 -24 38 -53 38 -87c0 -32 -11.667 -59.333 -35 -82c-26 -25.333 -61 -38 -105 -38zM209 35h47c28 0 49.667 8.66699 65 26s23 38 23 62s-7 44 -21 60c-16.667 18.667 -39 28 -67 28h-47v-176z
" />
    <glyph glyph-name="ucircumflex" unicode="&#xfb;" horiz-adv-x="548" 
d="M100 35h47c28 0 49.667 8.66699 65 26s23 38 23 62s-7 44 -21 60c-16.667 18.667 -39 28 -67 28h-47v-176zM6 0v423h94v-176h71c47.333 0 85 -13.333 113 -40c25.333 -24 38 -53 38 -87c0 -32 -11.667 -59.333 -35 -82c-26 -25.333 -61 -38 -105 -38h-176zM406 0v423h94
v-423h-94z" />
    <glyph glyph-name="ucircumflex" unicode="&#x44b;" horiz-adv-x="548" 
d="M100 35h47c28 0 49.667 8.66699 65 26s23 38 23 62s-7 44 -21 60c-16.667 18.667 -39 28 -67 28h-47v-176zM6 0v423h94v-176h71c47.333 0 85 -13.333 113 -40c25.333 -24 38 -53 38 -87c0 -32 -11.667 -59.333 -35 -82c-26 -25.333 -61 -38 -105 -38h-176zM406 0v423h94
v-423h-94z" />
    <glyph glyph-name="udieresis" unicode="&#xfc;" horiz-adv-x="366" 
d="M184 0h-176v423h94v-176h70c47.333 0 85 -13.333 113 -40c25.333 -24 38 -53 38 -87c0 -32 -11.667 -59.333 -35 -82c-26 -25.333 -60.667 -38 -104 -38zM149 211h-47v-176h47c28 0 49.5 8.66699 64.5 26s22.5 38 22.5 62s-7 44 -21 60c-16 18.667 -38 28 -66 28z" />
    <glyph glyph-name="udieresis" unicode="&#x44c;" horiz-adv-x="366" 
d="M184 0h-176v423h94v-176h70c47.333 0 85 -13.333 113 -40c25.333 -24 38 -53 38 -87c0 -32 -11.667 -59.333 -35 -82c-26 -25.333 -60.667 -38 -104 -38zM149 211h-47v-176h47c28 0 49.5 8.66699 64.5 26s22.5 38 22.5 62s-7 44 -21 60c-16 18.667 -38 28 -66 28z" />
    <glyph glyph-name="yacute" unicode="&#xfd;" 
d="M168 23c31.333 0 58.833 18.332 82.5 54.999s35.5 77.334 35.5 122.001h-200v35h200c0 41.333 -11.5 79 -34.5 113s-50.833 51 -83.5 51c-26 0 -50.833 -7.66699 -74.5 -23s-41.834 -35 -54.501 -59l-23 12c10.667 28 32.334 52.667 65.001 74s61.667 32 87 32
c59.333 0 109.5 -20.5 150.5 -61.5s61.5 -91.167 61.5 -150.5c0 -64.667 -20.667 -120 -62 -166s-91.333 -69 -150 -69c-36 0 -69.5 10.833 -100.5 32.5s-52.167 50.167 -63.5 85.5l23 11c20.667 -32.667 39.667 -55.667 57 -69c22.667 -16.667 50.667 -25 84 -25z" />
    <glyph glyph-name="yacute" unicode="&#x44d;" 
d="M168 23c31.333 0 58.833 18.332 82.5 54.999s35.5 77.334 35.5 122.001h-200v35h200c0 41.333 -11.5 79 -34.5 113s-50.833 51 -83.5 51c-26 0 -50.833 -7.66699 -74.5 -23s-41.834 -35 -54.501 -59l-23 12c10.667 28 32.334 52.667 65.001 74s61.667 32 87 32
c59.333 0 109.5 -20.5 150.5 -61.5s61.5 -91.167 61.5 -150.5c0 -64.667 -20.667 -120 -62 -166s-91.333 -69 -150 -69c-36 0 -69.5 10.833 -100.5 32.5s-52.167 50.167 -63.5 85.5l23 11c20.667 -32.667 39.667 -55.667 57 -69c22.667 -16.667 50.667 -25 84 -25z" />
    <glyph glyph-name="thorn" unicode="&#xfe;" horiz-adv-x="639" 
d="M369 23c42.667 0 76 22.333 100 67c19.333 36 29 76.333 29 121c0 44 -9.66699 84 -29 120c-24.667 45.333 -58 68 -100 68c-42.667 0 -76 -22.333 -100 -67c-19.333 -36 -29 -76.333 -29 -121c0 -44 9.66699 -84 29 -120c24.667 -45.333 58 -68 100 -68zM99 235
l47 -0.000976562c7.33301 60 32.333 108.333 75 145s92 55 148 55c59.333 0 110.666 -20.333 153.999 -61c46 -43.333 69 -97.666 69 -162.999c0 -64.667 -23 -118.667 -69 -162c-43.333 -40.667 -94.666 -61 -153.999 -61c-57.333 0 -107 19 -149 57
c-44 40 -68.667 91.667 -74 155h-47v-200h-94v423h94v-188z" />
    <glyph glyph-name="thorn" unicode="&#x44e;" horiz-adv-x="639" 
d="M369 23c42.667 0 76 22.333 100 67c19.333 36 29 76.333 29 121c0 44 -9.66699 84 -29 120c-24.667 45.333 -58 68 -100 68c-42.667 0 -76 -22.333 -100 -67c-19.333 -36 -29 -76.333 -29 -121c0 -44 9.66699 -84 29 -120c24.667 -45.333 58 -68 100 -68zM99 235
l47 -0.000976562c7.33301 60 32.333 108.333 75 145s92 55 148 55c59.333 0 110.666 -20.333 153.999 -61c46 -43.333 69 -97.666 69 -162.999c0 -64.667 -23 -118.667 -69 -162c-43.333 -40.667 -94.666 -61 -153.999 -61c-57.333 0 -107 19 -149 57
c-44 40 -68.667 91.667 -74 155h-47v-200h-94v423h94v-188z" />
    <glyph glyph-name="ydieresis" unicode="&#xff;" horiz-adv-x="397" 
d="M171 423l176 0.000976562v-423h-94v176l-129 -176h-118l141 188c-36 0 -64.833 12.167 -86.5 36.5s-32.5 52.166 -32.5 83.499c0 32 11.333 58.333 34 79c26 24 62.333 36 109 36zM206 388.001c-28 0 -49.833 -8.66699 -65.5 -26s-23.5 -38.333 -23.5 -63
c0 -24 7.83301 -44.667 23.5 -62s37.5 -26 65.5 -26h47v177h-47z" />
    <glyph glyph-name="ydieresis" unicode="&#x44f;" horiz-adv-x="397" 
d="M171 423l176 0.000976562v-423h-94v176l-129 -176h-118l141 188c-36 0 -64.833 12.167 -86.5 36.5s-32.5 52.166 -32.5 83.499c0 32 11.333 58.333 34 79c26 24 62.333 36 109 36zM206 388.001c-28 0 -49.833 -8.66699 -65.5 -26s-23.5 -38.333 -23.5 -63
c0 -24 7.83301 -44.667 23.5 -62s37.5 -26 65.5 -26h47v177h-47z" />
    <glyph glyph-name="Ydieresis" unicode="&#x178;" horiz-adv-x="397" 
d="M171 423l176 0.000976562v-423h-94v176l-129 -176h-118l141 188c-36 0 -64.833 12.167 -86.5 36.5s-32.5 52.166 -32.5 83.499c0 32 11.333 58.333 34 79c26 24 62.333 36 109 36zM206 388.001c-28 0 -49.833 -8.66699 -65.5 -26s-23.5 -38.333 -23.5 -63
c0 -24 7.83301 -44.667 23.5 -62s37.5 -26 65.5 -26h47v177h-47z" />
    <glyph glyph-name="circumflex" unicode="&#x2c6;" horiz-adv-x="264" 
d="M119 641l7 -2l6 -3l7 -6l83 -87h-46l-8 7l-17 13l-16 13l-9 5l-7 3l-10 1l-9 -2l-8 -4l-12 -8l-13 -10l-12 -11l-9 -7h-45l84 88l7 6l9 4l10 1z" />
    <glyph glyph-name="tilde" unicode="&#x2dc;" horiz-adv-x="285" 
d="M239 587c-9.33301 -24.667 -20.166 -42.835 -32.499 -54.502s-24.833 -17.5 -37.5 -17.5c-12 0 -29.667 5.5 -53 16.5s-40 16.5 -50 16.5c-15.333 0 -28.333 -6.33301 -39 -19c-6.66699 -10.667 -13 -16 -19 -16c-4 4 -6 6.66699 -6 8l2 8
c11.333 24.667 22.666 41.834 33.999 51.501s24 14.5 38 14.5c10.667 0 31.667 -7 63 -21c16.667 -7.33301 29 -11 37 -11c15.333 0 28.333 8 39 24c6 8 12 12 18 12c4.66699 -3.33301 7 -5.66602 7 -6.99902z" />
    <glyph glyph-name="quoteleft" unicode="&#x2018;" horiz-adv-x="164" 
d="M96 470l-34.999 -35c-2.66699 -3.33301 -8.33398 -6.83301 -17.001 -10.5s-15.667 -5.5 -21 -5.5c-10.667 0 -16 5 -16 15c0 5.33301 2.33301 13.333 7 24l12 24c6 13.333 11.833 22.5 17.5 27.5s13.5 7.5 23.5 7.5h12c24 0 36 -5.66699 36 -17
c0 -8 -6.33301 -18 -19 -30z" />
    <glyph glyph-name="quoteright" unicode="&#x2019;" horiz-adv-x="164" 
d="M96 470l-34.999 -35c-2.66699 -3.33301 -8.33398 -6.83301 -17.001 -10.5s-15.667 -5.5 -21 -5.5c-10.667 0 -16 5 -16 15c0 5.33301 2.33301 13.333 7 24l12 24c6 13.333 11.833 22.5 17.5 27.5s13.5 7.5 23.5 7.5h12c24 0 36 -5.66699 36 -17
c0 -8 -6.33301 -18 -19 -30z" />
    <glyph glyph-name="quotedblleft" unicode="&#x201c;" horiz-adv-x="346" 
d="M294 652l2.99902 -23l-1 -11l-43 -206c-3.33301 -11.333 -7.66602 -17 -12.999 -17c-4.66699 0 -8 5.33301 -10 16l-51 211l-1 9c0 11.333 3.66699 22.333 11 33c10.667 16.667 28 25 52 25c12.667 0 24 -3.16699 34 -9.5s16.333 -15.5 19 -27.5zM51.999 412l-49.999 211
l-2 9c0 11.333 3.66699 22.333 11 33c10.667 16.667 28 25 52 25c12 0 23.167 -3.16699 33.5 -9.5s17.166 -15.5 20.499 -27.5l2 -23l-1 -11l-43 -206c-3.33301 -12 -7.33301 -18 -12 -18c-5.33301 0 -9 5.66699 -11 17z" />
    <glyph glyph-name="quotedblright" unicode="&#x201d;" horiz-adv-x="346" 
d="M294 652l2.99902 -23l-1 -11l-43 -206c-3.33301 -11.333 -7.66602 -17 -12.999 -17c-4.66699 0 -8 5.33301 -10 16l-51 211l-1 9c0 11.333 3.66699 22.333 11 33c10.667 16.667 28 25 52 25c12.667 0 24 -3.16699 34 -9.5s16.333 -15.5 19 -27.5zM51.999 412l-49.999 211
l-2 9c0 11.333 3.66699 22.333 11 33c10.667 16.667 28 25 52 25c12 0 23.167 -3.16699 33.5 -9.5s17.166 -15.5 20.499 -27.5l2 -23l-1 -11l-43 -206c-3.33301 -12 -7.33301 -18 -12 -18c-5.33301 0 -9 5.66699 -11 17z" />
    <glyph glyph-name="guilsinglleft" unicode="&#x2039;" horiz-adv-x="477" 
d="M432 517v-94l-235 -106l235 -106v-94l-423 200z" />
    <glyph glyph-name="guilsinglright" unicode="&#x203a;" horiz-adv-x="477" 
d="M2 517l423 -200l-423 -200v94l235 106l-235 106v94z" />
    <glyph glyph-name="fraction" unicode="&#x2215;" horiz-adv-x="558" 
d="M392 693h130l-400 -881h-129z" />
    <glyph glyph-name=".null" horiz-adv-x="0" 
 />
    <glyph glyph-name="nonmarkingreturn" horiz-adv-x="252" 
 />
  </font>
</defs>
</svg>
