<?xml version="1.0" encoding="UTF-8" standalone="no"?>
<svg
   xmlns:dc="http://purl.org/dc/elements/1.1/"
   xmlns:cc="http://creativecommons.org/ns#"
   xmlns:rdf="http://www.w3.org/1999/02/22-rdf-syntax-ns#"
   xmlns:svg="http://www.w3.org/2000/svg"
   xmlns="http://www.w3.org/2000/svg"
   viewBox="0 0 203.37 161.00375"
   height="483"
   width="609"
   xml:space="preserve"
   version="1.1"
   id="svg2"><metadata
     id="metadata8"><rdf:RDF><cc:Work
         rdf:about=""><dc:format>image/svg+xml</dc:format><dc:type
           rdf:resource="http://purl.org/dc/dcmitype/StillImage" /></cc:Work></rdf:RDF></metadata><defs
     id="defs6"><clipPath
       id="clipPath16"
       clipPathUnits="userSpaceOnUse"><path
         id="path18"
         d="m 0,128.803 162.696,0 L 162.696,0 0,0 0,128.803 Z" /></clipPath><clipPath
       id="clipPath24"
       clipPathUnits="userSpaceOnUse"><path
         id="path26"
         d="m 0,92.6465 64.8418,0 L 64.8418,0 0,0 0,92.6465 Z" /></clipPath><clipPath
       id="clipPath108"
       clipPathUnits="userSpaceOnUse"><path
         id="path110"
         d="m 70.3735,126.884 90.4045,0 0,-123.72677 -90.4045,0 0,123.72677 z" /></clipPath></defs><g
     transform="matrix(1.25,0,0,-1.25,0,161.00375)"
     id="g10"><g
       id="g12"><g
         clip-path="url(#clipPath16)"
         id="g14"><g
           id="g20"><g
             id="g22" /><g
             id="g28"><g
               style="opacity:0.13999903"
               id="g30"
               clip-path="url(#clipPath24)"><g
                 id="g32"
                 transform="translate(64.6787,15.5273)"><path
                   id="path34"
                   style="fill:#11637c;fill-opacity:1;fill-rule:evenodd;stroke:none"
                   d="m 0,0 c 0.662,-2.354 -0.751,-4.814 -3.166,-5.5 l -34.919,-9.852 c -2.414,-0.679 -4.904,0.678 -5.57,3.035 l -20.861,73.909 c -0.663,2.356 0.755,4.816 3.163,5.495 l 34.922,9.856 c 2.411,0.681 4.904,-0.676 5.567,-3.028 L 0,0 Z" /></g></g></g></g><g
           transform="translate(65.8652,15.5273)"
           id="g36"><path
             id="path38"
             style="fill:#f2f2f2;fill-opacity:1;fill-rule:evenodd;stroke:none"
             d="m 0,0 c 0.662,-2.354 -0.751,-4.814 -3.166,-5.5 l -34.919,-9.852 c -2.414,-0.679 -4.904,0.678 -5.57,3.035 l -20.861,73.909 c -0.663,2.356 0.755,4.816 3.163,5.495 l 34.922,9.856 c 2.411,0.681 4.904,-0.676 5.567,-3.028 L 0,0 Z" /></g><g
           transform="translate(60.5483,23.2324)"
           id="g40"><path
             id="path42"
             style="fill:#00c8cc;fill-opacity:1;fill-rule:nonzero;stroke:none"
             d="M 0,0 -37.834,-10.675 -55.084,50.448 -17.252,61.122 0,0 Z" /></g><g
           transform="translate(60.5483,23.2324)"
           id="g44"><path
             id="path46"
             style="fill:#3adbdb;fill-opacity:1;fill-rule:nonzero;stroke:none"
             d="M 0,0 -55.084,50.448 -17.252,61.122 0,0 Z" /></g><g
           transform="translate(46.147,13.0352)"
           id="g48"><path
             id="path50"
             style="fill:#333333;fill-opacity:1;fill-rule:nonzero;stroke:none"
             d="m 0,0 c 0.438,-1.573 -0.501,-3.213 -2.112,-3.665 -1.604,-0.456 -3.268,0.451 -3.712,2.019 -0.442,1.569 0.501,3.209 2.112,3.666 C -2.11,2.473 -0.445,1.568 0,0" /></g><g
           transform="translate(16.5176,81.4189)"
           id="g52"><path
             id="path54"
             style="fill:#666666;fill-opacity:1;fill-rule:nonzero;stroke:none"
             d="M 0,0 C 0.11,-0.392 -0.127,-0.803 -0.527,-0.913 L -9.26,-3.376 c -0.402,-0.116 -0.818,0.11 -0.925,0.505 -0.109,0.391 0.124,0.803 0.529,0.915 l 8.729,2.464 C -0.528,0.621 -0.11,0.396 0,0" /></g><g
           transform="translate(19.6499,52.9873)"
           id="g56"><path
             id="path58"
             style="fill:#fcfcfc;fill-opacity:1;fill-rule:nonzero;stroke:none"
             d="M 0,0 -0.79,2.444 -4.507,1.241 -4.858,2.327 -0.055,3.882 1.086,0.352 0,0 Z" /></g><g
           transform="translate(34.1963,40.6016)"
           id="g60"><path
             id="path62"
             style="fill:#fcfcfc;fill-opacity:1;fill-rule:nonzero;stroke:none"
             d="m 0,0 -0.351,1.086 7.42,2.398 c 0.969,0.314 1.814,1.439 1.845,2.457 l 0.358,12.088 c 0.013,0.416 -0.116,0.747 -0.361,0.932 -0.246,0.184 -0.6,0.216 -0.997,0.088 l -12.741,-4.12 -0.351,1.086 12.741,4.12 c 0.75,0.24 1.49,0.146 2.033,-0.262 0.543,-0.407 0.841,-1.092 0.817,-1.878 L 10.054,5.908 C 10.009,4.402 8.852,2.86 7.419,2.398 L 0,0 Z" /></g><g
           transform="translate(24.6958,37.5273)"
           id="g64"><path
             id="path66"
             style="fill:#fcfcfc;fill-opacity:1;fill-rule:nonzero;stroke:none"
             d="M 0,0 -5.179,16.017 4.323,19.089 4.673,18.003 -3.743,15.282 0.734,1.437 10.112,4.471 10.464,3.385 0,0 Z" /></g><g
           transform="translate(21.5806,49.0146)"
           id="g68"><path
             id="path70"
             style="fill:#fcfcfc;fill-opacity:1;fill-rule:nonzero;stroke:none"
             d="M 0,0 -0.351,1.086 22.23,8.387 22.582,7.301 0,0 Z" /></g><g
           transform="translate(22.8242,45.1689)"
           id="g72"><path
             id="path74"
             style="fill:#fcfcfc;fill-opacity:1;fill-rule:nonzero;stroke:none"
             d="M 0,0 -0.352,1.086 20.859,7.945 21.21,6.859 0,0 Z" /></g><g
           transform="translate(24.0679,41.3232)"
           id="g76"><path
             id="path78"
             style="fill:#fcfcfc;fill-opacity:1;fill-rule:nonzero;stroke:none"
             d="M 0,0 -0.351,1.086 19.489,7.5 19.839,6.414 0,0 Z" /></g><g
           transform="translate(29.7329,39.7568)"
           id="g80"><path
             id="path82"
             style="fill:#fcfcfc;fill-opacity:1;fill-rule:nonzero;stroke:none"
             d="M 0,0 -4.827,14.93 -3.741,15.281 1.086,0.352 0,0 Z" /></g><g
           transform="translate(35.8101,41.7227)"
           id="g84"><path
             id="path86"
             style="fill:#fcfcfc;fill-opacity:1;fill-rule:nonzero;stroke:none"
             d="M 0,0 -4.827,14.929 -3.741,15.28 1.086,0.352 0,0 Z" /></g><g
           transform="translate(41.8872,43.6865)"
           id="g88"><path
             id="path90"
             style="fill:#fcfcfc;fill-opacity:1;fill-rule:nonzero;stroke:none"
             d="M 0,0 -4.828,14.93 -3.742,15.281 1.086,0.352 0,0 Z" /></g><g
           transform="translate(25.6392,33.4863)"
           id="g92"><path
             id="path94"
             style="fill:#fcfcfc;fill-opacity:1;fill-rule:nonzero;stroke:none"
             d="m 0,0 c -1.183,0 -2.267,0.715 -2.632,1.847 -0.475,1.469 -0.134,2.804 0.795,3.105 L -0.752,5.303 -0.4,4.217 -1.486,3.866 C -1.625,3.821 -1.863,3.178 -1.546,2.198 -1.28,1.375 -0.332,0.939 0.565,1.231 L 22.463,8.313 22.815,7.227 0.917,0.146 C 0.611,0.047 0.302,0 0,0" /></g><g
           transform="translate(29.918,32.4189)"
           id="g96"><path
             id="path98"
             style="fill:#fcfcfc;fill-opacity:1;fill-rule:nonzero;stroke:none"
             d="m 0,0 c -0.208,0 -0.416,-0.033 -0.617,-0.098 -1.051,-0.34 -1.631,-1.473 -1.29,-2.525 0.332,-1.03 1.483,-1.629 2.524,-1.291 0.51,0.164 0.925,0.518 1.17,0.995 0.244,0.477 0.287,1.021 0.123,1.529 C 1.641,-0.559 0.873,0 0,0 m 0,-5.153 c -1.369,0 -2.571,0.876 -2.993,2.178 -0.534,1.651 0.374,3.428 2.025,3.963 0.315,0.102 0.64,0.154 0.968,0.154 1.37,0 2.573,-0.876 2.996,-2.18 0.258,-0.8 0.19,-1.652 -0.193,-2.4 C 2.419,-4.187 1.768,-4.742 0.967,-5 0.654,-5.102 0.328,-5.153 0,-5.153" /></g><g
           transform="translate(43.291,36.7432)"
           id="g100"><path
             id="path102"
             style="fill:#fcfcfc;fill-opacity:1;fill-rule:nonzero;stroke:none"
             d="m 0,0 c -0.209,0 -0.417,-0.033 -0.618,-0.099 -0.511,-0.164 -0.926,-0.517 -1.17,-0.995 -0.244,-0.476 -0.287,-1.02 -0.123,-1.53 0.333,-1.03 1.487,-1.631 2.525,-1.291 0.511,0.165 0.926,0.518 1.17,0.995 0.243,0.477 0.287,1.021 0.122,1.529 C 1.637,-0.559 0.871,0 0,0 m -0.003,-5.155 c -1.37,0 -2.572,0.876 -2.994,2.179 -0.258,0.801 -0.19,1.654 0.193,2.403 0.383,0.748 1.034,1.302 1.834,1.56 0.315,0.103 0.641,0.155 0.97,0.155 1.368,0 2.57,-0.877 2.992,-2.181 0.258,-0.8 0.19,-1.652 -0.192,-2.4 C 2.417,-4.187 1.766,-4.742 0.966,-5.001 0.652,-5.103 0.325,-5.155 -0.003,-5.155" /></g><g
           id="g104"><g
             id="g106" /><g
             id="g112"><g
               style="opacity:0.14999402"
               id="g114"
               clip-path="url(#clipPath108)"><g
                 id="g116"
                 transform="translate(160.7778,8.5937)"><path
                   id="path118"
                   style="fill:#11637c;fill-opacity:1;fill-rule:evenodd;stroke:none"
                   d="m 0,0 c 0.011,-2.84 -2.283,-5.152 -5.122,-5.16 l -79.73,-0.277 c -2.843,-0.009 -5.154,2.289 -5.162,5.128 l -0.39,113.163 c -0.007,2.841 2.285,5.152 5.124,5.161 l 79.732,0.275 c 2.839,0.01 5.151,-2.283 5.162,-5.125 L 0,0 Z" /></g></g></g></g><g
           transform="translate(162.6963,10.5127)"
           id="g120"><path
             id="path122"
             style="fill:#f2f2f2;fill-opacity:1;fill-rule:evenodd;stroke:none"
             d="m 0,0 c 0.011,-2.84 -2.283,-5.152 -5.122,-5.16 l -79.73,-0.277 c -2.843,-0.009 -5.154,2.289 -5.162,5.128 l -0.39,113.163 c -0.007,2.841 2.285,5.152 5.124,5.161 l 79.732,0.275 c 2.839,0.01 5.151,-2.283 5.162,-5.125 L 0,0 Z" /></g><g
           transform="translate(157.5166,20.7842)"
           id="g124"><path
             id="path126"
             style="fill:#00c8cc;fill-opacity:1;fill-rule:nonzero;stroke:none"
             d="m 0,0 -81.013,-0.282 -0.349,101.593 81.015,0.278 L 0,0 Z" /></g><g
           transform="translate(157.5166,20.7842)"
           id="g128"><path
             id="path130"
             style="fill:#3adbdb;fill-opacity:1;fill-rule:nonzero;stroke:none"
             d="M 0,0 -81.362,101.311 -0.347,101.589 0,0 Z" /></g><g
           transform="translate(114.2505,13.6689)"
           id="g132"><path
             id="path134"
             style="fill:#333333;fill-opacity:1;fill-rule:nonzero;stroke:none"
             d="M 0,0 C -0.008,1.894 1.522,3.437 3.417,3.438 5.309,3.449 6.852,1.917 6.856,0.023 6.865,-1.869 5.334,-3.411 3.439,-3.418 1.547,-3.424 0.004,-1.893 0,0" /></g></g></g></g></svg>